<?xml version='1.0' encoding='UTF-8'?>
<svg xmlns="http://www.w3.org/2000/svg" width="1920" height="768" viewBox="0 0 507.99999 203.2" version="1.1" style="background-color:transparent;color-scheme:light dark" xml:space="preserve"><defs><style><![CDATA[.ddf {font-variation-settings:normal;opacity:1;vector-effect:none;fill-opacity:1;stroke-linecap:round;stroke-linejoin:round;stroke-miterlimit:4;stroke-dashoffset:0;stroke-opacity:1;stop-color:#000000;stop-opacity:1;display:inline;line-height:normal;font-family:Arial;text-align:start;text-decoration-color:#000000;writing-mode:lr-tb;direction:ltr;text-anchor:start;font-style:normal;font-variant:normal;font-weight:normal;font-stretch:normal;font-variant-ligatures:normal;font-variant-caps:normal;font-variant-numeric:normal;font-variant-east-asian:normal;inline-size:0;font-variant-position:normal;font-variant-alternates:normal;font-feature-settings:normal;text-indent:0;text-decoration-line:none;text-decoration-style:solid;letter-spacing:normal;word-spacing:normal;text-transform:none;text-orientation:mixed;dominant-baseline:auto;baseline-shift:baseline;} .dn {display:none}  .w00 {stroke-width:3} .w01 {stroke-width:1} .w02 {stroke-width:2} .a00 {fill-opacity:1} .s00 {font-size:19px} .s01 {font-size:14px} .e00 {stroke:#ff4500} .e01 {stroke:none} .e02 {stroke:#777777} .e03 {stroke:#00ff45} .f00 {fill:#bebebe} .f01 {fill:#00ff45} .f02 {fill:#ff4500} .f03 {fill:none} .f04 {fill:#777777} .d00 {stroke-dasharray:none} .d01 {stroke-dasharray:1,3}]]></style></defs><g><path d="m 125.34941,65.481032 80.8223,102.524588" class="ddf f03 e02 w01 d00"/><path d="m 124.74293,65.29714 0.70283,70.43147" class="ddf f03 e02 w01 d00"/><path d="m 341.5787,72.312965 0.70283,59.673875" class="ddf f03 e02 w01 d00"/><path d="M 21.568938,101.84943 212.41141,101.43644" class="ddf f03 e02 w01 d00"/><path d="m 49.120115,109.11255 c 0,0 1.989698,-3.95478 1.679521,-8.51807 -0.310184,-4.563284 -2.222828,-6.533128 -2.222828,-6.533128" class="ddf f03 e02 w00 d00"/><path d="M 21.613659,101.70021 118.78597,67.238701" class="ddf f03 e03 w00 d00"/><path d="M 21.613659,101.70021 198.38166,165.31647" class="ddf f03 e00 w00 d00"/><path d="m 201.33262,156.37853 5.88427,11.89271 -11.89422,5.88369 -2.94214,-5.94637 5.9471,-2.94184 -2.94212,-5.94636 z" class="ddf f02 e01 w00 d00"/><text xml:space="preserve" x="159.61899" y="173.56432" class="ddf s00 f02 e01 w00 d00"><tspan x="159.61899" y="173.56432" class="ddf f02 e01 w00 d00">u</tspan></text><text xml:space="preserve" x="16.099001" y="92.285942" class="ddf s01 f04 e01 w00 d00"><tspan x="16.099001" y="92.285942" class="ddf s01 f04 w00">a</tspan></text><text xml:space="preserve" x="130.02159" y="58.728886" class="ddf s01 f04 e01 w00 d00"><tspan x="130.02159" y="58.728886" class="ddf s01 f04 w00">c</tspan></text><text xml:space="preserve" x="124.30456" y="157.34648" transform="translate(96.724842,28.811655)" class="ddf s01 f04 e01 w00 d00"><tspan x="124.30456" y="157.34648" class="ddf s01 f04 w00">b</tspan></text><text xml:space="preserve" x="85.154671" y="64.210251" class="ddf s00 f01 e01 w00 d00"><tspan x="85.154671" y="64.210251" class="ddf s00 f01 e01 w00 d00">v</tspan></text><path d="m 116.08472,43.83165 c 8.98654,15.223066 14.48307,32.809231 15.33695,51.704469 1.07875,23.871481 -5.41078,46.330441 -17.34556,65.050561" class="ddf f03 e02 w01 d00"/><path d="m 47.239888,98.315093 6.828737,-1.590251" class="ddf f03 e02 w01 d00"/><path d="m 46.772168,105.33092 7.483546,1.87089" class="ddf f03 e02 w01 d00"/><path d="M 121.70834,85.749644 127.8599,81.51631" class="ddf f03 e02 w01 d00"/><path d="m 121.8776,88.234021 6.15156,-4.233334" class="ddf f03 e02 w01 d00"/><path d="m 121.94375,119.29792 6.15156,-4.23333" class="ddf f03 e02 w01 d00"/><path d="m 122.11301,121.7823 6.15156,-4.23333" class="ddf f03 e02 w01 d00"/><path d="m 259.54573,101.73299 159.22449,-0.18011" class="ddf f03 e02 w02 d00"/><path d="m 287.0969,109.11255 c 0,0 1.9897,-3.95478 1.67952,-8.51807 -0.31018,-4.563284 -2.22282,-6.533128 -2.22282,-6.533128" class="ddf f03 e02 w00 d00"/><path d="M 259.59045,101.70021 356.76276,67.238701" class="ddf f03 e03 w00 d00"/><path d="m 340.43126,130.48391 79.1145,-28.90526" class="ddf f03 e03 w01 d01"/><path d="m 259.59045,101.70021 176.768,63.61626" class="ddf f03 e00 w00 d00"/><path d="m 339.83594,73.135937 79.76312,28.435843" class="ddf f03 e00 w01 d01"/><path d="m 439.30941,156.37853 5.88427,11.89271 -11.89422,5.88369 -2.94214,-5.94637 5.9471,-2.94184 -2.94212,-5.94636 z" class="ddf f02 e01 w00 d00"/><path d="m 337.34492,120.06946 5.88427,11.89271 -11.89422,5.88369 -2.94214,-5.94637 5.9471,-2.94184 -2.94212,-5.94636 z" class="ddf f02 e01 w00 d00"/><path d="m 350.82493,59.201183 11.84401,6.58422 -6.58661,11.843767 -5.922,-3.292107 3.29329,-5.921885 -5.92199,-3.292102 z" class="ddf f01 e01 w00 d00"/><path d="m 410.86868,91.887077 9.38741,9.772873 -9.77509,9.38648 -4.6937,-4.88643 4.88754,-4.69325 -4.6937,-4.886425 z" class="ddf f04 e01 w00 d00"/><path d="m 329.91253,66.465612 12.03347,6.231221 -6.23361,12.033298 -6.01673,-3.115608 3.11679,-6.01665 -6.01672,-3.115603 z" class="ddf f01 e01 w00 d00"/><text xml:space="preserve" x="449.41934" y="174.87393" class="ddf s00 f02 e01 w00 d00"><tspan x="449.41934" y="174.87393" class="ddf f02 e01 w00 d00">u</tspan></text><text xml:space="preserve" x="425.14581" y="106.67861" class="ddf s00 f02 e01 w00 d00"><tspan x="425.14581" y="106.67861" class="ddf f02 e01 w00 d00">u</tspan></text><text xml:space="preserve" x="326.5885" y="157.61092" class="ddf s00 f02 e01 w00 d00"><tspan x="326.5885" y="157.61092" class="ddf f02 e01 w00 d00">u</tspan></text><text xml:space="preserve" x="307.03403" y="98.986343" class="ddf s01 f04 e01 w00 d00"><tspan x="307.03403" y="98.986343" class="ddf s01 f04 w00">a/2</tspan></text><text xml:space="preserve" x="437.35004" y="106.03696" class="ddf s01 f04 e01 w00 d00"><tspan x="437.35004" y="106.03696" class="ddf s01 f04 w00">+</tspan></text><text xml:space="preserve" x="306.89453" y="114.37134" class="ddf s01 f04 e01 w00 d00"><tspan x="306.89453" y="114.37134" class="ddf s01 f04 w00">a/2</tspan></text><text xml:space="preserve" x="368.59399" y="67.297211" class="ddf s00 f01 e01 w00 d00"><tspan x="368.59399" y="67.297211" class="ddf s00 f01 e01 w00 d00">v</tspan></text><text xml:space="preserve" x="329.16208" y="61.037998" class="ddf s00 f01 e01 w00 d00"><tspan x="329.16208" y="61.037998" class="ddf s00 f01 e01 w00 d00">v</tspan></text><path d="m 285.21668,98.315093 6.82873,-1.590251" class="ddf f03 e02 w01 d00"/><path d="m 284.74896,105.33092 7.48354,1.87089" class="ddf f03 e02 w01 d00"/><path d="m 338.54411,91.347395 6.15156,-4.233334" class="ddf f03 e02 w01 d00"/><path d="m 338.71337,93.831772 6.15156,-4.233334" class="ddf f03 e02 w01 d00"/><path d="m 338.77952,113.47708 6.15156,-4.23333" class="ddf f03 e02 w01 d00"/><path d="m 338.94878,115.96146 6.15156,-4.23333" class="ddf f03 e02 w01 d00"/><path d="m 328.3406,145.22426 3.73708,-2.86583 3.18521,2.86112" class="ddf f03 e00 w01 d00"/><path d="m 426.61146,94.201208 3.73708,-2.86583 3.18521,2.86112" class="ddf f03 e00 w01 d00"/><path d="m 330.45146,48.618703 3.73708,-2.86583 3.18521,2.86112" class="ddf f03 e03 w01 d00"/><text xml:space="preserve" x="447.69543" y="106.68664" class="ddf s00 f01 e01 w00 d00"><tspan x="447.69543" y="106.68664" class="ddf s00 f01 e01 w00 d00">v</tspan></text><path d="m 448.98479,94.267352 3.73708,-2.86583 3.18521,2.86112" class="ddf f03 e03 w01 d00"/><circle cx="-102.22703" cy="-20.61668" r="4.2948442" transform="rotate(-112.75965)" class="ddf f00 e02 w02 d00"/><circle cx="-108.42405" cy="89.805344" r="4.2948442" transform="rotate(-112.75965)" class="ddf f00 e02 w02 d00"/><circle cx="-238.86736" cy="130.45453" r="4.2948442" transform="rotate(-112.75965)" class="ddf f00 e02 w02 d00"/><circle cx="-142.67635" cy="75.572144" r="4.2948442" transform="rotate(-112.75965)" class="ddf f00 e02 w02 d00"/><circle cx="-176.70108" cy="61.077351" r="4.2948442" transform="rotate(-112.75965)" class="ddf f00 e02 w02 d00"/><path d="m 109.48055,60.043082 11.84401,6.58422 -6.58661,11.843767 -5.922,-3.292107 3.29329,-5.921885 -5.92199,-3.292102 z" class="ddf f01 e01 w00 d00"/></g></svg>