<?xml version='1.0' encoding='UTF-8'?>
<svg xmlns="http://www.w3.org/2000/svg" width="1920" height="768" viewBox="0 0 507.99999 203.2" version="1.1" style="background-color:transparent;color-scheme:light dark" xml:space="preserve"><defs><style><![CDATA[.ddf {font-variation-settings:normal;display:inline;fill-opacity:1;stroke-linecap:round;stroke-linejoin:round;stroke-miterlimit:4;stroke-dashoffset:0;stroke-opacity:1;stop-color:#000000;opacity:1;vector-effect:none;stop-opacity:1;line-height:normal;font-family:Arial;text-align:start;text-decoration-color:#000000;writing-mode:lr-tb;direction:ltr;text-anchor:start;font-style:normal;font-variant:normal;font-weight:normal;font-stretch:normal;font-variant-ligatures:normal;font-variant-caps:normal;font-variant-numeric:normal;font-variant-east-asian:normal;font-variant-position:normal;font-variant-alternates:normal;font-feature-settings:normal;text-indent:0;text-decoration-line:none;text-decoration-style:solid;letter-spacing:normal;word-spacing:normal;text-transform:none;text-orientation:mixed;dominant-baseline:auto;baseline-shift:baseline;white-space:normal;} .dn {display:none}  .w00 {stroke-width:3} .w01 {stroke-width:1} .w02 {stroke-width:2} .a00 {fill-opacity:1} .s00 {font-size:19px} .s01 {font-size:9px} .s02 {font-size:14px} .e00 {stroke:#0045ff} .e01 {stroke:#00ff45} .e02 {stroke:#ff4500} .e03 {stroke:none} .e04 {stroke:#777777} .f00 {fill:#bebebe} .f01 {fill:#0045ff} .f02 {fill:#00ff45} .f03 {fill:#ff4500} .f04 {fill:none} .f05 {fill:#777777} .d00 {stroke-dasharray:none} .d01 {stroke-dasharray:1,3}]]></style></defs><g><ellipse cx="327.77509" cy="106.4522" rx="24.809412" ry="24.809385" class="ddf f04 e04 w01 d01"/><path d="m 83.318543,86.823977 -4.452746,4.22966 -6.72986,0.6051" class="ddf f04 e04 w01 d00"/><path d="m 86.030523,113.80782 c 1.237447,3.91307 -0.0049,9.2993 -3.046668,12.1108" class="ddf f04 e04 w01 d00"/><path d="m 138.70044,141.7612 33.65024,-29.20046" class="ddf f04 e01 w01 d01"/><path d="m 74.988013,87.403287 96.531307,-7.81956" class="ddf f04 e04 w01"/><path d="M 329.06844,105.64862 383.26641,59.72906" class="ddf f04 e04 w01"/><path d="m 383.66206,106.09478 -0.0577,-45.919555" class="ddf f04 e01 w01 d01"/><path d="m 328.09414,59.209658 54.89982,-0.0577" class="ddf f04 e02 w01 d01"/><path d="m 52.672214,109.79735 6.614552,1.53793 -5.264723,4.53563" class="ddf f04 e04 w01 d00"/><path d="M 44.740258,114.76791 110.77144,55.624047" class="ddf f04 e01 w00 d00"/><path d="M 328.48094,192.76173 327.83712,17.730372" class="ddf f04 e01 w00 d00"/><path d="m 177.77322,145.14309 6.02985,10.6226 -10.62259,6.02986 -3.01494,-5.31131 5.3113,-3.01492 -3.01492,-5.3113 z" class="ddf f03 e03 w00 d00"/><path d="m 423.65976,98.253287 8.87814,8.389113 -8.38911,8.87815 -4.43908,-4.19457 4.19456,-4.43907 -4.43907,-4.19456 z" class="ddf f03 e03 w00 d00"/><path d="m 104.2611,49.798872 12.44699,0.828012 -0.82802,12.446972 -6.22349,-0.414004 0.414,-6.223487 -6.22348,-0.414001 z" class="ddf f02 e03 w00 d00"/><path d="m 319.03148,16.993214 8.76648,-8.8747934 8.87477,8.7664764 -4.38323,4.437394 -4.4374,-4.383231 -4.38323,4.437389 z" class="ddf f02 e03 w00 d00"/><path d="m 157.77532,75.026201 11.02867,5.829336 -5.82937,11.02865 -5.51432,-2.91468 2.91442,-5.51447 -5.51431,-2.91468 z" class="ddf f01 e03 w00 d00"/><text xml:space="preserve" x="188.31378" y="164.62761" class="ddf s00 f03 e03 w00 d00"><tspan x="188.31378" y="164.62761" class="ddf f03 e03 w00 d00">u</tspan></text><text xml:space="preserve" x="436.92337" y="113.90376" class="ddf s00 f03 e03 w00 d00"><tspan x="436.92337" y="113.90376" class="ddf f03 e03 w00 d00">X</tspan></text><text xml:space="preserve" x="143.25578" y="70.76944" class="ddf s00 f01 e03 w00 d00"><tspan x="143.25578" y="70.76944" class="ddf f01 e03 w00 d00">w</tspan></text><text xml:space="preserve" x="26.650068" y="123.10426" class="ddf s02 f05 e03 w00 d00"><tspan x="26.650068" y="123.10426" class="ddf s02 f05 w00">o</tspan></text><text xml:space="preserve" x="93.178329" y="125.28098" class="ddf s02 f05 e03 w00 d00"><tspan x="93.178329" y="125.28098" class="ddf s02 f05 w00">a</tspan></text><text xml:space="preserve" x="356.52509" y="99.455925" class="ddf s02 f05 e03 w00 d00"><tspan x="356.52509" y="99.455925" class="ddf s02 f05 w00">a</tspan></text><text xml:space="preserve" x="443.34534" y="37.754822" class="ddf s01 f05 e03 w00 d00"><tspan x="443.34534" y="37.754822" class="ddf s01 f05 w00">-1</tspan></text><text xml:space="preserve" x="401.13647" y="46.161621" class="ddf s02 f05 e03 w00 d00"><tspan x="401.13647" y="46.161621" class="ddf s02 f05 w00">a = tan ( y, x )</tspan></text><text xml:space="preserve" x="409.03961" y="66.878632" class="ddf s02 f05 e03 w00 d00"><tspan x="409.03961" y="66.878632" class="ddf s02 f05 w00">-π ≤ a ≤ π </tspan></text><text xml:space="preserve" x="287.29169" y="84.821388" class="ddf s02 f05 e03 w00 d00"><tspan x="287.29169" y="84.821388" class="ddf s02 f05 w00">+π</tspan></text><text xml:space="preserve" x="287.55627" y="132.4464" class="ddf s02 f05 e03 w00 d00"><tspan x="287.55627" y="132.4464" class="ddf s02 f05 w00">-π</tspan></text><text xml:space="preserve" x="182.91568" y="78.616913" class="ddf s02 f05 e03 w00 d00"><tspan x="182.91568" y="78.616913" class="ddf s02 f05 w00">p</tspan></text><text xml:space="preserve" x="117.82084" y="49.4776" class="ddf s00 f02 e03 w00 d00"><tspan x="117.82084" y="49.4776" class="ddf s00 f02 e03 w00 d00">v</tspan></text><text xml:space="preserve" x="340.53864" y="22.563818" class="ddf s00 f02 e03 w00 d00"><tspan x="340.53864" y="22.563818" class="ddf s00 f02 e03 w00 d00">Y</tspan></text><text xml:space="preserve" x="65.971939" y="156.77011" class="ddf s02 f03 e03 w00 d00"><tspan x="65.971939" y="156.77011" class="ddf s02 f03 w00">u · w</tspan></text><text xml:space="preserve" x="20.528896" y="86.275368" class="ddf s02 f02 e03 w00 d00"><tspan x="20.528896" y="86.275368" class="ddf s02 f02 w00">v · w</tspan></text><path d="M 44.740258,114.76791 175.342,153.51222" class="ddf f04 e02 w00 d00"/><path d="m 234.81844,106.63038 188.2809,0.11514" class="ddf f04 e02 w00 d00"/><path d="m 38.205942,109.08822 -4.105536,-4.33134 2.220061,2.33255 29.60584,-26.986783 2.04666,2.08544 -3.75326,-3.947283" class="ddf f04 e04 w01 d00"/><path d="m 39.303736,128.71911 1.934136,-5.6458 -1.037362,3.04849 93.76408,27.18942 -0.89881,2.78029 1.75718,-5.1556" class="ddf f04 e04 w01 d00"/><path d="M 172.73815,82.366137 V 112.04763" class="ddf f04 e04 w01 d01"/><path d="M 172.41668,112.33605 76.439327,87.558277" class="ddf f04 e02 w01 d01"/><path d="m 170.63478,81.435807 -31.7638,59.579323" class="ddf f04 e04 w01"/><path d="M 172.11289,112.69529 45.187103,114.22038" class="ddf f04 e04 w01"/><path d="M 44.668217,114.14978 170.64824,81.277247" class="ddf f04 e00 w00 d00"/><circle cx="-140.38052" cy="128.09749" r="4.2948442" transform="rotate(-112.75965)" class="ddf f00 e04 w02 d00"/><circle cx="-123.37391" cy="-3.4096806" r="4.2948442" transform="rotate(-112.75965)" class="ddf f00 e04 w02 d00"/><circle cx="-225.27791" cy="261.80212" r="4.2948442" transform="rotate(-112.75965)" class="ddf f00 e04 w02 d00"/><path d="m 172.30211,105.04737 -3.60695,2.36567 -0.11917,8.4925" class="ddf f04 e04 w01 d00"/><path d="m 172.36883,104.87813 -6.91424,0.44743 -0.18532,4.92063" class="ddf f04 e04 w01 d00"/><path d="m 141.02982,136.06848 -5.51108,-1.65732 -2.43038,4.64" class="ddf f04 e04 w01 d00"/><circle cx="327.24551" cy="105.13037" r="72.760414" class="ddf f04 e04 w02 d00"/><circle cx="-202.98232" cy="330.81577" r="4.2948442" transform="rotate(-112.75965)" class="ddf f00 e04 w02 d00"/><path d="m 308.50656,99.174007 -6.07115,6.146163 -6.14614,-6.071143 3.03557,-3.073083 3.07308,3.035573 3.03557,-3.073083 z" class="ddf f05 e03 w00 d00"/><path d="m 296.1377,113.47688 6.07115,-6.14616 6.14614,6.07114 -3.03557,3.07308 -3.07308,-3.03557 -3.03557,3.07308 z" class="ddf f05 e03 w00 d00"/></g></svg>