<?xml version='1.0' encoding='UTF-8'?>
<svg xmlns="http://www.w3.org/2000/svg" width="1920" height="768" viewBox="0 0 507.99999 203.2" version="1.1" style="background-color:transparent;color-scheme:light dark" xml:space="preserve"><defs><style><![CDATA[.ddf {font-variation-settings:normal;opacity:1;vector-effect:none;stroke-linecap:round;stroke-linejoin:round;stroke-miterlimit:4;stroke-dashoffset:0;stroke-opacity:1;stop-color:#000000;stop-opacity:1;display:inline;font-style:normal;font-variant:normal;font-weight:normal;font-stretch:normal;font-size:13.2449px;line-height:normal;font-family:Arial;font-variant-ligatures:normal;font-variant-caps:normal;font-variant-numeric:normal;font-variant-east-asian:normal;text-align:start;text-decoration-color:#000000;writing-mode:lr-tb;direction:ltr;text-anchor:start;font-variant-position:normal;font-variant-alternates:normal;text-indent:0;text-decoration-line:none;text-decoration-style:solid;letter-spacing:normal;word-spacing:normal;text-transform:none;text-orientation:mixed;dominant-baseline:auto;baseline-shift:baseline;white-space:normal;} .dn {display:none}  .w00 {stroke-width:3} .w01 {stroke-width:1} .w02 {stroke-width:2} .a00 {fill-opacity:0.4} .a01 {fill-opacity:0.2} .a02 {fill-opacity:1} .s00 {font-size:13px} .e00 {stroke:#ff45ff} .e01 {stroke:#b4b4b4} .e02 {stroke:#45ffff} .e03 {stroke:#00ff45} .e04 {stroke:#ff4500} .e05 {stroke:none} .e06 {stroke:#808080} .f00 {fill:#ff45ff} .f01 {fill:#1e2129} .f02 {fill:#45ffff} .f03 {fill:#00ff45} .f04 {fill:#ff4500} .f05 {fill:none} .d00 {stroke-dasharray:none} .d01 {stroke-dasharray:1,3}]]></style></defs><g><g><rect width="7.1875539" height="57.858543" x="91.438538" y="49.026756" class="ddf f00 a00 e00 w01 d00"/><rect width="7.1875539" height="56.735744" x="98.626091" y="50.149559" class="ddf f00 a00 e00 w01 d00"/><rect width="7.1875539" height="54.981369" x="105.81364" y="51.903927" class="ddf f00 a00 e00 w01 d00"/><rect width="7.1875558" height="51.402443" x="113.0012" y="55.482857" class="ddf f00 a00 e00 w01 d00"/><rect width="7.1875539" height="47.380249" x="120.18877" y="59.505058" class="ddf f00 a00 e00 w01 d00"/><rect width="7.1875539" height="42.185795" x="127.3763" y="64.61216" class="ddf f00 a00 e00 w01 d00"/><rect width="7.1875539" height="33.747765" x="134.56386" y="73.050179" class="ddf f00 a00 e00 w01 d00"/><rect width="7.1875539" height="21.180248" x="141.75143" y="85.617706" class="ddf f00 a00 e00 w01 d00"/><rect width="7.1875539" height="57.858543" x="-91.395493" y="49.026756" transform="scale(-1,1)" class="ddf f00 a00 e00 w01 d00"/><rect width="7.1875539" height="56.735744" x="-84.207939" y="50.149559" transform="scale(-1,1)" class="ddf f00 a00 e00 w01 d00"/><rect width="7.1875539" height="54.981369" x="-77.020393" y="51.903927" transform="scale(-1,1)" class="ddf f00 a00 e00 w01 d00"/><rect width="7.1875558" height="51.402443" x="-69.832832" y="55.482857" transform="scale(-1,1)" class="ddf f00 a00 e00 w01 d00"/><rect width="7.1875539" height="47.380249" x="-62.645267" y="59.505058" transform="scale(-1,1)" class="ddf f00 a00 e00 w01 d00"/><rect width="7.1875539" height="42.185795" x="-55.457737" y="64.61216" transform="scale(-1,1)" class="ddf f00 a00 e00 w01 d00"/><rect width="7.1875539" height="33.747765" x="-48.270172" y="73.050179" transform="scale(-1,1)" class="ddf f00 a00 e00 w01 d00"/><rect width="7.1875539" height="21.180248" x="-41.082596" y="85.617706" transform="scale(-1,1)" class="ddf f00 a00 e00 w01 d00"/></g><g transform="matrix(1,0,0,-1,0,215.55677)" class="ddf f02 a01 e02"><rect width="7.1875539" height="57.858543" x="91.438538" y="49.026756" class="ddf f02 a01 e02 w01 d00"/><rect width="7.1875539" height="56.735744" x="98.626091" y="50.149559" class="ddf f02 a01 e02 w01 d00"/><rect width="7.1875539" height="54.981369" x="105.81364" y="51.903927" class="ddf f02 a01 e02 w01 d00"/><rect width="7.1875558" height="51.402443" x="113.0012" y="55.482857" class="ddf f02 a01 e02 w01 d00"/><rect width="7.1875539" height="47.380249" x="120.18877" y="59.505058" class="ddf f02 a01 e02 w01 d00"/><rect width="7.1875539" height="42.185795" x="127.3763" y="64.61216" class="ddf f02 a01 e02 w01 d00"/><rect width="7.1875539" height="33.747765" x="134.56386" y="73.050179" class="ddf f02 a01 e02 w01 d00"/><rect width="7.1875539" height="21.180248" x="141.75143" y="85.617706" class="ddf f02 a01 e02 w01 d00"/><rect width="7.1875539" height="57.858543" x="-91.395493" y="49.026756" transform="scale(-1,1)" class="ddf f02 a01 e02 w01 d00"/><rect width="7.1875539" height="56.735744" x="-84.207939" y="50.149559" transform="scale(-1,1)" class="ddf f02 a01 e02 w01 d00"/><rect width="7.1875539" height="54.981369" x="-77.020393" y="51.903927" transform="scale(-1,1)" class="ddf f02 a01 e02 w01 d00"/><rect width="7.1875558" height="51.402443" x="-69.832832" y="55.482857" transform="scale(-1,1)" class="ddf f02 a01 e02 w01 d00"/><rect width="7.1875539" height="47.380249" x="-62.645267" y="59.505058" transform="scale(-1,1)" class="ddf f02 a01 e02 w01 d00"/><rect width="7.1875539" height="42.185795" x="-55.457737" y="64.61216" transform="scale(-1,1)" class="ddf f02 a01 e02 w01 d00"/><rect width="7.1875539" height="33.747765" x="-48.270172" y="73.050179" transform="scale(-1,1)" class="ddf f02 a01 e02 w01 d00"/><rect width="7.1875539" height="21.180248" x="-41.082596" y="85.617706" transform="scale(-1,1)" class="ddf f02 a01 e02 w01 d00"/></g><path d="m 35.853728,49.97353 -4.084744,-0.04937 -1.103754,116.04039 3.971687,-0.0291" class="ddf f05 a02 e04 w01 d01"/><path d="m 147.15572,49.97353 4.08475,-0.04937 1.10375,116.04039 -3.97169,-0.0291" class="ddf f05 a02 e04 w01 d01"/><path d="M 91.525037,187.93223 91.427982,18.813564" class="ddf f05 a02 e03 w00 d00"/><path d="m 173.25453,99.878701 7.31814,7.092429 -7.09241,7.31814 -3.65908,-3.54622 3.54621,-3.65906 -3.65907,-3.54621 z" class="ddf f04 a02 e05 w00 d00"/><path d="m 84.172691,18.561432 7.32628,-7.392423 7.39241,7.326287 -3.66312,3.696222 -3.69623,-3.663129 -3.66313,3.696229 z" class="ddf f03 a02 e05 w00 d00"/><text xml:space="preserve" x="185.01297" y="111.60786" class="ddf f04 a02 e05 w00 d00"><tspan x="185.01297" y="111.60786" class="ddf f04 a02 e05 w00 d00">X</tspan></text><text xml:space="preserve" x="104.27041" y="22.81724" class="ddf f03 a02 e05 w00 d00"><tspan x="104.27041" y="22.81724" class="ddf f03 a02 e05 w00 d00">Y</tspan></text><path d="M 9.7492776,108.53827 111.64907,107.73276 m -0.0751,-0.024 62.00315,-0.42996" class="ddf f05 a02 e04 w00 d00"/><circle cx="91.575218" cy="108.40862" r="3.7527339" class="ddf f01 a02 e06 w02 d00"/><path d="M 246.79235,73.371061 245.9641,140.12248" class="ddf f05 a02 e01 w01 d01"/><path d="M 258.38415,63.641134 257.2363,150.71934" class="ddf f05 a02 e01 w01 d01"/><path d="M 270.03536,55.697321 268.88752,159.68317" class="ddf f05 a02 e01 w01 d01"/><path d="M 281.54237,52.532911 280.39452,164.27644" class="ddf f05 a02 e01 w01 d01"/><path d="m 238.51911,49.97353 -4.08474,-0.04937 -1.10376,116.04039 3.97169,-0.0291" class="ddf f05 a02 e04 w01 d01"/><path d="m 349.8211,49.97353 4.08475,-0.04937 1.10375,116.04039 -3.97169,-0.0291" class="ddf f05 a02 e04 w01 d01"/><path d="m 341.0753,73.371061 0.82826,66.751419" class="ddf f05 a02 e01 w01 d01"/><path d="m 329.88048,63.641134 1.14784,87.078206" class="ddf f05 a02 e01 w01 d01"/><path d="m 318.22926,61.241146 0.49559,42.230054 m 0.14294,8.59796 0.50932,47.61401" class="ddf f05 a02 e03 w01 d01"/><path d="M 306.72226,52.532911 307.8701,164.27644" class="ddf f05 a02 e01 w01 d01"/><path d="m 352.22006,107.51493 c 0,21.5943 -11.54959,40.35125 -28.97889,50.4521 m -7.6956,3.82451 c -6.85256,2.82411 -13.8394,4.10898 -21.7111,4.10898 m 0,0 c -32.24547,0 -58.38559,-26.14012 -58.3856,-58.38559" class="ddf f05 e02 w00"/><path d="m 235.44887,107.51493 c 0,-32.245473 26.14012,-58.385591 58.3856,-58.385593 m 0,0 c 7.48141,0 13.89733,1.021178 20.47121,3.585236 m 8.26974,4.106998 c 18.23942,9.875269 29.64464,28.495563 29.64464,50.693359" class="ddf f05 e00 w00"/><path d="M 294.19042,187.93223 294.09337,18.813564" class="ddf f05 a02 e03 w00 d00"/><path d="m 375.91991,99.878701 7.31814,7.092429 -7.09241,7.31814 -3.65908,-3.54622 3.54621,-3.65906 -3.65907,-3.54621 z" class="ddf f04 a02 e05 w00 d00"/><path d="m 313.92103,63.409768 4.37137,-4.51049 4.51048,4.37136 -2.18568,2.25525 -2.25524,-2.18568 -2.18568,2.25524 z" class="ddf f03 a02 e05 w00 d00"/><path d="m 323.78112,151.52547 -4.3944,4.48805 -4.48804,-4.39439 2.19719,-2.24403 2.24402,2.19719 2.1972,-2.24402 z" class="ddf f03 a02 e05 w00 d00"/><path d="m 286.83808,18.561432 7.32628,-7.392423 7.39241,7.326287 -3.66312,3.696222 -3.69623,-3.663129 -3.66313,3.696229 z" class="ddf f03 a02 e05 w00 d00"/><text xml:space="preserve" x="387.67834" y="111.60786" class="ddf f04 a02 e05 w00 d00"><tspan x="387.67834" y="111.60786" class="ddf f04 a02 e05 w00 d00">X</tspan></text><text xml:space="preserve" x="306.93579" y="22.81724" class="ddf f03 a02 e05 w00 d00"><tspan x="306.93579" y="22.81724" class="ddf f03 a02 e05 w00 d00">Y</tspan></text><path d="m 212.41466,108.53827 101.89979,-0.80551 m 9.04763,-0.024 52.8804,-0.42996" class="ddf f05 a02 e04 w00 d00"/><circle cx="294.2406" cy="108.40862" r="3.7527339" class="ddf f01 a02 e06 w02 d00"/><circle cx="-214.44287" cy="-241.905" r="3.7527339" transform="rotate(141.29241)" class="ddf f05 a02 e00 w02 d00"/><circle cx="-181.32979" cy="-283.51877" r="3.7527339" transform="rotate(141.29241)" class="ddf f05 a02 e04 w02 d00"/><circle cx="-149.23671" cy="-324.94281" r="3.7527339" transform="rotate(141.29241)" class="ddf f05 a02 e02 w02 d00"/></g></svg>