<?xml version='1.0' encoding='UTF-8'?>
<svg xmlns="http://www.w3.org/2000/svg" width="1920" height="768" viewBox="0 0 507.99999 203.2" version="1.1" style="background-color:transparent;color-scheme:light dark" xml:space="preserve"><defs><style><![CDATA[.ddf {font-variation-settings:normal;display:inline;vector-effect:none;fill-opacity:1;stroke-linecap:round;stroke-linejoin:round;stroke-miterlimit:4;stroke-dasharray:none;stroke-dashoffset:0;stroke-opacity:1;stop-color:#000000;font-style:normal;font-variant:normal;font-weight:normal;font-stretch:normal;font-size:13.2449px;line-height:normal;font-family:Arial;font-variant-ligatures:normal;font-variant-caps:normal;font-variant-numeric:normal;font-variant-east-asian:normal;text-align:start;text-decoration-color:#000000;writing-mode:lr-tb;direction:ltr;text-anchor:start;stop-opacity:1;font-variant-position:normal;font-variant-alternates:normal;text-indent:0;text-decoration-line:none;text-decoration-style:solid;letter-spacing:normal;word-spacing:normal;text-transform:none;text-orientation:mixed;dominant-baseline:auto;baseline-shift:baseline;white-space:normal;opacity:1;} .dn {display:none}  .w00 {stroke-width:3} .w01 {stroke-width:1} .w02 {stroke-width:2} .a00 {fill-opacity:1} .s00 {font-size:13px} .e00 {stroke:#ff45ff} .e01 {stroke:#00ff45} .e02 {stroke:#ff4500} .e03 {stroke:none} .e04 {stroke:#808080} .f00 {fill:#ff45ff} .f01 {fill:#ff4500} .f02 {fill:none} .f03 {fill:#00ff45} .d00 {stroke-dasharray:none}]]></style></defs><g><path d="m 212.94928,108.53827 77.62983,-0.59536 m 8.39917,-0.10508 15.87079,-0.10507 m -0.0751,-0.024 62.00315,-0.42996" class="ddf f02 e02 w00"/><path d="m 294.72504,187.93223 -0.0435,-74.82313 m -0.008,-9.12792 -0.0141,-26.613281 m -0.002,-0.71018 -0.0299,-57.844155" class="ddf f02 e01 w00"/><circle cx="294.77521" cy="108.40862" r="3.7527339" class="ddf f02 e04 w02"/><path d="m 104.90886,96.369324 c 2.8879,3.112215 4.45695,7.307466 4.3291,11.637556" class="ddf f02 e00 w02"/><path d="m 9.7492776,108.53827 77.6298354,-0.59536 m 8.399167,-0.10508 15.87079,-0.10507 m -0.0751,-0.024 33.94661,-0.22508 m 9.12821,-0.0867 18.92833,-0.11819" class="ddf f02 e02 w00"/><path d="M 131.55488,70.500189 94.538833,105.48756" class="ddf f02 e00 w01"/><path d="m 173.25453,99.878701 7.31814,7.092429 -7.09241,7.31814 -3.65908,-3.54622 3.54621,-3.65906 -3.65907,-3.54621 z" class="ddf f01 e03 w00"/><path d="m 135.47379,81.241074 2.46751,-9.887828 9.88782,2.46749 -1.23376,4.943925 -4.9439,-1.233754 -1.23375,4.943912 z" class="ddf f00 e03 w00"/><path d="m 84.172691,18.561432 7.32628,-7.392423 7.39241,7.326287 -3.66312,3.696222 -3.69623,-3.663129 -3.66313,3.696229 z" class="ddf f03 e03 w00"/><text xml:space="preserve" x="185.01297" y="111.60786" class="ddf f01 e03 w00"><tspan x="185.01297" y="111.60786" class="ddf f01 e03 w00">X</tspan></text><text xml:space="preserve" x="111.59594" y="102.87687" class="ddf f00 e03 w00"><tspan x="111.59594" y="102.87687" class="ddf f00 e03 w00">a</tspan></text><text xml:space="preserve" x="140.94148" y="60.271713" class="ddf f00 e03 w00"><tspan x="140.94148" y="60.271713" class="ddf f00 e03 w00">p =</tspan></text><text xml:space="preserve" x="247.50269" y="89.044441" class="ddf f00 e03 w00"><tspan x="247.50269" y="89.044441" class="ddf f00 e03 w00">a</tspan></text><text xml:space="preserve" x="352.87238" y="39.037811" class="ddf f00 e03 w00"><tspan x="352.87238" y="39.037811" class="ddf f00 e03 w00">b</tspan></text><text xml:space="preserve" x="320.27011" y="74.963928" class="ddf f00 e03 w00"><tspan x="320.27011" y="74.963928" class="ddf f00 e03 w00">p = (1 - t )a + bt</tspan></text><text xml:space="preserve" x="167.60193" y="49.655048" class="ddf f00 e03 w00"><tspan x="167.60193" y="49.655048" class="ddf f00 e03 w00">cos( a )</tspan></text><text xml:space="preserve" x="171.13489" y="65.172768" class="ddf f00 e03 w00"><tspan x="171.13489" y="65.172768" class="ddf f00 e03 w00">sin( a )</tspan></text><text xml:space="preserve" x="104.27041" y="22.81724" class="ddf f03 e03 w00"><tspan x="104.27041" y="22.81724" class="ddf f03 e03 w00">Y</tspan></text><path d="m 375.91991,99.878701 7.31814,7.092429 -7.09241,7.31814 -3.65908,-3.54622 3.54621,-3.65906 -3.65907,-3.54621 z" class="ddf f01 e03 w00"/><path d="m 286.83808,18.561432 7.32628,-7.392423 7.39241,7.326287 -3.66312,3.696222 -3.69623,-3.663129 -3.66313,3.696229 z" class="ddf f03 e03 w00"/><text xml:space="preserve" x="387.67834" y="111.60786" class="ddf f01 e03 w00"><tspan x="387.67834" y="111.60786" class="ddf f01 e03 w00">X</tspan></text><text xml:space="preserve" x="306.93579" y="22.81724" class="ddf f03 e03 w00"><tspan x="306.93579" y="22.81724" class="ddf f03 e03 w00">Y</tspan></text><circle cx="-110.33664" cy="-102.61668" r="3.7527339" transform="rotate(163.89559)" class="ddf f02 e00 w02"/><circle cx="-287.08731" cy="-144.25417" r="3.7527339" transform="rotate(163.89559)" class="ddf f02 e00 w02"/><path d="M 37.639276,85.074624 C 50.032715,55.305963 84.211849,41.220564 113.98052,53.614003 m 0,0 c 6.90675,2.875454 12.43737,6.284131 17.52081,11.17789 m 6.05603,6.969981 c 7.19409,8.895196 11.44616,20.175026 12.38135,31.288936 m -0.0479,9.22601 c -0.54612,5.87953 -2.01199,11.8231 -4.4497,17.67842 m 0,0 c -8.2997,19.93561 -26.17132,32.81277 -46.144087,35.43887 l -8.57443,0.57297 c -7.411644,-0.0266 -14.355652,-1.52576 -21.622715,-4.55122 m 0,0 C 39.331249,149.02242 25.245848,114.84329 37.639276,85.074624" class="ddf f02 e00 w00"/><circle cx="-49.85524" cy="-177.84969" r="3.7527339" transform="rotate(141.29241)" class="ddf f02 e00 w02"/><path d="m 167.12425,38.109093 h -3.77121 v 31.45985 h 3.57272" class="ddf f02 e00 w02"/><path d="m 212.3788,38.109093 h 3.77121 v 31.45985 h -3.57272" class="ddf f02 e00 w02"/><path d="m 349.60733,50.019056 -29.60989,7.60479 m -8.53496,2.316155 -51.716,13.323152" class="ddf f02 e00 w00"/><circle cx="-326.50089" cy="-145.26962" r="3.7527339" transform="rotate(163.89559)" class="ddf f02 e00 w02"/><circle cx="-225.23692" cy="-142.58759" r="3.7527339" transform="rotate(163.89559)" class="ddf f02 e00 w02"/><path d="m 91.525037,187.93223 -0.04347,-74.82313 m -0.0075,-9.12792 -0.01415,-26.613281 m -0.0021,-0.71018 -0.02986,-57.844155" class="ddf f02 e01 w00"/><circle cx="91.575218" cy="108.40862" r="3.7527339" class="ddf f02 e04 w02"/></g></svg>