<?xml version='1.0' encoding='UTF-8'?>
<svg xmlns="http://www.w3.org/2000/svg" width="1920" height="768" viewBox="0 0 507.99999 203.2" version="1.1" style="background-color:transparent;color-scheme:light dark" xml:space="preserve"><defs><style><![CDATA[.ddf {font-variation-settings:normal;display:inline;vector-effect:none;fill-opacity:1;stroke-linecap:round;stroke-linejoin:round;stroke-miterlimit:4;stroke-dasharray:none;stroke-dashoffset:0;stroke-opacity:1;stop-color:#000000;font-style:normal;font-variant:normal;font-weight:normal;font-stretch:normal;font-size:13.2449px;line-height:normal;font-family:Arial;font-variant-ligatures:normal;font-variant-caps:normal;font-variant-numeric:normal;font-variant-east-asian:normal;text-align:start;text-decoration-color:#000000;writing-mode:lr-tb;direction:ltr;text-anchor:start;stop-opacity:1;font-variant-position:normal;font-variant-alternates:normal;text-indent:0;text-decoration-line:none;text-decoration-style:solid;letter-spacing:normal;word-spacing:normal;text-transform:none;text-orientation:mixed;dominant-baseline:auto;baseline-shift:baseline;white-space:normal;} .dn {display:none}  .w00 {stroke-width:3} .w01 {stroke-width:1} .w02 {stroke-width:2} .a00 {fill-opacity:1} .s00 {font-size:13px} .e00 {stroke:#ff45ff} .e01 {stroke:#0045ff} .e02 {stroke:#45ffff} .e03 {stroke:#00ff45} .e04 {stroke:#ff4500} .e05 {stroke:none} .e06 {stroke:#808080} .f00 {fill:#ff45ff} .f01 {fill:#1e2129} .f02 {fill:#0045ff} .f03 {fill:#45ffff} .f04 {fill:#00ff45} .f05 {fill:#ff4500} .f06 {fill:none} .d00 {stroke-dasharray:none}]]></style></defs><g><path d="M 114.25482,57.963828 91.493083,107.77458" class="ddf f06 e01 w01"/><path d="M 65.366754,82.694082 91.587163,108.22429" class="ddf f06 e02 w01"/><path d="m 92.542101,109.50363 59.623709,43.35466" class="ddf f06 e00 w01"/><path d="M 91.525037,187.93223 91.427982,18.813564" class="ddf f06 e03 w00"/><path d="m 173.25453,99.878701 7.31814,7.092429 -7.09241,7.31814 -3.65908,-3.54622 3.54621,-3.65906 -3.65907,-3.54621 z" class="ddf f05 e05 w00"/><path d="m 84.172691,18.561432 7.32628,-7.392423 7.39241,7.326287 -3.66312,3.696222 -3.69623,-3.663129 -3.66313,3.696229 z" class="ddf f04 e05 w00"/><text xml:space="preserve" x="185.01297" y="111.60786" class="ddf f05 e05 w00"><tspan x="185.01297" y="111.60786" class="ddf f05 e05 w00">X</tspan></text><text xml:space="preserve" x="110.0101" y="90.997849" class="ddf f02 e05 w00"><tspan x="110.0101" y="90.997849" class="ddf f02 e05 w00">d = r</tspan></text><text xml:space="preserve" x="45.434841" y="101.09469" class="ddf f03 e05 w00"><tspan x="45.434841" y="101.09469" class="ddf f03 e05 w00">d &lt; r</tspan></text><text xml:space="preserve" x="98.542419" y="146.43642" class="ddf f00 e05 w00"><tspan x="98.542419" y="146.43642" class="ddf f00 e05 w00">d &gt; r</tspan></text><text xml:space="preserve" x="104.27041" y="22.81724" class="ddf f04 e05 w00"><tspan x="104.27041" y="22.81724" class="ddf f04 e05 w00">Y</tspan></text><path d="M 9.7492776,108.53827 111.64907,107.73276 m -0.0751,-0.024 62.00315,-0.42996" class="ddf f06 e04 w00"/><circle cx="91.575218" cy="108.40862" r="3.7527339" class="ddf f01 e06 w02"/><path d="M 294.19042,187.93223 294.09337,18.813564" class="ddf f06 e03 w00"/><path d="m 375.91991,99.878701 7.31814,7.092429 -7.09241,7.31814 -3.65908,-3.54622 3.54621,-3.65906 -3.65907,-3.54621 z" class="ddf f05 e05 w00"/><path d="m 286.83808,18.561432 7.32628,-7.392423 7.39241,7.326287 -3.66312,3.696222 -3.69623,-3.663129 -3.66313,3.696229 z" class="ddf f04 e05 w00"/><text xml:space="preserve" x="387.67834" y="111.60786" class="ddf f05 e05 w00"><tspan x="387.67834" y="111.60786" class="ddf f05 e05 w00">X</tspan></text><text xml:space="preserve" x="306.93579" y="22.81724" class="ddf f04 e05 w00"><tspan x="306.93579" y="22.81724" class="ddf f04 e05 w00">Y</tspan></text><path d="m 212.41466,108.53827 101.89979,-0.80551 m -3.25843,-0.024 65.18646,-0.42996" class="ddf f06 e04 w00"/><circle cx="-56.411224" cy="-115.07199" r="3.7527339" transform="rotate(141.29241)" class="ddf f06 e01 w02"/><circle cx="-24.494541" cy="-218.26558" r="3.7527339" transform="rotate(141.29241)" class="ddf f06 e00 w02"/><circle cx="-81.580482" cy="-278.96277" r="3.7527339" transform="rotate(141.29241)" class="ddf f06 e00 w02"/><circle cx="-90.738533" cy="-247.64909" r="3.7527339" transform="rotate(141.29241)" class="ddf f06 e00 w02"/><circle cx="-148.54845" cy="-191.8456" r="3.7527339" transform="rotate(141.29241)" class="ddf f06 e00 w02"/><circle cx="-134.3239" cy="-182.04784" r="3.7527339" transform="rotate(141.29241)" class="ddf f06 e00 w02"/><circle cx="-165.00999" cy="-193.30011" r="3.7527339" transform="rotate(141.29241)" class="ddf f06 e00 w02"/><circle cx="-117.47171" cy="-199.90433" r="3.7527339" transform="rotate(141.29241)" class="ddf f06 e00 w02"/><circle cx="-178.9554" cy="-200.72623" r="3.7527339" transform="rotate(141.29241)" class="ddf f06 e00 w02"/><circle cx="-156.01503" cy="-172.16315" r="3.7527339" transform="rotate(141.29241)" class="ddf f06 e00 w02"/><circle cx="-191.94258" cy="-187.36353" r="3.7527339" transform="rotate(141.29241)" class="ddf f06 e00 w02"/><circle cx="-239.13585" cy="-231.28578" r="3.7527339" transform="rotate(141.29241)" class="ddf f06 e00 w02"/><circle cx="-235.04472" cy="-281.23944" r="3.7527339" transform="rotate(141.29241)" class="ddf f06 e00 w02"/><circle cx="-256.92313" cy="-257.74603" r="3.7527339" transform="rotate(141.29241)" class="ddf f06 e00 w02"/><circle cx="-232.91924" cy="-253.42865" r="3.7527339" transform="rotate(141.29241)" class="ddf f06 e00 w02"/><circle cx="-256.3418" cy="-284.06485" r="3.7527339" transform="rotate(141.29241)" class="ddf f06 e00 w02"/><circle cx="-198.51146" cy="-337.40552" r="3.7527339" transform="rotate(141.29241)" class="ddf f06 e00 w02"/><circle cx="-161.19612" cy="-340.39084" r="3.7527339" transform="rotate(141.29241)" class="ddf f06 e00 w02"/><circle cx="-128.06525" cy="-330.1156" r="3.7527339" transform="rotate(141.29241)" class="ddf f06 e00 w02"/><circle cx="-143.33675" cy="-350.83014" r="3.7527339" transform="rotate(141.29241)" class="ddf f06 e00 w02"/><circle cx="-179.36804" cy="-351.56265" r="3.7527339" transform="rotate(141.29241)" class="ddf f06 e00 w02"/><circle cx="-91.681816" cy="-305.70587" r="3.7527339" transform="rotate(141.29241)" class="ddf f06 e00 w02"/><circle cx="1.045784" cy="-101.53512" r="3.7527339" transform="rotate(141.29241)" class="ddf f06 e02 w02"/><circle cx="-144.10851" cy="-230.23515" r="3.7527339" transform="rotate(141.29241)" class="ddf f06 e02 w02"/><circle cx="-174.10007" cy="-227.39815" r="3.7527339" transform="rotate(141.29241)" class="ddf f06 e02 w02"/><circle cx="-157.13268" cy="-245.50406" r="3.7527339" transform="rotate(141.29241)" class="ddf f06 e02 w02"/><circle cx="-195.06621" cy="-257.93198" r="3.7527339" transform="rotate(141.29241)" class="ddf f06 e02 w02"/><circle cx="-204.32542" cy="-277.05017" r="3.7527339" transform="rotate(141.29241)" class="ddf f06 e02 w02"/><circle cx="-177.71344" cy="-304.12479" r="3.7527339" transform="rotate(141.29241)" class="ddf f06 e02 w02"/><circle cx="-153.16933" cy="-303.44318" r="3.7527339" transform="rotate(141.29241)" class="ddf f06 e02 w02"/><circle cx="-137.25703" cy="-270.94098" r="3.7527339" transform="rotate(141.29241)" class="ddf f06 e02 w02"/><circle cx="-116.0792" cy="-259.39636" r="3.7527339" transform="rotate(141.29241)" class="ddf f06 e02 w02"/><circle cx="-123.6375" cy="-288.25375" r="3.7527339" transform="rotate(141.29241)" class="ddf f06 e02 w02"/><path d="m 33.154613,107.51493 c 0,-32.245473 26.14012,-58.385591 58.3856,-58.385593 m 0,0 c 7.481407,0 13.897327,1.021178 20.471207,3.585236 m 8.26974,4.106998 c 18.23942,9.875269 29.64464,28.495563 29.64464,50.693359 m 0,0 c 0,21.5943 -11.54959,40.35125 -28.97889,50.4521 l -7.6956,3.82451 c -6.85256,2.82411 -13.8394,4.10898 -21.711097,4.10898 m 0,0 c -32.24547,0 -58.38559,-26.14012 -58.3856,-58.38559" class="ddf f06 e01 w00"/><circle cx="-214.12257" cy="-241.45691" r="3.7527339" transform="rotate(141.29241)" class="ddf f06 e01 w02"/><circle cx="-155.39656" cy="-209.27451" r="3.7527339" transform="rotate(141.29241)" class="ddf f06 e01 w02"/><circle cx="-105.04959" cy="-252.61183" r="3.7527339" transform="rotate(141.29241)" class="ddf f06 e01 w02"/><circle cx="-163.16464" cy="-325.9147" r="3.7527339" transform="rotate(141.29241)" class="ddf f06 e01 w02"/><circle cx="-200.84763" cy="-310.79675" r="3.7527339" transform="rotate(141.29241)" class="ddf f06 e01 w02"/><path d="m 235.2586,107.51493 c 0,-14.852924 4.91461,-27.743805 14.04896,-38.047963 m 6.0697,-6.183759 c 10.31377,-9.175906 23.37621,-14.15387 38.26694,-14.153871 m 0,0 c 7.4814,0 13.89732,1.021178 20.4712,3.585236 m 8.26974,4.106998 c 18.23942,9.875269 29.64464,28.495563 29.64464,50.693359 m 0,0 c 0,1.96646 -0.0151,3.30979 -0.19148,5.21751 m -1.14741,8.60967 c -2.47069,11.21796 -8.17162,20.46242 -16.29299,28.17246 m -6.35371,5.57204 c -1.67927,1.23136 -3.18043,1.8298 -4.9933,2.88042 l -7.6956,3.82451 c -6.85256,2.82411 -13.8394,4.10898 -21.71109,4.10898 m 0,0 c -23.06361,0 -42.01139,-11.23916 -51.49726,-30.65396 m -3.55323,-7.79851 c -2.5068,-6.50979 -3.33511,-12.53996 -3.33511,-19.93312" class="ddf f06 e01 w00"/><circle cx="294.23816" cy="107.96408" r="3.7527339" class="ddf f01 e06 w02"/></g></svg>