<?xml version='1.0' encoding='UTF-8'?>
<svg xmlns="http://www.w3.org/2000/svg" width="1920" height="768" viewBox="0 0 507.99999 203.2" version="1.1" style="background-color:transparent;color-scheme:light dark" xml:space="preserve"><defs><style><![CDATA[.ddf {font-variation-settings:normal;display:inline;vector-effect:none;fill-opacity:1;stroke-linecap:round;stroke-linejoin:round;stroke-miterlimit:4;stroke-dasharray:none;stroke-dashoffset:0;stroke-opacity:1;stop-color:#000000;opacity:1;font-style:normal;font-variant:normal;font-weight:normal;font-stretch:normal;font-size:13.2449px;line-height:normal;font-family:Arial;font-variant-ligatures:normal;font-variant-caps:normal;font-variant-numeric:normal;font-variant-east-asian:normal;text-align:start;text-decoration-color:#000000;writing-mode:lr-tb;direction:ltr;text-anchor:start;stop-opacity:1;font-variant-position:normal;font-variant-alternates:normal;text-indent:0;text-decoration-line:none;text-decoration-style:solid;letter-spacing:normal;word-spacing:normal;text-transform:none;text-orientation:mixed;dominant-baseline:auto;baseline-shift:baseline;white-space:normal;} .dn {display:none}  .w00 {stroke-width:3} .w01 {stroke-width:1} .w02 {stroke-width:2} .a00 {fill-opacity:1} .s00 {font-size:13px} .e00 {stroke:#ff45ff} .e01 {stroke:#00ff45} .e02 {stroke:#ff4500} .e03 {stroke:none} .e04 {stroke:#808080} .f00 {fill:#ff45ff} .f01 {fill:#1e2129} .f02 {fill:#00ff45} .f03 {fill:#ff4500} .f04 {fill:none} .d00 {stroke-dasharray:none}]]></style></defs><g><path d="M 131.55488,70.500189 94.175031,105.75214" class="ddf f04 e00 w01"/><path d="m 104.90886,96.369324 c 2.8879,3.112215 4.45695,7.307466 4.3291,11.637556" class="ddf f04 e00 w02"/><path d="m 294.19587,187.93223 -0.0435,-74.82313 m -0.007,-9.12792 -0.0142,-26.613281 m -0.002,-0.71018 -0.0299,-57.844155" class="ddf f04 e01 w00"/><path d="m 212.42011,108.53827 77.62984,-0.59536 m 8.39916,-0.10508 15.87079,-0.10507 m -0.0751,-0.024 62.00315,-0.42996" class="ddf f04 e02 w00"/><circle cx="294.24606" cy="108.40862" r="3.7527339" class="ddf f04 e04 w02"/><path d="m 91.525037,187.93223 -0.04347,-74.82313 m -0.0075,-9.12792 -0.01415,-26.613281 m -0.0021,-0.71018 -0.02986,-57.844155" class="ddf f04 e01 w00"/><path d="m 9.7492776,108.53827 77.6298354,-0.59536 m 8.399167,-0.10508 15.87079,-0.10507 m -0.0751,-0.024 33.93456,-0.22689 m 8.93388,-0.083 19.13471,-0.12004" class="ddf f04 e02 w00"/><circle cx="91.575218" cy="108.40862" r="3.7527339" class="ddf f04 e04 w02"/><path d="m 173.25453,99.878701 7.31814,7.092429 -7.09241,7.31814 -3.65908,-3.54622 3.54621,-3.65906 -3.65907,-3.54621 z" class="ddf f03 e03 w00"/><path d="m 135.47379,81.241074 2.46751,-9.887828 9.88782,2.46749 -1.23376,4.943925 -4.9439,-1.233754 -1.23375,4.943912 z" class="ddf f00 e03 w00"/><path d="m 84.172691,18.561432 7.32628,-7.392423 7.39241,7.326287 -3.66312,3.696222 -3.69623,-3.663129 -3.66313,3.696229 z" class="ddf f02 e03 w00"/><text xml:space="preserve" x="185.01297" y="111.60786" class="ddf f03 e03 w00"><tspan x="185.01297" y="111.60786" class="ddf f03 e03 w00">X</tspan></text><text xml:space="preserve" x="111.59594" y="102.87687" class="ddf f00 e03 w00"><tspan x="111.59594" y="102.87687" class="ddf f00 e03 w00">a</tspan></text><text xml:space="preserve" x="104.27041" y="22.81724" class="ddf f02 e03 w00"><tspan x="104.27041" y="22.81724" class="ddf f02 e03 w00">Y</tspan></text><path d="m 375.91991,99.878701 7.31814,7.092429 -7.09241,7.31814 -3.65908,-3.54622 3.54621,-3.65906 -3.65907,-3.54621 z" class="ddf f03 e03 w00"/><path d="m 286.83808,18.561432 7.32628,-7.392423 7.39241,7.326287 -3.66312,3.696222 -3.69623,-3.663129 -3.66313,3.696229 z" class="ddf f02 e03 w00"/><text xml:space="preserve" x="387.67834" y="111.60786" class="ddf f03 e03 w00"><tspan x="387.67834" y="111.60786" class="ddf f03 e03 w00">X</tspan></text><text xml:space="preserve" x="306.93579" y="22.81724" class="ddf f02 e03 w00"><tspan x="306.93579" y="22.81724" class="ddf f02 e03 w00">Y</tspan></text><circle cx="-110.33664" cy="-102.61668" r="3.7527339" transform="rotate(163.89559)" class="ddf f04 e00 w02"/><path d="M 37.639276,85.074624 C 50.032715,55.305963 84.211849,41.220564 113.98052,53.614003 m 0,0 c 6.90675,2.875454 12.43737,6.284131 17.52081,11.17789 m 6.05603,6.969981 c 7.10173,8.780987 11.52357,20.392803 12.53077,31.349606 m 0.15008,8.97555 c -0.62379,5.49822 -2.52047,12.39989 -4.79707,17.86821 m 0,0 c -8.2997,19.93561 -26.17132,32.81277 -46.144087,35.43887 l -8.57443,0.57297 c -7.411644,-0.0266 -14.355652,-1.52576 -21.622715,-4.55122 m 0,0 C 39.331249,149.02242 25.245848,114.84329 37.639276,85.074624" class="ddf f04 e00 w00"/><path d="m 240.4908,85.074624 c 12.39344,-29.768661 46.57257,-43.85406 76.34125,-31.460621 m 0,0 c 6.90675,2.875454 12.43737,6.284131 17.52081,11.17789 m 6.05603,6.969981 c 13.0429,16.126998 16.41542,37.700606 7.88378,58.193366 m 0,0 c -8.2997,19.93561 -26.17132,32.81277 -46.14409,35.43887 l -8.57443,0.57297 c -7.41165,-0.0266 -14.35565,-1.52576 -21.62272,-4.55122 m 0,0 C 242.18277,149.02242 228.09737,114.84329 240.4908,85.074624" class="ddf f04 e00 w00"/><circle cx="-49.85524" cy="-177.84969" r="3.7527339" transform="rotate(141.29241)" class="ddf f04 e00 w02"/><circle cx="-236.64503" cy="-240.85808" r="3.7527339" transform="rotate(163.89559)" class="ddf f01 e00 w02"/><circle cx="-300.26624" cy="-220.10695" r="3.7527339" transform="rotate(163.89559)" class="ddf f01 e00 w02"/><circle cx="-260.73715" cy="-242.91252" r="3.7527339" transform="rotate(163.89559)" class="ddf f01 e00 w02"/><circle cx="-215.75211" cy="-230.1311" r="3.7527339" transform="rotate(163.89559)" class="ddf f01 e00 w02"/><circle cx="-194.71368" cy="-192.59402" r="3.7527339" transform="rotate(163.89559)" class="ddf f01 e00 w02"/><circle cx="-309.77707" cy="-200.75404" r="3.7527339" transform="rotate(163.89559)" class="ddf f01 e00 w02"/><circle cx="-290.57971" cy="-140.15749" r="3.7527339" transform="rotate(163.89559)" class="ddf f01 e00 w02"/><circle cx="-311.38333" cy="-179.96054" r="3.7527339" transform="rotate(163.89559)" class="ddf f01 e00 w02"/><circle cx="-247.10982" cy="-127.28385" r="3.7527339" transform="rotate(163.89559)" class="ddf f01 e00 w02"/><circle cx="-207.02007" cy="-149.01465" r="3.7527339" transform="rotate(163.89559)" class="ddf f01 e00 w02"/><circle cx="-269.01132" cy="-128.82401" r="3.7527339" transform="rotate(163.89559)" class="ddf f01 e00 w02"/><circle cx="-305.22781" cy="-158.88538" r="3.7527339" transform="rotate(163.89559)" class="ddf f01 e00 w02"/><circle cx="-196.49985" cy="-169.5955" r="3.7527339" transform="rotate(163.89559)" class="ddf f01 e00 w02"/><circle cx="-202.26741" cy="-214.12085" r="3.7527339" transform="rotate(163.89559)" class="ddf f01 e00 w02"/><circle cx="-224.05385" cy="-134.05646" r="3.7527339" transform="rotate(163.89559)" class="ddf f01 e00 w02"/><circle cx="-284.11871" cy="-234.40445" r="3.7527339" transform="rotate(163.89559)" class="ddf f01 e00 w02"/></g></svg>