<?xml version='1.0' encoding='UTF-8'?>
<svg xmlns="http://www.w3.org/2000/svg" width="1920" height="768" viewBox="0 0 507.99999 203.2" version="1.1" style="background-color:transparent;color-scheme:light dark" xml:space="preserve"><defs><style><![CDATA[.ddf {display:inline;stroke-linecap:round;stroke-dasharray:none;stroke-dashoffset:0;stroke-opacity:1;font-variation-settings:normal;vector-effect:none;fill-opacity:1;stroke-linejoin:round;stroke-miterlimit:4;stop-color:#000000;font-style:normal;font-variant:normal;font-weight:normal;font-stretch:normal;font-size:13.2449px;line-height:normal;font-family:Arial;font-variant-ligatures:normal;font-variant-caps:normal;font-variant-numeric:normal;font-variant-east-asian:normal;text-align:start;text-decoration-color:#000000;writing-mode:lr-tb;direction:ltr;text-anchor:start;stop-opacity:1;font-variant-position:normal;font-variant-alternates:normal;text-indent:0;text-decoration-line:none;text-decoration-style:solid;letter-spacing:normal;word-spacing:normal;text-transform:none;text-orientation:mixed;dominant-baseline:auto;baseline-shift:baseline;white-space:normal;} .dn {display:none}  .w00 {stroke-width:3} .w01 {stroke-width:2} .a00 {fill-opacity:1} .s00 {font-size:13px} .e00 {stroke:#ffc045} .e01 {stroke:#45ffff} .e02 {stroke:#00ff45} .e03 {stroke:#ff4500} .e04 {stroke:none} .e05 {stroke:#808080} .f00 {fill:#ff4500} .f01 {fill:none} .f02 {fill:#00ff45} .d00 {stroke-dasharray:none}]]></style></defs><g><path d="m 320.12451,157.45194 c -29.12482,13.8389 -63.9538,1.44721 -77.79271,-27.67763 m 0,0 c -3.21082,-6.75737 -5.04201,-12.99063 -5.54743,-20.02873 m -0.0381,-2.5513 c 0.0212,-0.40191 0.24489,-7.483638 0.27421,-7.883679 1.48171,-20.21611 13.32842,-37.987135 32.9889,-47.328988 m 0,0 c 19.50445,-9.267693 41.40291,-6.885834 58.00642,4.521682 l 6.75713,5.309456 c 5.49173,4.977375 9.65083,10.736583 13.02916,17.846478 m 0,0 c 13.8389,29.124821 1.44721,63.953801 -27.67761,77.792711" class="ddf f01 e00 w01"/><path d="m 212.94928,108.53827 77.62983,-0.59536 m 8.39917,-0.10508 15.87079,-0.10507 m -0.0751,-0.024 62.00315,-0.42996" class="ddf f01 e03 w00"/><path d="m 91.525037,187.93223 -0.04347,-74.82313 m -0.0075,-9.12792 -0.01415,-26.613281 m -0.0021,-0.71018 -0.02986,-57.844155" class="ddf f01 e02 w00"/><path d="m 173.25453,99.878701 7.31814,7.092429 -7.09241,7.31814 -3.65908,-3.54622 3.54621,-3.65906 -3.65907,-3.54621 z" class="ddf f00 e04 w00"/><path d="m 84.172691,18.561432 7.32628,-7.392423 7.39241,7.326287 -3.66312,3.696222 -3.69623,-3.663129 -3.66313,3.696229 z" class="ddf f02 e04 w00"/><text xml:space="preserve" x="185.01297" y="111.60786" class="ddf f00 e04 w00"><tspan x="185.01297" y="111.60786" class="ddf f00 e04 w00">X</tspan></text><text xml:space="preserve" x="104.27041" y="22.81724" class="ddf f02 e04 w00"><tspan x="104.27041" y="22.81724" class="ddf f02 e04 w00">Y</tspan></text><path d="m 9.7492776,108.53827 77.6298354,-0.59536 m 8.399167,-0.10508 15.87079,-0.10507 m -0.0751,-0.024 62.00315,-0.42996" class="ddf f01 e03 w00"/><circle cx="91.575218" cy="108.40862" r="3.7527339" class="ddf f01 e05 w01"/><path d="m 375.91991,99.878701 7.31814,7.092429 -7.09241,7.31814 -3.65908,-3.54622 3.54621,-3.65906 -3.65907,-3.54621 z" class="ddf f00 e04 w00"/><path d="m 286.83808,18.561432 7.32628,-7.392423 7.39241,7.326287 -3.66312,3.696222 -3.69623,-3.663129 -3.66313,3.696229 z" class="ddf f02 e04 w00"/><text xml:space="preserve" x="387.67834" y="111.60786" class="ddf f00 e04 w00"><tspan x="387.67834" y="111.60786" class="ddf f00 e04 w00">X</tspan></text><text xml:space="preserve" x="306.93579" y="22.81724" class="ddf f02 e04 w00"><tspan x="306.93579" y="22.81724" class="ddf f02 e04 w00">Y</tspan></text><circle cx="53.722408" cy="119.64078" r="3.7527339" transform="matrix(-0.01827799,0.99983294,0.99983294,0.01827799,0,0)" class="ddf f01 e01 w01"/><circle cx="55.487118" cy="134.37688" r="3.7527339" transform="matrix(-0.01827799,0.99983294,0.99983294,0.01827799,0,0)" class="ddf f01 e01 w01"/><circle cx="79.684471" cy="142.49344" r="3.7527339" transform="matrix(-0.01827799,0.99983294,0.99983294,0.01827799,0,0)" class="ddf f01 e01 w01"/><circle cx="48.495419" cy="68.092186" r="3.7527339" transform="matrix(-0.01827799,0.99983294,0.99983294,0.01827799,0,0)" class="ddf f01 e01 w01"/><circle cx="63.065857" cy="52.745522" r="3.7527339" transform="matrix(-0.01827799,0.99983294,0.99983294,0.01827799,0,0)" class="ddf f01 e01 w01"/><circle cx="81.364029" cy="36.143867" r="3.7527339" transform="matrix(-0.01827799,0.99983294,0.99983294,0.01827799,0,0)" class="ddf f01 e01 w01"/><circle cx="92.671509" cy="40.055367" r="3.7527339" transform="matrix(-0.01827799,0.99983294,0.99983294,0.01827799,0,0)" class="ddf f01 e01 w01"/><circle cx="44.174301" cy="87.331001" r="3.7527339" transform="matrix(-0.01827799,0.99983294,0.99983294,0.01827799,0,0)" class="ddf f01 e01 w01"/><circle cx="121.33846" cy="35.286877" r="3.7527339" transform="matrix(-0.01827799,0.99983294,0.99983294,0.01827799,0,0)" class="ddf f01 e01 w01"/><circle cx="138.36145" cy="40.470982" r="3.7527339" transform="matrix(-0.01827799,0.99983294,0.99983294,0.01827799,0,0)" class="ddf f01 e01 w01"/><circle cx="41.47427" cy="104.74706" r="3.7527339" transform="matrix(-0.01827799,0.99983294,0.99983294,0.01827799,0,0)" class="ddf f01 e01 w01"/><circle cx="147.70871" cy="54.822136" r="3.7527339" transform="matrix(-0.01827799,0.99983294,0.99983294,0.01827799,0,0)" class="ddf f01 e01 w01"/><circle cx="161.54068" cy="65.39547" r="3.7527339" transform="matrix(-0.01827799,0.99983294,0.99983294,0.01827799,0,0)" class="ddf f01 e01 w01"/><circle cx="160.63922" cy="85.755318" r="3.7527339" transform="matrix(-0.01827799,0.99983294,0.99983294,0.01827799,0,0)" class="ddf f01 e01 w01"/><circle cx="161.80089" cy="109.06377" r="3.7527339" transform="matrix(-0.01827799,0.99983294,0.99983294,0.01827799,0,0)" class="ddf f01 e01 w01"/><circle cx="156.19092" cy="126.42664" r="3.7527339" transform="matrix(-0.01827799,0.99983294,0.99983294,0.01827799,0,0)" class="ddf f01 e01 w01"/><circle cx="146.5887" cy="145.03966" r="3.7527339" transform="matrix(-0.01827799,0.99983294,0.99983294,0.01827799,0,0)" class="ddf f01 e01 w01"/><circle cx="135.60863" cy="137.69398" r="3.7527339" transform="matrix(-0.01827799,0.99983294,0.99983294,0.01827799,0,0)" class="ddf f01 e01 w01"/><circle cx="116.88293" cy="148.73064" r="3.7527339" transform="matrix(-0.01827799,0.99983294,0.99983294,0.01827799,0,0)" class="ddf f01 e01 w01"/><circle cx="94.584267" cy="152.55704" r="3.7527339" transform="matrix(-0.01827799,0.99983294,0.99983294,0.01827799,0,0)" class="ddf f01 e01 w01"/><path d="m 294.72504,187.93223 -0.0435,-74.82313 m -0.008,-9.12792 -0.0141,-26.613281 m -0.002,-0.71018 -0.0299,-57.844155" class="ddf f01 e02 w00"/><circle cx="294.77521" cy="108.40862" r="3.7527339" class="ddf f01 e05 w01"/><circle cx="50.00832" cy="322.80682" r="3.7527339" transform="matrix(-0.01827799,0.99983294,0.99983294,0.01827799,0,0)" class="ddf f01 e01 w01"/><circle cx="51.773029" cy="337.54294" r="3.7527339" transform="matrix(-0.01827799,0.99983294,0.99983294,0.01827799,0,0)" class="ddf f01 e01 w01"/><circle cx="75.970383" cy="345.65948" r="3.7527339" transform="matrix(-0.01827799,0.99983294,0.99983294,0.01827799,0,0)" class="ddf f01 e01 w01"/><circle cx="44.78133" cy="271.25824" r="3.7527339" transform="matrix(-0.01827799,0.99983294,0.99983294,0.01827799,0,0)" class="ddf f01 e01 w01"/><circle cx="59.351768" cy="255.91158" r="3.7527339" transform="matrix(-0.01827799,0.99983294,0.99983294,0.01827799,0,0)" class="ddf f01 e01 w01"/><circle cx="77.64994" cy="239.30992" r="3.7527339" transform="matrix(-0.01827799,0.99983294,0.99983294,0.01827799,0,0)" class="ddf f01 e01 w01"/><circle cx="88.95742" cy="243.22142" r="3.7527339" transform="matrix(-0.01827799,0.99983294,0.99983294,0.01827799,0,0)" class="ddf f01 e01 w01"/><circle cx="40.460213" cy="290.49707" r="3.7527339" transform="matrix(-0.01827799,0.99983294,0.99983294,0.01827799,0,0)" class="ddf f01 e01 w01"/><circle cx="117.62437" cy="238.45293" r="3.7527339" transform="matrix(-0.01827799,0.99983294,0.99983294,0.01827799,0,0)" class="ddf f01 e01 w01"/><circle cx="134.64737" cy="243.63704" r="3.7527339" transform="matrix(-0.01827799,0.99983294,0.99983294,0.01827799,0,0)" class="ddf f01 e01 w01"/><circle cx="37.760181" cy="307.91312" r="3.7527339" transform="matrix(-0.01827799,0.99983294,0.99983294,0.01827799,0,0)" class="ddf f01 e01 w01"/><circle cx="143.99463" cy="257.98819" r="3.7527339" transform="matrix(-0.01827799,0.99983294,0.99983294,0.01827799,0,0)" class="ddf f01 e01 w01"/><circle cx="157.8266" cy="268.56152" r="3.7527339" transform="matrix(-0.01827799,0.99983294,0.99983294,0.01827799,0,0)" class="ddf f01 e01 w01"/><circle cx="156.92514" cy="288.92139" r="3.7527339" transform="matrix(-0.01827799,0.99983294,0.99983294,0.01827799,0,0)" class="ddf f01 e01 w01"/><circle cx="158.08681" cy="312.22983" r="3.7527339" transform="matrix(-0.01827799,0.99983294,0.99983294,0.01827799,0,0)" class="ddf f01 e01 w01"/><circle cx="152.47684" cy="329.59271" r="3.7527339" transform="matrix(-0.01827799,0.99983294,0.99983294,0.01827799,0,0)" class="ddf f01 e01 w01"/><circle cx="142.87462" cy="348.20572" r="3.7527339" transform="matrix(-0.01827799,0.99983294,0.99983294,0.01827799,0,0)" class="ddf f01 e01 w01"/><circle cx="131.89455" cy="340.86005" r="3.7527339" transform="matrix(-0.01827799,0.99983294,0.99983294,0.01827799,0,0)" class="ddf f01 e01 w01"/><circle cx="113.16884" cy="351.8967" r="3.7527339" transform="matrix(-0.01827799,0.99983294,0.99983294,0.01827799,0,0)" class="ddf f01 e01 w01"/><circle cx="90.870178" cy="355.72308" r="3.7527339" transform="matrix(-0.01827799,0.99983294,0.99983294,0.01827799,0,0)" class="ddf f01 e01 w01"/></g></svg>