<?xml version='1.0' encoding='UTF-8'?>
<svg xmlns="http://www.w3.org/2000/svg" width="1920" height="768" viewBox="0 0 507.99999 203.2" version="1.1" style="background-color:transparent;color-scheme:light dark" xml:space="preserve"><defs><style><![CDATA[.ddf {font-variation-settings:normal;opacity:1;vector-effect:none;fill-opacity:1;stroke-linecap:round;stroke-linejoin:round;stroke-miterlimit:4;stroke-dasharray:none;stroke-dashoffset:0;stroke-opacity:1;stop-color:#000000;stop-opacity:1;display:inline;font-style:normal;font-variant:normal;font-weight:normal;font-stretch:normal;line-height:normal;font-family:Arial;font-variant-ligatures:normal;font-variant-caps:normal;font-variant-numeric:normal;font-variant-east-asian:normal;text-align:start;text-decoration-color:#000000;writing-mode:lr-tb;direction:ltr;text-anchor:start;font-variant-position:normal;font-variant-alternates:normal;text-indent:0;text-decoration-line:none;text-decoration-style:solid;letter-spacing:normal;word-spacing:normal;text-transform:none;text-orientation:mixed;dominant-baseline:auto;baseline-shift:baseline;white-space:normal;} .dn {display:none}  .w00 {stroke-width:3} .w01 {stroke-width:1} .w02 {stroke-width:2} .a00 {fill-opacity:1} .s00 {font-size:6px} .s01 {font-size:13px} .e00 {stroke:#ff45ff} .e01 {stroke:#00ff45} .e02 {stroke:#ff4500} .e03 {stroke:none} .e04 {stroke:#808080} .f00 {fill:#b4b4b4} .f01 {fill:#ff4500} .f02 {fill:none} .f03 {fill:#00ff45} .d00 {stroke-dasharray:none}]]></style></defs><g><path d="m 153.53715,63.806893 51.991,53.828437" class="ddf f02 e01 w01"/><path d="M 117.85598,63.971322 114.4236,112.77245" class="ddf f02 e01 w01"/><path d="m 127.0826,64.462547 11.15918,63.791723" class="ddf f02 e01 w01"/><path d="m 136.21083,64.087593 27.43701,79.648497" class="ddf f02 e01 w01"/><path d="m 144.5933,63.548206 40.49091,68.675764" class="ddf f02 e01 w01"/><path d="M 102.58675,64.414388 72.555333,123.68121" class="ddf f02 e01 w01"/><path d="M 110.10303,63.877068 96.162991,112.47472" class="ddf f02 e01 w01"/><path d="m 190.09653,56.089505 7.31814,7.092429 -7.09241,7.31814 -3.65908,-3.54622 3.54621,-3.65906 -3.65907,-3.54621 z" class="ddf f01 e03 w00"/><text xml:space="preserve" x="201.85498" y="67.818657" class="ddf s01 f01 e03 w00"><tspan x="201.85498" y="67.818657" class="ddf s01 f01 e03 w00">R</tspan></text><text xml:space="preserve" x="65.931564" y="54.365726" class="ddf s01 f01 e03 w00"><tspan x="65.931564" y="54.365726" class="ddf s01 f01 e03 w00">0</tspan></text><text xml:space="preserve" x="92.648079" y="50.022503" class="ddf s01 f01 e03 w00"><tspan x="92.648079" y="50.022503" class="ddf s01 f01 e03 w00">t</tspan></text><text xml:space="preserve" x="97.901321" y="50.294746" class="ddf s00 f01 e03 w00"><tspan x="97.901321" y="50.294746" class="ddf s00 f01 e03 w00">min</tspan></text><text xml:space="preserve" x="148.78809" y="50.022503" class="ddf s01 f01 e03 w00"><tspan x="148.78809" y="50.022503" class="ddf s01 f01 e03 w00">t</tspan></text><text xml:space="preserve" x="154.04132" y="50.294746" class="ddf s00 f01 e03 w00"><tspan x="154.04132" y="50.294746" class="ddf s00 f01 e03 w00">max</tspan></text><path d="m 26.591276,64.749074 101.899794,-0.80551 m -0.0751,-0.024 62.00315,-0.42996" class="ddf f02 e02 w00"/><circle cx="69.373833" cy="64.408897" r="3.7527339" class="ddf f00 e04 w02"/><path d="m 150.17107,55.789769 h 3.77121 v 16.970455 h -3.57272" class="ddf f02 e02 w02"/><path d="m 36.220565,158.82094 c 0,0 36.124245,-46.04849 65.896975,-46.44546 29.77273,-0.39697 42.87273,32.94849 60.73637,32.94849 17.86364,0 42.07879,-27.39091 42.07879,-27.39091" class="ddf f02 e00 w00"/><path d="m 143.07155,121.71692 -4.59326,6.63184 -6.63182,-4.59326 2.29661,-3.31592 3.31592,2.29662 2.29662,-3.31595 z" class="ddf f03 e03 w00"/><path d="m 120.5723,108.10051 -6.06204,5.32268 -5.32266,-6.06203 3.03101,-2.66135 2.66134,3.03101 3.03102,-2.66137 z" class="ddf f03 e03 w00"/><path d="m 102.84689,109.28652 -7.387092,3.24194 -3.241923,-7.38709 3.69353,-1.62098 1.620975,3.69354 3.69355,-1.621 z" class="ddf f03 e03 w00"/><path d="m 80.522686,120.27554 -7.847833,1.86839 -1.868374,-7.84782 3.923901,-0.93421 0.934202,3.92391 3.923928,-0.93422 z" class="ddf f03 e03 w00"/><path d="m 43.723403,157.16743 -7.73182,2.3018 -2.301786,-7.73181 3.865895,-1.15091 1.150907,3.8659 3.865921,-1.15093 z" class="ddf f03 e03 w00"/><path d="m 167.43267,137.30083 -3.45867,7.28813 -7.28812,-3.45866 1.72932,-3.64407 3.64407,1.72932 1.72931,-3.64408 z" class="ddf f03 e03 w00"/><path d="m 187.88178,125.83788 -1.62017,7.90282 -7.9028,-1.62018 0.81008,-3.9514 3.9514,0.81007 0.81006,-3.95142 z" class="ddf f03 e03 w00"/><path d="m 204.5212,108.77265 0.28627,8.06209 -8.06208,0.28627 -0.14315,-4.03104 4.03104,-0.14316 -0.14316,-4.03105 z" class="ddf f03 e03 w00"/><path d="M 94.575113,63.945176 36.220565,158.42397" class="ddf f02 e01 w01"/><path d="m 98.366518,55.789769 h -3.77121 v 16.970455 h 3.57272" class="ddf f02 e02 w02"/><path d="m 338.86478,64.258565 97.39875,53.376765" class="ddf f02 e01 w01"/><path d="m 314.52404,65.171349 30.63494,47.601101" class="ddf f02 e01 w01"/><path d="m 319.68949,64.768631 49.28767,63.485639" class="ddf f02 e01 w01"/><path d="m 326.00199,65.132631 68.38123,78.603459" class="ddf f02 e01 w01"/><path d="m 331.72372,64.77093 84.09587,67.45304" class="ddf f02 e01 w01"/><path d="m 305.80546,65.208138 -2.51474,58.473072" class="ddf f02 e01 w01"/><path d="m 310.41133,65.332276 16.48704,47.142444" class="ddf f02 e01 w01"/><path d="m 420.83191,56.089505 7.31814,7.092429 -7.09241,7.31814 -3.65908,-3.54622 3.54621,-3.65906 -3.65907,-3.54621 z" class="ddf f01 e03 w00"/><text xml:space="preserve" x="432.59036" y="67.818657" class="ddf s01 f01 e03 w00"><tspan x="432.59036" y="67.818657" class="ddf s01 f01 e03 w00">R</tspan></text><text xml:space="preserve" x="297.06384" y="52.513641" class="ddf s01 f01 e03 w00"><tspan x="297.06384" y="52.513641" class="ddf s01 f01 e03 w00">0</tspan></text><text xml:space="preserve" x="333.75055" y="52.668335" class="ddf s01 f01 e03 w00"><tspan x="333.75055" y="52.668335" class="ddf s01 f01 e03 w00">1</tspan></text><path d="m 257.32666,64.749074 101.89979,-0.80551 m -0.0751,-0.024 62.00315,-0.42996" class="ddf f02 e02 w00"/><path d="m 334.87165,55.789769 h 3.77121 v 16.970455 h -3.57272" class="ddf f02 e02 w02"/><path d="m 266.95595,158.82094 c 0,0 36.12424,-46.04849 65.89697,-46.44546 29.77273,-0.39697 42.87273,32.94849 60.73637,32.94849 17.86364,0 42.07879,-27.39091 42.07879,-27.39091" class="ddf f02 e00 w00"/><path d="m 371.33591,121.8294 -0.48125,8.05281 -8.0528,-0.48126 0.24061,-4.02639 4.0264,0.24061 0.2406,-4.02642 z" class="ddf f03 e03 w00"/><path d="m 347.44573,105.58297 -0.76206,8.03109 -8.03107,-0.76206 0.38101,-4.01555 4.01555,0.38102 0.381,-4.01557 z" class="ddf f03 e03 w00"/><path d="m 330.45274,104.99766 -2.88407,7.53402 -7.534,-2.88408 1.44201,-3.76701 3.76701,1.44203 1.44201,-3.76703 z" class="ddf f03 e03 w00"/><path d="m 309.31883,117.92265 -5.66207,5.74633 -5.74631,-5.66206 2.83101,-2.87317 2.87316,2.83102 2.83103,-2.87319 z" class="ddf f03 e03 w00"/><path d="m 273.82677,156.20315 -7.2184,3.60193 -3.60192,-7.2184 3.60918,-1.80097 1.80097,3.60919 3.60921,-1.801 z" class="ddf f03 e03 w00"/><path d="m 396.28713,137.22263 -0.5022,8.05152 -8.05151,-0.5022 0.25109,-4.02576 4.02576,0.25109 0.25107,-4.02577 z" class="ddf f03 e03 w00"/><path d="m 417.54406,126.17207 0.60882,8.04418 -8.04417,0.60881 -0.30441,-4.02208 4.02208,-0.30442 -0.30444,-4.0221 z" class="ddf f03 e03 w00"/><path d="m 433.97319,109.66725 2.47463,7.67825 -7.67823,2.47463 -1.23733,-3.83912 3.83911,-1.23733 -1.23734,-3.83913 z" class="ddf f03 e03 w00"/><path d="M 299.9105,65.003509 266.95595,158.42397" class="ddf f02 e01 w01"/><path d="m 303.8389,55.789769 h -3.77121 v 16.970455 h 3.57272" class="ddf f02 e02 w02"/></g></svg>