<?xml version='1.0' encoding='UTF-8'?>
<svg xmlns="http://www.w3.org/2000/svg" width="1920" height="768" viewBox="0 0 507.99999 203.2" version="1.1" style="background-color:transparent;color-scheme:light dark" xml:space="preserve"><defs><style><![CDATA[.ddf {font-variation-settings:normal;display:inline;vector-effect:none;fill-opacity:1;stroke-linecap:round;stroke-linejoin:round;stroke-miterlimit:4;stroke-dashoffset:0;stroke-opacity:1;stop-color:#000000;opacity:1;font-style:normal;font-variant:normal;font-weight:normal;font-stretch:normal;font-size:13.2449px;line-height:normal;font-family:Arial;font-variant-ligatures:normal;font-variant-caps:normal;font-variant-numeric:normal;font-variant-east-asian:normal;text-align:start;text-decoration-color:#000000;writing-mode:lr-tb;direction:ltr;text-anchor:start;stop-opacity:1;font-variant-position:normal;font-variant-alternates:normal;text-indent:0;text-decoration-line:none;text-decoration-style:solid;letter-spacing:normal;word-spacing:normal;text-transform:none;text-orientation:mixed;dominant-baseline:auto;baseline-shift:baseline;white-space:normal;} .dn {display:none}  .w00 {stroke-width:3} .w01 {stroke-width:1} .w02 {stroke-width:2} .a00 {fill-opacity:1} .s00 {font-size:13px} .e00 {stroke:#45ffff} .e01 {stroke:#00ff45} .e02 {stroke:#ff4500} .e03 {stroke:none} .e04 {stroke:#808080} .f00 {fill:#45ffff} .f01 {fill:#00ff45} .f02 {fill:#ff4500} .f03 {fill:none} .f04 {fill:#808080} .d00 {stroke-dasharray:none} .d01 {stroke-dasharray:2,6}]]></style></defs><g><path d="m 212.42011,108.53827 18.82911,-0.13687 m 8.88786,-0.084 49.91286,-0.37454 m 8.39917,-0.10508 15.87079,-0.10507 m -0.0751,-0.024 62.00315,-0.42996" class="ddf f03 e02 w00 d00"/><circle cx="-116.4006" cy="-231.55856" r="3.7527339" transform="rotate(141.29241)" class="ddf f03 e00 w02 d00"/><path d="m 98.689582,72.231249 h 6.746878 -3.30729 v 34.528121" class="ddf f03 e04 w01 d00"/><path d="m 294.19587,187.93223 -0.0435,-74.82313 m -0.007,-9.12792 -0.0142,-26.613281 m -0.002,-0.71018 -0.0299,-57.844155" class="ddf f03 e01 w00 d00"/><circle cx="294.24606" cy="108.40862" r="3.7527339" class="ddf f03 e04 w02 d00"/><path d="m 91.525037,187.93223 -0.04347,-74.82313 m -0.0075,-9.12792 -0.01415,-26.613281 m -0.0072,-8.987045 -0.02474,-49.56729" class="ddf f03 e01 w00 d00"/><path d="M 9.7492776,108.53827 28.578385,108.4014 m 8.887862,-0.084 49.912866,-0.37454 m 8.399167,-0.10508 15.87079,-0.10507 m -0.0751,-0.024 62.00315,-0.42996" class="ddf f03 e02 w00 d00"/><circle cx="91.575218" cy="108.40862" r="3.7527339" class="ddf f03 e04 w02 d00"/><path d="m 36.125522,105.75429 52.23587,-30.864517 m 6.455135,-4.02853 20.226113,-12.23572" class="ddf f03 e00 w02 d00"/><path d="m 173.25453,99.878701 7.31814,7.092429 -7.09241,7.31814 -3.65908,-3.54622 3.54621,-3.65906 -3.65907,-3.54621 z" class="ddf f02 e03 w00 d00"/><path d="m 113.84262,68.003243 2.03919,-9.98497 -9.98495,-2.03919 -1.01959,4.99249 4.99247,1.01959 -1.0196,4.99247 z" class="ddf f00 e03 w00 d00"/><path d="m 84.172691,18.561432 7.32628,-7.392423 7.39241,7.326287 -3.66312,3.696222 -3.69623,-3.663129 -3.66313,3.696229 z" class="ddf f01 e03 w00 d00"/><text xml:space="preserve" x="185.01297" y="111.60786" class="ddf f02 e03 w00 d00"><tspan x="185.01297" y="111.60786" class="ddf f02 e03 w00 d00">X</tspan></text><text xml:space="preserve" x="104.27041" y="22.81724" class="ddf f01 e03 w00 d00"><tspan x="104.27041" y="22.81724" class="ddf f01 e03 w00 d00">Y</tspan></text><text xml:space="preserve" x="106.456" y="94.412216" class="ddf f04 e03 w00 d00"><tspan x="106.456" y="94.412216" class="ddf f04 e03 w00 d00">t</tspan></text><circle cx="91.601601" cy="72.817505" r="3.7527339" class="ddf f03 e01 w02 d00"/><path d="m 375.91991,99.878701 7.31814,7.092429 -7.09241,7.31814 -3.65908,-3.54622 3.54621,-3.65906 -3.65907,-3.54621 z" class="ddf f02 e03 w00 d00"/><path d="m 286.83808,18.561432 7.32628,-7.392423 7.39241,7.326287 -3.66312,3.696222 -3.69623,-3.663129 -3.66313,3.696229 z" class="ddf f01 e03 w00 d00"/><text xml:space="preserve" x="387.67834" y="111.60786" class="ddf f02 e03 w00 d00"><tspan x="387.67834" y="111.60786" class="ddf f02 e03 w00 d00">X</tspan></text><text xml:space="preserve" x="306.93579" y="22.81724" class="ddf f01 e03 w00 d00"><tspan x="306.93579" y="22.81724" class="ddf f01 e03 w00 d00">Y</tspan></text><circle cx="53.722408" cy="119.64078" r="3.7527339" transform="matrix(-0.01827799,0.99983294,0.99983294,0.01827799,0,0)" class="ddf f03 e00 w02 d00"/><path d="m 235.8363,112.41892 0.34056,65.48267" class="ddf f03 e00 w02 d01"/><path d="m 243.26981,174.88488 -7.4009,7.00604 -7.00603,-7.40088 3.70046,-3.50302 3.50301,3.70044 3.70043,-3.50302 z" class="ddf f00 e03 w00 d00"/><circle cx="-190.11948" cy="232.80148" r="3.7527339" transform="rotate(-91.04731)" class="ddf f03 e00 w02 d00"/><path d="m 127.28988,153.84785 c 25.52703,-19.70128 30.24974,-56.366087 10.54845,-81.893137 m 0,0 c -4.57098,-5.92263 -9.29938,-10.37786 -15.34571,-14.01547 m -8.30393,-4.03743 c -18.961621,-8.40561 -40.670675,-6.05792 -58.243495,7.50445 m 0,0 C 42.385309,71.871531 34.444593,87.747107 33.160818,103.52198 m 0.283106,9.27098 c 0.07243,0.79383 0.161241,1.58717 0.266491,2.37951 l 1.67418,8.42889 c 1.95109,7.15028 5.20271,13.46642 10.01215,19.69803 m 0,0 c 19.70128,25.52704 56.366085,30.24974 81.893135,10.54846" class="ddf f03 e00 w00"/><path d="m 319.59534,160.36236 c -29.12482,13.8389 -63.9538,1.44721 -77.79271,-27.67763 m 0,0 c -3.21082,-6.75737 -5.04201,-12.99063 -5.54743,-20.02873 m 0.16037,-9.23203 c 1.09169,-20.712447 13.01514,-39.005228 33.06467,-48.53194 m 0,0 c 19.50445,-9.267693 41.40291,-6.885834 58.00642,4.521682 l 6.75713,5.309456 c 5.49173,4.977375 9.65083,10.736583 13.02916,17.846478 m 0,0 c 13.8389,29.124824 1.44721,63.953804 -27.67761,77.792714" class="ddf f03 e00 w00"/><circle cx="41.753098" cy="-104.81917" r="3.7527339" transform="rotate(141.29241)" class="ddf f03 e00 w02 d00"/><path d="m 235.83503,103.74045 0.15348,-64.921413" class="ddf f03 e00 w02 d01"/><path d="m 243.08146,41.835747 -7.4009,-7.00604 -7.00603,7.40088 3.70046,3.50302 3.50301,-3.70044 3.70043,3.50302 z" class="ddf f00 e03 w00 d00"/><circle cx="26.568386" cy="236.57437" r="3.7527339" transform="matrix(-0.01827799,0.99983294,0.99983294,0.01827799,0,0)" class="ddf f03 e00 w02 d00"/><ellipse cx="232.62581" cy="19.792465" rx="3.4342802" ry="3.4684429" class="ddf f03 e01 w02 d00"/><ellipse cx="239.42711" cy="19.927124" rx="3.4342802" ry="3.4684429" class="ddf f03 e01 w02 d00"/><path d="m 223.02474,16.369158 v 6.450758" class="ddf f03 e01 w02 d00"/><path d="m 226.25967,19.545948 h -6.25228" class="ddf f03 e01 w02 d00"/><ellipse cx="232.89653" cy="196.83194" rx="3.4342802" ry="3.4684429" class="ddf f03 e01 w02 d00"/><ellipse cx="239.69783" cy="196.9666" rx="3.4342802" ry="3.4684429" class="ddf f03 e01 w02 d00"/><path d="m 226.5304,196.58541 h -6.25228" class="ddf f03 e01 w02 d00"/></g></svg>