<?xml version="1.0" encoding="UTF-8" standalone="no"?>
<!-- Created with Inkscape (http://www.inkscape.org/) -->

<svg
   width="208.12375mm"
   height="153.11052mm"
   viewBox="0 0 208.12376 153.11052"
   version="1.1"
   id="svg1"
   xml:space="preserve"
   xmlns="http://www.w3.org/2000/svg"
   xmlns:svg="http://www.w3.org/2000/svg"><defs
     id="defs1" /><g
     id="layer3"
     style="display:inline"
     transform="translate(-126.95003,-357.50955)"><g
       id="g2-1-1-7-24"
       transform="matrix(0,2.0010048,-2.0010048,0,498.92934,49.20405)"
       style="display:inline"><rect
         style="fill:#e0e0e0;fill-opacity:1;stroke-width:0.312293;stroke-linecap:round;stroke-linejoin:round"
         id="rect1-2-6-5-6-5"
         width="76.516815"
         height="48.472176"
         x="154.07533"
         y="137.42409" /><path
         id="rect2-4-3-5-6-5"
         style="fill:#bbbbbb;fill-opacity:0.653571;stroke-width:0.3;stroke-linecap:round;stroke-linejoin:round"
         d="m 208.01667,139.88392 v 0.95602 h 0.98702 v -0.95602 z m 2.35438,0.0109 v 0.95601 h 0.98702 v -0.95601 z m 11.33522,0.002 v 0.95601 h 0.98702 v -0.95601 z m -18.25935,0.003 v 0.9555 h 0.9865 v -0.9555 z m 2.3673,0.008 v 0.95602 h 0.98702 v -0.95602 z m 18.24643,5.2e-4 v 0.95601 h 0.98702 v -0.95601 z m -6.92464,0.004 v 0.9555 h 0.98702 v -0.9555 z m 2.36781,0.008 v 0.95602 h 0.98702 v -0.95602 z m -18.25935,0.003 v 0.9555 h 0.9865 v -0.9555 z m -20.60288,0.005 v 0.95601 h 0.98651 v -0.95601 z m 13.65705,0 v 0.95601 h 0.98702 v -0.95601 z m 20.63544,0.007 v 0.95602 h 0.9865 v -0.95602 z m -31.93811,0.004 v 0.95601 h 0.98651 v -0.95601 z m 13.65705,5.1e-4 v 0.9555 h 0.98702 v -0.9555 z m -20.58169,0.003 v 0.95601 h 0.9865 v -0.95601 z m 13.65757,5.1e-4 v 0.95602 h 0.9865 v -0.95602 z m -11.28975,0.008 v 0.9555 h 0.9865 v -0.9555 z m 13.65756,0 v 0.95602 h 0.9865 v -0.95602 z m -18.22783,0.0145 v 0.95602 h 0.9865 v -0.95602 z m 13.65757,5.2e-4 v 0.9555 h 0.9865 v -0.9555 z m -20.60288,0.005 v 0.95601 h 0.9865 v -0.95601 z m 2.35438,0.0109 v 0.95601 h 0.9865 v -0.95601 z m -6.92464,0.004 v 0.95601 h 0.98702 v -0.95601 z m 2.36781,0.008 v 0.95602 h 0.9865 v -0.95602 z m -4.57026,0.0145 v 0.95602 h 0.98702 v -0.95602 z m 47.89268,2.15008 v 0.95601 h 0.9865 v -0.95601 z m 2.35438,0.0108 v 0.95601 h 0.9865 v -0.95601 z m 11.33522,0.002 v 0.9555 h 0.98651 v -0.9555 z m -18.25986,0.002 v 0.95601 h 0.98702 v -0.95601 z m 2.36781,0.008 v 0.9555 h 0.9865 v -0.9555 z m 18.24643,5.2e-4 v 0.95602 h 0.9865 v -0.95602 z m -6.92464,0.004 v 0.95601 h 0.98702 v -0.95601 z m 2.36781,0.008 v 0.95601 h 0.98651 v -0.95601 z m -18.25986,0.003 v 0.95602 h 0.98702 v -0.95602 z m -20.60288,0.006 v 0.9555 h 0.98702 v -0.9555 z m 13.65756,0 v 0.95601 h 0.98702 v -0.95601 z m 20.63492,0.007 v 0.95601 h 0.98702 v -0.95601 z m -31.9381,0.004 v 0.9555 h 0.98702 v -0.9555 z m 13.65756,0 v 0.95601 h 0.98702 v -0.95601 z m -20.58169,0.004 v 0.95601 h 0.98651 v -0.95601 z m 13.65705,5.1e-4 v 0.9555 h 0.98702 v -0.9555 z m -11.28923,0.007 v 0.95601 h 0.9865 v -0.95601 z m 13.65704,5.2e-4 v 0.95601 h 0.98702 v -0.95601 z m -18.22731,0.0145 v 0.95601 h 0.98651 v -0.95601 z m 13.65705,0 v 0.95601 h 0.98702 v -0.95601 z m -20.60236,0.006 v 0.9555 h 0.9865 v -0.9555 z m 2.35438,0.0108 v 0.9555 h 0.9865 v -0.9555 z m -6.92464,0.004 v 0.95601 h 0.9865 v -0.95601 z m 2.36781,0.008 v 0.95601 h 0.9865 v -0.95601 z m -4.57026,0.015 v 0.95601 h 0.9865 v -0.95601 z m 64.95107,6.24397 v 0.95601 h 0.98702 v -0.95601 z m -6.86625,5.2e-4 v 0.95601 h 0.98651 V 148.529 Z m 2.35438,0.0109 v 0.95601 h 0.98651 v -0.95601 z m 2.14044,0.002 v 0.95601 h 0.9865 v -0.95601 z m -9.06508,0.002 v 0.95601 h 0.98702 v -0.95601 z m 2.36781,0.008 v 0.9555 h 0.98651 v -0.9555 z m -11.52642,0.006 v 0.9555 h 0.9865 v -0.9555 z m 6.95616,0.008 v 0.95602 h 0.98702 v -0.95602 z m -4.60179,0.003 v 0.95601 h 0.98651 v -0.95601 z m 2.13993,0.002 v 0.9555 h 0.98702 v -0.9555 z m -9.06457,0.002 v 0.95602 h 0.98651 v -0.95602 z m 2.36782,0.008 v 0.9555 h 0.9865 v -0.9555 z m -4.57027,0.0145 v 0.95602 h 0.98702 v -0.95602 z m -6.86624,5.2e-4 v 0.95601 h 0.9865 v -0.95601 z m 2.35437,0.0109 v 0.95601 h 0.98651 v -0.95601 z m 2.13993,0.002 v 0.95601 h 0.98702 v -0.95601 z m -9.06457,0.002 v 0.95601 h 0.98651 v -0.95601 z m 2.36782,0.008 v 0.95549 h 0.9865 v -0.95549 z m -11.32903,0.004 v 0.95601 h 0.98651 v -0.95601 z m 6.75876,0.0103 v 0.95601 h 0.98702 v -0.95601 z m -4.40438,5.1e-4 v 0.95602 h 0.9865 v -0.95602 z m 2.13992,0.002 v 0.95601 h 0.98702 v -0.95601 z m -9.06456,0.002 v 0.95601 h 0.9865 v -0.95601 z m 2.36781,0.008 v 0.9555 h 0.98651 v -0.9555 z m -4.57026,0.0145 v 0.95601 h 0.9865 v -0.95601 z m -6.86625,5.1e-4 v 0.95602 h 0.9865 v -0.95602 z m 2.35386,0.011 v 0.95601 h 0.98702 v -0.95601 z m 2.14044,0.002 v 0.95602 h 0.9865 v -0.95602 z m -9.06456,0.002 v 0.95602 h 0.9865 v -0.95602 z m 2.36781,0.008 v 0.9555 h 0.9865 v -0.9555 z m -4.57026,0.015 v 0.95602 h 0.9865 v -0.95602 z m 68.2041,2.1028 v 0.9555 h 0.98702 v -0.9555 z m -6.86624,5.2e-4 v 0.9555 h 0.9865 v -0.9555 z m 2.35437,0.0108 v 0.9555 h 0.98651 v -0.9555 z m 2.13993,0.002 v 0.95549 h 0.98702 v -0.95549 z m -9.06457,0.002 v 0.95601 h 0.98651 v -0.95601 z m 2.36782,0.008 v 0.95601 h 0.9865 v -0.95601 z m -11.52643,0.006 v 0.95601 h 0.9865 v -0.95601 z m 6.95616,0.009 v 0.95601 h 0.98651 v -0.95601 z m -4.6023,0.002 v 0.95602 h 0.98702 v -0.95602 z m 2.14044,0.002 v 0.95601 h 0.9865 v -0.95601 z m -9.06457,0.002 v 0.95601 h 0.98651 v -0.95601 z m 2.36782,0.008 v 0.95601 h 0.9865 v -0.95601 z m -4.57026,0.015 v 0.9555 h 0.9865 v -0.9555 z m -6.86677,5.2e-4 v 0.9555 h 0.98702 v -0.9555 z m 2.35438,0.0109 v 0.9555 h 0.98702 v -0.9555 z m 2.14044,0.002 v 0.9555 h 0.9865 v -0.9555 z m -9.06457,0.002 v 0.95601 h 0.98651 v -0.95601 z m 2.36782,0.008 v 0.95602 h 0.9865 v -0.95602 z m -11.32954,0.005 v 0.9555 h 0.98702 v -0.9555 z m 6.75927,0.0103 v 0.95601 h 0.98651 v -0.95601 z m -4.40489,5.1e-4 v 0.9555 h 0.98702 v -0.9555 z m 2.14043,0.002 v 0.9555 h 0.98651 v -0.9555 z m -9.06456,0.002 v 0.95602 h 0.9865 v -0.95602 z m 2.3673,0.008 v 0.95602 h 0.98702 v -0.95602 z m -4.56975,0.015 v 0.9555 h 0.9865 v -0.9555 z m -6.86676,5.2e-4 v 0.95549 h 0.98702 v -0.95549 z m 2.35437,0.011 v 0.9555 h 0.98702 v -0.9555 z m 2.14044,0.002 v 0.95549 h 0.98651 v -0.95549 z m -9.06508,0.002 v 0.95601 h 0.98702 v -0.95601 z m 2.36782,0.008 v 0.95601 h 0.98702 v -0.95601 z m -4.56975,0.015 v 0.95602 h 0.9865 v -0.95602 z m 68.15863,2.10597 v 0.95602 h 0.98702 v -0.95602 z m -6.86625,5.2e-4 v 0.95602 h 0.98651 V 153.08 Z m 2.35438,0.0109 v 0.95602 h 0.9865 v -0.95602 z m 2.14044,0.002 v 0.95601 h 0.9865 v -0.97251 z m -9.06508,0.002 v 0.95601 h 0.98702 v -0.95601 z m 2.36781,0.008 v 0.9555 h 0.98702 v -0.9555 z m -11.52643,0.006 v 0.9555 h 0.98651 v -0.9555 z m 6.95617,0.008 v 0.95601 h 0.98702 v -0.95601 z m -4.60179,0.003 v 0.95602 h 0.98651 v -0.95602 z m 2.13992,0.002 v 0.9555 h 0.98702 v -0.9555 z m -9.06456,0.002 v 0.95601 h 0.98702 v -0.95601 z m 2.36782,0.008 v 0.95602 h 0.9865 v -0.95602 z m -4.57027,0.015 v 0.95601 h 0.98702 v -0.95601 z m -6.86625,5.1e-4 v 0.95602 h 0.98651 v -0.95602 z m 2.35438,0.0109 v 0.95601 h 0.98651 v -0.95601 z m 2.13992,0.002 v 0.95602 h 0.98702 v -0.95602 z m -9.06456,0.002 v 0.95602 h 0.9865 v -0.95602 z m 2.36781,0.008 v 0.9555 h 0.98651 v -0.9555 z m -11.32902,0.004 v 0.95601 h 0.9865 v -0.95601 z m 6.75876,0.0103 v 0.95602 h 0.98702 v -0.95602 z m -4.40438,5.2e-4 v 0.95601 h 0.9865 v -0.95601 z m 2.13992,0.002 v 0.95602 h 0.98702 v -0.95602 z m -9.06456,0.002 v 0.95601 h 0.9865 v -0.95601 z m 2.36781,0.008 v 0.9555 h 0.9865 v -0.9555 z m -4.57026,0.0145 v 0.95602 h 0.9865 v -0.95602 z m -6.86625,5.2e-4 v 0.95601 h 0.9865 v -0.95601 z m 2.35438,0.011 v 0.95602 h 0.9865 v -0.95602 z m 2.13992,0.002 v 0.95601 h 0.98702 v -0.95601 z m -9.06456,0.002 v 0.95601 h 0.9865 v -0.95601 z m 2.36781,0.008 v 0.95549 h 0.9865 v -0.95549 z m -4.57026,0.015 v 0.95601 h 0.9865 v -0.95601 z m 68.2041,2.10351 v 0.95549 h 0.98702 v -0.95549 z m -6.86625,5.1e-4 v 0.9555 h 0.98651 v -0.9555 z m 2.35438,0.0109 v 0.95549 h 0.98651 v -0.95549 z m 2.13992,0.002 v 0.9555 h 0.98702 v -0.9555 z m -9.06456,0.002 v 0.95602 h 0.9865 v -0.95602 z m 2.36781,0.008 v 0.95602 h 0.98651 v -0.95602 z m -11.52642,0.006 v 0.95601 h 0.9865 v -0.95601 z m 6.95616,0.009 v 0.95602 h 0.9865 v -0.95602 z m -4.60179,0.002 v 0.95601 h 0.98651 v -0.95601 z m 2.13993,0.002 v 0.95601 h 0.98702 v -0.95601 z m -9.06457,0.002 v 0.95602 h 0.98651 v -0.95602 z m 2.36782,0.008 v 0.95602 h 0.9865 v -0.95602 z m -4.57027,0.015 v 0.9555 h 0.98651 v -0.9555 z m -6.86676,5.2e-4 v 0.95549 h 0.98702 v -0.95549 z m 2.35438,0.0109 v 0.9555 h 0.98702 v -0.9555 z m 2.14044,0.002 v 0.95549 h 0.9865 v -0.95549 z m -9.06457,0.002 v 0.95601 h 0.98651 v -0.95601 z m 2.36782,0.008 v 0.95601 h 0.9865 v -0.95601 z m -11.32954,0.004 v 0.95602 h 0.98702 v -0.95602 z m 6.75927,0.0108 v 0.95602 h 0.98651 v -0.95602 z m -4.4049,5.2e-4 v 0.9555 h 0.98702 v -0.9555 z m 2.14044,0.002 v 0.95601 h 0.9865 v -0.95601 z m -9.06456,0.002 v 0.95601 h 0.9865 v -0.95601 z m 2.3673,0.008 v 0.95601 h 0.98702 v -0.95601 z m -4.56975,0.015 v 0.95549 h 0.9865 v -0.95549 z m -6.86677,5.1e-4 v 0.9555 h 0.98702 v -0.9555 z m 2.35438,0.011 v 0.9555 h 0.98702 v -0.9555 z m 2.14044,0.002 v 0.9555 h 0.9865 v -0.9555 z m -9.06508,0.002 v 0.95602 h 0.98702 v -0.95602 z m 2.36782,0.008 v 0.95602 h 0.98701 v -0.95602 z m -4.56975,0.015 v 0.95601 h 0.9865 v -0.95601 z m 68.19118,2.00566 v 0.95601 h 0.98702 v -0.95601 z m -6.86624,5.1e-4 v 0.9555 h 0.9865 v -0.9555 z m 2.35438,0.0109 v 0.95601 h 0.9865 v -0.95601 z m 2.13992,0.002 v 0.95602 h 0.98702 v -0.95602 z m -9.06457,0.002 v 0.95602 h 0.98651 v -0.95602 z m 2.36782,0.008 v 0.9555 h 0.9865 v -0.9555 z m -11.52643,0.006 v 0.9555 h 0.9865 v -0.9555 z m 6.95616,0.008 v 0.95602 h 0.98651 v -0.95602 z m -4.60178,0.003 v 0.95549 h 0.9865 v -0.95549 z m 2.13992,0.002 v 0.9555 h 0.98702 v -0.9555 z m -9.06456,0.002 v 0.95602 h 0.9865 v -0.95602 z m 2.36781,0.008 v 0.95602 h 0.9865 v -0.95602 z m -4.57026,0.015 v 0.95601 h 0.9865 v -0.95601 z m -6.86677,5.2e-4 v 0.95549 h 0.98702 v -0.95549 z m 2.35438,0.0109 v 0.95601 h 0.98702 v -0.95601 z m 2.14044,0.002 v 0.95549 h 0.9865 v -0.95549 z m -9.06457,0.002 v 0.95601 h 0.98651 v -0.95601 z m 2.36782,0.008 v 0.95601 h 0.9865 v -0.95601 z m -11.32954,0.005 v 0.9555 h 0.98702 v -0.9555 z m 6.75928,0.0103 v 0.95602 h 0.9865 v -0.95602 z m -4.4049,5.2e-4 v 0.9555 h 0.98702 v -0.9555 z m 2.14043,0.002 v 0.9555 h 0.98651 v -0.9555 z m -9.06456,0.002 v 0.95601 h 0.9865 v -0.95601 z m 2.3673,0.008 v 0.95601 h 0.98702 v -0.95601 z m -4.56975,0.015 v 0.95601 h 0.9865 v -0.95601 z m -6.86676,5.1e-4 v 0.95602 h 0.98702 v -0.95602 z m 2.35438,0.011 v 0.95602 h 0.98702 v -0.95602 z m 2.14043,0.002 v 0.95602 h 0.98651 v -0.95602 z m -9.06508,0.002 v 0.95602 h 0.98702 v -0.95602 z m 2.36782,0.008 v 0.9555 h 0.98702 v -0.9555 z m -4.56975,0.015 v 0.95601 h 0.9865 v -0.95601 z m 0.10697,6.96996 v 0.95549 h 0.9865 v -0.95549 z m 4.57026,0.015 v 0.95601 h 0.98651 v -0.95601 z m -2.36781,0.008 v 0.95601 h 0.9865 v -0.95601 z m 9.06456,0.002 v 0.95602 h 0.98651 v -0.95602 z m -2.14043,0.002 v 0.95602 h 0.98702 v -0.95602 z m -2.35438,0.011 v 0.95602 h 0.98702 v -0.95602 z m 6.86676,5.2e-4 v 0.95601 h 0.9865 v -0.95601 z m 4.57027,0.0145 v 0.95601 h 0.9865 v -0.95601 z m -2.36782,0.008 v 0.9555 h 0.9865 v -0.9555 z m 9.06456,0.002 v 0.95601 h 0.98651 v -0.95601 z m -2.14043,0.002 v 0.95601 h 0.98702 v -0.95601 z m 4.4049,5.1e-4 v 0.95602 h 0.9865 v -0.95602 z m -6.75928,0.0103 v 0.95601 h 0.98702 v -0.95601 z m 11.32954,0.004 v 0.95602 h 0.9865 v -0.95602 z m -2.36781,0.008 v 0.9555 h 0.9865 v -0.9555 z m 9.06456,0.002 v 0.95601 h 0.98702 v -0.95601 z m -2.13992,0.002 v 0.95601 h 0.9865 v -0.95601 z m -2.35438,0.0109 v 0.95601 h 0.9865 v -0.95601 z m 6.86625,5.2e-4 v 0.95601 h 0.9865 v -0.95601 z m 4.57026,0.0145 v 0.95601 h 0.9865 v -0.95601 z m -2.36781,0.008 v 0.9555 h 0.9865 v -0.9555 z m 9.06456,0.002 v 0.95602 h 0.98702 v -0.95602 z m -2.13992,0.002 v 0.95601 h 0.9865 v -0.95601 z m 4.60178,0.003 v 0.9555 h 0.98702 v -0.9555 z m -6.95616,0.008 v 0.95602 h 0.9865 v -0.95602 z m 11.52643,0.006 v 0.95602 h 0.9865 v -0.95602 z m -2.36782,0.008 v 0.9555 h 0.98702 v -0.9555 z m 9.06457,0.002 v 0.95602 h 0.98702 v -0.95602 z m -2.13992,0.002 v 0.95601 h 0.9865 v -0.95601 z m -2.35438,0.0109 v 0.95602 h 0.9865 v -0.95602 z m 6.86624,5.2e-4 v 0.95601 h 0.98702 v -0.95601 z m -68.19118,2.00364 v 0.95601 h 0.9865 v -0.95601 z m 4.57026,0.015 v 0.95601 h 0.98651 v -0.95601 z m -2.36781,0.008 v 0.9555 h 0.9865 v -0.9555 z m 9.06456,0.002 v 0.95602 h 0.9865 v -0.95602 z m -2.14044,0.002 v 0.95602 h 0.98702 v -0.95602 z m -2.35438,0.011 v 0.95602 h 0.98702 v -0.95602 z m 6.86677,5.2e-4 v 0.95601 h 0.9865 v -0.95601 z m 4.57026,0.0145 v 0.95601 h 0.98651 v -0.95601 z m -2.36781,0.008 v 0.95601 h 0.9865 v -0.95601 z m 9.06456,0.002 v 0.95601 h 0.9865 v -0.95601 z m -2.14044,0.002 v 0.95601 h 0.98702 v -0.95601 z m 4.4049,5.1e-4 v 0.95602 h 0.98651 v -0.95602 z m -6.75927,0.0103 v 0.95601 h 0.98702 v -0.95601 z m 11.32954,0.004 v 0.95602 h 0.9865 v -0.95602 z m -2.36782,0.008 v 0.95601 h 0.98651 v -0.95601 z m 9.06457,0.002 v 0.95601 h 0.98702 v -0.95601 z m -2.13993,0.002 v 0.95601 h 0.98651 v -0.95601 z m -2.35437,0.0109 v 0.95601 h 0.9865 v -0.95601 z m 6.86624,5.2e-4 v 0.95601 h 0.98651 v -0.95601 z m 4.57027,0.015 v 0.9555 h 0.9865 v -0.98826 z m -2.36782,0.008 v 0.95602 h 0.98651 v -0.95602 z m 9.06457,0.002 v 0.95602 h 0.98702 v -0.95602 z m -2.13992,0.002 v 0.95602 h 0.9865 v -0.95602 z m 4.60178,0.003 v 0.95601 h 0.98702 v -0.95601 z m -6.95616,0.008 v 0.95602 h 0.9865 v -0.95602 z m 11.52643,0.006 v 0.95602 h 0.9865 v -0.95602 z m -2.36782,0.008 v 0.9555 h 0.98702 v -0.9555 z m 9.06456,0.002 v 0.95602 h 0.98702 v -0.95602 z m -2.13992,0.002 v 0.95601 h 0.98651 v -0.95601 z m -2.35438,0.0109 v 0.95602 h 0.98651 v -0.95602 z m 6.86625,5.2e-4 v 0.95601 h 0.98702 v -0.95601 z m -68.2041,2.10336 v 0.9555 h 0.9865 v -0.9555 z m 4.57026,0.015 v 0.95601 h 0.9865 v -0.95601 z m -2.36781,0.008 v 0.95601 h 0.9865 v -0.95601 z m 9.06456,0.002 v 0.95601 h 0.98702 v -0.95601 z m -2.13992,0.002 v 0.95602 h 0.9865 v -0.95602 z m -2.35438,0.011 v 0.95601 h 0.9865 v -0.95601 z m 6.86625,5.1e-4 v 0.9555 h 0.98702 v -0.9555 z m 4.57026,0.0145 v 0.95602 h 0.9865 v -0.95602 z m -2.36781,0.008 v 0.95602 h 0.9865 v -0.95602 z m 9.06456,0.002 v 0.95602 h 0.98702 v -0.95602 z m -2.13992,0.002 v 0.95601 h 0.9865 v -0.95601 z m 4.40438,5.1e-4 v 0.9555 h 0.98702 v -0.9555 z m -6.75876,0.0103 v 0.95601 h 0.9865 v -0.95601 z m 11.32902,0.004 v 0.95602 h 0.98651 v -0.95602 z m -2.36781,0.008 v 0.95601 h 0.98702 v -0.95601 z m 9.06456,0.002 v 0.95602 h 0.98702 v -0.95602 z m -2.13992,0.002 v 0.95601 h 0.98651 v -0.95601 z m -2.35438,0.0108 v 0.95602 h 0.98651 v -0.95602 z m 6.86625,5.2e-4 v 0.95601 h 0.98702 v -0.95601 z m 4.57027,0.0145 v 0.95601 h 0.98702 v -0.95601 z m -2.36782,0.008 v 0.95549 h 0.98702 v -0.95549 z m 9.06508,0.002 v 0.95601 h 0.9865 v -0.95601 z m -2.14044,0.002 v 0.95602 h 0.98651 v -0.95602 z m 4.60231,0.003 v 0.95549 h 0.9865 v -0.95549 z m -6.95668,0.008 v 0.95601 h 0.9865 v -0.95601 z m 11.52642,0.006 v 0.95601 h 0.98702 v -0.95601 z m -2.36781,0.008 v 0.95601 h 0.98702 v -0.95601 z m 9.06508,0.002 v 0.95601 h 0.9865 v -0.95601 z m -2.14044,0.002 v 0.95602 h 0.98702 v -0.95602 z m -2.35438,0.0109 v 0.95602 h 0.98702 v -0.95602 z m 6.86677,5.2e-4 v 0.95602 h 0.9865 V 169.291 Z m -68.15915,2.10555 v 0.95602 h 0.9865 v -0.95602 z m 4.56975,0.015 v 0.95602 h 0.98702 v -0.95602 z m -2.3673,0.008 v 0.9555 h 0.9865 v -0.9555 z m 9.06456,0.002 v 0.95601 h 0.98651 v -0.95601 z m -2.14044,0.002 v 0.95601 h 0.98702 v -0.95601 z m -2.35437,0.011 v 0.95601 h 0.98702 v -0.95601 z m 6.86676,5.2e-4 v 0.95601 h 0.9865 v -0.95601 z m 4.57026,0.0145 v 0.95601 h 0.98651 v -0.95601 z m -2.36781,0.008 v 0.95602 h 0.9865 v -0.95602 z m 9.06456,0.002 v 0.95602 h 0.98651 v -0.95602 z m -2.14043,0.002 v 0.95602 h 0.98702 v -0.95602 z m 4.40489,5.2e-4 v 0.95601 h 0.98651 v -0.95601 z m -6.75927,0.0103 v 0.95602 h 0.98702 v -0.95602 z m 11.32954,0.004 v 0.95601 h 0.9865 v -0.95601 z m -2.36782,0.008 v 0.95601 h 0.98651 v -0.95601 z m 9.06457,0.002 v 0.95601 h 0.98702 v -0.95601 z m -2.13992,0.002 v 0.95602 h 0.9865 v -0.95602 z m -2.35438,0.0109 v 0.95602 h 0.9865 v -0.95602 z m 6.86625,5.2e-4 v 0.95602 h 0.9865 v -0.95602 z m 4.57026,0.015 v 0.9555 h 0.9865 v -0.9555 z m -2.36782,0.008 v 0.95601 h 0.98651 v -0.95601 z m 9.06457,0.002 v 0.95601 h 0.98702 v -0.95601 z m -2.13992,0.002 v 0.95601 h 0.9865 v -0.95601 z m 4.60178,0.003 v 0.95601 h 0.98702 v -0.95601 z m -6.95616,0.008 v 0.95601 h 0.9865 v -0.95601 z m 11.52643,0.006 v 0.95601 h 0.9865 v -0.95601 z m -2.36782,0.008 v 0.9555 h 0.98651 v -0.9555 z m 9.06457,0.002 v 0.95601 h 0.98702 v -0.95601 z m -2.13993,0.002 v 0.95601 h 0.98651 v -0.95601 z m -2.35437,0.0109 v 0.95601 h 0.9865 v -0.95601 z m 6.86624,5.1e-4 v 0.95602 h 0.98702 v -0.95602 z m -68.2041,2.10347 v 0.9555 h 0.9865 v -0.9555 z m 4.57026,0.015 v 0.95602 h 0.98651 v -0.95602 z m -2.36781,0.008 v 0.95601 h 0.9865 v -0.95601 z m 9.06456,0.002 v 0.95602 h 0.98702 v -0.95602 z m -2.13992,0.002 v 0.9555 h 0.9865 v -0.9555 z m -2.35438,0.011 v 0.95602 h 0.9865 v -0.95602 z m 6.86625,5.2e-4 v 0.9555 h 0.9865 v -0.9555 z m 4.57026,0.0145 v 0.95601 h 0.98651 v -0.95601 z m -2.36781,0.008 v 0.95601 h 0.9865 v -0.95601 z m 9.06456,0.002 v 0.95601 h 0.98702 v -0.95601 z m -2.13992,0.002 v 0.95602 h 0.9865 v -0.95602 z m 4.40438,5.2e-4 v 0.9555 h 0.98702 v -0.9555 z m -6.75876,0.0103 v 0.95601 h 0.98651 v -0.95601 z m 11.32903,0.004 v 0.95601 h 0.9865 v -0.95601 z m -2.36782,0.008 v 0.95602 h 0.98702 v -0.95602 z m 9.06457,0.002 v 0.95601 h 0.98702 v -0.95601 z m -2.13993,0.002 v 0.95601 h 0.98651 v -0.95601 z m -2.35437,0.0109 v 0.95601 h 0.9865 v -0.95601 z m 6.86624,5.1e-4 v 0.95602 h 0.98702 v -0.95602 z m 4.57027,0.0145 v 0.95602 h 0.98702 v -0.95602 z m -2.36782,0.008 v 0.9555 h 0.98702 v -0.9555 z m 9.06508,0.002 v 0.95602 h 0.98651 v -0.95602 z m -2.14043,0.002 v 0.95601 h 0.9865 v -0.95601 z m 4.60178,0.003 v 0.9555 h 0.98702 v -0.9555 z m -6.95616,0.008 v 0.95602 h 0.9865 v -0.95602 z m 11.52643,0.006 v 0.95602 h 0.98701 v -0.95602 z m -2.36782,0.008 v 0.95602 h 0.98702 v -0.95602 z m 9.06508,0.002 v 0.95601 h 0.9865 v -0.95601 z m -2.14044,0.002 v 0.95601 h 0.98702 v -0.95601 z m -2.35438,0.0109 v 0.95601 h 0.98702 v -0.95601 z m 6.86677,5.2e-4 v 0.95549 h 0.9865 v -0.95549 z m -64.95159,6.2427 v 0.95601 h 0.98702 v -0.95601 z m 4.57026,0.0145 v 0.95601 h 0.9865 v -0.95601 z m -2.36781,0.008 v 0.95549 h 0.9865 v -0.95549 z m 6.92464,0.004 v 0.95602 h 0.9865 v -0.95602 z m -2.35438,0.0109 v 0.95601 h 0.9865 v -0.95601 z m 20.60288,0.005 v 0.95602 h 0.9865 v -0.95602 z m -13.65757,5.2e-4 v 0.95601 h 0.98651 v -0.95601 z m 4.57027,0.0145 v 0.95601 h 0.9865 v -0.95601 z m 13.65704,0 v 0.95601 h 0.98702 v -0.95601 z m -2.36729,0.008 v 0.95602 h 0.9865 v -0.95602 z m -13.65757,5.2e-4 v 0.9555 h 0.98651 v -0.9555 z m 6.92465,0.004 v 0.95601 h 0.9865 v -0.95601 z m 13.65704,0 v 0.95549 h 0.98702 v -0.95549 z m 18.28054,0.004 v 0.95601 h 0.98702 v -0.95601 z m -34.29196,0.007 v 0.95601 h 0.9865 v -0.95601 z m 13.65704,0 v 0.9555 h 0.98702 v -0.9555 z m 6.94532,0.006 v 0.9555 h 0.98702 v -0.9555 z m 18.25986,0.002 v 0.95601 h 0.98702 v -0.95601 z m -2.36781,0.008 v 0.95549 h 0.98702 v -0.95549 z m 6.92464,0.004 v 0.95601 h 0.98651 v -0.95601 z m -18.24643,5.1e-4 v 0.95602 h 0.98702 v -0.95602 z m -2.36781,0.008 v 0.95602 h 0.98702 v -0.95602 z m 18.25986,0.003 v 0.95601 h 0.98651 v -0.95601 z m -11.33522,0.002 v 0.95549 h 0.9865 v -0.95549 z m -2.35438,0.0109 v 0.95601 h 0.98702 v -0.95601 z m -47.89268,2.15057 v 0.9555 h 0.98702 v -0.9555 z m 4.57026,0.0145 V 183.33 h 0.98702 v -0.95602 z m -2.36781,0.008 v 0.95602 h 0.98702 v -0.95602 z m 6.92464,0.004 v 0.95549 h 0.9865 v -0.95549 z m -2.35438,0.0109 v 0.9555 h 0.9865 v -0.9555 z m 20.60288,0.005 v 0.95601 h 0.9865 v -0.95601 z m -13.65757,5.1e-4 v 0.9555 h 0.98702 v -0.9555 z m 4.57027,0.0145 v 0.95602 h 0.9865 v -0.95602 z m 13.65756,0 v 0.9555 h 0.9865 v -0.9555 z m -16.02538,0.008 v 0.95602 h 0.98702 v -0.95602 z m 13.65757,0 v 0.95602 h 0.9865 v -0.95602 z m 6.92464,0.004 v 0.95602 h 0.9865 v -0.95602 z m -13.65757,5.2e-4 v 0.95601 h 0.98651 v -0.95601 z m 31.93811,0.004 v 0.95601 h 0.9865 v -0.95601 z m -20.63492,0.007 v 0.95602 h 0.9865 v -0.95602 z m -13.65756,5.2e-4 v 0.95601 h 0.9865 v -0.95601 z m 20.60287,0.005 v 0.95601 h 0.98651 v -0.95601 z m 18.25935,0.003 v 0.95602 h 0.98702 v -0.95602 z m -2.36729,0.008 v 0.95602 h 0.9865 v -0.95602 z m 6.92412,0.004 v 0.95549 h 0.98702 v -0.95549 z m -18.24591,5.1e-4 v 0.9555 h 0.9865 v -0.9555 z m -2.36782,0.008 v 0.95601 h 0.98651 v -0.95601 z m 18.25935,0.003 v 0.9555 h 0.98702 v -0.9555 z m -11.33522,0.001 v 0.95602 h 0.98702 v -0.95602 z m -2.35438,0.0109 v 0.95601 h 0.98702 v -0.95601 z" /><rect
         style="fill:#1862d7;fill-opacity:0.653568;stroke-width:0.338351;stroke-linecap:round;stroke-linejoin:round"
         id="rect4-5-3-4-0-1"
         width="65.408386"
         height="0.61797804"
         x="159.69765"
         y="144.21417" /><rect
         style="fill:#d71818;fill-opacity:0.653568;stroke-width:0.337787;stroke-linecap:round;stroke-linejoin:round"
         id="rect4-1-5-5-0-2-7"
         width="65.190353"
         height="0.61797804"
         x="159.88713"
         y="138.03923" /><rect
         style="fill:#1862d7;fill-opacity:0.653568;stroke-width:0.338736;stroke-linecap:round;stroke-linejoin:round"
         id="rect4-85-1-5-2-8-1"
         width="65.557137"
         height="0.61797804"
         x="159.9877"
         y="-178.99344"
         transform="scale(1,-1)" /><rect
         style="fill:#d71818;fill-opacity:0.653568;stroke-width:0.338172;stroke-linecap:round;stroke-linejoin:round"
         id="rect4-1-6-1-3-6-9-1"
         width="65.339104"
         height="0.61797804"
         x="160.17719"
         y="-185.1684"
         transform="scale(1,-1)" /><rect
         style="fill:#c6c6c6;fill-opacity:0.654902;stroke-width:0.332848;stroke-linecap:round;stroke-linejoin:round"
         id="rect5-7-2-0-89-5"
         width="73.862076"
         height="2.8780539"
         x="155.28246"
         y="160.14157" /></g><g
       id="g2-1-1-7-24-8"
       transform="matrix(0,2.0010048,-2.0010048,0,610.06001,49.20405)"
       style="display:inline"><rect
         style="fill:#e0e0e0;fill-opacity:1;stroke-width:0.312293;stroke-linecap:round;stroke-linejoin:round"
         id="rect1-2-6-5-6-5-0"
         width="76.516815"
         height="48.472176"
         x="154.07533"
         y="137.42409" /><path
         id="rect2-4-3-5-6-5-1"
         style="fill:#bbbbbb;fill-opacity:0.653571;stroke-width:0.3;stroke-linecap:round;stroke-linejoin:round"
         d="m 208.01667,139.88392 v 0.95602 h 0.98702 v -0.95602 z m 2.35438,0.0109 v 0.95601 h 0.98702 v -0.95601 z m 11.33522,0.002 v 0.95601 h 0.98702 v -0.95601 z m -18.25935,0.003 v 0.9555 h 0.9865 v -0.9555 z m 2.3673,0.008 v 0.95602 h 0.98702 v -0.95602 z m 18.24643,5.2e-4 v 0.95601 h 0.98702 v -0.95601 z m -6.92464,0.004 v 0.9555 h 0.98702 v -0.9555 z m 2.36781,0.008 v 0.95602 h 0.98702 v -0.95602 z m -18.25935,0.003 v 0.9555 h 0.9865 v -0.9555 z m -20.60288,0.005 v 0.95601 h 0.98651 v -0.95601 z m 13.65705,0 v 0.95601 h 0.98702 v -0.95601 z m 20.63544,0.007 v 0.95602 h 0.9865 v -0.95602 z m -31.93811,0.004 v 0.95601 h 0.98651 v -0.95601 z m 13.65705,5.1e-4 v 0.9555 h 0.98702 v -0.9555 z m -20.58169,0.003 v 0.95601 h 0.9865 v -0.95601 z m 13.65757,5.1e-4 v 0.95602 h 0.9865 v -0.95602 z m -11.28975,0.008 v 0.9555 h 0.9865 v -0.9555 z m 13.65756,0 v 0.95602 h 0.9865 v -0.95602 z m -18.22783,0.0145 v 0.95602 h 0.9865 v -0.95602 z m 13.65757,5.2e-4 v 0.9555 h 0.9865 v -0.9555 z m -20.60288,0.005 v 0.95601 h 0.9865 v -0.95601 z m 2.35438,0.0109 v 0.95601 h 0.9865 v -0.95601 z m -6.92464,0.004 v 0.95601 h 0.98702 v -0.95601 z m 2.36781,0.008 v 0.95602 h 0.9865 v -0.95602 z m -4.57026,0.0145 v 0.95602 h 0.98702 v -0.95602 z m 47.89268,2.15008 v 0.95601 h 0.9865 v -0.95601 z m 2.35438,0.0108 v 0.95601 h 0.9865 v -0.95601 z m 11.33522,0.002 v 0.9555 h 0.98651 v -0.9555 z m -18.25986,0.002 v 0.95601 h 0.98702 v -0.95601 z m 2.36781,0.008 v 0.9555 h 0.9865 v -0.9555 z m 18.24643,5.2e-4 v 0.95602 h 0.9865 v -0.95602 z m -6.92464,0.004 v 0.95601 h 0.98702 v -0.95601 z m 2.36781,0.008 v 0.95601 h 0.98651 v -0.95601 z m -18.25986,0.003 v 0.95602 h 0.98702 v -0.95602 z m -20.60288,0.006 v 0.9555 h 0.98702 v -0.9555 z m 13.65756,0 v 0.95601 h 0.98702 v -0.95601 z m 20.63492,0.007 v 0.95601 h 0.98702 v -0.95601 z m -31.9381,0.004 v 0.9555 h 0.98702 v -0.9555 z m 13.65756,0 v 0.95601 h 0.98702 v -0.95601 z m -20.58169,0.004 v 0.95601 h 0.98651 v -0.95601 z m 13.65705,5.1e-4 v 0.9555 h 0.98702 v -0.9555 z m -11.28923,0.007 v 0.95601 h 0.9865 v -0.95601 z m 13.65704,5.2e-4 v 0.95601 h 0.98702 v -0.95601 z m -18.22731,0.0145 v 0.95601 h 0.98651 v -0.95601 z m 13.65705,0 v 0.95601 h 0.98702 v -0.95601 z m -20.60236,0.006 v 0.9555 h 0.9865 v -0.9555 z m 2.35438,0.0108 v 0.9555 h 0.9865 v -0.9555 z m -6.92464,0.004 v 0.95601 h 0.9865 v -0.95601 z m 2.36781,0.008 v 0.95601 h 0.9865 v -0.95601 z m -4.57026,0.015 v 0.95601 h 0.9865 v -0.95601 z m 64.95107,6.24397 v 0.95601 h 0.98702 v -0.95601 z m -6.86625,5.2e-4 v 0.95601 h 0.98651 V 148.529 Z m 2.35438,0.0109 v 0.95601 h 0.98651 v -0.95601 z m 2.14044,0.002 v 0.95601 h 0.9865 v -0.95601 z m -9.06508,0.002 v 0.95601 h 0.98702 v -0.95601 z m 2.36781,0.008 v 0.9555 h 0.98651 v -0.9555 z m -11.52642,0.006 v 0.9555 h 0.9865 v -0.9555 z m 6.95616,0.008 v 0.95602 h 0.98702 v -0.95602 z m -4.60179,0.003 v 0.95601 h 0.98651 v -0.95601 z m 2.13993,0.002 v 0.9555 h 0.98702 v -0.9555 z m -9.06457,0.002 v 0.95602 h 0.98651 v -0.95602 z m 2.36782,0.008 v 0.9555 h 0.9865 v -0.9555 z m -4.57027,0.0145 v 0.95602 h 0.98702 v -0.95602 z m -6.86624,5.2e-4 v 0.95601 h 0.9865 v -0.95601 z m 2.35437,0.0109 v 0.95601 h 0.98651 v -0.95601 z m 2.13993,0.002 v 0.95601 h 0.98702 v -0.95601 z m -9.06457,0.002 v 0.95601 h 0.98651 v -0.95601 z m 2.36782,0.008 v 0.95549 h 0.9865 v -0.95549 z m -11.32903,0.004 v 0.95601 h 0.98651 v -0.95601 z m 6.75876,0.0103 v 0.95601 h 0.98702 v -0.95601 z m -4.40438,5.1e-4 v 0.95602 h 0.9865 v -0.95602 z m 2.13992,0.002 v 0.95601 h 0.98702 v -0.95601 z m -9.06456,0.002 v 0.95601 h 0.9865 v -0.95601 z m 2.36781,0.008 v 0.9555 h 0.98651 v -0.9555 z m -4.57026,0.0145 v 0.95601 h 0.9865 v -0.95601 z m -6.86625,5.1e-4 v 0.95602 h 0.9865 v -0.95602 z m 2.35386,0.011 v 0.95601 h 0.98702 v -0.95601 z m 2.14044,0.002 v 0.95602 h 0.9865 v -0.95602 z m -9.06456,0.002 v 0.95602 h 0.9865 v -0.95602 z m 2.36781,0.008 v 0.9555 h 0.9865 v -0.9555 z m -4.57026,0.015 v 0.95602 h 0.9865 v -0.95602 z m 68.2041,2.1028 v 0.9555 h 0.98702 v -0.9555 z m -6.86624,5.2e-4 v 0.9555 h 0.9865 v -0.9555 z m 2.35437,0.0108 v 0.9555 h 0.98651 v -0.9555 z m 2.13993,0.002 v 0.95549 h 0.98702 v -0.95549 z m -9.06457,0.002 v 0.95601 h 0.98651 v -0.95601 z m 2.36782,0.008 v 0.95601 h 0.9865 v -0.95601 z m -11.52643,0.006 v 0.95601 h 0.9865 v -0.95601 z m 6.95616,0.009 v 0.95601 h 0.98651 v -0.95601 z m -4.6023,0.002 v 0.95602 h 0.98702 v -0.95602 z m 2.14044,0.002 v 0.95601 h 0.9865 v -0.95601 z m -9.06457,0.002 v 0.95601 h 0.98651 v -0.95601 z m 2.36782,0.008 v 0.95601 h 0.9865 v -0.95601 z m -4.57026,0.015 v 0.9555 h 0.9865 v -0.9555 z m -6.86677,5.2e-4 v 0.9555 h 0.98702 v -0.9555 z m 2.35438,0.0109 v 0.9555 h 0.98702 v -0.9555 z m 2.14044,0.002 v 0.9555 h 0.9865 v -0.9555 z m -9.06457,0.002 v 0.95601 h 0.98651 v -0.95601 z m 2.36782,0.008 v 0.95602 h 0.9865 v -0.95602 z m -11.32954,0.005 v 0.9555 h 0.98702 v -0.9555 z m 6.75927,0.0103 v 0.95601 h 0.98651 v -0.95601 z m -4.40489,5.1e-4 v 0.9555 h 0.98702 v -0.9555 z m 2.14043,0.002 v 0.9555 h 0.98651 v -0.9555 z m -9.06456,0.002 v 0.95602 h 0.9865 v -0.95602 z m 2.3673,0.008 v 0.95602 h 0.98702 v -0.95602 z m -4.56975,0.015 v 0.9555 h 0.9865 v -0.9555 z m -6.86676,5.2e-4 v 0.95549 h 0.98702 v -0.95549 z m 2.35437,0.011 v 0.9555 h 0.98702 v -0.9555 z m 2.14044,0.002 v 0.95549 h 0.98651 v -0.95549 z m -9.06508,0.002 v 0.95601 h 0.98702 v -0.95601 z m 2.36782,0.008 v 0.95601 h 0.98702 v -0.95601 z m -4.56975,0.015 v 0.95602 h 0.9865 v -0.95602 z m 68.15863,2.10597 v 0.95602 h 0.98702 v -0.95602 z m -6.86625,5.2e-4 v 0.95602 h 0.98651 V 153.08 Z m 2.35438,0.0109 v 0.95602 h 0.9865 v -0.95602 z m 2.14044,0.002 v 0.95601 h 0.9865 v -0.97251 z m -9.06508,0.002 v 0.95601 h 0.98702 v -0.95601 z m 2.36781,0.008 v 0.9555 h 0.98702 v -0.9555 z m -11.52643,0.006 v 0.9555 h 0.98651 v -0.9555 z m 6.95617,0.008 v 0.95601 h 0.98702 v -0.95601 z m -4.60179,0.003 v 0.95602 h 0.98651 v -0.95602 z m 2.13992,0.002 v 0.9555 h 0.98702 v -0.9555 z m -9.06456,0.002 v 0.95601 h 0.98702 v -0.95601 z m 2.36782,0.008 v 0.95602 h 0.9865 v -0.95602 z m -4.57027,0.015 v 0.95601 h 0.98702 v -0.95601 z m -6.86625,5.1e-4 v 0.95602 h 0.98651 v -0.95602 z m 2.35438,0.0109 v 0.95601 h 0.98651 v -0.95601 z m 2.13992,0.002 v 0.95602 h 0.98702 v -0.95602 z m -9.06456,0.002 v 0.95602 h 0.9865 v -0.95602 z m 2.36781,0.008 v 0.9555 h 0.98651 v -0.9555 z m -11.32902,0.004 v 0.95601 h 0.9865 v -0.95601 z m 6.75876,0.0103 v 0.95602 h 0.98702 v -0.95602 z m -4.40438,5.2e-4 v 0.95601 h 0.9865 v -0.95601 z m 2.13992,0.002 v 0.95602 h 0.98702 v -0.95602 z m -9.06456,0.002 v 0.95601 h 0.9865 v -0.95601 z m 2.36781,0.008 v 0.9555 h 0.9865 v -0.9555 z m -4.57026,0.0145 v 0.95602 h 0.9865 v -0.95602 z m -6.86625,5.2e-4 v 0.95601 h 0.9865 v -0.95601 z m 2.35438,0.011 v 0.95602 h 0.9865 v -0.95602 z m 2.13992,0.002 v 0.95601 h 0.98702 v -0.95601 z m -9.06456,0.002 v 0.95601 h 0.9865 v -0.95601 z m 2.36781,0.008 v 0.95549 h 0.9865 v -0.95549 z m -4.57026,0.015 v 0.95601 h 0.9865 v -0.95601 z m 68.2041,2.10351 v 0.95549 h 0.98702 v -0.95549 z m -6.86625,5.1e-4 v 0.9555 h 0.98651 v -0.9555 z m 2.35438,0.0109 v 0.95549 h 0.98651 v -0.95549 z m 2.13992,0.002 v 0.9555 h 0.98702 v -0.9555 z m -9.06456,0.002 v 0.95602 h 0.9865 v -0.95602 z m 2.36781,0.008 v 0.95602 h 0.98651 v -0.95602 z m -11.52642,0.006 v 0.95601 h 0.9865 v -0.95601 z m 6.95616,0.009 v 0.95602 h 0.9865 v -0.95602 z m -4.60179,0.002 v 0.95601 h 0.98651 v -0.95601 z m 2.13993,0.002 v 0.95601 h 0.98702 v -0.95601 z m -9.06457,0.002 v 0.95602 h 0.98651 v -0.95602 z m 2.36782,0.008 v 0.95602 h 0.9865 v -0.95602 z m -4.57027,0.015 v 0.9555 h 0.98651 v -0.9555 z m -6.86676,5.2e-4 v 0.95549 h 0.98702 v -0.95549 z m 2.35438,0.0109 v 0.9555 h 0.98702 v -0.9555 z m 2.14044,0.002 v 0.95549 h 0.9865 v -0.95549 z m -9.06457,0.002 v 0.95601 h 0.98651 v -0.95601 z m 2.36782,0.008 v 0.95601 h 0.9865 v -0.95601 z m -11.32954,0.004 v 0.95602 h 0.98702 v -0.95602 z m 6.75927,0.0108 v 0.95602 h 0.98651 v -0.95602 z m -4.4049,5.2e-4 v 0.9555 h 0.98702 v -0.9555 z m 2.14044,0.002 v 0.95601 h 0.9865 v -0.95601 z m -9.06456,0.002 v 0.95601 h 0.9865 v -0.95601 z m 2.3673,0.008 v 0.95601 h 0.98702 v -0.95601 z m -4.56975,0.015 v 0.95549 h 0.9865 v -0.95549 z m -6.86677,5.1e-4 v 0.9555 h 0.98702 v -0.9555 z m 2.35438,0.011 v 0.9555 h 0.98702 v -0.9555 z m 2.14044,0.002 v 0.9555 h 0.9865 v -0.9555 z m -9.06508,0.002 v 0.95602 h 0.98702 v -0.95602 z m 2.36782,0.008 v 0.95602 h 0.98701 v -0.95602 z m -4.56975,0.015 v 0.95601 h 0.9865 v -0.95601 z m 68.19118,2.00566 v 0.95601 h 0.98702 v -0.95601 z m -6.86624,5.1e-4 v 0.9555 h 0.9865 v -0.9555 z m 2.35438,0.0109 v 0.95601 h 0.9865 v -0.95601 z m 2.13992,0.002 v 0.95602 h 0.98702 v -0.95602 z m -9.06457,0.002 v 0.95602 h 0.98651 v -0.95602 z m 2.36782,0.008 v 0.9555 h 0.9865 v -0.9555 z m -11.52643,0.006 v 0.9555 h 0.9865 v -0.9555 z m 6.95616,0.008 v 0.95602 h 0.98651 v -0.95602 z m -4.60178,0.003 v 0.95549 h 0.9865 v -0.95549 z m 2.13992,0.002 v 0.9555 h 0.98702 v -0.9555 z m -9.06456,0.002 v 0.95602 h 0.9865 v -0.95602 z m 2.36781,0.008 v 0.95602 h 0.9865 v -0.95602 z m -4.57026,0.015 v 0.95601 h 0.9865 v -0.95601 z m -6.86677,5.2e-4 v 0.95549 h 0.98702 v -0.95549 z m 2.35438,0.0109 v 0.95601 h 0.98702 v -0.95601 z m 2.14044,0.002 v 0.95549 h 0.9865 v -0.95549 z m -9.06457,0.002 v 0.95601 h 0.98651 v -0.95601 z m 2.36782,0.008 v 0.95601 h 0.9865 v -0.95601 z m -11.32954,0.005 v 0.9555 h 0.98702 v -0.9555 z m 6.75928,0.0103 v 0.95602 h 0.9865 v -0.95602 z m -4.4049,5.2e-4 v 0.9555 h 0.98702 v -0.9555 z m 2.14043,0.002 v 0.9555 h 0.98651 v -0.9555 z m -9.06456,0.002 v 0.95601 h 0.9865 v -0.95601 z m 2.3673,0.008 v 0.95601 h 0.98702 v -0.95601 z m -4.56975,0.015 v 0.95601 h 0.9865 v -0.95601 z m -6.86676,5.1e-4 v 0.95602 h 0.98702 v -0.95602 z m 2.35438,0.011 v 0.95602 h 0.98702 v -0.95602 z m 2.14043,0.002 v 0.95602 h 0.98651 v -0.95602 z m -9.06508,0.002 v 0.95602 h 0.98702 v -0.95602 z m 2.36782,0.008 v 0.9555 h 0.98702 v -0.9555 z m -4.56975,0.015 v 0.95601 h 0.9865 v -0.95601 z m 0.10697,6.96996 v 0.95549 h 0.9865 v -0.95549 z m 4.57026,0.015 v 0.95601 h 0.98651 v -0.95601 z m -2.36781,0.008 v 0.95601 h 0.9865 v -0.95601 z m 9.06456,0.002 v 0.95602 h 0.98651 v -0.95602 z m -2.14043,0.002 v 0.95602 h 0.98702 v -0.95602 z m -2.35438,0.011 v 0.95602 h 0.98702 v -0.95602 z m 6.86676,5.2e-4 v 0.95601 h 0.9865 v -0.95601 z m 4.57027,0.0145 v 0.95601 h 0.9865 v -0.95601 z m -2.36782,0.008 v 0.9555 h 0.9865 v -0.9555 z m 9.06456,0.002 v 0.95601 h 0.98651 v -0.95601 z m -2.14043,0.002 v 0.95601 h 0.98702 v -0.95601 z m 4.4049,5.1e-4 v 0.95602 h 0.9865 v -0.95602 z m -6.75928,0.0103 v 0.95601 h 0.98702 v -0.95601 z m 11.32954,0.004 v 0.95602 h 0.9865 v -0.95602 z m -2.36781,0.008 v 0.9555 h 0.9865 v -0.9555 z m 9.06456,0.002 v 0.95601 h 0.98702 v -0.95601 z m -2.13992,0.002 v 0.95601 h 0.9865 v -0.95601 z m -2.35438,0.0109 v 0.95601 h 0.9865 v -0.95601 z m 6.86625,5.2e-4 v 0.95601 h 0.9865 v -0.95601 z m 4.57026,0.0145 v 0.95601 h 0.9865 v -0.95601 z m -2.36781,0.008 v 0.9555 h 0.9865 v -0.9555 z m 9.06456,0.002 v 0.95602 h 0.98702 v -0.95602 z m -2.13992,0.002 v 0.95601 h 0.9865 v -0.95601 z m 4.60178,0.003 v 0.9555 h 0.98702 v -0.9555 z m -6.95616,0.008 v 0.95602 h 0.9865 v -0.95602 z m 11.52643,0.006 v 0.95602 h 0.9865 v -0.95602 z m -2.36782,0.008 v 0.9555 h 0.98702 v -0.9555 z m 9.06457,0.002 v 0.95602 h 0.98702 v -0.95602 z m -2.13992,0.002 v 0.95601 h 0.9865 v -0.95601 z m -2.35438,0.0109 v 0.95602 h 0.9865 v -0.95602 z m 6.86624,5.2e-4 v 0.95601 h 0.98702 v -0.95601 z m -68.19118,2.00364 v 0.95601 h 0.9865 v -0.95601 z m 4.57026,0.015 v 0.95601 h 0.98651 v -0.95601 z m -2.36781,0.008 v 0.9555 h 0.9865 v -0.9555 z m 9.06456,0.002 v 0.95602 h 0.9865 v -0.95602 z m -2.14044,0.002 v 0.95602 h 0.98702 v -0.95602 z m -2.35438,0.011 v 0.95602 h 0.98702 v -0.95602 z m 6.86677,5.2e-4 v 0.95601 h 0.9865 v -0.95601 z m 4.57026,0.0145 v 0.95601 h 0.98651 v -0.95601 z m -2.36781,0.008 v 0.95601 h 0.9865 v -0.95601 z m 9.06456,0.002 v 0.95601 h 0.9865 v -0.95601 z m -2.14044,0.002 v 0.95601 h 0.98702 v -0.95601 z m 4.4049,5.1e-4 v 0.95602 h 0.98651 v -0.95602 z m -6.75927,0.0103 v 0.95601 h 0.98702 v -0.95601 z m 11.32954,0.004 v 0.95602 h 0.9865 v -0.95602 z m -2.36782,0.008 v 0.95601 h 0.98651 v -0.95601 z m 9.06457,0.002 v 0.95601 h 0.98702 v -0.95601 z m -2.13993,0.002 v 0.95601 h 0.98651 v -0.95601 z m -2.35437,0.0109 v 0.95601 h 0.9865 v -0.95601 z m 6.86624,5.2e-4 v 0.95601 h 0.98651 v -0.95601 z m 4.57027,0.015 v 0.9555 h 0.9865 v -0.98826 z m -2.36782,0.008 v 0.95602 h 0.98651 v -0.95602 z m 9.06457,0.002 v 0.95602 h 0.98702 v -0.95602 z m -2.13992,0.002 v 0.95602 h 0.9865 v -0.95602 z m 4.60178,0.003 v 0.95601 h 0.98702 v -0.95601 z m -6.95616,0.008 v 0.95602 h 0.9865 v -0.95602 z m 11.52643,0.006 v 0.95602 h 0.9865 v -0.95602 z m -2.36782,0.008 v 0.9555 h 0.98702 v -0.9555 z m 9.06456,0.002 v 0.95602 h 0.98702 v -0.95602 z m -2.13992,0.002 v 0.95601 h 0.98651 v -0.95601 z m -2.35438,0.0109 v 0.95602 h 0.98651 v -0.95602 z m 6.86625,5.2e-4 v 0.95601 h 0.98702 v -0.95601 z m -68.2041,2.10336 v 0.9555 h 0.9865 v -0.9555 z m 4.57026,0.015 v 0.95601 h 0.9865 v -0.95601 z m -2.36781,0.008 v 0.95601 h 0.9865 v -0.95601 z m 9.06456,0.002 v 0.95601 h 0.98702 v -0.95601 z m -2.13992,0.002 v 0.95602 h 0.9865 v -0.95602 z m -2.35438,0.011 v 0.95601 h 0.9865 v -0.95601 z m 6.86625,5.1e-4 v 0.9555 h 0.98702 v -0.9555 z m 4.57026,0.0145 v 0.95602 h 0.9865 v -0.95602 z m -2.36781,0.008 v 0.95602 h 0.9865 v -0.95602 z m 9.06456,0.002 v 0.95602 h 0.98702 v -0.95602 z m -2.13992,0.002 v 0.95601 h 0.9865 v -0.95601 z m 4.40438,5.1e-4 v 0.9555 h 0.98702 v -0.9555 z m -6.75876,0.0103 v 0.95601 h 0.9865 v -0.95601 z m 11.32902,0.004 v 0.95602 h 0.98651 v -0.95602 z m -2.36781,0.008 v 0.95601 h 0.98702 v -0.95601 z m 9.06456,0.002 v 0.95602 h 0.98702 v -0.95602 z m -2.13992,0.002 v 0.95601 h 0.98651 v -0.95601 z m -2.35438,0.0108 v 0.95602 h 0.98651 v -0.95602 z m 6.86625,5.2e-4 v 0.95601 h 0.98702 v -0.95601 z m 4.57027,0.0145 v 0.95601 h 0.98702 v -0.95601 z m -2.36782,0.008 v 0.95549 h 0.98702 v -0.95549 z m 9.06508,0.002 v 0.95601 h 0.9865 v -0.95601 z m -2.14044,0.002 v 0.95602 h 0.98651 v -0.95602 z m 4.60231,0.003 v 0.95549 h 0.9865 v -0.95549 z m -6.95668,0.008 v 0.95601 h 0.9865 v -0.95601 z m 11.52642,0.006 v 0.95601 h 0.98702 v -0.95601 z m -2.36781,0.008 v 0.95601 h 0.98702 v -0.95601 z m 9.06508,0.002 v 0.95601 h 0.9865 v -0.95601 z m -2.14044,0.002 v 0.95602 h 0.98702 v -0.95602 z m -2.35438,0.0109 v 0.95602 h 0.98702 v -0.95602 z m 6.86677,5.2e-4 v 0.95602 h 0.9865 V 169.291 Z m -68.15915,2.10555 v 0.95602 h 0.9865 v -0.95602 z m 4.56975,0.015 v 0.95602 h 0.98702 v -0.95602 z m -2.3673,0.008 v 0.9555 h 0.9865 v -0.9555 z m 9.06456,0.002 v 0.95601 h 0.98651 v -0.95601 z m -2.14044,0.002 v 0.95601 h 0.98702 v -0.95601 z m -2.35437,0.011 v 0.95601 h 0.98702 v -0.95601 z m 6.86676,5.2e-4 v 0.95601 h 0.9865 v -0.95601 z m 4.57026,0.0145 v 0.95601 h 0.98651 v -0.95601 z m -2.36781,0.008 v 0.95602 h 0.9865 v -0.95602 z m 9.06456,0.002 v 0.95602 h 0.98651 v -0.95602 z m -2.14043,0.002 v 0.95602 h 0.98702 v -0.95602 z m 4.40489,5.2e-4 v 0.95601 h 0.98651 v -0.95601 z m -6.75927,0.0103 v 0.95602 h 0.98702 v -0.95602 z m 11.32954,0.004 v 0.95601 h 0.9865 v -0.95601 z m -2.36782,0.008 v 0.95601 h 0.98651 v -0.95601 z m 9.06457,0.002 v 0.95601 h 0.98702 v -0.95601 z m -2.13992,0.002 v 0.95602 h 0.9865 v -0.95602 z m -2.35438,0.0109 v 0.95602 h 0.9865 v -0.95602 z m 6.86625,5.2e-4 v 0.95602 h 0.9865 v -0.95602 z m 4.57026,0.015 v 0.9555 h 0.9865 v -0.9555 z m -2.36782,0.008 v 0.95601 h 0.98651 v -0.95601 z m 9.06457,0.002 v 0.95601 h 0.98702 v -0.95601 z m -2.13992,0.002 v 0.95601 h 0.9865 v -0.95601 z m 4.60178,0.003 v 0.95601 h 0.98702 v -0.95601 z m -6.95616,0.008 v 0.95601 h 0.9865 v -0.95601 z m 11.52643,0.006 v 0.95601 h 0.9865 v -0.95601 z m -2.36782,0.008 v 0.9555 h 0.98651 v -0.9555 z m 9.06457,0.002 v 0.95601 h 0.98702 v -0.95601 z m -2.13993,0.002 v 0.95601 h 0.98651 v -0.95601 z m -2.35437,0.0109 v 0.95601 h 0.9865 v -0.95601 z m 6.86624,5.1e-4 v 0.95602 h 0.98702 v -0.95602 z m -68.2041,2.10347 v 0.9555 h 0.9865 v -0.9555 z m 4.57026,0.015 v 0.95602 h 0.98651 v -0.95602 z m -2.36781,0.008 v 0.95601 h 0.9865 v -0.95601 z m 9.06456,0.002 v 0.95602 h 0.98702 v -0.95602 z m -2.13992,0.002 v 0.9555 h 0.9865 v -0.9555 z m -2.35438,0.011 v 0.95602 h 0.9865 v -0.95602 z m 6.86625,5.2e-4 v 0.9555 h 0.9865 v -0.9555 z m 4.57026,0.0145 v 0.95601 h 0.98651 v -0.95601 z m -2.36781,0.008 v 0.95601 h 0.9865 v -0.95601 z m 9.06456,0.002 v 0.95601 h 0.98702 v -0.95601 z m -2.13992,0.002 v 0.95602 h 0.9865 v -0.95602 z m 4.40438,5.2e-4 v 0.9555 h 0.98702 v -0.9555 z m -6.75876,0.0103 v 0.95601 h 0.98651 v -0.95601 z m 11.32903,0.004 v 0.95601 h 0.9865 v -0.95601 z m -2.36782,0.008 v 0.95602 h 0.98702 v -0.95602 z m 9.06457,0.002 v 0.95601 h 0.98702 v -0.95601 z m -2.13993,0.002 v 0.95601 h 0.98651 v -0.95601 z m -2.35437,0.0109 v 0.95601 h 0.9865 v -0.95601 z m 6.86624,5.1e-4 v 0.95602 h 0.98702 v -0.95602 z m 4.57027,0.0145 v 0.95602 h 0.98702 v -0.95602 z m -2.36782,0.008 v 0.9555 h 0.98702 v -0.9555 z m 9.06508,0.002 v 0.95602 h 0.98651 v -0.95602 z m -2.14043,0.002 v 0.95601 h 0.9865 v -0.95601 z m 4.60178,0.003 v 0.9555 h 0.98702 v -0.9555 z m -6.95616,0.008 v 0.95602 h 0.9865 v -0.95602 z m 11.52643,0.006 v 0.95602 h 0.98701 v -0.95602 z m -2.36782,0.008 v 0.95602 h 0.98702 v -0.95602 z m 9.06508,0.002 v 0.95601 h 0.9865 v -0.95601 z m -2.14044,0.002 v 0.95601 h 0.98702 v -0.95601 z m -2.35438,0.0109 v 0.95601 h 0.98702 v -0.95601 z m 6.86677,5.2e-4 v 0.95549 h 0.9865 v -0.95549 z m -64.95159,6.2427 v 0.95601 h 0.98702 v -0.95601 z m 4.57026,0.0145 v 0.95601 h 0.9865 v -0.95601 z m -2.36781,0.008 v 0.95549 h 0.9865 v -0.95549 z m 6.92464,0.004 v 0.95602 h 0.9865 v -0.95602 z m -2.35438,0.0109 v 0.95601 h 0.9865 v -0.95601 z m 20.60288,0.005 v 0.95602 h 0.9865 v -0.95602 z m -13.65757,5.2e-4 v 0.95601 h 0.98651 v -0.95601 z m 4.57027,0.0145 v 0.95601 h 0.9865 v -0.95601 z m 13.65704,0 v 0.95601 h 0.98702 v -0.95601 z m -2.36729,0.008 v 0.95602 h 0.9865 v -0.95602 z m -13.65757,5.2e-4 v 0.9555 h 0.98651 v -0.9555 z m 6.92465,0.004 v 0.95601 h 0.9865 v -0.95601 z m 13.65704,0 v 0.95549 h 0.98702 v -0.95549 z m 18.28054,0.004 v 0.95601 h 0.98702 v -0.95601 z m -34.29196,0.007 v 0.95601 h 0.9865 v -0.95601 z m 13.65704,0 v 0.9555 h 0.98702 v -0.9555 z m 6.94532,0.006 v 0.9555 h 0.98702 v -0.9555 z m 18.25986,0.002 v 0.95601 h 0.98702 v -0.95601 z m -2.36781,0.008 v 0.95549 h 0.98702 v -0.95549 z m 6.92464,0.004 v 0.95601 h 0.98651 v -0.95601 z m -18.24643,5.1e-4 v 0.95602 h 0.98702 v -0.95602 z m -2.36781,0.008 v 0.95602 h 0.98702 v -0.95602 z m 18.25986,0.003 v 0.95601 h 0.98651 v -0.95601 z m -11.33522,0.002 v 0.95549 h 0.9865 v -0.95549 z m -2.35438,0.0109 v 0.95601 h 0.98702 v -0.95601 z m -47.89268,2.15057 v 0.9555 h 0.98702 v -0.9555 z m 4.57026,0.0145 V 183.33 h 0.98702 v -0.95602 z m -2.36781,0.008 v 0.95602 h 0.98702 v -0.95602 z m 6.92464,0.004 v 0.95549 h 0.9865 v -0.95549 z m -2.35438,0.0109 v 0.9555 h 0.9865 v -0.9555 z m 20.60288,0.005 v 0.95601 h 0.9865 v -0.95601 z m -13.65757,5.1e-4 v 0.9555 h 0.98702 v -0.9555 z m 4.57027,0.0145 v 0.95602 h 0.9865 v -0.95602 z m 13.65756,0 v 0.9555 h 0.9865 v -0.9555 z m -16.02538,0.008 v 0.95602 h 0.98702 v -0.95602 z m 13.65757,0 v 0.95602 h 0.9865 v -0.95602 z m 6.92464,0.004 v 0.95602 h 0.9865 v -0.95602 z m -13.65757,5.2e-4 v 0.95601 h 0.98651 v -0.95601 z m 31.93811,0.004 v 0.95601 h 0.9865 v -0.95601 z m -20.63492,0.007 v 0.95602 h 0.9865 v -0.95602 z m -13.65756,5.2e-4 v 0.95601 h 0.9865 v -0.95601 z m 20.60287,0.005 v 0.95601 h 0.98651 v -0.95601 z m 18.25935,0.003 v 0.95602 h 0.98702 v -0.95602 z m -2.36729,0.008 v 0.95602 h 0.9865 v -0.95602 z m 6.92412,0.004 v 0.95549 h 0.98702 v -0.95549 z m -18.24591,5.1e-4 v 0.9555 h 0.9865 v -0.9555 z m -2.36782,0.008 v 0.95601 h 0.98651 v -0.95601 z m 18.25935,0.003 v 0.9555 h 0.98702 v -0.9555 z m -11.33522,0.001 v 0.95602 h 0.98702 v -0.95602 z m -2.35438,0.0109 v 0.95601 h 0.98702 v -0.95601 z" /><rect
         style="fill:#1862d7;fill-opacity:0.653568;stroke-width:0.338736;stroke-linecap:round;stroke-linejoin:round"
         id="rect4-5-3-4-0-1-2"
         width="65.557137"
         height="0.61797804"
         x="159.69765"
         y="144.21417" /><rect
         style="fill:#d71818;fill-opacity:0.653568;stroke-width:0.338172;stroke-linecap:round;stroke-linejoin:round"
         id="rect4-1-5-5-0-2-7-5"
         width="65.339104"
         height="0.61797804"
         x="159.88713"
         y="138.03923" /><rect
         style="fill:#1862d7;fill-opacity:0.653568;stroke-width:0.338138;stroke-linecap:round;stroke-linejoin:round"
         id="rect4-85-1-5-2-8-1-0"
         width="65.325745"
         height="0.61797804"
         x="159.9877"
         y="-178.99344"
         transform="scale(1,-1)" /><rect
         style="fill:#d71818;fill-opacity:0.653568;stroke-width:0.337101;stroke-linecap:round;stroke-linejoin:round"
         id="rect4-1-6-1-3-6-9-1-9"
         width="64.925903"
         height="0.61797804"
         x="160.17719"
         y="-185.1684"
         transform="scale(1,-1)" /><rect
         style="fill:#c6c6c6;fill-opacity:0.654902;stroke-width:0.332848;stroke-linecap:round;stroke-linejoin:round"
         id="rect5-7-2-0-89-5-4"
         width="73.862076"
         height="2.8780539"
         x="155.28246"
         y="160.14157" /></g><g
       id="g3-6-9-27"
       transform="translate(-128.82461,336.9649)"
       style="display:inline"><rect
         style="fill:#117493;fill-opacity:1;stroke-width:0.3;stroke-linecap:round;stroke-linejoin:round"
         id="rect6-3-8-1-9-6"
         width="32.181873"
         height="78.056305"
         x="285.98361"
         y="93.133331" /><rect
         style="fill:#c6c6c6;fill-opacity:1;stroke-width:0.199793;stroke-linecap:round;stroke-linejoin:round"
         id="rect7-2-2-1-4-1"
         width="13.866986"
         height="7.0207062"
         x="295.05383"
         y="166.52371" /><rect
         style="fill:#373737;fill-opacity:1;stroke-width:0.242561;stroke-linecap:round;stroke-linejoin:round"
         id="rect8-2-5-1-2-4"
         width="11.458779"
         height="11.458779"
         x="309.40057"
         y="-118.75323"
         transform="rotate(45)" /><rect
         style="fill:#c6c6c6;fill-opacity:0.867857;stroke-width:0.3;stroke-linecap:round;stroke-linejoin:round"
         id="rect10-1-3-7-0-2"
         width="7.3259554"
         height="4.3606873"
         x="299.15289"
         y="125.22801" /><path
         id="path12-8-6-3-8-3"
         style="fill:#1b1b1b;fill-opacity:0.654902;stroke-width:0.3;stroke-linecap:round;stroke-linejoin:round"
         d="m 297.50514,94.365073 a 1.1871365,1.1871365 0 0 0 -1.18701,1.18701 1.1871365,1.1871365 0 0 0 1.18701,1.18753 1.1871365,1.1871365 0 0 0 1.18701,-1.18753 1.1871365,1.1871365 0 0 0 -1.18701,-1.18701 z m 4.54236,0.0155 a 1.1871365,1.1871365 0 0 0 -1.18701,1.18752 1.1871365,1.1871365 0 0 0 1.18701,1.18701 1.1871365,1.1871365 0 0 0 1.18752,-1.18701 1.1871365,1.1871365 0 0 0 -1.18752,-1.18752 z m 4.55165,0.005 a 1.1871365,1.1871365 0 0 0 -1.187,1.18701 1.1871365,1.1871365 0 0 0 1.187,1.18701 1.1871365,1.1871365 0 0 0 1.18752,-1.18701 1.1871365,1.1871365 0 0 0 -1.18752,-1.18701 z m -18.34875,4.41834 a 1.1871365,1.1871365 0 0 0 -1.187,1.18701 1.1871365,1.1871365 0 0 0 1.187,1.187517 1.1871365,1.1871365 0 0 0 1.18753,-1.187517 1.1871365,1.1871365 0 0 0 -1.18753,-1.18701 z m 27.50478,0 a 1.1871365,1.1871365 0 0 0 -1.18701,1.18701 1.1871365,1.1871365 0 0 0 1.18701,1.187517 1.1871365,1.1871365 0 0 0 1.18701,-1.187517 1.1871365,1.1871365 0 0 0 -1.18701,-1.18701 z m -13.71233,0.0615 a 1.1871365,1.1871365 0 0 0 -1.18701,1.187527 1.1871365,1.1871365 0 0 0 1.18701,1.18701 1.1871365,1.1871365 0 0 0 1.187,-1.18701 1.1871365,1.1871365 0 0 0 -1.187,-1.187527 z m -4.57647,0.0233 a 1.1871365,1.1871365 0 0 0 -1.18701,1.187007 1.1871365,1.1871365 0 0 0 1.18701,1.187 1.1871365,1.1871365 0 0 0 1.18701,-1.187 1.1871365,1.1871365 0 0 0 -1.18701,-1.187007 z m 9.07747,0.0692 a 1.1871365,1.1871365 0 0 0 -1.18751,1.187527 1.1871365,1.1871365 0 0 0 1.18751,1.18701 1.1871365,1.1871365 0 0 0 1.18701,-1.18701 1.1871365,1.1871365 0 0 0 -1.18701,-1.187527 z m -18.29345,4.378547 a 1.1871365,1.1871365 0 0 0 -1.187,1.18752 1.1871365,1.1871365 0 0 0 1.187,1.18701 1.1871365,1.1871365 0 0 0 1.18753,-1.18701 1.1871365,1.1871365 0 0 0 -1.18753,-1.18752 z m 27.50478,0 a 1.1871365,1.1871365 0 0 0 -1.18701,1.18752 1.1871365,1.1871365 0 0 0 1.18701,1.18701 1.1871365,1.1871365 0 0 0 1.18701,-1.18701 1.1871365,1.1871365 0 0 0 -1.18701,-1.18752 z m -27.50478,4.50205 a 1.1871365,1.1871365 0 0 0 -1.187,1.18701 1.1871365,1.1871365 0 0 0 1.187,1.18701 1.1871365,1.1871365 0 0 0 1.18753,-1.18701 1.1871365,1.1871365 0 0 0 -1.18753,-1.18701 z m 27.50478,0 a 1.1871365,1.1871365 0 0 0 -1.18701,1.18701 1.1871365,1.1871365 0 0 0 1.18701,1.18701 1.1871365,1.1871365 0 0 0 1.18701,-1.18701 1.1871365,1.1871365 0 0 0 -1.18701,-1.18701 z m -27.50478,4.53254 a 1.1871365,1.1871365 0 0 0 -1.187,1.18752 1.1871365,1.1871365 0 0 0 1.187,1.18701 1.1871365,1.1871365 0 0 0 1.18753,-1.18701 1.1871365,1.1871365 0 0 0 -1.18753,-1.18752 z m 27.50478,0 a 1.1871365,1.1871365 0 0 0 -1.18701,1.18752 1.1871365,1.1871365 0 0 0 1.18701,1.18701 1.1871365,1.1871365 0 0 0 1.18701,-1.18701 1.1871365,1.1871365 0 0 0 -1.18701,-1.18752 z m -27.50478,4.74855 a 1.1871365,1.1871365 0 0 0 -1.187,1.18752 1.1871365,1.1871365 0 0 0 1.187,1.18701 1.1871365,1.1871365 0 0 0 1.18753,-1.18701 1.1871365,1.1871365 0 0 0 -1.18753,-1.18752 z m 27.50478,0 a 1.1871365,1.1871365 0 0 0 -1.18701,1.18752 1.1871365,1.1871365 0 0 0 1.18701,1.18701 1.1871365,1.1871365 0 0 0 1.18701,-1.18701 1.1871365,1.1871365 0 0 0 -1.18701,-1.18752 z m -27.50478,4.53305 a 1.1871365,1.1871365 0 0 0 -1.187,1.18701 1.1871365,1.1871365 0 0 0 1.187,1.18701 1.1871365,1.1871365 0 0 0 1.18753,-1.18701 1.1871365,1.1871365 0 0 0 -1.18753,-1.18701 z m 27.50478,0 a 1.1871365,1.1871365 0 0 0 -1.18701,1.18701 1.1871365,1.1871365 0 0 0 1.18701,1.18701 1.1871365,1.1871365 0 0 0 1.18701,-1.18701 1.1871365,1.1871365 0 0 0 -1.18701,-1.18701 z m -27.50478,4.50154 a 1.1871365,1.1871365 0 0 0 -1.187,1.18752 1.1871365,1.1871365 0 0 0 1.187,1.18701 1.1871365,1.1871365 0 0 0 1.18753,-1.18701 1.1871365,1.1871365 0 0 0 -1.18753,-1.18752 z m 27.50478,0 a 1.1871365,1.1871365 0 0 0 -1.18701,1.18752 1.1871365,1.1871365 0 0 0 1.18701,1.18701 1.1871365,1.1871365 0 0 0 1.18701,-1.18701 1.1871365,1.1871365 0 0 0 -1.18701,-1.18752 z m -27.50478,4.53305 a 1.1871365,1.1871365 0 0 0 -1.187,1.18701 1.1871365,1.1871365 0 0 0 1.187,1.18701 1.1871365,1.1871365 0 0 0 1.18753,-1.18701 1.1871365,1.1871365 0 0 0 -1.18753,-1.18701 z m 27.50478,0 a 1.1871365,1.1871365 0 0 0 -1.18701,1.18701 1.1871365,1.1871365 0 0 0 1.18701,1.18701 1.1871365,1.1871365 0 0 0 1.18701,-1.18701 1.1871365,1.1871365 0 0 0 -1.18701,-1.18701 z m -27.50478,4.74855 a 1.1871365,1.1871365 0 0 0 -1.187,1.18701 1.1871365,1.1871365 0 0 0 1.187,1.18701 1.1871365,1.1871365 0 0 0 1.18753,-1.18701 1.1871365,1.1871365 0 0 0 -1.18753,-1.18701 z m 27.50478,0 a 1.1871365,1.1871365 0 0 0 -1.18701,1.18701 1.1871365,1.1871365 0 0 0 1.18701,1.18701 1.1871365,1.1871365 0 0 0 1.18701,-1.18701 1.1871365,1.1871365 0 0 0 -1.18701,-1.18701 z m -27.50478,4.53254 a 1.1871365,1.1871365 0 0 0 -1.187,1.18701 1.1871365,1.1871365 0 0 0 1.187,1.18701 1.1871365,1.1871365 0 0 0 1.18753,-1.18701 1.1871365,1.1871365 0 0 0 -1.18753,-1.18701 z m 27.50478,0 a 1.1871365,1.1871365 0 0 0 -1.18701,1.18701 1.1871365,1.1871365 0 0 0 1.18701,1.18701 1.1871365,1.1871365 0 0 0 1.18701,-1.18701 1.1871365,1.1871365 0 0 0 -1.18701,-1.18701 z m -27.50478,4.50205 a 1.1871365,1.1871365 0 0 0 -1.187,1.18701 1.1871365,1.1871365 0 0 0 1.187,1.18701 1.1871365,1.1871365 0 0 0 1.18753,-1.18701 1.1871365,1.1871365 0 0 0 -1.18753,-1.18701 z m 27.50478,0 a 1.1871365,1.1871365 0 0 0 -1.18701,1.18701 1.1871365,1.1871365 0 0 0 1.18701,1.18701 1.1871365,1.1871365 0 0 0 1.18701,-1.18701 1.1871365,1.1871365 0 0 0 -1.18701,-1.18701 z m -27.50478,4.53254 a 1.1871365,1.1871365 0 0 0 -1.187,1.18701 1.1871365,1.1871365 0 0 0 1.187,1.18701 1.1871365,1.1871365 0 0 0 1.18753,-1.18701 1.1871365,1.1871365 0 0 0 -1.18753,-1.18701 z m 27.50478,0 a 1.1871365,1.1871365 0 0 0 -1.18701,1.18701 1.1871365,1.1871365 0 0 0 1.18701,1.18701 1.1871365,1.1871365 0 0 0 1.18701,-1.18701 1.1871365,1.1871365 0 0 0 -1.18701,-1.18701 z m -27.50478,4.74855 a 1.1871365,1.1871365 0 0 0 -1.187,1.18701 1.1871365,1.1871365 0 0 0 1.187,1.187 1.1871365,1.1871365 0 0 0 1.18753,-1.187 1.1871365,1.1871365 0 0 0 -1.18753,-1.18701 z m 27.50478,0 a 1.1871365,1.1871365 0 0 0 -1.18701,1.18701 1.1871365,1.1871365 0 0 0 1.18701,1.187 1.1871365,1.1871365 0 0 0 1.18701,-1.187 1.1871365,1.1871365 0 0 0 -1.18701,-1.18701 z m -27.50478,4.53254 a 1.1871365,1.1871365 0 0 0 -1.187,1.18701 1.1871365,1.1871365 0 0 0 1.187,1.18752 1.1871365,1.1871365 0 0 0 1.18753,-1.18752 1.1871365,1.1871365 0 0 0 -1.18753,-1.18701 z m 27.50478,0 a 1.1871365,1.1871365 0 0 0 -1.18701,1.18701 1.1871365,1.1871365 0 0 0 1.18701,1.18752 1.1871365,1.1871365 0 0 0 1.18701,-1.18752 1.1871365,1.1871365 0 0 0 -1.18701,-1.18701 z m -27.50478,4.50205 a 1.1871365,1.1871365 0 0 0 -1.187,1.18701 1.1871365,1.1871365 0 0 0 1.187,1.18701 1.1871365,1.1871365 0 0 0 1.18753,-1.18701 1.1871365,1.1871365 0 0 0 -1.18753,-1.18701 z m 27.50478,0 a 1.1871365,1.1871365 0 0 0 -1.18701,1.18701 1.1871365,1.1871365 0 0 0 1.18701,1.18701 1.1871365,1.1871365 0 0 0 1.18701,-1.18701 1.1871365,1.1871365 0 0 0 -1.18701,-1.18701 z" /><circle
         style="fill:#a1a1a1;fill-opacity:0.832143;stroke-width:0.401299;stroke-linecap:round;stroke-linejoin:round"
         id="path12-7-4-5-6-8-5-1-0-7-2"
         cx="302.85941"
         cy="127.50789"
         r="1.5879879" /><text
         xml:space="preserve"
         style="font-size:3.175px;text-align:start;writing-mode:lr-tb;direction:ltr;text-anchor:start;display:inline;fill:#f7fdf5;fill-opacity:1;stroke-width:0.264583"
         x="290.47531"
         y="165.27425"
         id="text9-9-8-7-8-0-8-2"><tspan
           id="tspan9-3-5-61-6-4-7-1"
           style="fill:#f7fdf5;fill-opacity:1;stroke-width:0.264583"
           x="290.47531"
           y="165.27425">D12</tspan></text><text
         xml:space="preserve"
         style="font-size:3.175px;text-align:start;writing-mode:lr-tb;direction:ltr;text-anchor:start;display:inline;fill:#f7fdf5;fill-opacity:1;stroke-width:0.264583"
         x="290.47531"
         y="160.5647"
         id="text9-9-8-4-8-2-8-3-6"><tspan
           id="tspan9-3-5-4-9-1-3-0-8"
           style="fill:#f7fdf5;fill-opacity:1;stroke-width:0.264583"
           x="290.47531"
           y="160.5647">D11</tspan></text><text
         xml:space="preserve"
         style="font-size:3.175px;text-align:start;writing-mode:lr-tb;direction:ltr;text-anchor:start;display:inline;fill:#f7fdf5;fill-opacity:1;stroke-width:0.264583"
         x="290.47531"
         y="156.08549"
         id="text9-9-8-5-27-4-0-7-5"><tspan
           id="tspan9-3-5-6-9-6-1-6-7"
           style="fill:#f7fdf5;fill-opacity:1;stroke-width:0.264583"
           x="290.47531"
           y="156.08549">D10</tspan></text><text
         xml:space="preserve"
         style="font-size:3.175px;text-align:start;writing-mode:lr-tb;direction:ltr;text-anchor:start;display:inline;fill:#f7fdf5;fill-opacity:1;stroke-width:0.264583"
         x="290.47531"
         y="151.37595"
         id="text9-9-8-4-6-54-2-2-4-6"><tspan
           id="tspan9-3-5-4-0-3-9-9-2-1"
           style="fill:#f7fdf5;fill-opacity:1;stroke-width:0.264583"
           x="290.47531"
           y="151.37595">D9</tspan></text><text
         xml:space="preserve"
         style="font-size:3.175px;text-align:start;writing-mode:lr-tb;direction:ltr;text-anchor:start;display:inline;fill:#f7fdf5;fill-opacity:1;stroke-width:0.264583"
         x="290.47531"
         y="147.04657"
         id="text9-9-8-2-1-1-0-1-8"><tspan
           id="tspan9-3-5-64-2-5-3-9-9"
           style="fill:#f7fdf5;fill-opacity:1;stroke-width:0.264583"
           x="290.47531"
           y="147.04657">D8</tspan></text><text
         xml:space="preserve"
         style="font-size:3.175px;text-align:start;writing-mode:lr-tb;direction:ltr;text-anchor:start;display:inline;fill:#f7fdf5;fill-opacity:1;stroke-width:0.264583"
         x="290.47531"
         y="142.33702"
         id="text9-9-8-4-7-3-0-8-1-2"><tspan
           id="tspan9-3-5-4-1-34-3-8-60-7"
           style="fill:#f7fdf5;fill-opacity:1;stroke-width:0.264583"
           x="290.47531"
           y="142.33702">D7</tspan></text><text
         xml:space="preserve"
         style="font-size:3.175px;text-align:start;writing-mode:lr-tb;direction:ltr;text-anchor:start;display:inline;fill:#f7fdf5;fill-opacity:1;stroke-width:0.264583"
         x="290.47531"
         y="137.85782"
         id="text9-9-8-5-3-1-6-5-33-9"><tspan
           id="tspan9-3-5-6-2-1-4-7-6-5"
           style="fill:#f7fdf5;fill-opacity:1;stroke-width:0.264583"
           x="290.47531"
           y="137.85782">D6</tspan></text><text
         xml:space="preserve"
         style="font-size:3.175px;text-align:start;writing-mode:lr-tb;direction:ltr;text-anchor:start;display:inline;fill:#f7fdf5;fill-opacity:1;stroke-width:0.264583"
         x="290.47531"
         y="133.14827"
         id="text9-9-8-4-6-1-38-9-7-2-4"><tspan
           id="tspan9-3-5-4-0-6-7-2-0-2-3"
           style="fill:#f7fdf5;fill-opacity:1;stroke-width:0.264583"
           x="290.47531"
           y="133.14827">D5</tspan></text><text
         xml:space="preserve"
         style="font-size:3.175px;text-align:start;writing-mode:lr-tb;direction:ltr;text-anchor:start;display:inline;fill:#f7fdf5;fill-opacity:1;stroke-width:0.264583"
         x="290.47531"
         y="128.64447"
         id="text9-9-8-28-4-9-8-1-1"><tspan
           id="tspan9-3-5-60-2-3-9-4-2"
           style="fill:#f7fdf5;fill-opacity:1;stroke-width:0.264583"
           x="290.47531"
           y="128.64447">D4</tspan></text><text
         xml:space="preserve"
         style="font-size:3.175px;text-align:start;writing-mode:lr-tb;direction:ltr;text-anchor:start;display:inline;fill:#f7fdf5;fill-opacity:1;stroke-width:0.264583"
         x="290.47531"
         y="123.93492"
         id="text9-9-8-4-1-7-4-3-3-3"><tspan
           id="tspan9-3-5-4-2-7-4-0-2-3"
           style="fill:#f7fdf5;fill-opacity:1;stroke-width:0.264583"
           x="290.47531"
           y="123.93492">D3</tspan></text><text
         xml:space="preserve"
         style="font-size:3.175px;text-align:start;writing-mode:lr-tb;direction:ltr;text-anchor:start;display:inline;fill:#f7fdf5;fill-opacity:1;stroke-width:0.264583"
         x="290.47531"
         y="119.45572"
         id="text9-9-8-5-6-93-0-7-6-4"><tspan
           id="tspan9-3-5-6-0-1-5-4-0-1"
           style="fill:#f7fdf5;fill-opacity:1;stroke-width:0.264583"
           x="290.47531"
           y="119.45572">D2</tspan></text><text
         xml:space="preserve"
         style="font-size:3.175px;text-align:start;writing-mode:lr-tb;direction:ltr;text-anchor:start;display:inline;fill:#f7fdf5;fill-opacity:1;stroke-width:0.264583"
         x="290.47531"
         y="114.74617"
         id="text9-9-8-4-6-5-9-9-7-5-1"><tspan
           id="tspan9-3-5-4-0-4-8-6-8-4-38"
           style="fill:#f7fdf5;fill-opacity:1;stroke-width:0.264583"
           x="290.47531"
           y="114.74617">GND</tspan></text><text
         xml:space="preserve"
         style="font-size:3.175px;text-align:start;writing-mode:lr-tb;direction:ltr;text-anchor:start;display:inline;fill:#f7fdf5;fill-opacity:1;stroke-width:0.264583"
         x="290.47531"
         y="110.41679"
         id="text9-9-8-2-6-6-3-3-9-7"><tspan
           id="tspan9-3-5-64-7-50-4-7-6-4"
           style="fill:#f7fdf5;fill-opacity:1;stroke-width:0.264583"
           x="290.47531"
           y="110.41679">RST</tspan></text><text
         xml:space="preserve"
         style="font-size:3.175px;text-align:start;writing-mode:lr-tb;direction:ltr;text-anchor:start;display:inline;fill:#f7fdf5;fill-opacity:1;stroke-width:0.264583"
         x="290.47531"
         y="105.70724"
         id="text9-9-8-4-7-9-2-2-1-0-2"><tspan
           id="tspan9-3-5-4-1-3-8-8-0-8-7"
           style="fill:#f7fdf5;fill-opacity:1;stroke-width:0.264583"
           x="290.47531"
           y="105.70724">RX</tspan></text><text
         xml:space="preserve"
         style="font-size:3.175px;text-align:start;writing-mode:lr-tb;direction:ltr;text-anchor:start;display:inline;fill:#f7fdf5;fill-opacity:1;stroke-width:0.264583"
         x="290.47531"
         y="101.22804"
         id="text9-9-8-5-3-4-6-8-0-2-7"><tspan
           id="tspan9-3-5-6-2-7-0-7-8-7-9"
           style="fill:#f7fdf5;fill-opacity:1;stroke-width:0.264583"
           x="290.47531"
           y="101.22804">TX</tspan></text><text
         xml:space="preserve"
         style="font-size:3.175px;text-align:start;writing-mode:lr-tb;direction:ltr;text-anchor:start;display:inline;fill:#ffffff;fill-opacity:1;stroke-width:0.264583"
         x="307.37534"
         y="165.27425"
         id="text9-9-8-8-2-5-3-4-3"><tspan
           id="tspan9-3-5-7-4-8-4-0-1"
           style="fill:#ffffff;fill-opacity:1;stroke-width:0.264583"
           x="307.37534"
           y="165.27425">D13</tspan></text><text
         xml:space="preserve"
         style="font-size:3.175px;text-align:start;writing-mode:lr-tb;direction:ltr;text-anchor:start;display:inline;fill:#ffffff;fill-opacity:1;stroke-width:0.264583"
         x="307.94275"
         y="160.5647"
         id="text9-9-8-4-61-8-1-5-7-9"><tspan
           id="tspan9-3-5-4-7-6-2-0-6-8"
           style="fill:#ffffff;fill-opacity:1;stroke-width:0.264583"
           x="307.94275"
           y="160.5647">3v3</tspan></text><text
         xml:space="preserve"
         style="font-size:3.175px;text-align:start;writing-mode:lr-tb;direction:ltr;text-anchor:start;display:inline;fill:#ffffff;fill-opacity:1;stroke-width:0.264583"
         x="307.62027"
         y="156.08549"
         id="text9-9-8-5-2-5-5-1-01-6"><tspan
           id="tspan9-3-5-6-3-0-7-4-2-50"
           style="fill:#ffffff;fill-opacity:1;stroke-width:0.264583"
           x="307.62027"
           y="156.08549">REF</tspan></text><text
         xml:space="preserve"
         style="font-size:3.175px;text-align:start;writing-mode:lr-tb;direction:ltr;text-anchor:start;display:inline;fill:#ffffff;fill-opacity:1;stroke-width:0.264583"
         x="309.64032"
         y="151.37595"
         id="text9-9-8-4-6-7-9-4-5-9-2"><tspan
           id="tspan9-3-5-4-0-8-0-4-6-3-8"
           style="fill:#ffffff;fill-opacity:1;stroke-width:0.264583"
           x="309.64032"
           y="151.37595">A0</tspan></text><text
         xml:space="preserve"
         style="font-size:3.175px;text-align:start;writing-mode:lr-tb;direction:ltr;text-anchor:start;display:inline;fill:#ffffff;fill-opacity:1;stroke-width:0.264583"
         x="309.76898"
         y="147.04657"
         id="text9-9-8-2-5-0-4-2-8-60"><tspan
           id="tspan9-3-5-64-8-6-4-0-5-2"
           style="fill:#ffffff;fill-opacity:1;stroke-width:0.264583"
           x="309.76898"
           y="147.04657">A1</tspan></text><text
         xml:space="preserve"
         style="font-size:3.175px;text-align:start;writing-mode:lr-tb;direction:ltr;text-anchor:start;display:inline;fill:#ffffff;fill-opacity:1;stroke-width:0.264583"
         x="309.63721"
         y="142.33702"
         id="text9-9-8-4-7-5-1-4-3-1-48"><tspan
           id="tspan9-3-5-4-1-8-3-2-5-5-6"
           style="fill:#ffffff;fill-opacity:1;stroke-width:0.264583"
           x="309.63721"
           y="142.33702">A2</tspan></text><text
         xml:space="preserve"
         style="font-size:3.175px;text-align:start;writing-mode:lr-tb;direction:ltr;text-anchor:start;display:inline;fill:#ffffff;fill-opacity:1;stroke-width:0.264583"
         x="309.66977"
         y="137.85782"
         id="text9-9-8-5-3-7-8-9-6-6-5"><tspan
           id="tspan9-3-5-6-2-3-9-3-6-6-0"
           style="fill:#ffffff;fill-opacity:1;stroke-width:0.264583"
           x="309.66977"
           y="137.85782">A3</tspan></text><text
         xml:space="preserve"
         style="font-size:3.175px;text-align:start;writing-mode:lr-tb;direction:ltr;text-anchor:start;display:inline;fill:#ffffff;fill-opacity:1;stroke-width:0.264583"
         x="309.5845"
         y="133.14827"
         id="text9-9-8-4-6-1-3-3-0-6-8-9"><tspan
           id="tspan9-3-5-4-0-6-1-4-7-7-8-0"
           style="fill:#ffffff;fill-opacity:1;stroke-width:0.264583"
           x="309.5845"
           y="133.14827">A4</tspan></text><text
         xml:space="preserve"
         style="font-size:3.175px;text-align:start;writing-mode:lr-tb;direction:ltr;text-anchor:start;display:inline;fill:#ffffff;fill-opacity:1;stroke-width:0.264583"
         x="309.65582"
         y="128.64447"
         id="text9-9-8-28-0-4-7-6-9-0"><tspan
           id="tspan9-3-5-60-8-6-8-7-8-6"
           style="fill:#ffffff;fill-opacity:1;stroke-width:0.264583"
           x="309.65582"
           y="128.64447">A5</tspan></text><text
         xml:space="preserve"
         style="font-size:3.175px;text-align:start;writing-mode:lr-tb;direction:ltr;text-anchor:start;display:inline;fill:#ffffff;fill-opacity:1;stroke-width:0.264583"
         x="309.60312"
         y="123.93492"
         id="text9-9-8-4-1-1-0-7-7-7-1"><tspan
           id="tspan9-3-5-4-2-0-6-3-1-0-38"
           style="fill:#ffffff;fill-opacity:1;stroke-width:0.264583"
           x="309.60312"
           y="123.93492">A6</tspan></text><text
         xml:space="preserve"
         style="font-size:3.175px;text-align:start;writing-mode:lr-tb;direction:ltr;text-anchor:start;display:inline;fill:#ffffff;fill-opacity:1;stroke-width:0.264583"
         x="309.63101"
         y="119.45572"
         id="text9-9-8-5-6-9-6-0-9-7-9"><tspan
           id="tspan9-3-5-6-0-2-1-3-1-9-3"
           style="fill:#ffffff;fill-opacity:1;stroke-width:0.264583"
           x="309.63101"
           y="119.45572">A7</tspan></text><text
         xml:space="preserve"
         style="font-size:3.175px;text-align:start;writing-mode:lr-tb;direction:ltr;text-anchor:start;display:inline;fill:#ffffff;fill-opacity:1;stroke-width:0.264583"
         x="309.81705"
         y="114.74617"
         id="text9-9-8-4-6-5-4-8-8-6-1-4"><tspan
           id="tspan9-3-5-4-0-4-9-4-2-2-5-4"
           style="fill:#ffffff;fill-opacity:1;stroke-width:0.264583"
           x="309.81705"
           y="114.74617">5v</tspan></text><text
         xml:space="preserve"
         style="font-size:3.175px;text-align:start;writing-mode:lr-tb;direction:ltr;text-anchor:start;display:inline;fill:#ffffff;fill-opacity:1;stroke-width:0.264583"
         x="307.28543"
         y="110.41679"
         id="text9-9-8-2-6-1-9-5-7-8-6"><tspan
           id="tspan9-3-5-64-7-5-6-2-2-63-0"
           style="fill:#ffffff;fill-opacity:1;stroke-width:0.264583"
           x="307.28543"
           y="110.41679">RST</tspan></text><text
         xml:space="preserve"
         style="font-size:3.175px;text-align:start;writing-mode:lr-tb;direction:ltr;text-anchor:start;display:inline;fill:#ffffff;fill-opacity:1;stroke-width:0.264583"
         x="306.52267"
         y="105.70724"
         id="text9-9-8-4-7-9-7-3-0-7-9-6"><tspan
           id="tspan9-3-5-4-1-3-3-7-3-6-45-6"
           style="fill:#ffffff;fill-opacity:1;stroke-width:0.264583"
           x="306.52267"
           y="105.70724">GND</tspan></text><text
         xml:space="preserve"
         style="font-size:3.175px;text-align:start;writing-mode:lr-tb;direction:ltr;text-anchor:start;display:inline;fill:#ffffff;fill-opacity:1;stroke-width:0.264583"
         x="308.04196"
         y="101.22804"
         id="text9-9-8-5-3-4-3-8-7-5-3-1"><tspan
           id="tspan9-3-5-6-2-7-4-8-2-1-8-8"
           style="fill:#ffffff;fill-opacity:1;stroke-width:0.264583"
           x="308.04196"
           y="101.22804">VIN</tspan></text></g><path
       style="font-variation-settings:normal;opacity:1;vector-effect:none;fill:none;fill-opacity:1;stroke:#000000;stroke-width:2.2;stroke-linecap:round;stroke-linejoin:round;stroke-miterlimit:4;stroke-dasharray:none;stroke-dashoffset:0;stroke-opacity:1;-inkscape-stroke:none;stop-color:#000000;stop-opacity:1"
       d="m 191.11107,441.15505 22.15882,0.008 -1.3e-4,-6.59934"
       id="path25" /><path
       style="font-variation-settings:normal;display:inline;opacity:1;vector-effect:none;fill:none;fill-opacity:1;stroke:#f60000;stroke-width:2.2;stroke-linecap:round;stroke-linejoin:round;stroke-miterlimit:4;stroke-dasharray:none;stroke-dashoffset:0;stroke-opacity:1;-inkscape-stroke:none;stop-color:#000000;stop-opacity:1"
       d="m 191.3056,450.2619 26.74765,0.11752 -0.0102,-15.75125"
       id="path25-8" /><g
       id="g28"><g
         id="g23"
         transform="rotate(-90,138.30818,333.35559)"><rect
           style="font-variation-settings:normal;opacity:1;vector-effect:none;fill:#259e19;fill-opacity:1;stroke:none;stroke-width:0.312365;stroke-linecap:round;stroke-linejoin:round;stroke-miterlimit:4;stroke-dasharray:none;stroke-dashoffset:0;stroke-opacity:1;-inkscape-stroke:none;stop-color:#000000;stop-opacity:1"
           id="rect19"
           width="143.04947"
           height="64.745499"
           x="-32.997543"
           y="459.43518" /><rect
           style="fill:#24241a;fill-opacity:1;stroke:none;stroke-width:3.76502;stroke-linecap:round;stroke-linejoin:round;-inkscape-stroke:none"
           id="rect20"
           width="131.01442"
           height="46.007389"
           x="-25.532768"
           y="474.12003" /><rect
           style="fill:#3683b0;fill-opacity:1;stroke:none;stroke-width:3.94765;stroke-linecap:round;stroke-linejoin:round;-inkscape-stroke:none"
           id="rect21"
           width="120.95984"
           height="33.663521"
           x="-20.962498"
           y="479.95721" /><circle
           style="display:inline;fill:#094910;fill-opacity:0.853571;stroke-width:0.264958;stroke-linecap:round;stroke-linejoin:round"
           id="path15-3-83-1"
           cx="-20.224676"
           cy="461.76715"
           r="1.5386664" /><circle
           style="display:inline;fill:#bbf4b0;fill-opacity:0.853571;stroke-width:0.149012;stroke-linecap:round;stroke-linejoin:round"
           id="path15-3-83-5-2"
           cx="-20.224676"
           cy="461.76715"
           r="0.86534399" /><circle
           style="display:inline;fill:#094910;fill-opacity:0.853571;stroke-width:0.264958;stroke-linecap:round;stroke-linejoin:round"
           id="path15-3-83-1-8"
           cx="-15.781321"
           cy="461.76715"
           r="1.5386664" /><circle
           style="display:inline;fill:#bbf4b0;fill-opacity:0.853571;stroke-width:0.149012;stroke-linecap:round;stroke-linejoin:round"
           id="path15-3-83-5-2-0"
           cx="-15.781321"
           cy="461.76715"
           r="0.86534399" /><circle
           style="display:inline;fill:#094910;fill-opacity:0.853571;stroke-width:0.264958;stroke-linecap:round;stroke-linejoin:round"
           id="path15-3-83-1-3"
           cx="-11.291192"
           cy="461.76715"
           r="1.5386664" /><circle
           style="display:inline;fill:#bbf4b0;fill-opacity:0.853571;stroke-width:0.149012;stroke-linecap:round;stroke-linejoin:round"
           id="path15-3-83-5-2-8"
           cx="-11.291192"
           cy="461.76715"
           r="0.86534399" /><circle
           style="display:inline;fill:#094910;fill-opacity:0.853571;stroke-width:0.264958;stroke-linecap:round;stroke-linejoin:round"
           id="path15-3-83-1-7"
           cx="-6.613976"
           cy="461.76715"
           r="1.5386664" /><circle
           style="display:inline;fill:#bbf4b0;fill-opacity:0.853571;stroke-width:0.149012;stroke-linecap:round;stroke-linejoin:round"
           id="path15-3-83-5-2-3"
           cx="-6.613976"
           cy="461.76715"
           r="0.86534399" /><circle
           style="display:inline;fill:#094910;fill-opacity:0.853571;stroke-width:0.264958;stroke-linecap:round;stroke-linejoin:round"
           id="path15-3-83-1-1"
           cx="-2.123848"
           cy="461.76715"
           r="1.5386664" /><circle
           style="display:inline;fill:#bbf4b0;fill-opacity:0.853571;stroke-width:0.149012;stroke-linecap:round;stroke-linejoin:round"
           id="path15-3-83-5-2-09"
           cx="-2.123848"
           cy="461.76715"
           r="0.86534399" /><circle
           style="display:inline;fill:#094910;fill-opacity:0.853571;stroke-width:0.264958;stroke-linecap:round;stroke-linejoin:round"
           id="path15-3-83-1-4"
           cx="2.7404575"
           cy="461.76715"
           r="1.5386664" /><circle
           style="display:inline;fill:#bbf4b0;fill-opacity:0.853571;stroke-width:0.149012;stroke-linecap:round;stroke-linejoin:round"
           id="path15-3-83-5-2-84"
           cx="2.7404575"
           cy="461.76715"
           r="0.86534399" /><circle
           style="display:inline;fill:#094910;fill-opacity:0.853571;stroke-width:0.264958;stroke-linecap:round;stroke-linejoin:round"
           id="path15-3-83-1-5"
           cx="7.0902691"
           cy="461.76715"
           r="1.5386664" /><circle
           style="display:inline;fill:#bbf4b0;fill-opacity:0.853571;stroke-width:0.149012;stroke-linecap:round;stroke-linejoin:round"
           id="path15-3-83-5-2-33"
           cx="7.0902691"
           cy="461.76715"
           r="0.86534399" /><circle
           style="display:inline;fill:#094910;fill-opacity:0.853571;stroke-width:0.264958;stroke-linecap:round;stroke-linejoin:round"
           id="path15-3-83-1-80"
           cx="12.001347"
           cy="461.76715"
           r="1.5386664" /><circle
           style="display:inline;fill:#bbf4b0;fill-opacity:0.853571;stroke-width:0.149012;stroke-linecap:round;stroke-linejoin:round"
           id="path15-3-83-5-2-88"
           cx="12.001347"
           cy="461.76715"
           r="0.86534399" /><circle
           style="display:inline;fill:#094910;fill-opacity:0.853571;stroke-width:0.264958;stroke-linecap:round;stroke-linejoin:round"
           id="path15-3-83-1-8-0"
           cx="16.444702"
           cy="461.76715"
           r="1.5386664" /><circle
           style="display:inline;fill:#bbf4b0;fill-opacity:0.853571;stroke-width:0.149012;stroke-linecap:round;stroke-linejoin:round"
           id="path15-3-83-5-2-0-6"
           cx="16.444702"
           cy="461.76715"
           r="0.86534399" /><circle
           style="display:inline;fill:#094910;fill-opacity:0.853571;stroke-width:0.264958;stroke-linecap:round;stroke-linejoin:round"
           id="path15-3-83-1-3-8"
           cx="20.93483"
           cy="461.76715"
           r="1.5386664" /><circle
           style="display:inline;fill:#bbf4b0;fill-opacity:0.853571;stroke-width:0.149012;stroke-linecap:round;stroke-linejoin:round"
           id="path15-3-83-5-2-8-1"
           cx="20.93483"
           cy="461.76715"
           r="0.86534399" /><circle
           style="display:inline;fill:#094910;fill-opacity:0.853571;stroke-width:0.264958;stroke-linecap:round;stroke-linejoin:round"
           id="path15-3-83-1-7-9"
           cx="25.612047"
           cy="461.76715"
           r="1.5386664" /><circle
           style="display:inline;fill:#bbf4b0;fill-opacity:0.853571;stroke-width:0.149012;stroke-linecap:round;stroke-linejoin:round"
           id="path15-3-83-5-2-3-8"
           cx="25.612047"
           cy="461.76715"
           r="0.86534399" /><circle
           style="display:inline;fill:#094910;fill-opacity:0.853571;stroke-width:0.264958;stroke-linecap:round;stroke-linejoin:round"
           id="path15-3-83-1-1-9"
           cx="30.102175"
           cy="461.76715"
           r="1.5386664" /><circle
           style="display:inline;fill:#bbf4b0;fill-opacity:0.853571;stroke-width:0.149012;stroke-linecap:round;stroke-linejoin:round"
           id="path15-3-83-5-2-09-7"
           cx="30.102175"
           cy="461.76715"
           r="0.86534399" /><circle
           style="display:inline;fill:#094910;fill-opacity:0.853571;stroke-width:0.264958;stroke-linecap:round;stroke-linejoin:round"
           id="path15-3-83-1-4-2"
           cx="34.96648"
           cy="461.76715"
           r="1.5386664" /><circle
           style="display:inline;fill:#bbf4b0;fill-opacity:0.853571;stroke-width:0.149012;stroke-linecap:round;stroke-linejoin:round"
           id="path15-3-83-5-2-84-2"
           cx="34.96648"
           cy="461.76715"
           r="0.86534399" /><circle
           style="display:inline;fill:#094910;fill-opacity:0.853571;stroke-width:0.264958;stroke-linecap:round;stroke-linejoin:round"
           id="path15-3-83-1-5-8"
           cx="39.316292"
           cy="461.76715"
           r="1.5386664" /><circle
           style="display:inline;fill:#bbf4b0;fill-opacity:0.853571;stroke-width:0.149012;stroke-linecap:round;stroke-linejoin:round"
           id="path15-3-83-5-2-33-2"
           cx="39.316292"
           cy="461.76715"
           r="0.86534399" /><circle
           style="display:inline;fill:#094910;fill-opacity:0.853571;stroke-width:0.264958;stroke-linecap:round;stroke-linejoin:round"
           id="path15-3-83-1-4-2-8"
           cx="43.899963"
           cy="461.76715"
           r="1.5386664" /><circle
           style="display:inline;fill:#bbf4b0;fill-opacity:0.853571;stroke-width:0.149012;stroke-linecap:round;stroke-linejoin:round"
           id="path15-3-83-5-2-84-2-1"
           cx="43.899963"
           cy="461.76715"
           r="0.86534399" /><circle
           style="display:inline;fill:#094910;fill-opacity:0.853571;stroke-width:0.264958;stroke-linecap:round;stroke-linejoin:round"
           id="path15-3-83-1-5-8-5"
           cx="48.249775"
           cy="461.76715"
           r="1.5386664" /><circle
           style="display:inline;fill:#bbf4b0;fill-opacity:0.853571;stroke-width:0.149012;stroke-linecap:round;stroke-linejoin:round"
           id="path15-3-83-5-2-33-2-8"
           cx="48.249775"
           cy="461.76715"
           r="0.86534399" /></g><text
         xml:space="preserve"
         style="font-size:3.175px;text-align:start;writing-mode:lr-tb;direction:ltr;text-anchor:start;display:inline;fill:#ffffff;fill-opacity:1;stroke-width:0.264583"
         x="269.93839"
         y="493.42365"
         id="text9-9-8-5-3-4-3-9-4-4-9-1-2"><tspan
           id="tspan9-3-5-6-2-7-4-7-4-15-3-84-8"
           style="fill:#ffffff;fill-opacity:1;stroke-width:0.264583"
           x="269.93839"
           y="493.42365">GND</tspan></text><text
         xml:space="preserve"
         style="font-size:3.175px;text-align:start;writing-mode:lr-tb;direction:ltr;text-anchor:start;display:inline;fill:#ffffff;fill-opacity:1;stroke-width:0.264583"
         x="270.07635"
         y="488.86823"
         id="text9-9-8-5-3-4-3-9-4-6-7-6-6-0"><tspan
           id="tspan9-3-5-6-2-7-4-7-4-1-8-7-3-3"
           style="fill:#ffffff;fill-opacity:1;stroke-width:0.264583"
           x="270.07635"
           y="488.86823">VCC</tspan></text><text
         xml:space="preserve"
         style="font-size:3.175px;text-align:start;writing-mode:lr-tb;direction:ltr;text-anchor:start;display:inline;fill:#ffffff;fill-opacity:1;stroke-width:0.264583"
         x="270.07635"
         y="484.30661"
         id="text9-9-8-5-3-4-3-9-4-6-7-6-6-0-4"><tspan
           id="tspan9-3-5-6-2-7-4-7-4-1-8-7-3-3-5"
           style="fill:#ffffff;fill-opacity:1;stroke-width:0.264583"
           x="270.07635"
           y="484.30661">VEE</tspan></text><text
         xml:space="preserve"
         style="font-size:3.175px;text-align:start;writing-mode:lr-tb;direction:ltr;text-anchor:start;display:inline;fill:#ffffff;fill-opacity:1;stroke-width:0.264583"
         x="270.07635"
         y="479.79303"
         id="text9-9-8-5-3-4-3-9-4-6-7-6-6-0-4-4"><tspan
           id="tspan9-3-5-6-2-7-4-7-4-1-8-7-3-3-5-8"
           style="fill:#ffffff;fill-opacity:1;stroke-width:0.264583"
           x="270.07635"
           y="479.79303">RS</tspan></text><text
         xml:space="preserve"
         style="font-size:3.175px;text-align:start;writing-mode:lr-tb;direction:ltr;text-anchor:start;display:inline;fill:#ffffff;fill-opacity:1;stroke-width:0.264583"
         x="270.07635"
         y="474.8082"
         id="text9-9-8-5-3-4-3-9-4-6-7-6-6-0-4-4-3"><tspan
           id="tspan9-3-5-6-2-7-4-7-4-1-8-7-3-3-5-8-1"
           style="fill:#ffffff;fill-opacity:1;stroke-width:0.264583"
           x="270.07635"
           y="474.8082">R/W</tspan></text><text
         xml:space="preserve"
         style="font-size:3.175px;text-align:start;writing-mode:lr-tb;direction:ltr;text-anchor:start;display:inline;fill:#ffffff;fill-opacity:1;stroke-width:0.264583"
         x="270.07635"
         y="470.2326"
         id="text9-9-8-5-3-4-3-9-4-6-7-6-6-0-4-4-3-2"><tspan
           id="tspan9-3-5-6-2-7-4-7-4-1-8-7-3-3-5-8-1-0"
           style="fill:#ffffff;fill-opacity:1;stroke-width:0.264583"
           x="270.07635"
           y="470.2326">EN</tspan></text><text
         xml:space="preserve"
         style="font-size:3.175px;text-align:start;writing-mode:lr-tb;direction:ltr;text-anchor:start;display:inline;fill:#ffffff;fill-opacity:1;stroke-width:0.264583"
         x="270.07635"
         y="424.67529"
         id="text9-9-8-5-3-4-3-9-4-6-7-6-6-0-4-4-3-2-7"><tspan
           id="tspan9-3-5-6-2-7-4-7-4-1-8-7-3-3-5-8-1-0-0"
           style="fill:#ffffff;fill-opacity:1;stroke-width:0.264583"
           x="270.07635"
           y="424.67529">A</tspan></text><text
         xml:space="preserve"
         style="font-size:3.175px;text-align:start;writing-mode:lr-tb;direction:ltr;text-anchor:start;display:inline;fill:#ffffff;fill-opacity:1;stroke-width:0.264583"
         x="270.07635"
         y="429.18884"
         id="text9-9-8-5-3-4-3-9-4-6-7-6-6-0-4-4-3-2-7-8"><tspan
           id="tspan9-3-5-6-2-7-4-7-4-1-8-7-3-3-5-8-1-0-0-4"
           style="fill:#ffffff;fill-opacity:1;stroke-width:0.264583"
           x="270.07635"
           y="429.18884">C</tspan></text><text
         xml:space="preserve"
         style="font-size:3.175px;text-align:start;writing-mode:lr-tb;direction:ltr;text-anchor:start;display:inline;fill:#ffffff;fill-opacity:1;stroke-width:0.264583"
         x="270.07635"
         y="433.74893"
         id="text9-9-8-5-3-4-3-9-4-6-7-6-6-0-4-4-3-2-7-8-7"><tspan
           id="tspan9-3-5-6-2-7-4-7-4-1-8-7-3-3-5-8-1-0-0-4-7"
           style="fill:#ffffff;fill-opacity:1;stroke-width:0.264583"
           x="270.07635"
           y="433.74893">D7</tspan></text><text
         xml:space="preserve"
         style="font-size:3.175px;text-align:start;writing-mode:lr-tb;direction:ltr;text-anchor:start;display:inline;fill:#ffffff;fill-opacity:1;stroke-width:0.264583"
         x="270.07635"
         y="438.31522"
         id="text9-9-8-5-3-4-3-9-4-6-7-6-6-0-4-4-3-2-7-8-7-8"><tspan
           id="tspan9-3-5-6-2-7-4-7-4-1-8-7-3-3-5-8-1-0-0-4-7-3"
           style="fill:#ffffff;fill-opacity:1;stroke-width:0.264583"
           x="270.07635"
           y="438.31522">D6</tspan></text><text
         xml:space="preserve"
         style="font-size:3.175px;text-align:start;writing-mode:lr-tb;direction:ltr;text-anchor:start;display:inline;fill:#ffffff;fill-opacity:1;stroke-width:0.264583"
         x="270.07635"
         y="442.88147"
         id="text9-9-8-5-3-4-3-9-4-6-7-6-6-0-4-4-3-2-7-8-7-6"><tspan
           id="tspan9-3-5-6-2-7-4-7-4-1-8-7-3-3-5-8-1-0-0-4-7-7"
           style="fill:#ffffff;fill-opacity:1;stroke-width:0.264583"
           x="270.07635"
           y="442.88147">D5</tspan></text><text
         xml:space="preserve"
         style="font-size:3.175px;text-align:start;writing-mode:lr-tb;direction:ltr;text-anchor:start;display:inline;fill:#ffffff;fill-opacity:1;stroke-width:0.264583"
         x="270.07635"
         y="447.44775"
         id="text9-9-8-5-3-4-3-9-4-6-7-6-6-0-4-4-3-2-7-8-7-8-1"><tspan
           id="tspan9-3-5-6-2-7-4-7-4-1-8-7-3-3-5-8-1-0-0-4-7-3-5"
           style="fill:#ffffff;fill-opacity:1;stroke-width:0.264583"
           x="270.07635"
           y="447.44775">D4</tspan></text><text
         xml:space="preserve"
         style="font-size:3.175px;text-align:start;writing-mode:lr-tb;direction:ltr;text-anchor:start;display:inline;fill:#ffffff;fill-opacity:1;stroke-width:0.264583"
         x="270.07635"
         y="452.01404"
         id="text9-9-8-5-3-4-3-9-4-6-7-6-6-0-4-4-3-2-7-8-7-60"><tspan
           id="tspan9-3-5-6-2-7-4-7-4-1-8-7-3-3-5-8-1-0-0-4-7-6"
           style="fill:#ffffff;fill-opacity:1;stroke-width:0.264583"
           x="270.07635"
           y="452.01404">D3</tspan></text><text
         xml:space="preserve"
         style="font-size:3.175px;text-align:start;writing-mode:lr-tb;direction:ltr;text-anchor:start;display:inline;fill:#ffffff;fill-opacity:1;stroke-width:0.264583"
         x="270.07635"
         y="456.58029"
         id="text9-9-8-5-3-4-3-9-4-6-7-6-6-0-4-4-3-2-7-8-7-8-11"><tspan
           id="tspan9-3-5-6-2-7-4-7-4-1-8-7-3-3-5-8-1-0-0-4-7-3-1"
           style="fill:#ffffff;fill-opacity:1;stroke-width:0.264583"
           x="270.07635"
           y="456.58029">D2</tspan></text><text
         xml:space="preserve"
         style="font-size:3.175px;text-align:start;writing-mode:lr-tb;direction:ltr;text-anchor:start;display:inline;fill:#ffffff;fill-opacity:1;stroke-width:0.264583"
         x="270.07635"
         y="461.14658"
         id="text9-9-8-5-3-4-3-9-4-6-7-6-6-0-4-4-3-2-7-8-7-6-7"><tspan
           id="tspan9-3-5-6-2-7-4-7-4-1-8-7-3-3-5-8-1-0-0-4-7-7-3"
           style="fill:#ffffff;fill-opacity:1;stroke-width:0.264583"
           x="270.07635"
           y="461.14658">D1</tspan></text><text
         xml:space="preserve"
         style="font-size:3.175px;text-align:start;writing-mode:lr-tb;direction:ltr;text-anchor:start;display:inline;fill:#ffffff;fill-opacity:1;stroke-width:0.264583"
         x="270.07635"
         y="465.71283"
         id="text9-9-8-5-3-4-3-9-4-6-7-6-6-0-4-4-3-2-7-8-7-8-1-0"><tspan
           id="tspan9-3-5-6-2-7-4-7-4-1-8-7-3-3-5-8-1-0-0-4-7-3-5-0"
           style="fill:#ffffff;fill-opacity:1;stroke-width:0.264583"
           x="270.07635"
           y="465.71283">D0</tspan></text></g><path
       style="display:inline;fill:none;fill-opacity:1;stroke:#f60000;stroke-width:2.2;stroke-linecap:round;stroke-linejoin:round;stroke-dasharray:none;stroke-opacity:1"
       d="m 244.10398,494.29191 -0.073,-7.20157 18.10072,0.0311"
       id="path2-2-7" /><path
       style="display:inline;fill:none;fill-opacity:1;stroke:#f60000;stroke-width:2.2;stroke-linecap:round;stroke-linejoin:round;stroke-dasharray:none;stroke-opacity:1"
       d="m 200.19896,414.03666 17.81306,0.0496 -0.0657,11.30813"
       id="path2-2-7-0" /><path
       style="display:inline;fill:none;fill-opacity:1;stroke:#000000;stroke-width:2.2;stroke-linecap:round;stroke-linejoin:round;stroke-dasharray:none;stroke-opacity:1"
       d="m 248.54194,498.93036 -0.005,-7.15063 12.91378,0.0251"
       id="path2-4-90-4" /><path
       style="display:inline;fill:none;fill-opacity:1;stroke:#000000;stroke-width:2.2;stroke-linecap:round;stroke-linejoin:round;stroke-dasharray:none;stroke-opacity:1"
       d="m 213.66975,425.6077 -0.003,-2.56343 -13.07085,0.035"
       id="path2-4-90-4-6" /><g
       id="g24-81-1"
       transform="translate(-223.40116,334.305)"
       style="display:inline"><rect
         style="fill:#6272a8;fill-opacity:1;stroke:none;stroke-width:1.36329;stroke-linecap:round;stroke-linejoin:round;stroke-dasharray:none;stroke-opacity:1"
         id="rect23-8-0"
         width="13.06378"
         height="11.954262"
         x="390.29984"
         y="78.246559" /><circle
         style="fill:#e3e9fb;fill-opacity:1;stroke:none;stroke-width:1.88916;stroke-linecap:round;stroke-linejoin:round;stroke-dasharray:none;stroke-opacity:1"
         id="path24-3-0"
         cx="396.83014"
         cy="84.303436"
         r="4.659627" /><rect
         style="fill:#6b5050;fill-opacity:1;stroke:none;stroke-width:0.799999;stroke-linecap:round;stroke-linejoin:round;stroke-dasharray:none;stroke-opacity:1"
         id="rect24-0-8"
         width="2.7908399"
         height="1.0029581"
         x="387.50897"
         y="84.117661" /><rect
         style="display:inline;fill:#6b5050;fill-opacity:1;stroke:none;stroke-width:0.799999;stroke-linecap:round;stroke-linejoin:round;stroke-dasharray:none;stroke-opacity:1"
         id="rect24-9-6-3"
         width="2.7908399"
         height="1.0029581"
         x="403.31998"
         y="79.245773" /><rect
         style="display:inline;fill:#6b5050;fill-opacity:1;stroke:none;stroke-width:0.799999;stroke-linecap:round;stroke-linejoin:round;stroke-dasharray:none;stroke-opacity:1"
         id="rect24-4-8-2-4"
         width="2.7908399"
         height="1.0029581"
         x="403.31998"
         y="88.521957" /><g
         id="g25-5"
         transform="rotate(45,396.98343,84.310056)"><rect
           style="display:inline;fill:#6272a8;fill-opacity:1;stroke:none;stroke-width:0.343233;stroke-linecap:round;stroke-linejoin:round;stroke-dasharray:none;stroke-opacity:1"
           id="rect23-8-3-0"
           width="5.5831351"
           height="1.7730285"
           x="394.08658"
           y="83.423538" /><rect
           style="display:inline;fill:#6272a8;fill-opacity:1;stroke:none;stroke-width:0.343233;stroke-linecap:round;stroke-linejoin:round;stroke-dasharray:none;stroke-opacity:1"
           id="rect23-8-3-7-1"
           width="5.5831351"
           height="1.7730285"
           x="81.562096"
           y="-397.76465"
           transform="rotate(90)" /></g></g><path
       style="font-variation-settings:normal;opacity:1;vector-effect:none;fill:none;fill-opacity:1;stroke:#e69d00;stroke-width:2.2;stroke-linecap:round;stroke-linejoin:round;stroke-miterlimit:4;stroke-dasharray:none;stroke-dashoffset:0;stroke-opacity:1;-inkscape-stroke:none;stop-color:#000000;stop-opacity:1"
       d="m 159.87391,418.8915 -9.66247,-0.17573 0.009,-13.48664 84.64163,-0.25323 -0.2671,77.77488 26.76749,0.12508"
       id="path30" /><path
       style="font-variation-settings:normal;opacity:1;vector-effect:none;fill:none;fill-opacity:1;stroke:#000000;stroke-width:2.2;stroke-linecap:round;stroke-linejoin:round;stroke-miterlimit:4;stroke-dasharray:none;stroke-dashoffset:0;stroke-opacity:1;-inkscape-stroke:none;stop-color:#000000;stop-opacity:1"
       d="m 213.05572,429.88177 h 35.71875"
       id="path33" /><path
       style="font-variation-settings:normal;opacity:1;vector-effect:none;fill:none;fill-opacity:1;stroke:#f60000;stroke-width:2.2;stroke-linecap:round;stroke-linejoin:round;stroke-miterlimit:4;stroke-dasharray:none;stroke-dashoffset:0;stroke-opacity:1;-inkscape-stroke:none;stop-color:#000000;stop-opacity:1"
       d="m 217.81822,498.60728 h 26.45833"
       id="path39" /><path
       style="font-variation-settings:normal;opacity:1;vector-effect:none;fill:none;fill-opacity:1;stroke:#000000;stroke-width:2.2;stroke-linecap:round;stroke-linejoin:round;stroke-miterlimit:4;stroke-dasharray:none;stroke-dashoffset:0;stroke-opacity:1;-inkscape-stroke:none;stop-color:#000000;stop-opacity:1"
       d="m 261.40832,423.0026 h -13.22916 v 3.24114"
       id="path40" /><g
       id="g21-4-6-1-9"
       transform="rotate(-90,382.28075,186.20643)"
       style="display:inline"><path
         style="display:inline;fill:none;fill-opacity:1;stroke:#726464;stroke-width:1.12126;stroke-linecap:round;stroke-linejoin:round;stroke-dasharray:none;stroke-opacity:1"
         d="m 142.53024,48.071803 31.55272,-0.02196 -0.0441,12.858588 -33.56046,-0.400365 -0.0755,4.800958"
         id="path4-1-4-4-3-2-2" /><rect
         style="display:inline;fill:#1ddee9;fill-opacity:1;stroke-width:0.882937;stroke-linecap:round;stroke-linejoin:round"
         id="rect16-8-40-4-9-1-3"
         width="17.175222"
         height="5.2918682"
         x="153.06519"
         y="58.052605"
         ry="2.4325523" /></g><text
       xml:space="preserve"
       style="font-size:3.175px;text-align:start;writing-mode:lr-tb;direction:ltr;text-anchor:start;display:inline;fill:#000000;fill-opacity:1;stroke-width:0.264583"
       x="-410.13837"
       y="257.92261"
       id="text9-9-8-4-7-9-7-3-0-9-2-2-4-7"
       transform="rotate(-90)"><tspan
         id="tspan9-3-5-4-1-3-3-7-3-2-7-1-9-3"
         style="fill:#000000;fill-opacity:1;stroke-width:0.264583"
         x="-410.13837"
         y="257.92261">220</tspan></text><path
       style="font-variation-settings:normal;opacity:1;vector-effect:none;fill:none;fill-opacity:1;stroke:#002cc5;stroke-width:2.2;stroke-linecap:round;stroke-linejoin:round;stroke-miterlimit:4;stroke-dasharray:none;stroke-dashoffset:0;stroke-opacity:1;-inkscape-stroke:none;stop-color:#000000;stop-opacity:1"
       d="m 261.01145,477.96979 h -30.81238 l 0.0506,8.96593 -38.55906,0.0299"
       id="path41" /><path
       style="font-variation-settings:normal;opacity:1;vector-effect:none;fill:none;fill-opacity:1;stroke:#643d08;stroke-width:2.2;stroke-linecap:round;stroke-linejoin:round;stroke-miterlimit:4;stroke-dasharray:none;stroke-dashoffset:0;stroke-opacity:1;-inkscape-stroke:none"
       d="m 261.01145,473.47187 h -34.723 l 0.0152,8.9273 -34.7453,0.0685"
       id="path42" /><path
       style="font-variation-settings:normal;opacity:1;vector-effect:none;fill:none;fill-opacity:1;stroke:#028500;stroke-width:2.2;stroke-linecap:round;stroke-linejoin:round;stroke-miterlimit:4;stroke-dasharray:none;stroke-dashoffset:0;stroke-opacity:1;-inkscape-stroke:none;stop-color:#000000;stop-opacity:1"
       d="m 191.3917,477.73089 19.92898,0.28065 41.41992,-31.99218 8.90289,-0.0935"
       id="path43" /><path
       style="font-variation-settings:normal;display:inline;opacity:1;vector-effect:none;fill:none;fill-opacity:1;stroke:#cc00df;stroke-width:2.2;stroke-linecap:round;stroke-linejoin:round;stroke-miterlimit:4;stroke-dasharray:none;stroke-dashoffset:0;stroke-opacity:1;-inkscape-stroke:none;stop-color:#000000;stop-opacity:1"
       d="m 191.3917,473.43141 19.06908,0.41294 42.27982,-32.12447 8.90289,-0.0935"
       id="path43-0" /><path
       style="font-variation-settings:normal;display:inline;opacity:1;vector-effect:none;fill:none;fill-opacity:1;stroke:#8e0805;stroke-width:2.2;stroke-linecap:round;stroke-linejoin:round;stroke-miterlimit:4;stroke-dasharray:none;stroke-dashoffset:0;stroke-opacity:1;-inkscape-stroke:none;stop-color:#000000;stop-opacity:1"
       d="m 191.3917,469.06579 18.27533,0.28065 43.07357,-31.99218 8.90289,-0.0935"
       id="path43-9" /><path
       style="font-variation-settings:normal;display:inline;vector-effect:none;fill:none;fill-opacity:1;stroke:#10d1c0;stroke-width:2.2;stroke-linecap:round;stroke-linejoin:round;stroke-miterlimit:4;stroke-dasharray:none;stroke-dashoffset:0;stroke-opacity:1;-inkscape-stroke:none"
       d="m 191.3917,464.23714 18.07689,0.28065 43.27201,-31.99218 8.90289,-0.0935"
       id="path43-1" /></g></svg>
