<?xml version='1.0' encoding='UTF-8'?>
<svg xmlns="http://www.w3.org/2000/svg" width="1920" height="768" viewBox="0 0 507.99999 203.2" version="1.1" style="background-color:transparent;color-scheme:light dark" xml:space="preserve"><defs><style><![CDATA[.ddf {font-variation-settings:normal;display:inline;fill-opacity:1;stroke-linecap:round;stroke-linejoin:round;stroke-miterlimit:4;stroke-dashoffset:0;stroke-opacity:1;stop-color:#000000;vector-effect:none;line-height:normal;font-family:Arial;text-align:start;text-decoration-color:#000000;writing-mode:lr-tb;direction:ltr;text-anchor:start;stop-opacity:1;font-style:normal;font-variant:normal;font-weight:normal;font-stretch:normal;font-variant-ligatures:normal;font-variant-caps:normal;font-variant-numeric:normal;font-variant-east-asian:normal;inline-size:0;font-variant-position:normal;font-variant-alternates:normal;font-feature-settings:normal;text-indent:0;text-decoration-line:none;text-decoration-style:solid;letter-spacing:normal;word-spacing:normal;text-transform:none;text-orientation:mixed;dominant-baseline:auto;baseline-shift:baseline;opacity:1;} .dn {display:none}  .w00 {stroke-width:3} .w01 {stroke-width:1} .w02 {stroke-width:0.5} .a00 {fill-opacity:1} .s00 {font-size:19px} .s01 {font-size:14px} .e00 {stroke:#0045ff} .e01 {stroke:#00ff45} .e02 {stroke:#ff4500} .e03 {stroke:none} .e04 {stroke:#777777} .e05 {stroke:#808080} .f00 {fill:#0045ff} .f01 {fill:#00ff45} .f02 {fill:#ff4500} .f03 {fill:none} .f04 {fill:#777777} .d00 {stroke-dasharray:none} .d01 {stroke-dasharray:1,3}]]></style></defs><g><path d="m 178.76363,100.34516 -49.80558,61.61751" class="ddf f03 e04 w01 d01"/><path d="m 100.04367,151.49467 c 0,0 1.79385,-4.20468 1.21434,-8.90299 -0.57952,-4.69832 -2.638046,-6.62181 -2.638046,-6.62181" class="ddf f03 e04 w00 d00"/><path d="M 72.256924,145.45957 172.71242,102.40534" class="ddf f03 e01 w00 d00"/><path d="m 176.66531,168.72539 6.02985,10.6226 -10.62259,6.02986 -3.01494,-5.31131 5.3113,-3.01492 -3.01492,-5.3113 z" class="ddf f02 e03 w00 d00"/><path d="m 168.22572,94.839461 11.52719,4.768307 -4.76831,11.527182 -5.76359,-2.38415 2.38415,-5.76359 -5.76359,-2.38415 z" class="ddf f01 e03 w00 d00"/><path d="m 63.134585,39.807576 9.047362,-8.588258 8.58825,9.047357 -4.523676,4.294129 -4.294125,-4.523675 -4.523667,4.294121 z" class="ddf f00 e03 w00 d00"/><text xml:space="preserve" x="186.41521" y="187.33771" class="ddf s00 f02 e03 w00 d00"><tspan x="186.41521" y="187.33771" class="ddf f02 e03 w00 d00">u</tspan></text><text xml:space="preserve" x="66.927223" y="23.883505" class="ddf s00 f00 e03 w00 d00"><tspan x="66.927223" y="23.883505" class="ddf f00 e03 w00 d00">n</tspan></text><text xml:space="preserve" x="107.6741" y="147.43491" class="ddf s01 f04 e03 w00 d00"><tspan x="107.6741" y="147.43491" class="ddf s01 f04 w00">a</tspan></text><text xml:space="preserve" x="179.89165" y="146.18858" class="ddf s01 f04 e03 w00 d00"><tspan x="179.89165" y="146.18858" class="ddf s01 f04 w00">opp</tspan></text><text xml:space="preserve" x="97.40387" y="102.31315" class="ddf s01 f04 e03 w00 d00"><tspan x="97.40387" y="102.31315" class="ddf s01 f04 w00">hyp</tspan></text><text xml:space="preserve" x="33.683727" y="170.14984" transform="translate(43.926341,12.176341)" class="ddf s01 f04 e03 w00 d00"><tspan x="33.683727" y="170.14984" class="ddf s01 f04 w00">adj</tspan></text><text xml:space="preserve" x="11.778195" y="90.555656" class="ddf s01 f04 e03 w00 d00"><tspan x="11.778195" y="90.555656" class="ddf s01 f04 w00">|u × v|</tspan></text><text xml:space="preserve" x="184.56476" y="99.38755" class="ddf s00 f01 e03 w00 d00"><tspan x="184.56476" y="99.38755" class="ddf s00 f01 e03 w00 d00">v</tspan></text><text xml:space="preserve" x="251.22827" y="26.340971" class="ddf s01 f04 e03 w00 d00"><tspan x="251.22827" y="26.340971" class="ddf s01 f04 w00">opp = hyp · sin( a )</tspan></text><text xml:space="preserve" x="251.60245" y="58.096478" class="ddf s01 f04 e03 w00 d00"><tspan x="251.60245" y="58.096478" class="ddf s01 f04 w00">opp = |v| · sin( a )</tspan></text><text xml:space="preserve" x="251.78954" y="89.884087" class="ddf s01 f04 e03 w00 d00"><tspan x="251.78954" y="89.884087" class="ddf s01 f04 w00">opp = 1 · |v| · sin( a )</tspan></text><text xml:space="preserve" x="251.78954" y="123.2005" class="ddf s01 f04 e03 w00 d00"><tspan x="251.78954" y="123.2005" class="ddf s01 f04 w00">opp =</tspan></text><text xml:space="preserve" x="293.24411" y="122.77218" class="ddf s01 f04 e03 w00 d00"><tspan x="293.24411" y="122.77218" class="ddf s01 f04 w00">|u|</tspan></text><text xml:space="preserve" x="312.27625" y="122.76052" class="ddf s01 f04 e03 w00 d00"><tspan x="312.27625" y="122.76052" class="ddf s01 f04 w00">· |v| · sin( a )</tspan></text><text xml:space="preserve" x="244.306" y="154.58183" class="ddf s01 f04 e03 w00 d00"><tspan x="244.306" y="154.58183" class="ddf s01 f04 w00">|u × v| = </tspan></text><text xml:space="preserve" x="244.49309" y="186.46574" class="ddf s01 f04 e03 w00 d00"><tspan x="244.49309" y="186.46574" class="ddf s01 f04 w00">|u × v| = opp</tspan></text><path d="m 134.32083,154.29687 -7.27604,-2.24896 -5.55625,6.74687" class="ddf f03 e04 w01 d00"/><path d="M 72.256924,145.45957 173.29865,176.72034" class="ddf f03 e02 w00 d00"/><path d="m 60.764166,146.21423 -5.96791,-0.003 3.220157,-0.005 -0.232251,-114.662941 2.921551,-0.0493 -5.446831,0.0058" class="ddf f03 e04 w01 d00"/><path d="m 67.046574,135.50116 -2.306046,-5.50437 1.250398,2.96749 105.644724,-44.573943 1.17572,2.674988 -2.11257,-5.020463" class="ddf f03 e04 w01 d00"/><path d="m 64.203209,157.97891 1.746943,-5.7065 -0.936289,3.08104 59.300107,18.35711 -0.80666,2.80841 1.58625,-5.21074" class="ddf f03 e04 w01 d00"/><path d="m 151.58506,170.18242 -4.93977,-3.34883 2.6691,1.80148 47.95906,-63.44336 2.44669,1.59736 -4.51324,-3.04937" class="ddf f03 e04 w01 d00"/><path d="M 72.184883,144.84144 71.909473,38.052924" class="ddf f03 e00 w00 d00"/><g transform="translate(-5.6126601)" class="ddf"><path d="m 245.32003,54.62989 c -8.91189,-7e-6 -16.1364,-7.098872 -16.1364,-15.855764 0,-8.756892 7.22451,-15.855759 16.1364,-15.855766" class="ddf f03 e05 w02"/><path d="m 244.92014,50.859849 3.64596,3.860978 -3.86098,3.645965 -1.82298,-1.930491 1.93049,-1.82298 -1.82298,-1.930488 z" class="ddf f04 e03 w00 d00"/></g><g transform="matrix(-1,0,0,1,658.75655,31.617708)" class="ddf"><path d="m 244.92014,50.859849 3.64596,3.860978 -3.86098,3.645965 -1.82298,-1.930491 1.93049,-1.82298 -1.82298,-1.930488 z" class="ddf f04 e03 w00 d00"/><path d="m 245.32003,54.62989 c -8.91189,-7e-6 -16.1364,-7.098872 -16.1364,-15.855764 0,-8.756892 7.22451,-15.855759 16.1364,-15.855766" class="ddf f03 e05 w02"/></g><g transform="translate(-5.6126601,63.300865)" class="ddf"><path d="m 244.92014,50.859849 3.64596,3.860978 -3.86098,3.645965 -1.82298,-1.930491 1.93049,-1.82298 -1.82298,-1.930488 z" class="ddf f04 e03 w00 d00"/><path d="m 245.32003,54.62989 c -8.91189,-7e-6 -16.1364,-7.098872 -16.1364,-15.855764 0,-8.756892 7.22451,-15.855759 16.1364,-15.855766" class="ddf f03 e05 w02"/></g><g transform="matrix(-1,0,0,1,657.25985,94.984022)" class="ddf"><path d="m 244.92014,50.859849 3.64596,3.860978 -3.86098,3.645965 -1.82298,-1.930491 1.93049,-1.82298 -1.82298,-1.930488 z" class="ddf f04 e03 w00 d00"/><path d="m 245.32003,54.62989 c -8.91189,-7e-6 -16.1364,-7.098872 -16.1364,-15.855764 0,-8.756892 7.22451,-15.855759 16.1364,-15.855766" class="ddf f03 e05 w02"/></g><g transform="translate(-5.6126601,126.71894)" class="ddf"><path d="m 244.92014,50.859849 3.64596,3.860978 -3.86098,3.645965 -1.82298,-1.930491 1.93049,-1.82298 -1.82298,-1.930488 z" class="ddf f04 e03 w00 d00"/><path d="m 245.32003,54.62989 c -8.91189,-7e-6 -16.1364,-7.098872 -16.1364,-15.855764 0,-8.756892 7.22451,-15.855759 16.1364,-15.855766" class="ddf f03 e05 w02"/></g><path d="m 298.2224,112.18699 2.80655,-2.51594 2.92855,2.47329" class="ddf f03 e04 w01 d00"/><text xml:space="preserve" x="300.69437" y="154.20602" class="ddf s01 f04 e03 w00 d00"><tspan x="300.69437" y="154.20602" class="ddf s01 f04 w00">|u|</tspan></text><text xml:space="preserve" x="319.7265" y="154.19437" class="ddf s01 f04 e03 w00 d00"><tspan x="319.7265" y="154.19437" class="ddf s01 f04 w00">· |v| · sin( a )</tspan></text><path d="m 305.67265,143.62084 2.80655,-2.51594 2.92855,2.47329" class="ddf f03 e04 w01 d00"/><path d="m 249.20833,144.99532 2.80655,-2.51593 2.92855,2.47328" class="ddf f03 e04 w01 d00"/><path d="m 249.6052,176.48074 2.80655,-2.51594 2.92855,2.47329" class="ddf f03 e04 w01 d00"/></g></svg>