<?xml version='1.0' encoding='UTF-8'?>
<svg xmlns="http://www.w3.org/2000/svg" width="1920" height="768" viewBox="0 0 507.99999 203.2" version="1.1" style="background-color:transparent;color-scheme:light dark" xml:space="preserve"><defs><style><![CDATA[.ddf {font-variation-settings:normal;display:inline;vector-effect:none;fill-opacity:1;stroke-linecap:round;stroke-linejoin:round;stroke-miterlimit:4;stroke-dasharray:none;stroke-dashoffset:0;stroke-opacity:1;stop-color:#000000;font-size:19.2331px;line-height:normal;font-family:Arial;text-align:start;text-decoration-color:#000000;writing-mode:lr-tb;direction:ltr;text-anchor:start;stop-opacity:1;} .dn {display:none}  .w00 {stroke-width:3} .w01 {stroke-width:2} .a00 {fill-opacity:1} .s00 {font-size:19px} .e00 {stroke:#ff4500} .e01 {stroke:none} .e02 {stroke:#808080} .f00 {fill:#b4b4b4} .f01 {fill:#ff4500} .f02 {fill:none} .f03 {fill:#808080} .d00 {stroke-dasharray:none}]]></style></defs><g><path d="m 346.96272,67.95068 6.38516,6.465204 -6.4652,6.38516 -3.19259,-3.23261 3.2326,-3.19257 -3.19257,-3.23261 z" class="ddf f01 e01 w00"/><text xml:space="preserve" x="331.35269" y="59.496319" class="ddf f03 e01 w00"><tspan x="331.35269" y="59.496319" class="ddf f03 e01 w00">target</tspan></text><text xml:space="preserve" x="236.30739" y="102.28278" class="ddf f01 e01 w00"><tspan x="236.30739" y="102.28278" class="ddf f01 e01 w00">target - source</tspan></text><text xml:space="preserve" x="216.54921" y="59.638699" class="ddf f03 e01 w00"><tspan x="216.54921" y="59.638699" class="ddf f03 e01 w00">source</tspan></text><path d="m 242.01354,75.230034 109.54489,-0.78078" class="ddf f02 e00 w00"/><circle cx="242.64409" cy="75.054855" r="4.4979167" class="ddf f00 e02 w01"/><circle cx="357.60138" cy="74.450943" r="4.4979167" class="ddf f00 e02 w01"/><path d="m 147.06585,67.95068 6.38516,6.465204 -6.4652,6.38516 -3.19259,-3.23261 3.2326,-3.19257 -3.19257,-3.23261 z" class="ddf f01 e01 w00"/><text xml:space="preserve" x="161.92445" y="63.76762" class="ddf f03 e01 w00"><tspan x="161.92445" y="63.76762" class="ddf f03 e01 w00">q</tspan></text><text xml:space="preserve" x="64.885849" y="102.85229" class="ddf f01 e01 w00"><tspan x="64.885849" y="102.85229" class="ddf f01 e01 w00">u = q - p</tspan></text><text xml:space="preserve" x="26.049204" y="65.333771" class="ddf f03 e01 w00"><tspan x="26.049204" y="65.333771" class="ddf f03 e01 w00">p</tspan></text><path d="M 42.116664,75.230034 151.66156,74.449254" class="ddf f02 e00 w00"/><circle cx="42.747223" cy="75.054855" r="4.4979167" class="ddf f00 e02 w01"/><circle cx="157.70453" cy="74.450943" r="4.4979167" class="ddf f00 e02 w01"/></g></svg>