<?xml version='1.0' encoding='UTF-8'?>
<svg xmlns="http://www.w3.org/2000/svg" width="1920" height="768" viewBox="0 0 507.99999 203.2" version="1.1" style="background-color:transparent;color-scheme:light dark" xml:space="preserve"><defs><style><![CDATA[.ddf {font-variation-settings:normal;display:inline;vector-effect:none;fill-opacity:1;stroke-linecap:round;stroke-linejoin:round;stroke-miterlimit:4;stroke-dashoffset:0;stroke-opacity:1;stop-color:#000000;font-style:normal;font-variant:normal;font-weight:normal;font-stretch:normal;line-height:normal;font-family:Arial;font-variant-ligatures:normal;font-variant-position:normal;font-variant-caps:normal;font-variant-numeric:normal;font-variant-alternates:normal;font-variant-east-asian:normal;font-feature-settings:normal;text-indent:0;text-align:start;text-decoration-line:none;text-decoration-style:solid;text-decoration-color:#000000;letter-spacing:normal;word-spacing:normal;text-transform:none;writing-mode:lr-tb;direction:ltr;text-orientation:mixed;dominant-baseline:auto;baseline-shift:baseline;text-anchor:start;white-space:normal;stop-opacity:1;} .dn {display:none}  .w00 {stroke-width:3} .w01 {stroke-width:1} .w02 {stroke-width:2} .a00 {fill-opacity:1} .s00 {font-size:16px} .s01 {font-size:14px} .e00 {stroke:#0045ff} .e01 {stroke:#00ff45} .e02 {stroke:#ff4500} .e03 {stroke:none} .e04 {stroke:#808080} .f00 {fill:#b4b4b4} .f01 {fill:#0045ff} .f02 {fill:#00ff45} .f03 {fill:#ff4500} .f04 {fill:none} .f05 {fill:#777777} .d00 {stroke-dasharray:none} .d01 {stroke-dasharray:1,3}]]></style></defs><g><path d="M 218.5294,136.6076 240.50469,97.136436" class="ddf f04 e01 w00 d00"/><path d="M 283.24183,132.22676 305.21712,92.755585" class="ddf f04 e01 w01 d01"/><text xml:space="preserve" x="212.75415" y="111.34734" class="ddf s00 f02 e03 w00 d00"><tspan x="212.75415" y="111.34734" class="ddf s00 f02 e03 w00 d00">v</tspan></text><path d="m 268.2272,128.65856 7.54999,7.64464 -7.64462,7.55 -3.77501,-3.82233 3.82231,-3.77498 -3.77499,-3.82233 z" class="ddf f03 e03 w00 d00"/><text xml:space="preserve" x="242.10753" y="154.07686" class="ddf s00 f03 e03 w00 d00"><tspan x="242.10753" y="154.07686" class="ddf f03 e03 w00 d00">u</tspan></text><path d="M 218.29866,136.73731 298.15299,92.733717" class="ddf f04 e00 w00 d00"/><path d="m 218.10358,136.75051 51.72765,-0.36014" class="ddf f04 e02 w00 d00"/><path d="m 252.19406,87.332951 51.72765,-0.36014" class="ddf f04 e02 w01 d01"/><path d="m 290.02259,88.357127 10.5783,2.91643 -2.91645,10.578283 -5.28913,-1.45821 1.45821,-5.289133 -5.28914,-1.45821 z" class="ddf f01 e03 w00 d00"/><path d="m 233.99587,92.904417 10.70305,-2.41871 2.41871,10.703053 -5.35151,1.20936 -1.20936,-5.351534 -5.35152,1.20937 z" class="ddf f02 e03 w00 d00"/><circle cx="281.14313" cy="136.70105" r="4.4979167" class="ddf f00 e04 w02 d00"/><circle cx="247.35173" cy="85.564392" r="4.4979167" class="ddf f00 e04 w02 d00"/><circle cx="90.358391" cy="136.70105" r="4.4979167" class="ddf f00 e04 w02 d00"/><circle cx="56.566978" cy="85.564392" r="4.4979167" class="ddf f00 e04 w02 d00"/><circle cx="305.74658" cy="87.873184" r="4.4979167" class="ddf f00 e04 w02 d00"/><circle cx="107.55825" cy="87.873184" r="4.4979167" class="ddf f00 e04 w02 d00"/><circle cx="217.8112" cy="138.27246" r="4.4979167" class="ddf f00 e04 w02 d00"/><g transform="translate(-50.017907,76.900554)" class="ddf"><text xml:space="preserve" x="148.07886" y="75.013969" class="ddf s01 f05 e03 w00 d00"><tspan x="148.07886" y="75.013969" class="ddf s01 f05 w00">p</tspan></text></g><g/><g transform="translate(140.05496,76.900554)" class="ddf"><text xml:space="preserve" x="148.07886" y="75.013969" class="ddf s01 f05 e03 w00 d00"><tspan x="148.07886" y="75.013969" class="ddf s01 f05 w00">p</tspan></text></g><g transform="translate(53.774691,76.900554)" class="ddf"><text xml:space="preserve" x="148.07886" y="75.013969" class="ddf s01 f05 e03 w00 d00"><tspan x="148.07886" y="75.013969" class="ddf s01 f05 w00">o</tspan></text></g><g transform="translate(-110.23642,6.9195751)" class="ddf"><text xml:space="preserve" x="148.07886" y="75.013969" class="ddf s01 f05 e03 w00 d00"><tspan x="148.07886" y="75.013969" class="ddf s01 f05 w00">q</tspan></text></g><g transform="translate(79.090793,6.9195751)" class="ddf"><text xml:space="preserve" x="148.07886" y="75.013969" class="ddf s01 f05 e03 w00 d00"><tspan x="148.07886" y="75.013969" class="ddf s01 f05 w00">q</tspan></text></g><g transform="translate(-29.61857,3.4400666)" class="ddf"><text xml:space="preserve" x="148.07886" y="75.013969" class="ddf s01 f05 e03 w00 d00"><tspan x="148.07886" y="75.013969" class="ddf s01 f05 w00">p+q</tspan></text></g><g transform="translate(166.55458,3.4400666)" class="ddf"><text xml:space="preserve" x="148.07886" y="75.013969" class="ddf s01 f05 e03 w00 d00"><tspan x="148.07886" y="75.013969" class="ddf s01 f05 w00">p+q</tspan></text></g></g></svg>