<?xml version='1.0' encoding='UTF-8'?>
<svg xmlns="http://www.w3.org/2000/svg" width="1920" height="768" viewBox="0 0 507.99999 203.2" version="1.1" style="background-color:transparent;color-scheme:light dark" xml:space="preserve"><defs><style><![CDATA[.ddf {font-variation-settings:normal;display:inline;vector-effect:none;fill-opacity:1;stroke-linecap:round;stroke-linejoin:round;stroke-miterlimit:4;stroke-dasharray:none;stroke-dashoffset:0;stroke-opacity:1;stop-color:#000000;font-style:normal;font-variant:normal;font-weight:normal;font-stretch:normal;line-height:normal;font-family:Arial;font-variant-ligatures:normal;font-variant-caps:normal;font-variant-numeric:normal;font-variant-east-asian:normal;text-align:start;text-decoration-color:#000000;writing-mode:lr-tb;direction:ltr;text-anchor:start;stop-opacity:1;font-variant-position:normal;font-variant-alternates:normal;text-indent:0;text-decoration-line:none;text-decoration-style:solid;letter-spacing:normal;word-spacing:normal;text-transform:none;text-orientation:mixed;dominant-baseline:auto;baseline-shift:baseline;white-space:normal;font-feature-settings:normal;} .dn {display:none}  .w00 {stroke-width:3} .w01 {stroke-width:2} .a00 {fill-opacity:1} .s00 {font-size:16px} .s01 {font-size:13px} .e00 {stroke:#0045ff} .e01 {stroke:#45ffff} .e02 {stroke:#00ff45} .e03 {stroke:#ff4500} .e04 {stroke:none} .e05 {stroke:#808080} .f00 {fill:#b4b4b4} .f01 {fill:#0045ff} .f02 {fill:#45ffff} .f03 {fill:#00ff45} .f04 {fill:#ff4500} .f05 {fill:none} .f06 {fill:#808080} .d00 {stroke-dasharray:none}]]></style></defs><g><path d="M 165.72207,133.96051 207.16861,95.222043" class="ddf f05 e02 w00"/><path d="m 222.06776,167.74678 1.60038,10.06461 -10.0646,1.6004 -0.8002,-5.03232 5.0323,-0.80019 -0.80019,-5.0323 z" class="ddf f04 e04 w00"/><path d="m 201.2796,90.665973 10.4059,-0.199359 0.19934,10.405886 -5.20293,0.0997 -0.0997,-5.202941 -5.20295,0.09968 z" class="ddf f03 e04 w00"/><path d="m 158.11105,45.812196 7.54847,-7.165416 7.16541,7.548455 -3.77423,3.582708 -3.58271,-3.774224 -3.77421,3.582701 z" class="ddf f01 e04 w00"/><text xml:space="preserve" x="225.43895" y="185.03479" class="ddf s01 f04 e04 w00"><tspan x="225.43895" y="185.03479" class="ddf s01 f04 e04 w00">X</tspan></text><text xml:space="preserve" x="161.75052" y="33.714199" class="ddf s01 f01 e04 w00"><tspan x="161.75052" y="33.714199" class="ddf s01 f01 e04 w00">Z</tspan></text><text xml:space="preserve" x="212.60684" y="90.318275" class="ddf s01 f03 e04 w00"><tspan x="212.60684" y="90.318275" class="ddf s01 f03 e04 w00">Y</tspan></text><path d="m 165.72207,133.96051 52.29786,39.72272" class="ddf f05 e03 w00"/><path d="M 165.66196,133.44479 165.43218,44.348243" class="ddf f05 e00 w00"/><text xml:space="preserve" x="145.40157" y="144.10382" class="ddf s00 f06 e04 w00"><tspan x="145.40157" y="144.10382" class="ddf s00 f06 e04 w00">O</tspan></text><circle cx="165.77226" cy="133.83086" r="3.7527339" class="ddf f00 e05 w01"/><path d="M 35.44303,133.96051 76.889573,95.222043" class="ddf f05 e02 w00"/><path d="m 91.788719,167.74678 1.600377,10.06461 -10.064592,1.6004 -0.800203,-5.03232 5.032302,-0.80019 -0.800195,-5.0323 z" class="ddf f04 e04 w00"/><path d="m 71.000566,90.665973 10.405895,-0.199359 0.199346,10.405886 -5.202939,0.0997 -0.09968,-5.202941 -5.202948,0.09968 z" class="ddf f03 e04 w00"/><path d="m 27.832014,45.812196 7.548466,-7.165416 7.16541,7.548455 -3.774229,3.582708 -3.582709,-3.774224 -3.774212,3.582701 z" class="ddf f01 e04 w00"/><text xml:space="preserve" x="95.159897" y="185.03479" class="ddf s01 f04 e04 w00"><tspan x="95.159897" y="185.03479" class="ddf s01 f04 e04 w00">X</tspan></text><text xml:space="preserve" x="31.471474" y="33.714199" class="ddf s01 f01 e04 w00"><tspan x="31.471474" y="33.714199" class="ddf s01 f01 e04 w00">Z</tspan></text><text xml:space="preserve" x="82.327805" y="90.318275" class="ddf s01 f03 e04 w00"><tspan x="82.327805" y="90.318275" class="ddf s01 f03 e04 w00">Y</tspan></text><path d="m 35.44303,133.96051 52.297859,39.72272" class="ddf f05 e03 w00"/><path d="M 35.382925,133.44479 35.153143,44.348243" class="ddf f05 e00 w00"/><path d="M 60.896625,69.029871 115.6548,50.15468" class="ddf f00 e01 w01"/><path d="M 37.415214,130.1191 55.718987,73.781546" class="ddf f00 e05 w01"/><text xml:space="preserve" x="43.813354" y="63.651699" class="ddf s00 f02 e04 w00"><tspan x="43.813354" y="63.651699" class="ddf s00 f02 e04 w00">o</tspan></text><text xml:space="preserve" x="15.122514" y="144.10382" class="ddf s00 f06 e04 w00"><tspan x="15.122514" y="144.10382" class="ddf s00 f06 e04 w00">O</tspan></text><text xml:space="preserve" x="110.47332" y="64.80468" class="ddf s00 f02 e04 w00"><tspan x="110.47332" y="64.80468" class="ddf s00 f02 e04 w00">p</tspan></text><circle cx="35.493217" cy="133.83086" r="3.7527339" class="ddf f00 e05 w01"/><circle cx="119.72851" cy="48.393604" r="3.7527339" class="ddf f05 e01 w01"/><circle cx="57.086346" cy="69.932281" r="3.7527339" class="ddf f05 e01 w01"/><path d="m 169.59814,132.9228 54.75818,-18.8752" class="ddf f00 e01 w01"/><text xml:space="preserve" x="152.51486" y="127.54463" class="ddf s00 f02 e04 w00"><tspan x="152.51486" y="127.54463" class="ddf s00 f02 e04 w00">o</tspan></text><text xml:space="preserve" x="226.5665" y="100.30686" class="ddf s00 f02 e04 w00"><tspan x="226.5665" y="100.30686" class="ddf s00 f02 e04 w00">p - o</tspan></text><circle cx="228.43001" cy="112.28654" r="3.7527339" class="ddf f05 e01 w01"/><circle cx="165.78786" cy="133.82523" r="3.7527339" class="ddf f05 e01 w01"/><path d="M 291.63138,133.96051 333.07793,95.222043" class="ddf f05 e02 w00"/><path d="m 347.97707,167.74678 1.60039,10.06461 -10.0646,1.6004 -0.8002,-5.03232 5.0323,-0.80019 -0.8002,-5.0323 z" class="ddf f04 e04 w00"/><path d="m 327.18892,90.665973 10.4059,-0.199359 0.19934,10.405886 -5.20294,0.0997 -0.0997,-5.202941 -5.20295,0.09968 z" class="ddf f03 e04 w00"/><path d="m 284.02037,45.812196 7.54847,-7.165416 7.16541,7.548455 -3.77423,3.582708 -3.58271,-3.774224 -3.77422,3.582701 z" class="ddf f01 e04 w00"/><text xml:space="preserve" x="351.34824" y="185.03479" class="ddf s01 f04 e04 w00"><tspan x="351.34824" y="185.03479" class="ddf s01 f04 e04 w00">X</tspan></text><text xml:space="preserve" x="287.65982" y="33.714199" class="ddf s01 f01 e04 w00"><tspan x="287.65982" y="33.714199" class="ddf s01 f01 e04 w00">Z</tspan></text><text xml:space="preserve" x="338.51614" y="90.318275" class="ddf s01 f03 e04 w00"><tspan x="338.51614" y="90.318275" class="ddf s01 f03 e04 w00">Y</tspan></text><path d="m 291.63138,133.96051 52.29786,39.72272" class="ddf f05 e03 w00"/><path d="M 291.57128,133.44479 291.3415,44.348243" class="ddf f05 e00 w00"/><text xml:space="preserve" x="271.31085" y="144.10382" class="ddf s00 f06 e04 w00"><tspan x="271.31085" y="144.10382" class="ddf s00 f06 e04 w00">O</tspan></text><circle cx="291.68158" cy="133.83086" r="3.7527339" class="ddf f00 e05 w01"/><path d="m 295.50746,132.9228 24.58583,-8.65937" class="ddf f00 e01 w01"/><text xml:space="preserve" x="278.42416" y="127.54463" class="ddf s00 f02 e04 w00"><tspan x="278.42416" y="127.54463" class="ddf s00 f02 e04 w00">o</tspan></text><text xml:space="preserve" x="330.4632" y="135.49327" class="ddf s00 f02 e04 w00"><tspan x="330.4632" y="135.49327" class="ddf s00 f02 e04 w00">p - o</tspan></text><text xml:space="preserve" x="342.72324" y="154.05371" class="ddf s00 f02 e04 w00"><tspan x="342.72324" y="154.05371" class="ddf s00 f02 e04 w00">2</tspan></text><circle cx="323.92938" cy="123.2151" r="3.7527339" class="ddf f05 e01 w01"/><circle cx="291.69714" cy="133.82523" r="3.7527339" class="ddf f05 e01 w01"/><path d="M 437.17327,64.607446 461.7591,55.948082" class="ddf f00 e01 w01"/><text xml:space="preserve" x="416.64508" y="63.38689" class="ddf s00 f02 e04 w00"><tspan x="416.64508" y="63.38689" class="ddf s00 f02 e04 w00">o</tspan></text><text xml:space="preserve" x="478.04166" y="38.585129" class="ddf s00 f02 e04 w00"><tspan x="478.04166" y="38.585129" class="ddf s00 f02 e04 w00">o</tspan></text><circle cx="465.59521" cy="54.89975" r="3.7527339" class="ddf f05 e01 w01"/><circle cx="433.36295" cy="65.509872" r="3.7527339" class="ddf f05 e01 w01"/><path d="M 408.32739,133.96051 449.77394,95.222043" class="ddf f05 e02 w00"/><path d="m 464.67308,167.74678 1.60038,10.06461 -10.06459,1.6004 -0.80021,-5.03232 5.03231,-0.80019 -0.8002,-5.0323 z" class="ddf f04 e04 w00"/><path d="m 443.88493,90.665973 10.40589,-0.199359 0.19935,10.405886 -5.20294,0.0997 -0.0997,-5.202941 -5.20294,0.09968 z" class="ddf f03 e04 w00"/><path d="m 400.71638,45.812196 7.54846,-7.165416 7.16541,7.548455 -3.77423,3.582708 -3.5827,-3.774224 -3.77422,3.582701 z" class="ddf f01 e04 w00"/><text xml:space="preserve" x="468.04425" y="185.03479" class="ddf s01 f04 e04 w00"><tspan x="468.04425" y="185.03479" class="ddf s01 f04 e04 w00">X</tspan></text><text xml:space="preserve" x="404.35583" y="33.714199" class="ddf s01 f01 e04 w00"><tspan x="404.35583" y="33.714199" class="ddf s01 f01 e04 w00">Z</tspan></text><text xml:space="preserve" x="455.21219" y="90.318275" class="ddf s01 f03 e04 w00"><tspan x="455.21219" y="90.318275" class="ddf s01 f03 e04 w00">Y</tspan></text><path d="m 408.32739,133.96051 52.29786,39.72272" class="ddf f05 e03 w00"/><path d="M 408.26729,133.44479 408.03751,44.348243" class="ddf f05 e00 w00"/><text xml:space="preserve" x="388.00687" y="144.10382" class="ddf s00 f06 e04 w00"><tspan x="388.00687" y="144.10382" class="ddf s00 f06 e04 w00">O</tspan></text><circle cx="408.37756" cy="133.83086" r="3.7527339" class="ddf f00 e05 w01"/><path d="m 46.259066,126.73959 -9.73071,3.69266 -3.692641,-9.73071 4.865343,-1.84632 1.846325,4.86534 4.865353,-1.84633 z" class="ddf f06 e04 w00"/><path d="M 410.15928,130.70771 428.46304,74.370164" class="ddf f00 e05 w01"/><path d="m 421.38724,72.95029 9.76033,-3.613635 3.61362,9.760329 -4.88016,1.806805 -1.80681,-4.880147 -4.88016,1.806813 z" class="ddf f06 e04 w00"/><path d="M 361.71906,138.93002 H 331.66551" class="ddf f02 e01 w01"/><text xml:space="preserve" x="432.03177" y="31.3036" class="ddf s00 f02 e04 w00"><tspan x="432.03177" y="31.3036" class="ddf s00 f02 e04 w00">p - o</tspan></text><text xml:space="preserve" x="466.85361" y="39.96413" class="ddf s00 f02 e04 w00"><tspan x="466.85361" y="39.96413" class="ddf s00 f02 e04 w00">+</tspan></text><text xml:space="preserve" x="444.29178" y="49.864048" class="ddf s00 f02 e04 w00"><tspan x="444.29178" y="49.864048" class="ddf s00 f02 e04 w00">2</tspan></text><path d="M 463.2876,34.740344 H 433.23405" class="ddf f02 e01 w01"/></g></svg>