<?xml version='1.0' encoding='UTF-8'?>
<svg xmlns="http://www.w3.org/2000/svg" width="1920" height="768" viewBox="0 0 507.99999 203.2" version="1.1" style="background-color:transparent;color-scheme:light dark" xml:space="preserve"><defs><style><![CDATA[.ddf {display:inline;fill-opacity:1;stroke-linecap:round;stroke-dasharray:none;stroke-opacity:1;font-variation-settings:normal;opacity:1;vector-effect:none;stroke-miterlimit:4;stroke-dashoffset:0;stop-color:#000000;stop-opacity:1;line-height:normal;font-family:Arial;text-align:start;text-decoration-color:#000000;writing-mode:lr-tb;direction:ltr;text-anchor:start;font-style:normal;font-variant:normal;font-weight:normal;font-stretch:normal;font-variant-ligatures:normal;font-variant-caps:normal;font-variant-numeric:normal;font-variant-east-asian:normal;} .dn {display:none}  .w00 {stroke-width:3} .w01 {stroke-width:1} .a00 {fill-opacity:1} .s00 {font-size:19px} .s01 {font-size:14px} .e00 {stroke:#ff4500} .e01 {stroke:none} .e02 {stroke:#777777} .e03 {stroke:#00ff45} .f00 {fill:#ff4500} .f01 {fill:none} .f02 {fill:#00ff45} .f03 {fill:#777777} .d00 {stroke-dasharray:none}]]></style></defs><g><path d="m 74.882383,167.56301 c 0,0 -0.26866,-12.65041 -0.37275,-16.34793 -3.37814,-0.23638 -18.082238,0.24946 -18.082238,0.24946" class="ddf f01 e02 w00"/><path style="stroke-linejoin:miter;" d="M 56.465842,167.68352 56.182603,48.198224" class="ddf f01 e03 w00"/><path style="stroke-linejoin:miter;" d="M 56.465842,167.68352 174.89279,166.90858" class="ddf f01 e00 w00"/><path style="stroke-linejoin:miter;" d="m 175.07124,158.27333 8.4568,8.81369 -8.81367,8.45681 -4.22842,-4.40685 4.40684,-4.2284 -4.2284,-4.40684 z" class="ddf f00 e01 w00"/><path style="stroke-linejoin:miter;" d="m 47.364843,47.96731 9.04866,-8.586863 8.58687,9.048667 -4.52434,4.293437 -4.29343,-4.524327 -4.52432,4.293421 z" class="ddf f02 e01 w00"/><g transform="translate(-7.8052084,-0.13229167)"><path style="stroke-linejoin:miter;" d="m 130.37208,73.570914 -0.28324,19.954124" class="ddf f01 e02 w01"/><path style="stroke-linejoin:miter;" d="m 135.07368,90.178331 -5.06491,4.80643 -4.80644,-5.06492 2.53246,-2.403219 2.40322,2.532457 2.53244,-2.403209 z" class="ddf f03 e01 w00"/></g><text xml:space="preserve" style="stroke-linejoin:miter;" x="189.39716" y="170.99596" class="ddf s00 f00 e01 w00"><tspan style="stroke-linejoin:miter;" x="189.39716" y="170.99596" class="ddf f00 e01 w00">u</tspan></text><text xml:space="preserve" x="80.397621" y="147.75322" class="ddf s01 f03 e01 w00"><tspan x="80.397621" y="147.75322" class="ddf s01 f03 w00">a</tspan></text><text xml:space="preserve" x="132.14711" y="64.519508" class="ddf s01 f03 e01 w00"><tspan x="132.14711" y="64.519508" class="ddf s01 f03 w00">= 0</tspan></text><g transform="translate(-15.04091,31.565588)" class="ddf"><path style="stroke-linejoin:miter;" d="m 113.2125,21.602116 2.81909,-2.60709 2.94162,2.5629" class="ddf f01 e02 w01"/><path style="stroke-linejoin:miter;" d="m 134.33605,21.615405 2.81909,-2.60709 2.94162,2.5629" class="ddf f01 e02 w01"/><g transform="translate(-7.752015,-14.295924)"><text xml:space="preserve" x="119.70226" y="46.312435" class="ddf s01 f03 e01 w00"><tspan x="119.70226" y="46.312435" class="ddf s01 f03 w00">u</tspan></text><text xml:space="preserve" x="141.14613" y="46.312435" class="ddf s01 f03 e01 w00"><tspan x="141.14613" y="46.312435" class="ddf s01 f03 w00">v</tspan></text><text xml:space="preserve" x="132.41042" y="42.737698" class="ddf s01 f03 e01 w00"><tspan x="132.41042" y="42.737698" class="ddf s01 f03 w00">.</tspan></text></g></g><text xml:space="preserve" x="96.915924" y="113.11452" class="ddf s01 f03 e01 w00"><tspan x="96.915924" y="113.11452" class="ddf s01 f03 w00">a = π / 2</tspan></text><text xml:space="preserve" style="stroke-linejoin:miter;" x="51.554127" y="34.976536" class="ddf s00 f02 e01 w00"><tspan style="stroke-linejoin:miter;" x="51.554127" y="34.976536" class="ddf f02 e01 w00">v</tspan></text></g></svg>