<?xml version='1.0' encoding='UTF-8'?>
<svg xmlns="http://www.w3.org/2000/svg" width="1920" height="768" viewBox="0 0 507.99999 203.2" version="1.1" style="background-color:transparent;color-scheme:light dark" xml:space="preserve"><defs><style><![CDATA[.ddf {opacity:1;stroke-linecap:round;stroke-linejoin:round;stroke-miterlimit:4;stroke-dasharray:none;stroke-dashoffset:0;stroke-opacity:1;font-variation-settings:normal;display:inline;vector-effect:none;stop-color:#000000;font-style:normal;font-variant:normal;font-weight:normal;font-stretch:normal;line-height:normal;font-family:Arial;font-variant-ligatures:normal;font-variant-caps:normal;font-variant-numeric:normal;font-variant-east-asian:normal;text-align:start;text-decoration-color:#000000;writing-mode:lr-tb;direction:ltr;text-anchor:start;stop-opacity:1;font-variant-position:normal;font-variant-alternates:normal;text-indent:0;text-decoration-line:none;text-decoration-style:solid;letter-spacing:normal;word-spacing:normal;text-transform:none;text-orientation:mixed;dominant-baseline:auto;baseline-shift:baseline;white-space:normal;font-feature-settings:normal;} .dn {display:none}  .w00 {stroke-width:3} .w01 {stroke-width:1} .w02 {stroke-width:2} .a00 {fill-opacity:0.5} .a01 {fill-opacity:1} .s00 {font-size:16px} .s01 {font-size:12px} .e00 {stroke:#0045ff} .e01 {stroke:#00ff45} .e02 {stroke:#ff4500} .e03 {stroke:none} .e04 {stroke:#808080} .f00 {fill:#b4b4b4} .f01 {fill:#0045ff} .f02 {fill:#00ff45} .f03 {fill:#ff4500} .f04 {fill:none} .f05 {fill:#808080} .d00 {stroke-dasharray:none}]]></style></defs><g><path d="M 78.876683,90.836324 136.68161,128.70852 82.293723,179.39462 26.766817,136.96637 Z" class="ddf f05 a00 e03 w01"/><path d="M 82.325448,130.71954 146.72598,71.845965" class="ddf f04 a01 e01 w00"/><path d="m 138.67111,164.50581 1.60038,10.06461 -10.0646,1.6004 -0.8002,-5.03232 5.0323,-0.80019 -0.80019,-5.0323 z" class="ddf f03 a01 e03 w00"/><path d="m 141.84373,66.081789 10.40589,-0.19936 0.19935,10.40589 -5.20294,0.0997 -0.0997,-5.20295 -5.20295,0.0997 z" class="ddf f02 a01 e03 w00"/><text xml:space="preserve" x="144.0558" y="183.80733" class="ddf s01 f03 a01 e03 w00"><tspan x="144.0558" y="183.80733" class="ddf s01 f03 a01 e03 w00">u</tspan></text><text xml:space="preserve" x="157.19798" y="66.136795" class="ddf s01 f02 a01 e03 w00"><tspan x="157.19798" y="66.136795" class="ddf s01 f02 a01 e03 w00">v</tspan></text><path d="m 82.325448,130.71954 52.297832,39.72272" class="ddf f04 a01 e02 w00"/><text xml:space="preserve" x="66.293411" y="141.8696" class="ddf s01 f05 a01 e03 w00"><tspan x="66.293411" y="141.8696" class="ddf s01 f05 a01 e03 w00">o</tspan></text><circle cx="82.375626" cy="130.58989" r="3.7527339" class="ddf f00 a01 e04 w02"/><path d="M 231.19398,130.71954 295.59452,71.845965" class="ddf f04 a01 e01 w00"/><path d="m 287.53965,164.50581 1.60038,10.06461 -10.0646,1.6004 -0.8002,-5.03232 5.0323,-0.80019 -0.80019,-5.0323 z" class="ddf f03 a01 e03 w00"/><path d="m 290.71227,66.081789 10.40589,-0.19936 0.19935,10.40589 -5.20294,0.0997 -0.0997,-5.20295 -5.20295,0.0997 z" class="ddf f02 a01 e03 w00"/><path d="m 223.58296,42.571221 7.54847,-7.165416 7.16541,7.548455 -3.77423,3.582708 -3.58271,-3.774224 -3.77421,3.582701 z" class="ddf f01 a01 e03 w00"/><text xml:space="preserve" x="292.92435" y="183.80733" class="ddf s01 f03 a01 e03 w00"><tspan x="292.92435" y="183.80733" class="ddf s01 f03 a01 e03 w00">u</tspan></text><text xml:space="preserve" x="217.55754" y="30.473223" class="ddf s01 f01 a01 e03 w00"><tspan x="217.55754" y="30.473223" class="ddf s01 f01 a01 e03 w00">u x v</tspan></text><text xml:space="preserve" x="306.06653" y="66.136795" class="ddf s01 f02 a01 e03 w00"><tspan x="306.06653" y="66.136795" class="ddf s01 f02 a01 e03 w00">v</tspan></text><path d="m 231.19398,130.71954 52.29784,39.72272" class="ddf f04 a01 e02 w00"/><path d="M 231.13387,130.20382 230.90409,41.107268" class="ddf f04 a01 e00 w00"/><text xml:space="preserve" x="215.16194" y="141.8696" class="ddf s01 f05 a01 e03 w00"><tspan x="215.16194" y="141.8696" class="ddf s01 f05 a01 e03 w00">o</tspan></text><circle cx="231.24414" cy="130.58989" r="3.7527339" class="ddf f00 a01 e04 w02"/><text xml:space="preserve" x="58.254486" y="72.174614" class="ddf s00 f05 a01 e03 w00"><tspan x="58.254486" y="72.174614" class="ddf s00 f05 a01 e03 w00">Plane</tspan></text><text xml:space="preserve" x="272.4895" y="131.49112" class="ddf s00 f05 a01 e03 w00"><tspan x="272.4895" y="131.49112" class="ddf s00 f05 a01 e03 w00">Basis</tspan></text></g></svg>