<?xml version='1.0' encoding='UTF-8'?>
<svg xmlns="http://www.w3.org/2000/svg" width="1920" height="768" viewBox="0 0 507.99999 203.2" version="1.1" style="background-color:transparent;color-scheme:light dark" xml:space="preserve"><defs><style><![CDATA[.ddf {display:inline;fill-opacity:1;stroke-linecap:round;stroke-dasharray:none;stroke-opacity:1;font-variation-settings:normal;vector-effect:none;stroke-linejoin:round;stroke-miterlimit:4;stroke-dashoffset:0;stop-color:#000000;line-height:normal;font-family:Arial;text-align:start;text-decoration-color:#000000;writing-mode:lr-tb;direction:ltr;text-anchor:start;stop-opacity:1;font-style:normal;font-variant:normal;font-weight:normal;font-stretch:normal;font-variant-ligatures:normal;font-variant-position:normal;font-variant-caps:normal;font-variant-numeric:normal;font-variant-alternates:normal;font-variant-east-asian:normal;font-feature-settings:normal;text-indent:0;text-decoration-line:none;text-decoration-style:solid;letter-spacing:normal;word-spacing:normal;text-transform:none;text-orientation:mixed;dominant-baseline:auto;baseline-shift:baseline;white-space:normal;opacity:1;} .dn {display:none}  .w00 {stroke-width:3} .w01 {stroke-width:1} .w02 {stroke-width:2} .a00 {fill-opacity:1} .s00 {font-size:19px} .s01 {font-size:14px} .e00 {stroke:#0045ff} .e01 {stroke:#45ffff} .e02 {stroke:#00ff45} .e03 {stroke:#ff4500} .e04 {stroke:none} .e05 {stroke:#777777} .f00 {fill:#0045ff} .f01 {fill:#45ffff} .f02 {fill:#00ff45} .f03 {fill:#ff4500} .f04 {fill:none} .f05 {fill:#777777} .d00 {stroke-dasharray:none}]]></style></defs><g><path d="m 75.009505,149.10441 c 0,0 1.278136,-2.4803 1.731561,-6.15693 0.453425,-3.67662 -0.04798,-5.81981 -0.04798,-5.81981" class="ddf f04 e05 w00"/><path d="m 24.658328,118.67959 21.653188,-0.0161 0.13229,17.13419" class="ddf f04 e05 w00"/><path d="M 24.267457,136.92256 139.99547,135.14333" class="ddf f04 e01 w00"/><path d="m 24.431888,119.35184 12.000937,3.9848 0.109587,16.83703" class="ddf f04 e05 w00"/><path d="m 112.62183,152.32999 6.02985,10.6226 -10.62259,6.02986 -3.01494,-5.31131 5.3113,-3.01492 -3.01492,-5.3113 z" class="ddf f03 e04 w00"/><path d="m 140.35002,125.99764 8.83363,8.80793 -8.80794,8.83363 -4.41681,-4.40396 4.40396,-4.41682 -4.41682,-4.40395 z" class="ddf f01 e04 w00"/><path d="m 15.145117,57.728899 9.04736,-8.588258 8.58825,9.047357 -4.52367,4.294129 -4.29413,-4.523675 -4.52366,4.294121 z" class="ddf f00 e04 w00"/><text xml:space="preserve" x="123.56235" y="169.06752" class="ddf s00 f03 e04 w00"><tspan x="123.56235" y="169.06752" class="ddf f03 e04 w00">u</tspan></text><text xml:space="preserve" x="18.937773" y="44.71524" class="ddf s00 f00 e04 w00"><tspan x="18.937773" y="44.71524" class="ddf f00 e04 w00">n</tspan></text><text xml:space="preserve" x="155.07368" y="139.90807" class="ddf s00 f01 e04 w00"><tspan x="155.07368" y="139.90807" class="ddf s00 f01 e04 w00">w</tspan></text><path d="M 24.195417,136.30443 23.920007,58.884664" class="ddf f04 e00 w00"/><path d="m 24.267457,136.92256 84.983813,23.48928" class="ddf f04 e03 w00"/><text xml:space="preserve" x="81.788544" y="148.85916" class="ddf s01 f05 e04 w00"><tspan x="81.788544" y="148.85916" class="ddf s01 f05 w00">a</tspan></text><path d="m 240.39589,149.10441 c 0,0 1.27813,-2.4803 1.73156,-6.15693 0.45342,-3.67662 -0.048,-5.81981 -0.048,-5.81981" class="ddf f04 e05 w00"/><path d="m 192.38332,118.39896 19.31458,-7.67292 0.13229,16.93333" class="ddf f04 e05 w00"/><path d="m 189.65384,136.92256 115.72801,-1.77923" class="ddf f04 e01 w00"/><path d="m 278.00821,152.32999 6.02985,10.6226 -10.62259,6.02986 -3.01494,-5.31131 5.3113,-3.01492 -3.01492,-5.3113 z" class="ddf f03 e04 w00"/><path d="m 305.7364,125.99764 8.83363,8.80793 -8.80794,8.83363 -4.41681,-4.40396 4.40396,-4.41682 -4.41682,-4.40395 z" class="ddf f01 e04 w00"/><path d="m 180.5315,57.728899 9.04736,-8.588258 8.58825,9.047357 -4.52367,4.294129 -4.29413,-4.523675 -4.52366,4.294121 z" class="ddf f00 e04 w00"/><text xml:space="preserve" x="288.94873" y="169.06752" class="ddf s00 f03 e04 w00"><tspan x="288.94873" y="169.06752" class="ddf f03 e04 w00">u</tspan></text><text xml:space="preserve" x="184.32416" y="44.71524" class="ddf s00 f00 e04 w00"><tspan x="184.32416" y="44.71524" class="ddf f00 e04 w00">n</tspan></text><text xml:space="preserve" x="320.46005" y="139.90807" class="ddf s00 f01 e04 w00"><tspan x="320.46005" y="139.90807" class="ddf s00 f01 e04 w00">w</tspan></text><path d="M 189.5818,136.30443 189.30639,58.884664" class="ddf f04 e00 w00"/><text xml:space="preserve" x="247.17493" y="148.85916" class="ddf s01 f05 e04 w00"><tspan x="247.17493" y="148.85916" class="ddf s01 f05 w00">a</tspan></text><path d="m 190.54979,135.64538 85.90343,-27.7084" class="ddf f04 e02 w00"/><path d="m 270.451,100.21612 11.52719,4.76831 -4.76831,11.52718 -5.76359,-2.38415 2.38415,-5.76359 -5.76359,-2.38414 z" class="ddf f02 e04 w00"/><text xml:space="preserve" x="285.44168" y="108.74592" class="ddf s00 f02 e04 w00"><tspan x="285.44168" y="108.74592" class="ddf s00 f02 e04 w00">v</tspan></text><path d="m 354.77628,118.39896 19.31458,-7.67292 0.13229,16.93333" class="ddf f04 e05 w00"/><path d="m 374.41417,128.41311 16.80105,5.55625 -21.29897,6.74687" class="ddf f04 e05 w00"/><path d="m 440.40118,152.32999 6.02985,10.6226 -10.62259,6.02986 -3.01494,-5.31131 5.3113,-3.01492 -3.01492,-5.3113 z" class="ddf f03 e04 w00"/><path d="m 342.92447,57.728899 9.04736,-8.588258 8.58825,9.047357 -4.52367,4.294129 -4.29413,-4.523675 -4.52366,4.294121 z" class="ddf f00 e04 w00"/><text xml:space="preserve" x="451.34171" y="169.06752" class="ddf s00 f03 e04 w00"><tspan x="451.34171" y="169.06752" class="ddf f03 e04 w00">u</tspan></text><text xml:space="preserve" x="346.71713" y="44.71524" class="ddf s00 f00 e04 w00"><tspan x="346.71713" y="44.71524" class="ddf f00 e04 w00">n</tspan></text><path d="M 351.97477,136.30443 351.69936,58.884664" class="ddf f04 e00 w00"/><path d="m 352.94276,135.64538 85.90343,-27.7084" class="ddf f04 e02 w00"/><path d="m 432.84397,100.21612 11.52719,4.76831 -4.76831,11.52718 -5.76359,-2.38415 2.38415,-5.76359 -5.76359,-2.38414 z" class="ddf f02 e04 w00"/><text xml:space="preserve" x="447.83466" y="108.74592" class="ddf s00 f02 e04 w00"><tspan x="447.83466" y="108.74592" class="ddf s00 f02 e04 w00">v</tspan></text><path d="m 191.50207,118.97766 15.74271,3.70417 -0.26459,18.52083" class="ddf f04 e05 w00"/><path d="m 353.89503,118.97766 15.74271,3.70417 -0.26459,18.52083" class="ddf f04 e05 w00"/><path d="m 352.04681,136.92256 84.98381,23.48928" class="ddf f04 e03 w00"/><path d="m 189.65384,136.92256 84.98381,23.48928" class="ddf f04 e03 w00"/><g transform="translate(0,-16.463803)"><text xml:space="preserve" x="62.609257" y="57.822323" class="ddf s01 f05 e04 w00"><tspan x="62.609257" y="57.822323" class="ddf s01 f05 w00">n = u × w</tspan></text><text xml:space="preserve" x="57.528328" y="84.59227" class="ddf s01 f05 e04 w00"><tspan x="57.528328" y="84.59227" class="ddf s01 f05 w00">n  u</tspan></text><text xml:space="preserve" x="106.76977" y="84.02758" class="ddf s01 f05 e04 w00"><tspan x="106.76977" y="84.02758" class="ddf s01 f05 w00">n  w</tspan></text><path d="m 117.82103,72.768228 v 15.751444 l 9.25477,-0.03204 -5.12366,0.02633 0.0586,-3.848775 -4.19804,-0.0038 0.0872,3.858941 -5.82841,-0.03419" class="ddf f04 e05 w01"/><path d="m 68.211651,72.768228 v 15.751444 l 9.25477,-0.03204 -5.12366,0.02633 0.0586,-3.848775 -4.19804,-0.0038 0.0872,3.858941 -5.82841,-0.03419" class="ddf f04 e05 w01"/><text xml:space="preserve" x="87.526184" y="87.047913" class="ddf s00 f05 e04 w02"><tspan x="87.526184" y="87.047913" class="ddf f05 e04 w02">&amp;</tspan></text></g><g transform="translate(0,-16.463803)"><text xml:space="preserve" x="224.32208" y="57.834358" class="ddf s01 f05 e04 w00"><tspan x="224.32208" y="57.834358" class="ddf s01 f05 w00">v = n × u</tspan></text><text xml:space="preserve" x="215.74916" y="84.59227" class="ddf s01 f05 e04 w00"><tspan x="215.74916" y="84.59227" class="ddf s01 f05 w00">v  n</tspan></text><text xml:space="preserve" x="264.9906" y="84.02758" class="ddf s01 f05 e04 w00"><tspan x="264.9906" y="84.02758" class="ddf s01 f05 w00">v  u</tspan></text><path d="m 276.04186,72.768228 v 15.751444 l 9.25477,-0.03204 -5.12366,0.02633 0.0586,-3.848775 -4.19804,-0.0038 0.0872,3.858941 -5.82841,-0.03419" class="ddf f04 e05 w01"/><path d="m 226.43248,72.768228 v 15.751444 l 9.25477,-0.03204 -5.12366,0.02633 0.0586,-3.848775 -4.19804,-0.0038 0.0872,3.858941 -5.82841,-0.03419" class="ddf f04 e05 w01"/><text xml:space="preserve" x="245.74702" y="87.047913" class="ddf s00 f05 e04 w02"><tspan x="245.74702" y="87.047913" class="ddf f05 e04 w02">&amp;</tspan></text></g><g transform="translate(0,-16.463803)"><text xml:space="preserve" x="385.80139" y="58.096325" class="ddf s01 f05 e04 w00"><tspan x="385.80139" y="58.096325" class="ddf s01 f05 w00">v = u × w × u</tspan></text><text xml:space="preserve" x="371.85333" y="84.59227" class="ddf s01 f05 e04 w00"><tspan x="371.85333" y="84.59227" class="ddf s01 f05 w00">n  u</tspan></text><path d="m 382.53665,72.768228 v 15.751444 l 9.25477,-0.03204 -5.12366,0.02633 0.0586,-3.848775 -4.19804,-0.0038 0.0872,3.858941 -5.82841,-0.03419" class="ddf f04 e05 w01"/><text xml:space="preserve" x="401.85117" y="87.047913" class="ddf s00 f05 e04 w02"><tspan x="401.85117" y="87.047913" class="ddf f05 e04 w02">&amp;</tspan></text><text xml:space="preserve" x="467.13226" y="84.02758" class="ddf s01 f05 e04 w00"><tspan x="467.13226" y="84.02758" class="ddf s01 f05 w00">v  u</tspan></text><path d="m 478.18353,72.768228 v 15.751444 l 9.25477,-0.03204 -5.12366,0.02633 0.0586,-3.848775 -4.19804,-0.0038 0.0872,3.858941 -5.82841,-0.03419" class="ddf f04 e05 w01"/><text xml:space="preserve" x="420.00748" y="84.59227" class="ddf s01 f05 e04 w00"><tspan x="420.00748" y="84.59227" class="ddf s01 f05 w00">v  n</tspan></text><path d="m 430.69081,72.768228 v 15.751444 l 9.25477,-0.03204 -5.12366,0.02633 0.0586,-3.848775 -4.19804,-0.0038 0.0872,3.858941 -5.82841,-0.03419" class="ddf f04 e05 w01"/><text xml:space="preserve" x="450.00534" y="87.047913" class="ddf s00 f05 e04 w02"><tspan x="450.00534" y="87.047913" class="ddf f05 e04 w02">&amp;</tspan></text></g></g></svg>