<?xml version='1.0' encoding='UTF-8'?>
<svg xmlns="http://www.w3.org/2000/svg" width="1920" height="768" viewBox="0 0 507.99999 203.2" version="1.1" style="background-color:transparent;color-scheme:light dark" xml:space="preserve"><defs><style><![CDATA[.ddf {font-variation-settings:normal;opacity:1;vector-effect:none;fill-opacity:1;stroke-linecap:round;stroke-linejoin:round;stroke-miterlimit:4;stroke-dasharray:none;stroke-dashoffset:0;stroke-opacity:1;stop-color:#000000;stop-opacity:1;display:inline;line-height:normal;font-family:Arial;text-align:start;text-decoration-color:#000000;writing-mode:lr-tb;direction:ltr;text-anchor:start;font-style:normal;font-variant:normal;font-weight:normal;font-stretch:normal;font-variant-ligatures:normal;font-variant-caps:normal;font-variant-numeric:normal;font-variant-east-asian:normal;font-variant-position:normal;font-variant-alternates:normal;font-feature-settings:normal;text-indent:0;text-decoration-line:none;text-decoration-style:solid;letter-spacing:normal;word-spacing:normal;text-transform:none;text-orientation:mixed;dominant-baseline:auto;baseline-shift:baseline;white-space:normal;} .dn {display:none}  .w00 {stroke-width:0.5} .w01 {stroke-width:3} .w02 {stroke-width:1} .a00 {fill-opacity:1} .s00 {font-size:19px} .s01 {font-size:14px} .s02 {font-size:8px} .e00 {stroke:#0045ff} .e01 {stroke:#00ff45} .e02 {stroke:#ff4500} .e03 {stroke:none} .e04 {stroke:#777777} .e05 {stroke:#808080} .f00 {fill:#0045ff} .f01 {fill:#00ff45} .f02 {fill:#ff4500} .f03 {fill:none} .f04 {fill:#777777} .d00 {stroke-dasharray:none}]]></style></defs><g><path d="m 32.543749,118.33489 19.314584,-7.67292 0.132292,16.93333" class="ddf f03 e04 w01"/><path d="m 59.218724,142.56498 c 0,0 1.793859,-4.20468 1.214341,-8.90299 -0.579521,-4.69832 -2.638042,-6.62181 -2.638042,-6.62181" class="ddf f03 e04 w01"/><path d="M 31.431983,136.52988 131.88749,93.475651" class="ddf f03 e01 w01"/><path d="m 199.45053,177.38203 6.02985,10.6226 -10.62259,6.02986 -3.01494,-5.31131 5.3113,-3.01492 -3.01492,-5.3113 z" class="ddf f02 e03 w01"/><path d="m 127.40079,85.909773 11.52719,4.768307 -4.76831,11.52718 -5.76359,-2.384148 2.38415,-5.763593 -5.76359,-2.384147 z" class="ddf f01 e03 w01"/><path d="m 22.309644,30.877888 9.047362,-8.588258 8.58825,9.047357 -4.523676,4.294129 -4.294125,-4.523675 -4.523667,4.294121 z" class="ddf f00 e03 w01"/><text xml:space="preserve" x="209.5652" y="200.01562" class="ddf s00 f02 e03 w01"><tspan x="209.5652" y="200.01562" class="ddf f02 e03 w01">u</tspan></text><text xml:space="preserve" x="26.102285" y="14.953817" class="ddf s00 f00 e03 w01"><tspan x="26.102285" y="14.953817" class="ddf f00 e03 w01">n</tspan></text><text xml:space="preserve" x="66.849159" y="138.50522" class="ddf s01 f04 e03 w01"><tspan x="66.849159" y="138.50522" class="ddf s01 f04 w01">a</tspan></text><text xml:space="preserve" x="143.83612" y="90.297371" class="ddf s00 f01 e03 w01"><tspan x="143.83612" y="90.297371" class="ddf s00 f01 e03 w01">v</tspan></text><text xml:space="preserve" x="179.0338" y="119.47626" class="ddf s01 f04 e03 w01"><tspan x="179.0338" y="119.47626" class="ddf s01 f04 w01">u × v = |u| · |v| · sin( a )</tspan></text><text xml:space="preserve" x="331.47382" y="119.49996" class="ddf s01 f04 e03 w01"><tspan x="331.47382" y="119.49996" class="ddf s01 f04 w01">n</tspan></text><path d="m 31.6625,118.91359 15.742709,3.70417 -0.264583,18.52083" class="ddf f03 e04 w01"/><path d="M 31.431983,136.52988 197.2064,185.75116" class="ddf f03 e02 w01"/><path d="M 31.359942,135.91175 31.084532,29.123236" class="ddf f03 e00 w01"/><text xml:space="preserve" x="178.07668" y="67.952232" class="ddf s01 f04 e03 w01"><tspan x="178.07668" y="67.952232" class="ddf s01 f04 w01">u</tspan></text><text xml:space="preserve" x="202.74217" y="67.952232" class="ddf s01 f04 e03 w01"><tspan x="202.74217" y="67.952232" class="ddf s01 f04 w01">v</tspan></text><text xml:space="preserve" x="202.74217" y="67.952232" class="ddf s01 f04 e03 w01"><tspan x="202.74217" y="67.952232" class="ddf s01 f04 w01">v</tspan></text><text xml:space="preserve" x="214.66943" y="68.912613" class="ddf s01 f04 e03 w01"><tspan x="214.66943" y="68.912613" class="ddf s01 f04 w01">=</tspan></text><text xml:space="preserve" x="289.57202" y="68.912613" class="ddf s01 f04 e03 w01"><tspan x="289.57202" y="68.912613" class="ddf s01 f04 w01">=</tspan></text><text xml:space="preserve" x="388.83807" y="67.969276" class="ddf s01 f04 e03 w01"><tspan x="388.83807" y="67.969276" class="ddf s01 f04 w01">= n</tspan></text><text xml:space="preserve" x="190.23032" y="69.024948" class="ddf s01 f04 e03 w01"><tspan x="190.23032" y="69.024948" class="ddf s01 f04 w01">×</tspan></text><text xml:space="preserve" x="252.24643" y="69.024948" class="ddf s01 f04 e03 w01"><tspan x="252.24643" y="69.024948" class="ddf s01 f04 w01">×</tspan></text><text xml:space="preserve" x="231.27197" y="52.954899" class="ddf s01 f04 e03 w01"><tspan x="231.27197" y="52.954899" class="ddf s01 f04 w01">u</tspan></text><text xml:space="preserve" x="239.76956" y="55.600525" class="ddf s02 f04 e03 w01"><tspan x="239.76956" y="55.600525" class="ddf s02 f04 w01">x</tspan></text><text xml:space="preserve" x="239.76956" y="84.22509" class="ddf s02 f04 e03 w01"><tspan x="239.76956" y="84.22509" class="ddf s02 f04 w01">z</tspan></text><text xml:space="preserve" x="239.95665" y="69.912811" class="ddf s02 f04 e03 w01"><tspan x="239.95665" y="69.912811" class="ddf s02 f04 w01">y</tspan></text><text xml:space="preserve" x="231.27197" y="67.547813" class="ddf s01 f04 e03 w01"><tspan x="231.27197" y="67.547813" class="ddf s01 f04 w01">u</tspan></text><text xml:space="preserve" x="231.27197" y="81.766556" class="ddf s01 f04 e03 w01"><tspan x="231.27197" y="81.766556" class="ddf s01 f04 w01">u</tspan></text><path d="m 230.34676,43.321235 h -2.58948 v 39.662797 h 2.61924" class="ddf f03 e05 w00"/><path d="m 244.43793,43.321235 h 2.58948 v 39.662797 h -2.61924" class="ddf f03 e05 w00"/><g transform="translate(83.769107,28.915407)" class="ddf"><text xml:space="preserve" x="184.99069" y="24.039494" class="ddf s01 f04 e03 w01"><tspan x="184.99069" y="24.039494" class="ddf s01 f04 w01">v</tspan></text><text xml:space="preserve" x="193.48828" y="26.68512" class="ddf s02 f04 e03 w01"><tspan x="193.48828" y="26.68512" class="ddf s02 f04 w01">x</tspan></text><text xml:space="preserve" x="193.48828" y="55.309685" class="ddf s02 f04 e03 w01"><tspan x="193.48828" y="55.309685" class="ddf s02 f04 w01">z</tspan></text><text xml:space="preserve" x="193.67537" y="40.997402" class="ddf s02 f04 e03 w01"><tspan x="193.67537" y="40.997402" class="ddf s02 f04 w01">y</tspan></text><text xml:space="preserve" x="184.99069" y="38.632408" class="ddf s01 f04 e03 w01"><tspan x="184.99069" y="38.632408" class="ddf s01 f04 w01">v</tspan></text><text xml:space="preserve" x="184.99069" y="52.851147" class="ddf s01 f04 e03 w01"><tspan x="184.99069" y="52.851147" class="ddf s01 f04 w01">v</tspan></text><path d="m 184.06549,14.405828 h -2.58948 v 39.662797 h 2.61924" class="ddf f03 e05 w00"/><path d="m 198.15666,14.405828 h 2.58948 v 39.662797 h -2.61924" class="ddf f03 e05 w00"/></g><text xml:space="preserve" x="323.48325" y="52.954906" class="ddf s01 f04 e03 w01"><tspan x="323.48325" y="52.954906" class="ddf s01 f04 w01">v</tspan></text><text xml:space="preserve" x="331.98083" y="55.600529" class="ddf s02 f04 e03 w01"><tspan x="331.98083" y="55.600529" class="ddf s02 f04 w01">z</tspan></text><text xml:space="preserve" x="331.98083" y="84.22509" class="ddf s02 f04 e03 w01"><tspan x="331.98083" y="84.22509" class="ddf s02 f04 w01">y</tspan></text><text xml:space="preserve" x="332.16794" y="69.912811" class="ddf s02 f04 e03 w01"><tspan x="332.16794" y="69.912811" class="ddf s02 f04 w01">x</tspan></text><text xml:space="preserve" x="323.48325" y="67.547813" class="ddf s01 f04 e03 w01"><tspan x="323.48325" y="67.547813" class="ddf s01 f04 w01">v</tspan></text><text xml:space="preserve" x="323.48325" y="81.766556" class="ddf s01 f04 e03 w01"><tspan x="323.48325" y="81.766556" class="ddf s01 f04 w01">v</tspan></text><text xml:space="preserve" x="308.14197" y="52.954906" class="ddf s01 f04 e03 w01"><tspan x="308.14197" y="52.954906" class="ddf s01 f04 w01">u</tspan></text><text xml:space="preserve" x="316.63956" y="55.600529" class="ddf s02 f04 e03 w01"><tspan x="316.63956" y="55.600529" class="ddf s02 f04 w01">y</tspan></text><text xml:space="preserve" x="316.63956" y="84.22509" class="ddf s02 f04 e03 w01"><tspan x="316.63956" y="84.22509" class="ddf s02 f04 w01">x</tspan></text><text xml:space="preserve" x="316.82663" y="69.912811" class="ddf s02 f04 e03 w01"><tspan x="316.82663" y="69.912811" class="ddf s02 f04 w01">z</tspan></text><text xml:space="preserve" x="308.14197" y="67.547813" class="ddf s01 f04 e03 w01"><tspan x="308.14197" y="67.547813" class="ddf s01 f04 w01">u</tspan></text><text xml:space="preserve" x="308.14197" y="81.766556" class="ddf s01 f04 e03 w01"><tspan x="308.14197" y="81.766556" class="ddf s01 f04 w01">u</tspan></text><text xml:space="preserve" x="365.20404" y="52.954906" class="ddf s01 f04 e03 w01"><tspan x="365.20404" y="52.954906" class="ddf s01 f04 w01">v</tspan></text><text xml:space="preserve" x="373.70163" y="55.600529" class="ddf s02 f04 e03 w01"><tspan x="373.70163" y="55.600529" class="ddf s02 f04 w01">y</tspan></text><text xml:space="preserve" x="373.70163" y="84.22509" class="ddf s02 f04 e03 w01"><tspan x="373.70163" y="84.22509" class="ddf s02 f04 w01">x</tspan></text><text xml:space="preserve" x="373.88873" y="69.912811" class="ddf s02 f04 e03 w01"><tspan x="373.88873" y="69.912811" class="ddf s02 f04 w01">z</tspan></text><text xml:space="preserve" x="365.20404" y="67.547813" class="ddf s01 f04 e03 w01"><tspan x="365.20404" y="67.547813" class="ddf s01 f04 w01">v</tspan></text><text xml:space="preserve" x="365.20404" y="81.766556" class="ddf s01 f04 e03 w01"><tspan x="365.20404" y="81.766556" class="ddf s01 f04 w01">v</tspan></text><text xml:space="preserve" x="340.32123" y="52.954906" class="ddf s01 f04 e03 w01"><tspan x="340.32123" y="52.954906" class="ddf s01 f04 w01">- u</tspan></text><text xml:space="preserve" x="358.36035" y="55.600529" class="ddf s02 f04 e03 w01"><tspan x="358.36035" y="55.600529" class="ddf s02 f04 w01">z</tspan></text><text xml:space="preserve" x="358.36035" y="84.22509" class="ddf s02 f04 e03 w01"><tspan x="358.36035" y="84.22509" class="ddf s02 f04 w01">y</tspan></text><text xml:space="preserve" x="358.54742" y="69.912811" class="ddf s02 f04 e03 w01"><tspan x="358.54742" y="69.912811" class="ddf s02 f04 w01">x</tspan></text><text xml:space="preserve" x="340.32123" y="67.547813" class="ddf s01 f04 e03 w01"><tspan x="340.32123" y="67.547813" class="ddf s01 f04 w01">- u</tspan></text><text xml:space="preserve" x="340.32123" y="81.766556" class="ddf s01 f04 e03 w01"><tspan x="340.32123" y="81.766556" class="ddf s01 f04 w01">- u</tspan></text><path d="m 306.37487,43.321235 h -2.58948 v 39.662798 h 2.61924" class="ddf f03 e05 w00"/><path d="m 380.04049,43.321235 h 2.58948 v 39.662798 h -2.61924" class="ddf f03 e05 w00"/><path d="m 332.37872,109.29959 2.80655,-2.51593 2.92855,2.47328" class="ddf f03 e04 w02"/></g></svg>