<?xml version='1.0' encoding='UTF-8'?>
<svg xmlns="http://www.w3.org/2000/svg" width="1920" height="768" viewBox="0 0 507.99999 203.2" version="1.1" style="background-color:transparent;color-scheme:light dark" xml:space="preserve"><defs><style><![CDATA[.ddf {display:inline;fill-opacity:1;stroke-linecap:round;stroke-dasharray:none;stroke-opacity:1;font-variation-settings:normal;vector-effect:none;stroke-miterlimit:4;stroke-dashoffset:0;stop-color:#000000;line-height:normal;font-family:Arial;text-align:start;text-decoration-color:#000000;writing-mode:lr-tb;direction:ltr;text-anchor:start;stop-opacity:1;font-style:normal;font-variant:normal;font-weight:normal;font-stretch:normal;font-variant-ligatures:normal;font-variant-caps:normal;font-variant-numeric:normal;font-variant-east-asian:normal;font-variant-position:normal;font-variant-alternates:normal;font-feature-settings:normal;text-indent:0;text-decoration-line:none;text-decoration-style:solid;letter-spacing:normal;word-spacing:normal;text-transform:none;text-orientation:mixed;dominant-baseline:auto;baseline-shift:baseline;white-space:normal;opacity:1;} .dn {display:none}  .w00 {stroke-width:3} .w01 {stroke-width:1} .w02 {stroke-width:0.5} .a00 {fill-opacity:1} .s00 {font-size:19px} .s01 {font-size:14px} .s02 {font-size:8px} .e00 {stroke:#00ff45} .e01 {stroke:#ff4500} .e02 {stroke:none} .e03 {stroke:#777777} .e04 {stroke:#808080} .f00 {fill:#ff4500} .f01 {fill:none} .f02 {fill:#00ff45} .f03 {fill:#777777} .d00 {stroke-dasharray:none}]]></style></defs><g><path d="m 40.73938,177.07757 c 0,0 -0.926042,-3.96875 -3.836458,-7.01146 -2.910417,-3.04271 -5.423959,-3.30729 -5.423959,-3.30729" class="ddf f01 e03 w00"/><path style="stroke-linejoin:miter;" d="M 16.926879,188.05777 96.921988,51.312251" class="ddf f01 e00 w00"/><path style="stroke-linejoin:miter;" d="M 16.926879,188.05777 179.38104,128.79111" class="ddf f01 e01 w00"/><path style="stroke-linejoin:miter;" d="m 176.19558,120.73312 11.17261,4.93674 -4.93673,11.17261 -5.58632,-2.46837 2.46837,-5.5863 -5.5863,-2.46837 z" class="ddf f00 e02 w00"/><path style="stroke-linejoin:miter;" d="m 89.883564,46.463261 12.372836,-1.589208 1.58921,12.372836 -6.186422,0.794608 -0.79461,-6.186414 -6.186404,0.794602 z" class="ddf f02 e02 w00"/><text xml:space="preserve" style="stroke-linejoin:miter;" x="193.09489" y="126.48499" class="ddf s00 f00 e02 w00"><tspan style="stroke-linejoin:miter;" x="193.09489" y="126.48499" class="ddf f00 e02 w00">u</tspan></text><text xml:space="preserve" x="45.078693" y="164.43851" class="ddf s01 f03 e02 w00"><tspan x="45.078693" y="164.43851" class="ddf s01 f03 w00">a</tspan></text><text xml:space="preserve" style="stroke-linejoin:miter;" x="103.80289" y="41.662437" class="ddf s00 f02 e02 w00"><tspan style="stroke-linejoin:miter;" x="103.80289" y="41.662437" class="ddf s00 f02 e02 w00">v</tspan></text><text xml:space="preserve" x="134.98141" y="77.301704" class="ddf s01 f03 e02 w00"><tspan x="134.98141" y="77.301704" class="ddf s01 f03 w00">u · v =       ·       =  |u| · |v| · cos( a )</tspan></text><g transform="translate(0.192596,38.164199)"><text xml:space="preserve" x="184.99069" y="24.039494" class="ddf s01 f03 e02 w00"><tspan x="184.99069" y="24.039494" class="ddf s01 f03 w00">u</tspan></text><text xml:space="preserve" x="193.48828" y="26.68512" class="ddf s02 f03 e02 w00"><tspan x="193.48828" y="26.68512" class="ddf s02 f03 w00">x</tspan></text><text xml:space="preserve" x="193.48828" y="55.309685" class="ddf s02 f03 e02 w00"><tspan x="193.48828" y="55.309685" class="ddf s02 f03 w00">z</tspan></text><text xml:space="preserve" x="193.67537" y="40.997402" class="ddf s02 f03 e02 w00"><tspan x="193.67537" y="40.997402" class="ddf s02 f03 w00">y</tspan></text><text xml:space="preserve" x="184.99069" y="38.632408" class="ddf s01 f03 e02 w00"><tspan x="184.99069" y="38.632408" class="ddf s01 f03 w00">u</tspan></text><text xml:space="preserve" x="184.99069" y="52.851147" class="ddf s01 f03 e02 w00"><tspan x="184.99069" y="52.851147" class="ddf s01 f03 w00">u</tspan></text><path style="stroke-linejoin:miter;" d="m 184.06549,14.405828 h -2.58948 v 39.662797 h 2.61924" class="ddf f01 e04 w02"/><path style="stroke-linejoin:miter;" d="m 198.15666,14.405828 h 2.58948 v 39.662797 h -2.61924" class="ddf f01 e04 w02"/></g><g transform="translate(31.413429,38.164199)" class="ddf"><text xml:space="preserve" x="184.99069" y="24.039494" class="ddf s01 f03 e02 w00"><tspan x="184.99069" y="24.039494" class="ddf s01 f03 w00">v</tspan></text><text xml:space="preserve" x="193.48828" y="26.68512" class="ddf s02 f03 e02 w00"><tspan x="193.48828" y="26.68512" class="ddf s02 f03 w00">x</tspan></text><text xml:space="preserve" x="193.48828" y="55.309685" class="ddf s02 f03 e02 w00"><tspan x="193.48828" y="55.309685" class="ddf s02 f03 w00">z</tspan></text><text xml:space="preserve" x="193.67537" y="40.997402" class="ddf s02 f03 e02 w00"><tspan x="193.67537" y="40.997402" class="ddf s02 f03 w00">y</tspan></text><text xml:space="preserve" x="184.99069" y="38.632408" class="ddf s01 f03 e02 w00"><tspan x="184.99069" y="38.632408" class="ddf s01 f03 w00">v</tspan></text><text xml:space="preserve" x="184.99069" y="52.851147" class="ddf s01 f03 e02 w00"><tspan x="184.99069" y="52.851147" class="ddf s01 f03 w00">v</tspan></text><path style="stroke-linejoin:miter;" d="m 184.06549,14.405828 h -2.58948 v 39.662797 h 2.61924" class="ddf f01 e04 w02"/><path style="stroke-linejoin:miter;" d="m 198.15666,14.405828 h 2.58948 v 39.662797 h -2.61924" class="ddf f01 e04 w02"/></g><g transform="translate(3.367596,-17.212157)"><text xml:space="preserve" x="181.37274" y="40.506523" class="ddf s01 f03 e02 w00"><tspan x="181.37274" y="40.506523" class="ddf s01 f03 w00">R</tspan></text><text xml:space="preserve" x="191.94579" y="31.382275" class="ddf s02 f03 e02 w00"><tspan x="191.94579" y="31.382275" class="ddf s02 f03 w00">3</tspan></text></g><g transform="translate(34.704949,-17.212157)" class="ddf"><text xml:space="preserve" x="181.37274" y="40.506523" class="ddf s01 f03 e02 w00"><tspan x="181.37274" y="40.506523" class="ddf s01 f03 w00">R</tspan></text><text xml:space="preserve" x="191.94579" y="31.382275" class="ddf s02 f03 e02 w00"><tspan x="191.94579" y="31.382275" class="ddf s02 f03 w00">3</tspan></text></g><g transform="translate(90.449611,124.80621)" class="ddf"><text xml:space="preserve" x="181.63733" y="41.432564" class="ddf s01 f03 e02 w00"><tspan x="181.63733" y="41.432564" class="ddf s01 f03 w00">m</tspan></text><text xml:space="preserve" x="192.73953" y="32.308315" class="ddf s02 f03 e02 w00"><tspan x="192.73953" y="32.308315" class="ddf s02 f03 w00">2</tspan></text></g><text xml:space="preserve" x="258.32764" y="23.294365" class="ddf s01 f03 e02 w00"><tspan x="258.32764" y="23.294365" class="ddf s01 f03 w00">R</tspan></text><text xml:space="preserve" x="257.79846" y="120.11779" class="ddf s01 f03 e02 w00"><tspan x="257.79846" y="120.11779" class="ddf s01 f03 w00">m </tspan></text><text xml:space="preserve" x="271.87686" y="120.11779" class="ddf s01 f03 e02 w00"><tspan x="271.87686" y="120.11779" class="ddf s01 f03 w00"> ·</tspan></text><text xml:space="preserve" x="286.26804" y="120.11779" class="ddf s01 f03 e02 w00"><tspan x="286.26804" y="120.11779" class="ddf s01 f03 w00">m</tspan></text><text xml:space="preserve" x="287.91974" y="23.294365" class="ddf s01 f03 e02 w00"><tspan x="287.91974" y="23.294365" class="ddf s01 f03 w00">R</tspan></text><text xml:space="preserve" x="328.3309" y="23.294365" class="ddf s01 f03 e02 w00"><tspan x="328.3309" y="23.294365" class="ddf s01 f03 w00">R</tspan></text><g transform="translate(59.822759,-47.349808)" class="ddf"><path style="stroke-linejoin:miter;" d="m 130.37208,73.570914 -0.28324,19.954124" class="ddf f01 e03 w01"/><path style="stroke-linejoin:miter;" d="m 135.07368,90.178331 -5.06491,4.80643 -4.80644,-5.06492 2.53246,-2.403219 2.40322,2.532457 2.53244,-2.403209 z" class="ddf f03 e02 w00"/></g><g transform="translate(91.308176,-47.349808)" class="ddf"><path style="stroke-linejoin:miter;" d="m 130.37208,73.570914 -0.28324,19.954124" class="ddf f01 e03 w01"/><path style="stroke-linejoin:miter;" d="m 135.07368,90.178331 -5.06491,4.80643 -4.80644,-5.06492 2.53246,-2.403219 2.40322,2.532457 2.53244,-2.403209 z" class="ddf f03 e02 w00"/></g><g transform="translate(133.56017,11.860336)" class="ddf"><path style="stroke-linejoin:miter;" d="m 130.37208,73.570914 -0.28324,19.954124" class="ddf f01 e03 w01"/><path style="stroke-linejoin:miter;" d="m 135.07368,90.178331 -5.06491,4.80643 -4.80644,-5.06492 2.53246,-2.403219 2.40322,2.532457 2.53244,-2.403209 z" class="ddf f03 e02 w00"/></g><g transform="translate(147.84767,52.209294)" class="ddf"><path style="stroke-linejoin:miter;" d="m 130.37208,73.570914 -0.28324,19.954124" class="ddf f01 e03 w01"/><path style="stroke-linejoin:miter;" d="m 135.07368,90.178331 -5.06491,4.80643 -4.80644,-5.06492 2.53246,-2.403219 2.40322,2.532457 2.53244,-2.403209 z" class="ddf f03 e02 w00"/></g><g transform="translate(162.53204,12.257211)" class="ddf"><path style="stroke-linejoin:miter;" d="m 130.37208,73.570914 -0.28324,19.954124" class="ddf f01 e03 w01"/><path style="stroke-linejoin:miter;" d="m 135.07368,90.178331 -5.06491,4.80643 -4.80644,-5.06492 2.53246,-2.403219 2.40322,2.532457 2.53244,-2.403209 z" class="ddf f03 e02 w00"/></g><g transform="translate(133.50922,-33.988349)" class="ddf"><path style="stroke-linejoin:miter;" d="m 130.37208,59.944872 -0.28324,33.580166" class="ddf f01 e03 w01"/><path style="stroke-linejoin:miter;" d="m 135.07368,90.178331 -5.06491,4.80643 -4.80644,-5.06492 2.53246,-2.403219 2.40322,2.532457 2.53244,-2.403209 z" class="ddf f03 e02 w00"/></g><g transform="translate(162.61339,-33.988349)" class="ddf"><path style="stroke-linejoin:miter;" d="m 130.37208,59.944872 -0.28324,33.580166" class="ddf f01 e03 w01"/><path style="stroke-linejoin:miter;" d="m 135.07368,90.178331 -5.06491,4.80643 -4.80644,-5.06492 2.53246,-2.403219 2.40322,2.532457 2.53244,-2.403209 z" class="ddf f03 e02 w00"/></g><g transform="translate(203.09463,-33.988349)" class="ddf"><path style="stroke-linejoin:miter;" d="m 130.37208,59.944872 -0.28324,33.580166" class="ddf f01 e03 w01"/><path style="stroke-linejoin:miter;" d="m 135.07368,90.178331 -5.06491,4.80643 -4.80644,-5.06492 2.53246,-2.403219 2.40322,2.532457 2.53244,-2.403209 z" class="ddf f03 e02 w00"/></g></g></svg>