<?xml version='1.0' encoding='UTF-8'?>
<svg xmlns="http://www.w3.org/2000/svg" width="1920" height="768" viewBox="0 0 507.99999 203.2" version="1.1" style="background-color:transparent;color-scheme:light dark" xml:space="preserve"><defs><style><![CDATA[.ddf {stroke-linecap:round;display:inline;font-variation-settings:normal;stroke-miterlimit:4;stroke-dashoffset:0;stroke-opacity:1;stop-color:#000000;vector-effect:none;line-height:normal;font-family:Arial;text-align:start;text-decoration-color:#000000;writing-mode:lr-tb;direction:ltr;text-anchor:start;stop-opacity:1;font-style:normal;font-variant:normal;font-weight:normal;font-stretch:normal;font-variant-ligatures:normal;font-variant-caps:normal;font-variant-numeric:normal;font-variant-east-asian:normal;opacity:1;} .dn {display:none}  .w00 {stroke-width:3} .w01 {stroke-width:0.5} .w02 {stroke-width:1.3} .w03 {stroke-width:8.1} .w04 {stroke-width:2.7} .w05 {stroke-width:1} .a00 {fill-opacity:0.3} .a01 {fill-opacity:0.2} .a02 {fill-opacity:1} .s00 {font-size:16px} .s01 {font-size:11px} .s02 {font-size:19px} .s03 {font-size:14px} .s04 {font-size:12px} .e00 {stroke:#00ff45} .e01 {stroke:#ff4500} .e02 {stroke:none} .e03 {stroke:#777777} .e04 {stroke:#808080} .f00 {fill:#00ff00} .f01 {fill:#00ff45} .f02 {fill:#ff4500} .f03 {fill:none} .f04 {fill:#777777} .d00 {stroke-dasharray:none} .d01 {stroke-dasharray:1,3}]]></style></defs><g><g transform="translate(27.554276,18.830812)"><path d="m 310.86744,83.515912 -4.40645,4.228683 2.79157,2.909383 -308.0240967,0.772046 a 1.5,1.5 0 0 0 -1.49603276,1.503784 1.5,1.5 0 0 0 1.50378416,1.496033 l 307.8866353,-0.771529 -2.84066,2.725415 4.22869,4.406963 8.81341,-8.456845 z" class="ddf f02 a01"/></g><g transform="translate(-27.678483,-14.474563)" class="ddf"><path d="m 56.41368,39.380536 -9.04906,8.586556 4.293795,4.524789 3.026172,-2.872176 0.282153,153.170495 c 10e-4,0.82856 0.673676,1.49933 1.502234,1.4981 0.828961,-0.001 1.499673,-0.67482 1.497583,-1.50378 l -0.28112,-153.003068 2.790527,2.940906 4.524272,-4.293278 z" class="ddf f00 a00"/></g><g transform="matrix(0,-0.3675302,-0.3675302,0,64.230632,119.54655)" class="ddf w04"><path style="stroke-linejoin:miter;" d="M 56.465842,81.320805 56.182603,48.198224" class="ddf f03 a02 e00 w02 d00"/><path style="stroke-linejoin:miter;" d="m 47.364843,47.96731 9.04866,-8.586863 8.58687,9.048667 -4.52434,4.293437 -4.29343,-4.524327 -4.52432,4.293421 z" class="ddf f01 a02 e02 w03 d00"/></g><g transform="matrix(0,-0.3675302,-0.3675302,0,127.18596,118.79819)" class="ddf w04"><path style="stroke-linejoin:miter;" d="M 56.465842,81.320805 56.182603,48.198224" class="ddf f03 a02 e00 w02 d00"/><path style="stroke-linejoin:miter;" d="m 47.364843,47.96731 9.04866,-8.586863 8.58687,9.048667 -4.52434,4.293437 -4.29343,-4.524327 -4.52432,4.293421 z" class="ddf f01 a02 e02 w03 d00"/></g><g transform="matrix(0,-0.3675302,-0.3675302,0,197.90548,118.79819)" class="ddf w04"><path style="stroke-linejoin:miter;" d="M 56.465842,81.320805 56.182603,48.198224" class="ddf f03 a02 e00 w02 d00"/><path style="stroke-linejoin:miter;" d="m 47.364843,47.96731 9.04866,-8.586863 8.58687,9.048667 -4.52434,4.293437 -4.29343,-4.524327 -4.52432,4.293421 z" class="ddf f01 a02 e02 w03 d00"/></g><g transform="matrix(0,-0.3675302,-0.3675302,0,267.12829,118.79819)" class="ddf w04"><path style="stroke-linejoin:miter;" d="M 56.465842,81.320805 56.182603,48.198224" class="ddf f03 a02 e00 w02 d00"/><path style="stroke-linejoin:miter;" d="m 47.364843,47.96731 9.04866,-8.586863 8.58687,9.048667 -4.52434,4.293437 -4.29343,-4.524327 -4.52432,4.293421 z" class="ddf f01 a02 e02 w03 d00"/></g><g transform="matrix(0,-0.3675302,-0.3675302,0,327.09021,118.79819)" class="ddf w04"><path style="stroke-linejoin:miter;" d="M 56.465842,81.320805 56.182603,48.198224" class="ddf f03 a02 e00 w02 d00"/><path style="stroke-linejoin:miter;" d="m 47.364843,47.96731 9.04866,-8.586863 8.58687,9.048667 -4.52434,4.293437 -4.29343,-4.524327 -4.52432,4.293421 z" class="ddf f01 a02 e02 w03 d00"/></g><g transform="matrix(0,-0.3675302,-0.3675302,0,64.191612,110.55142)" class="ddf w04"><path style="stroke-linejoin:miter;" d="M 56.465842,81.320805 56.182603,48.198224" class="ddf f03 a02 e01 w02 d00"/><path style="stroke-linejoin:miter;" d="m 47.364843,47.96731 9.04866,-8.586863 8.58687,9.048667 -4.52434,4.293437 -4.29343,-4.524327 -4.52432,4.293421 z" class="ddf f02 a02 e02 w03 d00"/></g><g transform="matrix(0,-0.3675302,0.3675302,0,281.73191,110.98842)" class="ddf w04"><path style="stroke-linejoin:miter;" d="M 56.465842,81.320805 56.182603,48.198224" class="ddf f03 a02 e01 w02 d00"/><path style="stroke-linejoin:miter;" d="m 47.364843,47.96731 9.04866,-8.586863 8.58687,9.048667 -4.52434,4.293437 -4.29343,-4.524327 -4.52432,4.293421 z" class="ddf f02 a02 e02 w03 d00"/></g><g transform="matrix(-0.26343339,-0.25628363,-0.25628363,0.26343339,133.13762,91.097199)" class="ddf w04"><path style="stroke-linejoin:miter;" d="M 56.465842,81.320805 56.182603,48.198224" class="ddf f03 a02 e01 w02 d00"/><path style="stroke-linejoin:miter;" d="m 47.364843,47.96731 9.04866,-8.586863 8.58687,9.048667 -4.52434,4.293437 -4.29343,-4.524327 -4.52432,4.293421 z" class="ddf f02 a02 e02 w03 d00"/></g><g transform="matrix(0.26343339,-0.25628363,0.25628363,0.26343339,201.32285,91.025279)" class="ddf w04"><path style="stroke-linejoin:miter;" d="M 56.465842,81.320805 56.182603,48.198224" class="ddf f03 a02 e01 w02 d00"/><path style="stroke-linejoin:miter;" d="m 47.364843,47.96731 9.04866,-8.586863 8.58687,9.048667 -4.52434,4.293437 -4.29343,-4.524327 -4.52432,4.293421 z" class="ddf f02 a02 e02 w03 d00"/></g><text xml:space="preserve" style="stroke-linejoin:miter;" x="354.33533" y="115.59856" class="ddf s02 f02 a01 e02 w00 d00"><tspan style="stroke-linejoin:miter;" x="354.33533" y="115.59856" class="ddf f02 a01 e02 w00 d00">x</tspan></text><text xml:space="preserve" x="296.25757" y="195.66864" class="ddf s01 f04 a02 e02 w00 d00"><tspan x="296.25757" y="195.66864" class="ddf f04 a02 w00">π</tspan></text><text xml:space="preserve" x="310.49228" y="183.69107" class="ddf s01 f04 a02 e02 w00 d00"><tspan x="310.49228" y="183.69107" class="ddf f04 a02 w00">cos( a )</tspan></text><text xml:space="preserve" x="160.41605" y="194.48041" class="ddf s01 f04 a02 e02 w00 d00"><tspan x="160.41605" y="194.48041" class="ddf f04 a02 w00">π/2</tspan></text><text xml:space="preserve" x="222.76617" y="195.59619" class="ddf s01 f04 a02 e02 w00 d00"><tspan x="222.76617" y="195.59619" class="ddf f04 a02 w00">3π/4</tspan></text><text xml:space="preserve" x="87.017509" y="195.59619" class="ddf s01 f04 a02 e02 w00 d00"><tspan x="87.017509" y="195.59619" class="ddf f04 a02 w00">π/4</tspan></text><text xml:space="preserve" x="63.837883" y="34.318825" class="ddf s04 f04 a02 e02 w00 d00"><tspan x="63.837883" y="34.318825" class="ddf s04 f04 a02 w00">~same side</tspan></text><text xml:space="preserve" x="196.65987" y="33.11216" class="ddf s04 f04 a02 e02 w00 d00"><tspan x="196.65987" y="33.11216" class="ddf s04 f04 a02 w00">~opposite side</tspan></text><text xml:space="preserve" x="14.150664" y="55.623112" class="ddf s00 f04 a02 e02 w00 d00"><tspan x="14.150664" y="55.623112" class="ddf f04 a02 w00">1</tspan></text><text xml:space="preserve" x="11.007124" y="186.67491" class="ddf s03 f04 a02 e02 w00 d00"><tspan x="11.007124" y="186.67491" class="ddf f04 a02 w00">-1</tspan></text><text xml:space="preserve" style="stroke-linejoin:miter;" x="24.135099" y="15.826818" class="ddf s02 f01 a01 e02 w00 d00"><tspan style="stroke-linejoin:miter;" x="24.135099" y="15.826818" class="ddf f01 a01 e02 w00 d00">y</tspan></text><path style="stroke-linejoin:miter;" d="m 29.473154,49.006973 c 6.156768,0.03315 12.313566,0.519963 18.470418,1.480926 26.170148,4.087021 52.340278,16.695406 78.510428,33.267118 13.60712,8.616437 27.21425,18.214953 40.82137,27.775273" class="ddf f03 a02 e03 w00 d00"/><path style="stroke-linejoin:miter;" d="m 301.5846,180.54961 c -6.61308,0.10121 -13.22621,-0.4253 -19.83941,-1.6117 -24.93643,-4.47615 -49.87283,-18.28502 -74.80926,-36.43457 -12.96566,-9.43685 -25.93132,-19.94926 -38.89697,-30.41986" class="ddf f03 a02 e03 w00 d00"/><path style="stroke-linejoin:miter;" d="M 168.04802,48.750495 V 182.29443" class="ddf f03 a02 e03 w05 d01"/><path style="stroke-linejoin:miter;" d="M 97.328506,48.750495 V 182.29443" class="ddf f03 a02 e03 w05 d01"/><path style="stroke-linejoin:miter;" d="M 303.33248,181.29627 H 30.823565" class="ddf f03 a02 e03 w05 d01"/><path style="stroke-linejoin:miter;" d="M 302.50574,48.333954 H 28.938801" class="ddf f03 a02 e03 w05 d01"/><path style="stroke-linejoin:miter;" d="M 237.27083,48.750495 V 182.29443" class="ddf f03 a02 e03 w05 d01"/><path style="stroke-linejoin:miter;" d="M 303.12606,48.291676 V 181.42277" class="ddf f03 a02 e03 w05 d01"/><g transform="matrix(-0.3675302,0,0,0.3675302,188.78845,68.137572)" class="ddf w04"><path style="stroke-linejoin:miter;" d="M 56.465842,81.320805 56.182603,48.198224" class="ddf f03 a02 e01 w02 d00"/><path style="stroke-linejoin:miter;" d="m 47.364843,47.96731 9.04866,-8.586863 8.58687,9.048667 -4.52434,4.293437 -4.29343,-4.524327 -4.52432,4.293421 z" class="ddf f02 a02 e02 w03 d00"/></g><path style="stroke-linejoin:miter;" d="m 29.952324,46.824617 c 0,0 14.051263,-4.93557 28.729217,-4.93557 10.956436,0 35.905066,1.225453 35.905066,1.225453 l 2.185712,-3.43259 2.596343,3.199735 c 0,0 17.542028,-1.321908 32.842028,-1.321908 15.29999,0 35.50832,4.625787 35.50832,4.625787" class="ddf f03 a02 e04 w01 d00"/><path style="stroke-linejoin:miter;" d="m 168.10881,46.161017 c 0,0 13.78804,-4.93557 28.19104,-4.93557 10.7512,0 38.69362,1.508841 38.69362,1.508841 l 2.14477,-3.43259 2.54771,3.199735 c 0,0 13.75228,-1.605295 28.76567,-1.605295 15.01339,0 34.84317,4.625787 34.84317,4.625787" class="ddf f03 a02 e04 w01 d00"/></g></svg>