<?xml version='1.0' encoding='UTF-8'?>
<svg xmlns="http://www.w3.org/2000/svg" width="1920" height="768" viewBox="0 0 507.99999 203.2" version="1.1" style="background-color:transparent;color-scheme:light dark" xml:space="preserve"><defs><style><![CDATA[.ddf {font-variation-settings:normal;display:inline;vector-effect:none;fill-opacity:1;stroke-linecap:round;stroke-miterlimit:4;stroke-dashoffset:0;stroke-opacity:1;stop-color:#000000;line-height:normal;font-family:Arial;text-align:start;text-decoration-color:#000000;writing-mode:lr-tb;direction:ltr;text-anchor:start;stop-opacity:1;font-style:normal;font-variant:normal;font-weight:normal;font-stretch:normal;font-variant-ligatures:normal;font-variant-position:normal;font-variant-caps:normal;font-variant-numeric:normal;font-variant-alternates:normal;font-variant-east-asian:normal;font-feature-settings:normal;text-indent:0;text-decoration-line:none;text-decoration-style:solid;letter-spacing:normal;word-spacing:normal;text-transform:none;text-orientation:mixed;dominant-baseline:auto;baseline-shift:baseline;white-space:normal;opacity:1;} .dn {display:none}  .w00 {stroke-width:0.5} .w01 {stroke-width:1} .w02 {stroke-width:3} .a00 {fill-opacity:1} .s00 {font-size:19px} .s01 {font-size:14px} .s02 {font-size:8px} .e00 {stroke:#0045ff} .e01 {stroke:#00ff45} .e02 {stroke:#ff4500} .e03 {stroke:none} .e04 {stroke:#808080} .f00 {fill:#0045ff} .f01 {fill:#00ff45} .f02 {fill:#ff4500} .f03 {fill:none} .f04 {fill:#777777} .d00 {stroke-dasharray:none} .d01 {stroke-dasharray:1,3}]]></style></defs><g><path style="stroke-linejoin:miter;" d="m 400.49735,30.324865 11.32376,-5.233091 5.23309,11.323757 -5.66188,2.616546 -2.61655,-5.661875 -5.66187,2.616546 z" class="ddf f01 e03 w02 d00"/><path style="stroke-linejoin:miter;" d="M 24.276579,139.3751 64.936253,28.587542" class="ddf f03 e01 w02 d00"/><path style="stroke-linejoin:miter;" d="M 171.61543,138.15153 212.27511,27.363971" class="ddf f03 e01 w01 d01"/><path style="stroke-linejoin:miter;" d="m 165.35246,129.58997 8.58313,8.69072 -8.69071,8.58313 -4.29158,-4.34537 4.34536,-4.29155 -4.29156,-4.34537 z" class="ddf f02 e03 w02 d00"/><text xml:space="preserve" style="stroke-linejoin:miter;" x="179.15463" y="143.44289" class="ddf s00 f02 e03 w02 d00"><tspan style="stroke-linejoin:miter;" x="179.15463" y="143.44289" class="ddf f02 e03 w02 d00">u</tspan></text><text xml:space="preserve" style="stroke-linejoin:miter;" x="218.88301" y="28.869946" class="ddf s00 f00 e03 w02 d00"><tspan style="stroke-linejoin:miter;" x="218.88301" y="28.869946" class="ddf f00 e03 w02 d00">u+v</tspan></text><text xml:space="preserve" style="stroke-linejoin:miter;" x="287.60245" y="76.101265" class="ddf s00 f00 e03 w02 d00"><tspan style="stroke-linejoin:miter;" x="287.60245" y="76.101265" class="ddf f00 e03 w02 d00">u+v</tspan></text><text xml:space="preserve" style="stroke-linejoin:miter;" x="64.472893" y="20.228241" class="ddf s00 f01 e03 w02 d00"><tspan style="stroke-linejoin:miter;" x="64.472893" y="20.228241" class="ddf s00 f01 e03 w02 d00">v</tspan></text><path style="stroke-linejoin:miter;" d="M 64.856055,28.678102 212.10963,27.628552" class="ddf f03 e02 w01 d01"/><path style="stroke-linejoin:miter;" d="M 24.33683,139.35228 209.88704,29.242905" class="ddf f03 e00 w02 d00"/><g transform="translate(-113.27768,144.31711)" class="ddf"><text xml:space="preserve" x="184.99069" y="24.039494" class="ddf s01 f04 e03 w02 d00"><tspan x="184.99069" y="24.039494" class="ddf s01 f04 w02">u</tspan></text><text xml:space="preserve" x="193.48828" y="26.68512" class="ddf s02 f04 e03 w02 d00"><tspan x="193.48828" y="26.68512" class="ddf s02 f04 w02">x</tspan></text><text xml:space="preserve" x="193.48828" y="55.309685" class="ddf s02 f04 e03 w02 d00"><tspan x="193.48828" y="55.309685" class="ddf s02 f04 w02">z</tspan></text><text xml:space="preserve" x="193.67537" y="40.997402" class="ddf s02 f04 e03 w02 d00"><tspan x="193.67537" y="40.997402" class="ddf s02 f04 w02">y</tspan></text><text xml:space="preserve" x="184.99069" y="38.632408" class="ddf s01 f04 e03 w02 d00"><tspan x="184.99069" y="38.632408" class="ddf s01 f04 w02">u</tspan></text><text xml:space="preserve" x="184.99069" y="52.851147" class="ddf s01 f04 e03 w02 d00"><tspan x="184.99069" y="52.851147" class="ddf s01 f04 w02">u</tspan></text><path style="stroke-linejoin:miter;" d="m 184.06549,14.405828 h -2.58948 v 39.662797 h 2.61924" class="ddf f03 e04 w00 d00"/><path style="stroke-linejoin:miter;" d="m 198.15666,14.405828 h 2.58948 v 39.662797 h -2.61924" class="ddf f03 e04 w00 d00"/></g><g transform="translate(-75.78985,144.31711)" class="ddf"><text xml:space="preserve" x="184.99069" y="24.039494" class="ddf s01 f04 e03 w02 d00"><tspan x="184.99069" y="24.039494" class="ddf s01 f04 w02">v</tspan></text><text xml:space="preserve" x="193.48828" y="26.68512" class="ddf s02 f04 e03 w02 d00"><tspan x="193.48828" y="26.68512" class="ddf s02 f04 w02">x</tspan></text><text xml:space="preserve" x="193.48828" y="55.309685" class="ddf s02 f04 e03 w02 d00"><tspan x="193.48828" y="55.309685" class="ddf s02 f04 w02">z</tspan></text><text xml:space="preserve" x="193.67537" y="40.997402" class="ddf s02 f04 e03 w02 d00"><tspan x="193.67537" y="40.997402" class="ddf s02 f04 w02">y</tspan></text><text xml:space="preserve" x="184.99069" y="38.632408" class="ddf s01 f04 e03 w02 d00"><tspan x="184.99069" y="38.632408" class="ddf s01 f04 w02">v</tspan></text><text xml:space="preserve" x="184.99069" y="52.851147" class="ddf s01 f04 e03 w02 d00"><tspan x="184.99069" y="52.851147" class="ddf s01 f04 w02">v</tspan></text><path style="stroke-linejoin:miter;" d="m 184.06549,14.405828 h -2.58948 v 39.662797 h 2.61924" class="ddf f03 e04 w00 d00"/><path style="stroke-linejoin:miter;" d="m 198.15666,14.405828 h 2.58948 v 39.662797 h -2.61924" class="ddf f03 e04 w00 d00"/></g><text xml:space="preserve" x="148.58301" y="168.35661" class="ddf s01 f04 e03 w02 d00"><tspan x="148.58301" y="168.35661" class="ddf s01 f04 w02">u</tspan></text><text xml:space="preserve" x="157.0806" y="171.00223" class="ddf s02 f04 e03 w02 d00"><tspan x="157.0806" y="171.00223" class="ddf s02 f04 w02">x</tspan></text><text xml:space="preserve" x="157.0806" y="199.6268" class="ddf s02 f04 e03 w02 d00"><tspan x="157.0806" y="199.6268" class="ddf s02 f04 w02">z</tspan></text><text xml:space="preserve" x="157.26767" y="185.31451" class="ddf s02 f04 e03 w02 d00"><tspan x="157.26767" y="185.31451" class="ddf s02 f04 w02">y</tspan></text><text xml:space="preserve" x="148.58301" y="182.94952" class="ddf s01 f04 e03 w02 d00"><tspan x="148.58301" y="182.94952" class="ddf s01 f04 w02">u</tspan></text><text xml:space="preserve" x="148.58301" y="197.16826" class="ddf s01 f04 e03 w02 d00"><tspan x="148.58301" y="197.16826" class="ddf s01 f04 w02">u</tspan></text><text xml:space="preserve" x="165.01956" y="168.35661" class="ddf s01 f04 e03 w02 d00"><tspan x="165.01956" y="168.35661" class="ddf s01 f04 w02">+ v</tspan></text><text xml:space="preserve" x="184.91077" y="171.00223" class="ddf s02 f04 e03 w02 d00"><tspan x="184.91077" y="171.00223" class="ddf s02 f04 w02">x</tspan></text><text xml:space="preserve" x="184.91077" y="199.6268" class="ddf s02 f04 e03 w02 d00"><tspan x="184.91077" y="199.6268" class="ddf s02 f04 w02">z</tspan></text><text xml:space="preserve" x="185.09784" y="185.31451" class="ddf s02 f04 e03 w02 d00"><tspan x="185.09784" y="185.31451" class="ddf s02 f04 w02">y</tspan></text><text xml:space="preserve" x="165.01956" y="182.94952" class="ddf s01 f04 e03 w02 d00"><tspan x="165.01956" y="182.94952" class="ddf s01 f04 w02">+ v</tspan></text><text xml:space="preserve" x="165.01956" y="197.16826" class="ddf s01 f04 e03 w02 d00"><tspan x="165.01956" y="197.16826" class="ddf s01 f04 w02">+ v</tspan></text><path style="stroke-linejoin:miter;" d="m 146.81592,158.72294 h -2.58948 v 39.6628 h 2.61924" class="ddf f03 e04 w00 d00"/><path style="stroke-linejoin:miter;" d="m 192.43571,158.72294 h 2.58948 v 39.6628 h -2.61924" class="ddf f03 e04 w00 d00"/><path style="stroke-linejoin:miter;" d="m 54.163096,31.100869 11.645933,-4.470473 4.470466,11.645926 -5.82296,2.235237 -2.235236,-5.82296 -5.82296,2.235237 z" class="ddf f01 e03 w02 d00"/><path style="stroke-linejoin:miter;" d="m 200.76541,24.547091 12.00908,3.375661 -3.37567,12.009065 -6.00453,-1.687822 1.68783,-6.004537 -6.00453,-1.687813 z" class="ddf f00 e03 w02 d00"/><path style="stroke-linejoin:miter;" d="M 24.276579,139.3751 171.53016,138.32555" class="ddf f03 e02 w02 d00"/><path style="stroke-linejoin:miter;" d="M 370.25354,138.66322 410.91322,27.875659" class="ddf f03 e01 w02 d00"/><path style="stroke-linejoin:miter;" d="m 364.29422,129.58997 8.58313,8.69072 -8.69071,8.58313 -4.29158,-4.34537 4.34536,-4.29155 -4.29156,-4.34537 z" class="ddf f02 e03 w02 d00"/><text xml:space="preserve" style="stroke-linejoin:miter;" x="294.94846" y="132.62225" class="ddf s00 f02 e03 w02 d00"><tspan style="stroke-linejoin:miter;" x="294.94846" y="132.62225" class="ddf f02 e03 w02 d00">u</tspan></text><text xml:space="preserve" style="stroke-linejoin:miter;" x="395.54022" y="102.23721" class="ddf s00 f01 e03 w02 d00"><tspan style="stroke-linejoin:miter;" x="395.54022" y="102.23721" class="ddf s00 f01 e03 w02 d00">v</tspan></text><path style="stroke-linejoin:miter;" d="M 223.2786,139.35228 408.8288,29.242905" class="ddf f03 e00 w02 d00"/><path style="stroke-linejoin:miter;" d="m 399.70717,24.547091 12.00908,3.375661 -3.37567,12.009065 -6.00453,-1.687822 1.68783,-6.004537 -6.00453,-1.687813 z" class="ddf f00 e03 w02 d00"/><path style="stroke-linejoin:miter;" d="m 223.21834,139.3751 147.25358,-1.04955" class="ddf f03 e02 w02 d00"/><text xml:space="preserve" x="18.037003" y="182.94952" class="ddf s01 f04 e03 w02 d00"><tspan x="18.037003" y="182.94952" class="ddf s01 f04 w02">u</tspan></text><text xml:space="preserve" x="43.52243" y="182.94952" class="ddf s01 f04 e03 w02 d00"><tspan x="43.52243" y="182.94952" class="ddf s01 f04 w02">v</tspan></text><text xml:space="preserve" x="55.339695" y="184.23093" class="ddf s01 f04 e03 w02 d00"><tspan x="55.339695" y="184.23093" class="ddf s01 f04 w02">=</tspan></text><text xml:space="preserve" x="130.24228" y="184.23093" class="ddf s01 f04 e03 w02 d00"><tspan x="130.24228" y="184.23093" class="ddf s01 f04 w02">=</tspan></text><text xml:space="preserve" x="30.99328" y="184.23091" class="ddf s01 f04 e03 w02 d00"><tspan x="30.99328" y="184.23091" class="ddf s01 f04 w02">+</tspan></text><text xml:space="preserve" x="92.357628" y="184.23091" class="ddf s01 f04 e03 w02 d00"><tspan x="92.357628" y="184.23091" class="ddf s01 f04 w02">+</tspan></text></g></svg>