<?xml version='1.0' encoding='UTF-8'?>
<svg xmlns="http://www.w3.org/2000/svg" width="1920" height="768" viewBox="0 0 507.99999 203.2" version="1.1" style="background-color:transparent;color-scheme:light dark" xml:space="preserve"><defs><style><![CDATA[.ddf {font-variation-settings:normal;opacity:1;fill-opacity:1;stroke-linecap:round;stroke-linejoin:round;stroke-miterlimit:4;stroke-dashoffset:0;stroke-opacity:1;display:inline;vector-effect:none;stop-color:#000000;font-style:normal;font-variant:normal;font-weight:normal;font-stretch:normal;line-height:normal;font-family:Arial;font-variant-ligatures:normal;font-variant-caps:normal;font-variant-numeric:normal;font-variant-east-asian:normal;text-align:start;text-decoration-color:#000000;writing-mode:lr-tb;direction:ltr;text-anchor:start;stop-opacity:1;font-variant-position:normal;font-variant-alternates:normal;text-indent:0;text-decoration-line:none;text-decoration-style:solid;letter-spacing:normal;word-spacing:normal;text-transform:none;text-orientation:mixed;dominant-baseline:auto;baseline-shift:baseline;white-space:normal;font-feature-settings:normal;} .dn {display:none}  .w00 {stroke-width:3} .w01 {stroke-width:1} .w02 {stroke-width:2} .a00 {fill-opacity:1} .s00 {font-size:16px} .s01 {font-size:12px} .s02 {font-size:8px} .e00 {stroke:#b4b4b4} .e01 {stroke:#0045ff} .e02 {stroke:#00ff45} .e03 {stroke:#ff4500} .e04 {stroke:none} .e05 {stroke:#808080} .f00 {fill:#b4b4b4} .f01 {fill:#0045ff} .f02 {fill:#00ff45} .f03 {fill:#ff4500} .f04 {fill:none} .f05 {fill:#808080} .d00 {stroke-dasharray:none} .d01 {stroke-dasharray:1,3}]]></style></defs><g><path d="m 126.62405,154.00966 51.00192,-47.31402 m -32.23958,-18.476185 31.87358,18.326405" class="ddf f04 e00 w01 d01"/><path d="M 97.415938,130.71954 161.81648,71.845965" class="ddf f04 e02 w00 d00"/><path d="m 153.76161,164.50581 1.60038,10.06461 -10.0646,1.6004 -0.8002,-5.03232 5.0323,-0.80019 -0.80019,-5.0323 z" class="ddf f03 e04 w00 d00"/><path d="m 156.93423,66.081789 10.40589,-0.19936 0.19935,10.40589 -5.20294,0.0997 -0.0997,-5.20295 -5.20295,0.0997 z" class="ddf f02 e04 w00 d00"/><path d="m 89.804918,42.571221 7.54847,-7.165416 7.165412,7.548455 -3.77423,3.582708 -3.582712,-3.774224 -3.77421,3.582701 z" class="ddf f01 e04 w00 d00"/><text xml:space="preserve" x="159.1463" y="183.80733" class="ddf s01 f03 e04 w00 d00"><tspan x="159.1463" y="183.80733" class="ddf s01 f03 e04 w00 d00">X = [1, 0, 0]</tspan></text><text xml:space="preserve" x="93.444374" y="30.473223" class="ddf s01 f01 e04 w00 d00"><tspan x="93.444374" y="30.473223" class="ddf s01 f01 e04 w00 d00">Z = [0, 0, 1]</tspan></text><text xml:space="preserve" x="172.28848" y="66.136795" class="ddf s01 f02 e04 w00 d00"><tspan x="172.28848" y="66.136795" class="ddf s01 f02 e04 w00 d00">Y = [0, 1, 0]</tspan></text><path d="m 97.415938,130.71954 52.297842,39.72272" class="ddf f04 e03 w00 d00"/><path d="M 97.355828,130.20382 97.126048,41.107268" class="ddf f04 e01 w00 d00"/><text xml:space="preserve" x="186.90529" y="104.02792" class="ddf s00 f05 e04 w00 d00"><tspan x="186.90529" y="104.02792" class="ddf s00 f05 e04 w00 d00">p</tspan></text><text xml:space="preserve" x="205.69901" y="104.02792" class="ddf s00 f05 e04 w00 d00"><tspan x="205.69901" y="104.02792" class="ddf s00 f05 e04 w00 d00">= [x, y, z]</tspan></text><text xml:space="preserve" x="95.641899" y="161.93614" class="ddf s00 f05 e04 w00 d00"><tspan x="95.641899" y="161.93614" class="ddf s00 f05 e04 w00 d00">x</tspan></text><text xml:space="preserve" x="73.507652" y="122.11958" class="ddf s00 f05 e04 w00 d00"><tspan x="73.507652" y="122.11958" class="ddf s00 f05 e04 w00 d00">z</tspan></text><text xml:space="preserve" x="107.34982" y="92.902107" class="ddf s00 f05 e04 w00 d00"><tspan x="107.34982" y="92.902107" class="ddf s00 f05 e04 w00 d00">y</tspan></text><text xml:space="preserve" x="195.58351" y="95.844597" class="ddf s02 f05 e04 w00 d00"><tspan x="195.58351" y="95.844597" class="ddf s02 f05 e04 w00 d00">W</tspan></text><text xml:space="preserve" x="16.891453" y="146.70203" class="ddf s01 f05 e04 w00 d00"><tspan x="16.891453" y="146.70203" class="ddf s01 f05 e04 w00 d00">O = [0, 0, 0]</tspan></text><circle cx="97.466118" cy="130.58989" r="3.7527339" class="ddf f00 e05 w02 d00"/><circle cx="-71.989395" cy="-193.74791" r="3.7527339" transform="rotate(141.29241)" class="ddf f00 e05 w02 d00"/><path d="m 98.850008,105.59874 76.170792,1.41293" class="ddf f04 e00 w01 d01"/><path d="M 97.543108,130.37455 176.47803,106.22877" class="ddf f04 e00 w01 d00"/><path d="m 88.644742,105.45684 -5.162106,0.011 2.452467,0.008 0.117887,25.16738 -2.469638,0.009 5.706434,0.0105" class="ddf f04 e00 w01 d00"/><path d="m 118.85024,163.16416 3.20401,-4.04744 -1.53255,1.91467 -28.33035,-21.71177 1.529926,-1.93869 -3.5596,4.46014" class="ddf f04 e00 w01 d00"/></g></svg>