<?xml version='1.0' encoding='UTF-8'?>
<svg xmlns="http://www.w3.org/2000/svg" width="1920" height="768" viewBox="0 0 507.99999 203.2" version="1.1" style="background-color:transparent;color-scheme:light dark" xml:space="preserve"><defs><style><![CDATA[.ddf {font-variation-settings:normal;display:inline;vector-effect:none;fill-opacity:1;stroke-linecap:round;stroke-linejoin:round;stroke-miterlimit:4;stroke-dashoffset:0;stroke-opacity:1;stop-color:#000000;font-style:normal;font-variant:normal;font-weight:normal;font-stretch:normal;line-height:normal;font-family:Arial;font-variant-ligatures:normal;font-variant-caps:normal;font-variant-numeric:normal;font-variant-east-asian:normal;text-align:start;text-decoration-color:#000000;writing-mode:lr-tb;direction:ltr;text-anchor:start;stop-opacity:1;font-variant-position:normal;font-variant-alternates:normal;font-feature-settings:normal;text-indent:0;text-decoration-line:none;text-decoration-style:solid;letter-spacing:normal;word-spacing:normal;text-transform:none;text-orientation:mixed;dominant-baseline:auto;baseline-shift:baseline;white-space:normal;} .dn {display:none}  .w00 {stroke-width:3} .w01 {stroke-width:1} .w02 {stroke-width:2} .a00 {fill-opacity:1} .s00 {font-size:19px} .s01 {font-size:14px} .e00 {stroke:#0045ff} .e01 {stroke:#00ff45} .e02 {stroke:#ff4500} .e03 {stroke:none} .e04 {stroke:#777777} .e05 {stroke:#808080} .f00 {fill:#b4b4b4} .f01 {fill:#0045ff} .f02 {fill:#00ff45} .f03 {fill:#ff4500} .f04 {fill:none} .f05 {fill:#777777} .d00 {stroke-dasharray:none} .d01 {stroke-dasharray:2,6}]]></style></defs><g><path d="m 295.0033,131.73302 48.08041,13.40409" class="ddf f00 e05 w02 d01"/><path d="M 133.54921,91.841394 H 58.283153" class="ddf f00 e05 w02 d01"/><path d="M 137.32308,94.133285 V 166.66832" class="ddf f00 e05 w02 d01"/><path d="M 295.05784,61.432917 V 130.30385" class="ddf f00 e05 w02 d01"/><g transform="translate(-3.9811009,5.4265171)" class="ddf"><text xml:space="preserve" x="148.07886" y="75.013969" class="ddf s01 f05 e03 w00 d00"><tspan x="148.07886" y="75.013969" class="ddf s01 f05 w00">p = [x, y]</tspan></text></g><text xml:space="preserve" x="39.528706" y="184.04681" class="ddf s01 f05 e03 w00 d00"><tspan x="39.528706" y="184.04681" class="ddf s01 f05 w00">O</tspan></text><text xml:space="preserve" x="238.64639" y="160.99452" class="ddf s01 f05 e03 w00 d00"><tspan x="238.64639" y="160.99452" class="ddf s01 f05 w00">O</tspan></text><text xml:space="preserve" x="92.173187" y="194.8343" class="ddf s01 f05 e03 w00 d00"><tspan x="92.173187" y="194.8343" class="ddf s01 f05 w00">x</tspan></text><text xml:space="preserve" x="272.24475" y="177.34523" class="ddf s01 f05 e03 w00 d00"><tspan x="272.24475" y="177.34523" class="ddf s01 f05 w00">x</tspan></text><text xml:space="preserve" x="28.846962" y="134.08424" class="ddf s01 f05 e03 w00 d00"><tspan x="28.846962" y="134.08424" class="ddf s01 f05 w00">y</tspan></text><text xml:space="preserve" x="231.62225" y="117.12283" class="ddf s01 f05 e03 w00 d00"><tspan x="231.62225" y="117.12283" class="ddf s01 f05 w00">z</tspan></text><path d="M 56.465842,167.68352 56.182603,48.198224" class="ddf f04 e01 w00 d00"/><path d="M 56.465842,167.68352 174.89279,166.90858" class="ddf f04 e02 w00 d00"/><path d="m 175.07124,158.27333 8.4568,8.81369 -8.81367,8.45681 -4.22842,-4.40685 4.40684,-4.2284 -4.2284,-4.40684 z" class="ddf f03 e03 w00 d00"/><path d="m 47.364843,47.96731 9.04866,-8.586863 8.58687,9.048667 -4.52434,4.293437 -4.29343,-4.524327 -4.52432,4.293421 z" class="ddf f02 e03 w00 d00"/><text xml:space="preserve" x="189.39716" y="170.99596" class="ddf s00 f03 e03 w00 d00"><tspan x="189.39716" y="170.99596" class="ddf s00 f03 e03 w00 d00">X</tspan></text><text xml:space="preserve" x="51.686417" y="33.918201" class="ddf s00 f02 e03 w00 d00"><tspan x="51.686417" y="33.918201" class="ddf s00 f02 e03 w00 d00">Y</tspan></text><circle cx="56.620823" cy="168.07657" r="4.4979167" class="ddf f00 e05 w02 d00"/><circle cx="136.99583" cy="91.75209" r="4.4979167" class="ddf f00 e05 w02 d00"/><path d="m 45.290903,167.62788 -5.96791,-0.003 3.22016,-0.005 -0.23225,-75.769191 2.92155,-0.0493 -5.44683,0.0058" class="ddf f04 e04 w01 d00"/><path d="m 246.74212,145.79842 -5.96791,-0.003 3.22016,-0.005 -0.23225,-69.68881 2.92155,-0.0493 -5.44683,0.0058" class="ddf f04 e04 w01 d00"/><path d="m 57.392365,185.06162 0.003,-5.96791 0.005,3.22016 79.870235,-0.23225 0.0493,2.92155 -0.006,-5.44683" class="ddf f04 e04 w01 d00"/><path d="m 258.50247,145.90281 100.4555,-43.05423" class="ddf f04 e01 w00 d00"/><path d="m 307.54439,160.10398 35.39575,-14.80384" class="ddf f00 e05 w02 d01"/><path d="m 389.85163,174.40711 6.02985,10.6226 -10.62259,6.02986 -3.01494,-5.31131 5.3113,-3.01492 -3.01492,-5.3113 z" class="ddf f03 e03 w00 d00"/><path d="m 354.47127,95.282707 11.52719,4.768303 -4.76831,11.52718 -5.76359,-2.38415 2.38415,-5.76359 -5.76359,-2.38414 z" class="ddf f02 e03 w00 d00"/><path d="m 249.38013,40.250822 9.04736,-8.588258 8.58825,9.047357 -4.52367,4.294129 -4.29413,-4.523675 -4.52366,4.294121 z" class="ddf f01 e03 w00 d00"/><text xml:space="preserve" x="399.60153" y="193.39362" class="ddf s00 f03 e03 w00 d00"><tspan x="399.60153" y="193.39362" class="ddf f03 e03 w00 d00">X</tspan></text><text xml:space="preserve" x="253.17279" y="24.32675" class="ddf s00 f01 e03 w00 d00"><tspan x="253.17279" y="24.32675" class="ddf f01 e03 w00 d00">Z</tspan></text><text xml:space="preserve" x="370.8103" y="99.830795" class="ddf s00 f02 e03 w00 d00"><tspan x="370.8103" y="99.830795" class="ddf s00 f02 e03 w00 d00">Y</tspan></text><path d="m 309.93948,89.760159 35.39575,-14.80384" class="ddf f00 e05 w02 d01"/><path d="M 259.49738,75.749937 294.83874,61.407613" class="ddf f00 e05 w02 d01"/><path d="m 295.2599,61.477236 45.02291,12.753669" class="ddf f00 e05 w02 d01"/><path d="m 259.88008,75.833104 49.70244,14.093978" class="ddf f00 e05 w02 d01"/><path d="M 342.71506,74.231456 V 145.11365" class="ddf f00 e05 w02 d01"/><path d="m 309.3473,90.14071 v 69.47035" class="ddf f00 e05 w02 d01"/><circle cx="342.73471" cy="75.260551" r="4.4979167" class="ddf f00 e05 w02 d00"/><path d="m 252.51179,138.27983 -2.32315,-5.49718 1.25962,2.96359 35.68838,-14.2658 1.18403,2.67132 -2.12817,-5.01387" class="ddf f04 e04 w01 d00"/><path d="m 253.83968,160.88608 1.71496,-5.7162 -0.91902,3.08625 50.34812,13.08561 -0.79092,2.81289 1.55704,-5.21955" class="ddf f04 e04 w01 d00"/><text xml:space="preserve" x="266.04742" y="124.09003" class="ddf s01 f05 e03 w00 d00"><tspan x="266.04742" y="124.09003" class="ddf s01 f05 w00">y</tspan></text><path d="M 258.43043,145.28468 258.15502,38.49617" class="ddf f04 e00 w00 d00"/><path d="m 258.50247,145.90281 130.22756,37.24761" class="ddf f04 e02 w00 d00"/><circle cx="258.28549" cy="146.26727" r="4.4979167" class="ddf f00 e05 w02 d00"/><g transform="translate(189.56285,-10.796154)" class="ddf"><text xml:space="preserve" x="160.42671" y="75.013962" class="ddf s01 f05 e03 w00 d00"><tspan x="160.42671" y="75.013962" class="ddf s01 f05 w00">p = [x, y, z]</tspan></text></g></g></svg>