<?xml version='1.0' encoding='UTF-8'?>
<svg xmlns="http://www.w3.org/2000/svg" width="1920" height="768" viewBox="0 0 507.99999 203.2" version="1.1" style="background-color:transparent;color-scheme:light dark" xml:space="preserve"><defs><style><![CDATA[.ddf {font-variation-settings:normal;display:inline;vector-effect:none;fill-opacity:1;stroke-linecap:round;stroke-linejoin:round;stroke-miterlimit:4;stroke-dasharray:none;stroke-dashoffset:0;stroke-opacity:1;stop-color:#000000;font-style:normal;font-variant:normal;font-weight:normal;font-stretch:normal;line-height:normal;font-family:Arial;font-variant-ligatures:normal;font-variant-position:normal;font-variant-caps:normal;font-variant-numeric:normal;font-variant-alternates:normal;font-variant-east-asian:normal;font-feature-settings:normal;text-indent:0;text-align:start;text-decoration-line:none;text-decoration-style:solid;text-decoration-color:#000000;letter-spacing:normal;word-spacing:normal;text-transform:none;writing-mode:lr-tb;direction:ltr;text-orientation:mixed;dominant-baseline:auto;baseline-shift:baseline;text-anchor:start;white-space:normal;stop-opacity:1;} .dn {display:none}  .w00 {stroke-width:3} .w01 {stroke-width:2} .a00 {fill-opacity:1} .s00 {font-size:16px} .s01 {font-size:14px} .e00 {stroke:#45ffff} .e01 {stroke:#00ff45} .e02 {stroke:#ff4500} .e03 {stroke:none} .e04 {stroke:#808080} .f00 {fill:#b4b4b4} .f01 {fill:#45ffff} .f02 {fill:#00ff45} .f03 {fill:#ff4500} .f04 {fill:none} .f05 {fill:#777777} .d00 {stroke-dasharray:none}]]></style></defs><g><g transform="translate(-217.01798,-18.776957)"><path d="m 354.12808,57.361213 73.06925,26.856946" class="ddf f04 e00 w00"/><path d="m 355.36065,65.946293 -4.1084,-10.1748 10.1748,-4.108394 2.0542,5.087384 -5.08739,2.0542 2.05421,5.08739 z" class="ddf f01 e03 w00"/></g><g transform="rotate(180,324.00702,77.699324)"><path d="m 354.12808,57.361213 73.06925,26.856946" class="ddf f04 e00 w00"/><path d="m 355.36065,65.946293 -4.1084,-10.1748 10.1748,-4.108394 2.0542,5.087384 -5.08739,2.0542 2.05421,5.08739 z" class="ddf f01 e03 w00"/></g><path d="M 186.50572,119.61384 208.48101,80.142687" class="ddf f04 e01 w00"/><text xml:space="preserve" x="174.02438" y="100.31072" class="ddf s00 f02 e03 w00"><tspan x="174.02438" y="100.31072" class="ddf s00 f02 e03 w00">-v</tspan></text><text xml:space="preserve" x="181.12891" y="158.96384" class="ddf s00 f02 e03 w00"><tspan x="181.12891" y="158.96384" class="ddf s00 f02 e03 w00">v</tspan></text><text xml:space="preserve" x="176.90244" y="44.824604" class="ddf s00 f01 e03 w00"><tspan x="176.90244" y="44.824604" class="ddf s00 f01 e03 w00">-w</tspan></text><text xml:space="preserve" x="236.66829" y="100.71146" class="ddf s00 f01 e03 w00"><tspan x="236.66829" y="100.71146" class="ddf s00 f01 e03 w00">w</tspan></text><path d="m 170.76443,116.89993 7.54999,7.64463 -7.64462,7.55 -3.77501,-3.82233 3.82231,-3.77498 -3.77499,-3.82233 z" class="ddf f03 e03 w00"/><text xml:space="preserve" x="87.58091" y="116.97243" class="ddf s00 f03 e03 w00"><tspan x="87.58091" y="116.97243" class="ddf f03 e03 w00">u</tspan></text><text xml:space="preserve" x="137.7173" y="116.97243" class="ddf s00 f03 e03 w00"><tspan x="137.7173" y="116.97243" class="ddf f03 e03 w00">-u</tspan></text><path d="m 120.64081,124.99188 51.72765,-0.36014" class="ddf f04 e02 w00"/><path d="m 66.688195,116.89993 -7.54999,7.64463 7.64462,7.55 3.77501,-3.82233 -3.82231,-3.77498 3.77499,-3.82233 z" class="ddf f03 e03 w00"/><path d="M 116.81181,124.99188 65.084165,124.63174" class="ddf f04 e02 w00"/><path d="m 201.97219,75.910667 10.70305,-2.41871 2.41871,10.703055 -5.35151,1.20936 -1.20936,-5.351535 -5.35152,1.209375 z" class="ddf f02 e03 w00"/><path d="m 181.7805,128.95403 -21.97529,39.47116" class="ddf f04 e01 w00"/><path d="m 166.31403,172.65721 -10.70305,2.41871 -2.41871,-10.70306 5.35151,-1.20935 1.20936,5.35153 5.35152,-1.20938 z" class="ddf f02 e03 w00"/><circle cx="120.57288" cy="125.29774" r="4.4979167" class="ddf f00 e04 w01"/><circle cx="152.00352" cy="180.6414" r="4.4979167" class="ddf f00 e04 w01"/><circle cx="53.940598" cy="125.29774" r="4.4979167" class="ddf f00 e04 w01"/><circle cx="183.89371" cy="124.35211" r="4.4979167" class="ddf f00 e04 w01"/><circle cx="215.9382" cy="68.73037" r="4.4979167" class="ddf f00 e04 w01"/><circle cx="302.38031" cy="101.87968" r="4.4979167" class="ddf f00 e04 w01"/><circle cx="128.86038" cy="35.166195" r="4.4979167" class="ddf f00 e04 w01"/><g transform="translate(-32.858155,69.206055)" class="ddf"><text xml:space="preserve" x="148.07886" y="75.013969" class="ddf s01 f05 e03 w00"><tspan x="148.07886" y="75.013969" class="ddf s01 f05 w00">p</tspan></text></g><g transform="translate(49.040575,53.87802)" class="ddf"><text xml:space="preserve" x="148.07886" y="75.013969" class="ddf s01 f05 e03 w00"><tspan x="148.07886" y="75.013969" class="ddf s01 f05 w00">p-u</tspan></text></g><g transform="translate(-44.262753,110.45546)" class="ddf"><text xml:space="preserve" x="148.07886" y="75.013969" class="ddf s01 f05 e03 w00"><tspan x="148.07886" y="75.013969" class="ddf s01 f05 w00">p-u+v</tspan></text></g><g transform="translate(-129.4914,53.87802)" class="ddf"><text xml:space="preserve" x="148.07886" y="75.013969" class="ddf s01 f05 e03 w00"><tspan x="148.07886" y="75.013969" class="ddf s01 f05 w00">p+u</tspan></text></g><g transform="translate(71.953624,-15.984311)" class="ddf"><text xml:space="preserve" x="148.07886" y="75.013969" class="ddf s01 f05 e03 w00"><tspan x="148.07886" y="75.013969" class="ddf s01 f05 w00">p-u-v</tspan></text></g><g transform="translate(165.19826,33.757149)" class="ddf"><text xml:space="preserve" x="148.07886" y="75.013969" class="ddf s01 f05 e03 w00"><tspan x="148.07886" y="75.013969" class="ddf s01 f05 w00">p-u-v+w</tspan></text></g><g transform="translate(-49.534755,-54.327576)" class="ddf"><text xml:space="preserve" x="148.07886" y="75.013969" class="ddf s01 f05 e03 w00"><tspan x="148.07886" y="75.013969" class="ddf s01 f05 w00">p-u-v-w</tspan></text></g></g></svg>