<?xml version='1.0' encoding='UTF-8'?>
<svg xmlns="http://www.w3.org/2000/svg" width="1920" height="768" viewBox="0 0 507.99999 203.2" version="1.1" style="background-color:transparent;color-scheme:light dark" xml:space="preserve"><defs><style><![CDATA[.ddf {display:inline;fill-opacity:1;stroke-linecap:round;stroke-opacity:1;font-variation-settings:normal;stroke-miterlimit:4;stroke-dashoffset:0;vector-effect:none;stop-color:#000000;line-height:normal;font-family:Arial;text-align:start;text-decoration-color:#000000;writing-mode:lr-tb;direction:ltr;text-anchor:start;stop-opacity:1;font-style:normal;font-variant:normal;font-weight:normal;font-stretch:normal;font-variant-ligatures:normal;font-variant-caps:normal;font-variant-numeric:normal;font-variant-east-asian:normal;font-variant-position:normal;font-variant-alternates:normal;font-feature-settings:normal;text-indent:0;text-decoration-line:none;text-decoration-style:solid;letter-spacing:normal;word-spacing:normal;text-transform:none;text-orientation:mixed;dominant-baseline:auto;baseline-shift:baseline;white-space:normal;opacity:1;} .dn {display:none}  .w00 {stroke-width:3} .w01 {stroke-width:1} .w02 {stroke-width:0.5} .a00 {fill-opacity:1} .s00 {font-size:19px} .s01 {font-size:14px} .e00 {stroke:#00ff45} .e01 {stroke:#ff4500} .e02 {stroke:none} .e03 {stroke:#777777} .e04 {stroke:#808080} .f00 {fill:#ff4500} .f01 {fill:none} .f02 {fill:#777777} .f03 {fill:#00ff45} .d00 {stroke-dasharray:none} .d01 {stroke-dasharray:1,3}]]></style></defs><g><path d="m 142.40782,122.14774 c 0,0 -7.47717,2.59041 -9.65766,3.36259 0.51622,2.03348 3.66471,10.59338 3.66471,10.59338" class="ddf f01 e03 w01 d00"/><path style="stroke-linejoin:miter;" d="M 146.97603,133.78958 110.02602,35.474489" class="ddf f02 e03 w01 d01"/><path style="stroke-linejoin:miter;" d="m 156.99123,128.9045 -36.47045,-97.675682 2.72214,-1.062001 -5.44714,2.308274" class="ddf f01 e03 w01 d00"/><path d="m 48.222927,167.34896 c 0,0 -0.926042,-3.96875 -3.836458,-7.01146 -2.910417,-3.04271 -5.423959,-3.30729 -5.423959,-3.30729" class="ddf f01 e03 w00 d00"/><path style="stroke-linejoin:miter;" d="M 24.410426,178.32916 104.40553,41.58364" class="ddf f01 e00 w00 d00"/><path style="stroke-linejoin:miter;" d="M 24.410426,178.32916 186.86459,119.0625" class="ddf f01 e01 w00 d00"/><path style="stroke-linejoin:miter;" d="m 183.67913,111.00451 11.17261,4.93674 -4.93673,11.17261 -5.58632,-2.46837 2.46837,-5.5863 -5.5863,-2.46837 z" class="ddf f00 e02 w00 d00"/><path style="stroke-linejoin:miter;" d="m 97.367111,36.73465 12.372839,-1.589208 1.58921,12.372836 -6.18643,0.794608 -0.79461,-6.186414 -6.186399,0.794602 z" class="ddf f03 e02 w00 d00"/><text xml:space="preserve" style="stroke-linejoin:miter;" x="200.57845" y="116.75639" class="ddf s00 f00 e02 w00 d00"><tspan style="stroke-linejoin:miter;" x="200.57845" y="116.75639" class="ddf f00 e02 w00 d00">u</tspan></text><text xml:space="preserve" x="53.871861" y="153.77446" class="ddf s01 f02 e02 w00 d00"><tspan x="53.871861" y="153.77446" class="ddf s01 f02 w00">a</tspan></text><text xml:space="preserve" style="stroke-linejoin:miter;" x="105.67377" y="29.969395" class="ddf s00 f03 e02 w00 d00"><tspan style="stroke-linejoin:miter;" x="105.67377" y="29.969395" class="ddf s00 f03 e02 w00 d00">v</tspan></text><text xml:space="preserve" x="95.342735" y="-114.33333" transform="rotate(69.7005)" class="ddf s01 f02 e02 w00 d00"><tspan x="95.342735" y="-114.33333" class="ddf f02 w00">opposite</tspan></text><text xml:space="preserve" x="256.31406" y="26.309244" class="ddf s01 f02 e02 w00 d00"><tspan x="256.31406" y="26.309244" class="ddf s01 f02 w00">adj = hyp · cos( a )</tspan></text><text xml:space="preserve" x="256.31406" y="58.000092" class="ddf s01 f02 e02 w00 d00"><tspan x="256.31406" y="58.000092" class="ddf s01 f02 w00">adj = |v| · cos( a )</tspan></text><text xml:space="preserve" x="256.31406" y="89.690941" class="ddf s01 f02 e02 w00 d00"><tspan x="256.31406" y="89.690941" class="ddf s01 f02 w00">adj = 1 · |v| · cos( a )</tspan></text><text xml:space="preserve" x="-95.481964" y="85.92865" transform="rotate(-60.844817)" class="ddf s01 f02 e02 w00 d00"><tspan x="-95.481964" y="85.92865" class="ddf s01 f02 w00">hypotenuse</tspan></text><text xml:space="preserve" x="16.712488" y="201.94576" transform="rotate(-19.113489)" class="ddf s01 f02 e02 w00 d00"><tspan x="16.712488" y="201.94576" class="ddf s01 f02 w00">adjacent</tspan></text><path style="stroke-linejoin:miter;" d="m 15.01424,173.69848 -4.625725,-2.70128 2.423273,1.37135 80.941225,-146.828063 -2.443495,-1.405533 4.825889,2.851385" class="ddf f01 e03 w01 d00"/><path style="stroke-linejoin:miter;" d="m 27.796618,189.65339 -1.750975,-5.06244 0.945784,2.61884 133.692383,-48.57668 -0.93887,-2.65796 1.80511,5.30671" class="ddf f01 e03 w01 d00"/><text xml:space="preserve" x="256.31406" y="123.29428" class="ddf s01 f02 e02 w00 d00"><tspan x="256.31406" y="123.29428" class="ddf s01 f02 w00">adj =</tspan></text><g><path style="stroke-linejoin:miter;" d="m 297.92778,111.96126 2.81909,-2.60709 2.94162,2.5629" class="ddf f01 e03 w01 d00"/><g transform="translate(50.33182,15.287299)" class="ddf"><text xml:space="preserve" x="242.35165" y="107.16193" class="ddf s01 f02 e02 w00 d00"><tspan x="242.35165" y="107.16193" class="ddf s01 f02 w00">|u|</tspan></text></g><g transform="translate(14.268639,16.185937)" class="ddf"><text xml:space="preserve" x="298.99619" y="106.32269" class="ddf s01 f02 e02 w00 d00"><tspan x="298.99619" y="106.32269" class="ddf s01 f02 w00">· |v| · cos( a )</tspan></text></g></g><g transform="translate(8.7275327,31.918182)" class="ddf"><path style="stroke-linejoin:miter;" d="m 297.92778,111.96126 2.81909,-2.60709 2.94162,2.5629" class="ddf f01 e03 w01 d00"/><g transform="translate(50.33182,15.287299)" class="ddf"><text xml:space="preserve" x="242.35165" y="107.16193" class="ddf s01 f02 e02 w00 d00"><tspan x="242.35165" y="107.16193" class="ddf s01 f02 w00">|u|</tspan></text></g><g transform="translate(14.268639,16.185937)" class="ddf"><text xml:space="preserve" x="298.99619" y="106.32269" class="ddf s01 f02 e02 w00 d00"><tspan x="298.99619" y="106.32269" class="ddf s01 f02 w00">· |v| · cos( a )</tspan></text></g></g><g transform="translate(14.816667,-22.099703)"><text xml:space="preserve" x="240.9621" y="176.77283" class="ddf s01 f02 e02 w00 d00"><tspan x="240.9621" y="176.77283" class="ddf s01 f02 w00">u · v =</tspan></text><path style="stroke-linejoin:miter;" d="m 242.13072,166.1961 2.81909,-2.60709 2.94162,2.5629" class="ddf f01 e03 w01 d00"/></g><g transform="translate(14.816667,9.5250004)" class="ddf"><g><text xml:space="preserve" x="240.9621" y="176.77283" class="ddf s01 f02 e02 w00 d00"><tspan x="240.9621" y="176.77283" class="ddf s01 f02 w00">u · v = adj</tspan></text><path style="stroke-linejoin:miter;" d="m 242.13072,166.1961 2.81909,-2.60709 2.94162,2.5629" class="ddf f01 e03 w01 d00"/></g></g><g transform="translate(-5.6126601)"><path d="m 245.32003,54.62989 c -8.91189,-7e-6 -16.1364,-7.098872 -16.1364,-15.855764 0,-8.756892 7.22451,-15.855759 16.1364,-15.855766" class="ddf f01 e04 w02"/><path style="stroke-linejoin:miter;" d="m 244.92014,50.859849 3.64596,3.860978 -3.86098,3.645965 -1.82298,-1.930491 1.93049,-1.82298 -1.82298,-1.930488 z" class="ddf f02 e02 w00 d00"/></g><g transform="matrix(-1,0,0,1,658.22738,31.617708)" class="ddf"><path style="stroke-linejoin:miter;" d="m 244.92014,50.859849 3.64596,3.860978 -3.86098,3.645965 -1.82298,-1.930491 1.93049,-1.82298 -1.82298,-1.930488 z" class="ddf f02 e02 w00 d00"/><path d="m 245.32003,54.62989 c -8.91189,-7e-6 -16.1364,-7.098872 -16.1364,-15.855764 0,-8.756892 7.22451,-15.855759 16.1364,-15.855766" class="ddf f01 e04 w02"/></g><g transform="translate(-5.6126601,63.300865)" class="ddf"><path style="stroke-linejoin:miter;" d="m 244.92014,50.859849 3.64596,3.860978 -3.86098,3.645965 -1.82298,-1.930491 1.93049,-1.82298 -1.82298,-1.930488 z" class="ddf f02 e02 w00 d00"/><path d="m 245.32003,54.62989 c -8.91189,-7e-6 -16.1364,-7.098872 -16.1364,-15.855764 0,-8.756892 7.22451,-15.855759 16.1364,-15.855766" class="ddf f01 e04 w02"/></g><g transform="matrix(-1,0,0,1,662.36851,94.984022)" class="ddf"><path style="stroke-linejoin:miter;" d="m 244.92014,50.859849 3.64596,3.860978 -3.86098,3.645965 -1.82298,-1.930491 1.93049,-1.82298 -1.82298,-1.930488 z" class="ddf f02 e02 w00 d00"/><path d="m 245.32003,54.62989 c -8.91189,-7e-6 -16.1364,-7.098872 -16.1364,-15.855764 0,-8.756892 7.22451,-15.855759 16.1364,-15.855766" class="ddf f01 e04 w02"/></g><g transform="translate(-5.6126601,126.71894)" class="ddf"><path style="stroke-linejoin:miter;" d="m 244.92014,50.859849 3.64596,3.860978 -3.86098,3.645965 -1.82298,-1.930491 1.93049,-1.82298 -1.82298,-1.930488 z" class="ddf f02 e02 w00 d00"/><path d="m 245.32003,54.62989 c -8.91189,-7e-6 -16.1364,-7.098872 -16.1364,-15.855764 0,-8.756892 7.22451,-15.855759 16.1364,-15.855766" class="ddf f01 e04 w02"/></g></g></svg>