<?xml version='1.0' encoding='UTF-8'?>
<svg xmlns="http://www.w3.org/2000/svg" width="1920" height="768" viewBox="0 0 507.99999 203.2" version="1.1" style="background-color:transparent;color-scheme:light dark" xml:space="preserve"><defs><style><![CDATA[.ddf {font-variation-settings:normal;display:inline;vector-effect:none;fill-opacity:1;stroke-linecap:round;stroke-linejoin:round;stroke-miterlimit:4;stroke-dashoffset:0;stroke-opacity:1;stop-color:#000000;font-style:normal;font-variant:normal;font-weight:normal;font-stretch:normal;line-height:normal;font-family:Arial;font-variant-ligatures:normal;font-variant-caps:normal;font-variant-numeric:normal;font-variant-east-asian:normal;text-align:start;text-decoration-color:#000000;writing-mode:lr-tb;direction:ltr;text-anchor:start;stop-opacity:1;font-variant-position:normal;font-variant-alternates:normal;text-indent:0;text-decoration-line:none;text-decoration-style:solid;letter-spacing:normal;word-spacing:normal;text-transform:none;text-orientation:mixed;dominant-baseline:auto;baseline-shift:baseline;white-space:normal;font-feature-settings:normal;opacity:1;} .dn {display:none}  .w00 {stroke-width:3} .w01 {stroke-width:1} .w02 {stroke-width:2} .a00 {fill-opacity:1} .s00 {font-size:16px} .s01 {font-size:13px} .s02 {font-size:8px} .e00 {stroke:#b4b4b4} .e01 {stroke:#0045ff} .e02 {stroke:#00ff45} .e03 {stroke:#ff4500} .e04 {stroke:none} .e05 {stroke:#808080} .f00 {fill:#b4b4b4} .f01 {fill:#0045ff} .f02 {fill:#00ff45} .f03 {fill:#ff4500} .f04 {fill:none} .f05 {fill:#808080} .d00 {stroke-dasharray:none} .d01 {stroke-dasharray:1,3}]]></style></defs><g><path d="M 43.367999,131.85855 84.814538,93.120082" class="ddf f04 e02 w00 d00"/><path d="m 99.713688,165.64482 1.600382,10.06461 -10.064602,1.6004 -0.8002,-5.03232 5.0323,-0.80019 -0.80019,-5.0323 z" class="ddf f03 e04 w00 d00"/><path d="m 78.925538,88.564012 10.40589,-0.19936 0.19935,10.40589 -5.20294,0.0997 -0.0997,-5.20295 -5.20295,0.0997 z" class="ddf f02 e04 w00 d00"/><path d="m 35.756983,43.710234 7.548466,-7.165416 7.16541,7.548455 -3.774229,3.582708 -3.582709,-3.774224 -3.774212,3.582701 z" class="ddf f01 e04 w00 d00"/><text xml:space="preserve" x="105.09837" y="184.94633" class="ddf s01 f03 e04 w00 d00"><tspan x="105.09837" y="184.94633" class="ddf s01 f03 e04 w00 d00">X</tspan></text><text xml:space="preserve" x="39.396439" y="31.612236" class="ddf s01 f01 e04 w00 d00"><tspan x="39.396439" y="31.612236" class="ddf s01 f01 e04 w00 d00">Z</tspan></text><text xml:space="preserve" x="90.252769" y="88.216316" class="ddf s01 f02 e04 w00 d00"><tspan x="90.252769" y="88.216316" class="ddf s01 f02 e04 w00 d00">Y</tspan></text><path d="m 43.367999,131.85855 52.297859,39.72272" class="ddf f04 e03 w00 d00"/><path d="M 43.307894,131.34283 43.078112,42.246281" class="ddf f04 e01 w00 d00"/><text xml:space="preserve" x="154.32642" y="33.3694" class="ddf s00 f05 e04 w00 d00"><tspan x="154.32642" y="33.3694" class="ddf s00 f05 e04 w00 d00">o</tspan></text><text xml:space="preserve" x="77.485825" y="136.37634" class="ddf s00 f05 e04 w00 d00"><tspan x="77.485825" y="136.37634" class="ddf s00 f05 e04 w00 d00">p</tspan></text><text xml:space="preserve" x="86.164055" y="128.19302" class="ddf s02 f05 e04 w00 d00"><tspan x="86.164055" y="128.19302" class="ddf s02 f05 e04 w00 d00">W</tspan></text><text xml:space="preserve" x="113.67884" y="85.209503" class="ddf s00 f05 e04 w00 d00"><tspan x="113.67884" y="85.209503" class="ddf s00 f05 e04 w00 d00">p</tspan></text><text xml:space="preserve" x="122.53096" y="76.925507" class="ddf s02 f05 e04 w00 d00"><tspan x="122.53096" y="76.925507" class="ddf s02 f05 e04 w00 d00">L</tspan></text><text xml:space="preserve" x="19.010918" y="180.70767" class="ddf s00 f05 e04 w00 d00"><tspan x="19.010918" y="180.70767" class="ddf s00 f05 e04 w00 d00">World</tspan></text><text xml:space="preserve" x="99.772438" y="21.515753" class="ddf s00 f05 e04 w00 d00"><tspan x="99.772438" y="21.515753" class="ddf s00 f05 e04 w00 d00">Local</tspan></text><text xml:space="preserve" x="94.482483" y="48.757469" class="ddf s00 f02 e04 w00 d00"><tspan x="94.482483" y="48.757469" class="ddf s00 f02 e04 w00 d00">u</tspan></text><text xml:space="preserve" x="206.46552" y="85.216354" class="ddf s00 f03 e04 w00 d00"><tspan x="206.46552" y="85.216354" class="ddf s00 f03 e04 w00 d00">v</tspan></text><text xml:space="preserve" x="139.04811" y="119.25656" class="ddf s00 f01 e04 w00 d00"><tspan x="139.04811" y="119.25656" class="ddf s00 f01 e04 w00 d00">n</tspan></text><text xml:space="preserve" x="23.047478" y="142.00186" class="ddf s00 f05 e04 w00 d00"><tspan x="23.047478" y="142.00186" class="ddf s00 f05 e04 w00 d00">O</tspan></text><circle cx="43.418182" cy="131.7289" r="3.7527339" class="ddf f00 e05 w02 d00"/><path d="m 152.76301,43.174374 -8.11777,56.147895" class="ddf f04 e01 w00 d00"/><path d="m 116.45887,51.642191 -7.54271,-6.853103 6.85308,-7.542725 3.77138,3.426556 -3.42655,3.771355 3.77135,3.426548 z" class="ddf f02 e04 w00 d00"/><path d="m 152.08983,99.194924 -7.99554,6.662856 -6.66284,-7.995552 3.99775,-3.331439 3.33145,3.997763 3.99776,-3.331445 z" class="ddf f01 e04 w00 d00"/><path d="m 200.03529,63.584349 1.75697,10.258443 -10.25844,1.756971 -0.87848,-5.12922 5.12922,-0.878487 -0.87851,-5.129194 z" class="ddf f03 e04 w00 d00"/><path d="M 152.76301,43.174374 115.7039,44.277051" class="ddf f04 e02 w00 d00"/><path d="m 153.13242,43.539225 42.80766,26.092109" class="ddf f04 e03 w00 d00"/><circle cx="-92.159149" cy="-129.35042" r="3.7527339" transform="rotate(141.29241)" class="ddf f00 e05 w02 d00"/><circle cx="-10.107269" cy="-161.35681" r="3.7527339" transform="rotate(141.29241)" class="ddf f00 e05 w02 d00"/><path d="M 44.991032,130.98655 C 62.128544,119.67784 82.387328,115.55323 107.06726,119.31166" class="ddf f04 e00 w01 d01"/><path d="m 152.6278,42.143498 c -10.57455,25.125063 -20.42973,51.55051 -43.56726,76.029152" class="ddf f04 e00 w01 d01"/></g></svg>