<?xml version='1.0' encoding='UTF-8'?>
<svg xmlns="http://www.w3.org/2000/svg" width="1920" height="768" viewBox="0 0 507.99999 203.2" version="1.1" style="background-color:transparent;color-scheme:light dark" xml:space="preserve"><defs><style><![CDATA[.ddf {font-variation-settings:normal;display:inline;vector-effect:none;fill-opacity:1;stroke-linecap:round;stroke-linejoin:round;stroke-miterlimit:4;stroke-dasharray:none;stroke-dashoffset:0;stroke-opacity:1;stop-color:#000000;line-height:normal;font-family:Arial;text-align:start;text-decoration-color:#000000;writing-mode:lr-tb;direction:ltr;text-anchor:start;stop-opacity:1;font-style:normal;font-variant:normal;font-weight:normal;font-stretch:normal;font-variant-ligatures:normal;font-variant-caps:normal;font-variant-numeric:normal;font-variant-east-asian:normal;font-variant-position:normal;font-variant-alternates:normal;font-feature-settings:normal;text-indent:0;text-decoration-line:none;text-decoration-style:solid;letter-spacing:normal;word-spacing:normal;text-transform:none;text-orientation:mixed;dominant-baseline:auto;baseline-shift:baseline;white-space:normal;} .dn {display:none}  .w00 {stroke-width:3} .w01 {stroke-width:1} .a00 {fill-opacity:1} .s00 {font-size:19px} .s01 {font-size:14px} .s02 {font-size:11px} .e00 {stroke:#0045ff} .e01 {stroke:#00ff45} .e02 {stroke:#ff4500} .e03 {stroke:none} .e04 {stroke:#777777} .f00 {fill:#0045ff} .f01 {fill:#00ff45} .f02 {fill:#ff4500} .f03 {fill:none} .f04 {fill:#777777} .d00 {stroke-dasharray:none}]]></style></defs><g><path d="m 32.543749,118.33489 19.314584,-7.67292 0.132292,16.93333" class="ddf f03 e04 w00"/><path d="m 59.218724,142.56498 c 0,0 1.793859,-4.20468 1.214341,-8.90299 -0.579521,-4.69832 -2.638042,-6.62181 -2.638042,-6.62181" class="ddf f03 e04 w00"/><path d="M 31.431983,136.52988 131.88749,93.475651" class="ddf f03 e01 w00"/><path d="m 199.45053,177.38203 6.02985,10.6226 -10.62259,6.02986 -3.01494,-5.31131 5.3113,-3.01492 -3.01492,-5.3113 z" class="ddf f02 e03 w00"/><path d="m 127.40079,85.909773 11.52719,4.768307 -4.76831,11.52718 -5.76359,-2.384148 2.38415,-5.763593 -5.76359,-2.384147 z" class="ddf f01 e03 w00"/><path d="m 22.309644,30.877888 9.047362,-8.588258 8.58825,9.047357 -4.523676,4.294129 -4.294125,-4.523675 -4.523667,4.294121 z" class="ddf f00 e03 w00"/><text xml:space="preserve" x="209.5652" y="200.01562" class="ddf s00 f02 e03 w00"><tspan x="209.5652" y="200.01562" class="ddf f02 e03 w00">u</tspan></text><text xml:space="preserve" x="26.102285" y="14.953817" class="ddf s00 f00 e03 w00"><tspan x="26.102285" y="14.953817" class="ddf f00 e03 w00">n</tspan></text><text xml:space="preserve" x="66.849159" y="138.50522" class="ddf s01 f04 e03 w00"><tspan x="66.849159" y="138.50522" class="ddf s01 f04 w00">a</tspan></text><text xml:space="preserve" x="143.83612" y="90.297371" class="ddf s00 f01 e03 w00"><tspan x="143.83612" y="90.297371" class="ddf s00 f01 e03 w00">v</tspan></text><text xml:space="preserve" x="197.55463" y="113.12627" class="ddf s01 f04 e03 w00"><tspan x="197.55463" y="113.12627" class="ddf s01 f04 w00"> a = asin(</tspan></text><text xml:space="preserve" x="175.15416" y="66.349464" class="ddf s01 f04 e03 w00"><tspan x="175.15416" y="66.349464" class="ddf s01 f04 w00"> a = asin( |u × v| / |u| |v| )</tspan></text><path d="m 31.6625,118.91359 15.742709,3.70417 -0.264583,18.52083" class="ddf f03 e04 w00"/><path d="M 31.431983,136.52988 197.2064,185.75116" class="ddf f03 e02 w00"/><path d="M 31.359942,135.91175 31.084532,29.123236" class="ddf f03 e00 w00"/><text xml:space="preserve" x="253.87357" y="90.91143" class="ddf s02 f04 e03 w00"><tspan x="253.87357" y="90.91143" class="ddf f04 w00">or</tspan></text><text xml:space="preserve" x="265.35007" y="115.06818" class="ddf s01 f04 e03 w00"><tspan x="265.35007" y="115.06818" class="ddf s01 f04 w00">u</tspan></text><text xml:space="preserve" x="290.74887" y="115.0445" class="ddf s01 f04 e03 w00"><tspan x="290.74887" y="115.0445" class="ddf s01 f04 w00">v</tspan></text><text xml:space="preserve" x="260.17398" y="113.00308" class="ddf s01 f04 e03 w00"><tspan x="260.17398" y="113.00308" class="ddf s01 f04 w00">|</tspan></text><text xml:space="preserve" x="299.74918" y="112.79581" class="ddf s01 f04 e03 w00"><tspan x="299.74918" y="112.79581" class="ddf s01 f04 w00">|</tspan></text><text xml:space="preserve" x="304.05209" y="113.02055" class="ddf s01 f04 e03 w00"><tspan x="304.05209" y="113.02055" class="ddf s01 f04 w00">)</tspan></text><text xml:space="preserve" x="277.51175" y="116.52995" class="ddf s01 f04 e03 w00"><tspan x="277.51175" y="116.52995" class="ddf s01 f04 w00">×</tspan></text><path d="m 266.37812,104.34737 2.81909,-2.60708 2.94162,2.56289" class="ddf f03 e04 w01"/><path d="m 291.40052,104.45283 2.81909,-2.60709 2.94162,2.5629" class="ddf f03 e04 w01"/></g></svg>