<?xml version='1.0' encoding='UTF-8'?>
<svg xmlns="http://www.w3.org/2000/svg" width="1920" height="768" viewBox="0 0 507.99999 203.2" version="1.1" style="background-color:transparent;color-scheme:light dark" xml:space="preserve"><defs><style><![CDATA[.ddf {font-variation-settings:normal;display:inline;fill-opacity:1;stroke-linecap:round;stroke-linejoin:round;stroke-miterlimit:4;stroke-dashoffset:0;stroke-opacity:1;vector-effect:none;stop-color:#000000;font-style:normal;font-variant:normal;font-weight:normal;font-stretch:normal;line-height:normal;font-family:Arial;font-variant-ligatures:normal;font-variant-caps:normal;font-variant-numeric:normal;font-variant-east-asian:normal;text-align:start;text-decoration-color:#000000;writing-mode:lr-tb;direction:ltr;text-anchor:start;stop-opacity:1;font-variant-position:normal;font-variant-alternates:normal;text-indent:0;text-decoration-line:none;text-decoration-style:solid;letter-spacing:normal;word-spacing:normal;text-transform:none;text-orientation:mixed;dominant-baseline:auto;baseline-shift:baseline;white-space:normal;font-feature-settings:normal;opacity:1;} .dn {display:none}  .w00 {stroke-width:3} .w01 {stroke-width:1} .w02 {stroke-width:2} .a00 {fill-opacity:1} .s00 {font-size:16px} .s01 {font-size:13px} .e00 {stroke:#b4b4b4} .e01 {stroke:#0045ff} .e02 {stroke:#00ff45} .e03 {stroke:#ff4500} .e04 {stroke:none} .e05 {stroke:#808080} .f00 {fill:#b4b4b4} .f01 {fill:#0045ff} .f02 {fill:#00ff45} .f03 {fill:#ff4500} .f04 {fill:none} .f05 {fill:#808080} .d00 {stroke-dasharray:none} .d01 {stroke-dasharray:1,3}]]></style></defs><g><path d="M 76.435417,33.371073 C 129.55211,51.88638 181.28897,75.369051 227.41163,119.06285" class="ddf f04 e00 w01 d01"/><path d="M 162.67282,131.85855 212.32144,84.653415" class="ddf f04 e02 w00 d00"/><path d="m 219.01851,165.64482 1.60038,10.06461 -10.0646,1.6004 -0.8002,-5.03232 5.0323,-0.80019 -0.80019,-5.0323 z" class="ddf f03 e04 w00 d00"/><path d="m 204.84495,81.684845 10.40589,-0.19936 0.19935,10.40589 -5.20294,0.0997 -0.0997,-5.20295 -5.20295,0.0997 z" class="ddf f02 e04 w00 d00"/><path d="m 155.06181,43.710234 7.54846,-7.165416 7.16541,7.548455 -3.77423,3.582708 -3.5827,-3.774224 -3.77422,3.582701 z" class="ddf f01 e04 w00 d00"/><text xml:space="preserve" x="224.4032" y="184.94633" class="ddf s01 f03 e04 w00 d00"><tspan x="224.4032" y="184.94633" class="ddf s01 f03 e04 w00 d00">X</tspan></text><text xml:space="preserve" x="158.70126" y="31.612236" class="ddf s01 f01 e04 w00 d00"><tspan x="158.70126" y="31.612236" class="ddf s01 f01 e04 w00 d00">Z</tspan></text><text xml:space="preserve" x="217.23051" y="82.924652" class="ddf s01 f02 e04 w00 d00"><tspan x="217.23051" y="82.924652" class="ddf s01 f02 e04 w00 d00">Y</tspan></text><path d="m 162.67282,131.85855 52.29786,39.72272" class="ddf f04 e03 w00 d00"/><path d="M 162.61272,131.34283 162.38294,42.246281" class="ddf f04 e01 w00 d00"/><text xml:space="preserve" x="273.63123" y="33.3694" class="ddf s00 f05 e04 w00 d00"><tspan x="273.63123" y="33.3694" class="ddf s00 f05 e04 w00 d00">o</tspan></text><text xml:space="preserve" x="56.365906" y="28.836658" class="ddf s00 f05 e04 w00 d00"><tspan x="56.365906" y="28.836658" class="ddf s00 f05 e04 w00 d00">p</tspan></text><text xml:space="preserve" x="234.42139" y="135.77371" class="ddf s00 f05 e04 w00 d00"><tspan x="234.42139" y="135.77371" class="ddf s00 f05 e04 w00 d00">q</tspan></text><text xml:space="preserve" x="138.31575" y="180.70767" class="ddf s00 f05 e04 w00 d00"><tspan x="138.31575" y="180.70767" class="ddf s00 f05 e04 w00 d00">World</tspan></text><text xml:space="preserve" x="302.15643" y="36.33242" class="ddf s00 f05 e04 w00 d00"><tspan x="302.15643" y="36.33242" class="ddf s00 f05 e04 w00 d00">Target</tspan></text><text xml:space="preserve" x="19.652069" y="93.174095" class="ddf s00 f05 e04 w00 d00"><tspan x="19.652069" y="93.174095" class="ddf s00 f05 e04 w00 d00">Source</tspan></text><text xml:space="preserve" x="213.78731" y="48.757469" class="ddf s00 f02 e04 w00 d00"><tspan x="213.78731" y="48.757469" class="ddf s00 f02 e04 w00 d00">u</tspan></text><text xml:space="preserve" x="325.77032" y="85.216354" class="ddf s00 f03 e04 w00 d00"><tspan x="325.77032" y="85.216354" class="ddf s00 f03 e04 w00 d00">v</tspan></text><text xml:space="preserve" x="258.35294" y="119.25656" class="ddf s00 f01 e04 w00 d00"><tspan x="258.35294" y="119.25656" class="ddf s00 f01 e04 w00 d00">n</tspan></text><text xml:space="preserve" x="142.35231" y="142.00186" class="ddf s00 f05 e04 w00 d00"><tspan x="142.35231" y="142.00186" class="ddf s00 f05 e04 w00 d00">O</tspan></text><circle cx="162.72301" cy="131.7289" r="3.7527339" class="ddf f00 e05 w02 d00"/><path d="m 272.06783,43.174374 -8.11777,56.147895" class="ddf f04 e01 w00 d00"/><path d="m 235.76369,51.642191 -7.54271,-6.853103 6.85308,-7.542725 3.77138,3.426556 -3.42655,3.771355 3.77135,3.426548 z" class="ddf f02 e04 w00 d00"/><path d="m 141.59905,52.363078 2.89847,9.770175 -9.77016,2.898501 -1.44926,-4.885104 4.88509,-1.449239 -1.44924,-4.885082 z" class="ddf f00 e04 w00 d00"/><path d="m 243.03751,85.859126 9.84975,-2.615296 2.61533,9.84974 -4.9249,1.307673 -1.30765,-4.92488 -4.92487,1.307653 z" class="ddf f00 e04 w00 d00"/><path d="m 271.39465,99.194924 -7.99554,6.662856 -6.66284,-7.995552 3.99775,-3.331439 3.33145,3.997763 3.99776,-3.331445 z" class="ddf f01 e04 w00 d00"/><path d="m 319.34011,63.584349 1.75697,10.258443 -10.25844,1.756971 -0.87848,-5.12922 5.12922,-0.878487 -0.87851,-5.129194 z" class="ddf f03 e04 w00 d00"/><path d="m 272.06783,43.174374 -37.05911,1.102677" class="ddf f04 e02 w00 d00"/><path d="M 272.43724,43.539225 315.2449,69.631334" class="ddf f04 e03 w00 d00"/><circle cx="-185.25839" cy="-203.95721" r="3.7527339" transform="rotate(141.29241)" class="ddf f00 e05 w02 d00"/><circle cx="-103.2065" cy="-235.96361" r="3.7527339" transform="rotate(141.29241)" class="ddf f00 e05 w02 d00"/><circle cx="-38.861485" cy="-72.487473" r="3.7527339" transform="rotate(141.29241)" class="ddf f00 e05 w02 d00"/><path d="m 164.29586,130.98655 c 17.13751,-11.30871 37.39629,-15.43332 62.07622,-11.67489" class="ddf f04 e00 w01 d01"/><path d="m 271.93262,42.143498 c -10.57455,25.125063 -20.42973,51.55051 -43.56726,76.029152" class="ddf f04 e00 w01 d01"/><text xml:space="preserve" x="116.53162" y="93.583817" class="ddf s00 f05 e04 w00 d00"><tspan x="116.53162" y="93.583817" class="ddf s00 f05 e04 w00 d00">d</tspan></text><text xml:space="preserve" x="117.65521" y="27.990025" class="ddf s00 f02 e04 w00 d00"><tspan x="117.65521" y="27.990025" class="ddf s00 f02 e04 w00 d00">a</tspan></text><text xml:space="preserve" x="53.638706" y="132.32086" class="ddf s00 f03 e04 w00 d00"><tspan x="53.638706" y="132.32086" class="ddf s00 f03 e04 w00 d00">b</tspan></text><text xml:space="preserve" x="36.066685" y="55.622063" class="ddf s00 f01 e04 w00 d00"><tspan x="36.066685" y="55.622063" class="ddf s00 f01 e04 w00 d00">c</tspan></text><path d="M 108.48026,81.101677 56.723862,57.86893" class="ddf f04 e01 w00 d00"/><path d="m 112.1655,36.989 8.6618,-5.369419 5.36944,8.661785 -4.33091,2.684732 -2.68471,-4.3309 -4.3309,2.684706 z" class="ddf f02 e04 w00 d00"/><path d="m 54.800806,65.061982 -4.209533,-9.518518 9.518523,-4.209511 2.104782,4.759243 -4.759256,2.104788 2.104789,4.759255 z" class="ddf f01 e04 w00 d00"/><path d="m 75.867112,120.94661 -10.346366,-1.12931 1.129301,-10.34636 5.173179,0.56466 -0.564648,5.17318 5.173163,0.56462 z" class="ddf f03 e04 w00 d00"/><path d="M 108.48026,81.101677 119.71919,36.963846" class="ddf f04 e02 w00 d00"/><path d="M 108.02795,81.356617 71.17808,115.34752" class="ddf f04 e03 w00 d00"/><circle cx="-116.70394" cy="68.528366" r="3.7527339" transform="rotate(-112.75965)" class="ddf f00 e05 w02 d00"/><text xml:space="preserve" x="363.22675" y="147.19698" class="ddf s00 f05 e04 w00 d00"><tspan x="363.22675" y="147.19698" class="ddf s00 f05 e04 w00 d00"/></text></g></svg>