<?xml version='1.0' encoding='UTF-8'?>
<svg xmlns="http://www.w3.org/2000/svg" width="1920" height="768" viewBox="0 0 507.99999 203.2" version="1.1" style="background-color:transparent;color-scheme:light dark" xml:space="preserve"><defs><style><![CDATA[.ddf {font-variation-settings:normal;display:inline;vector-effect:none;fill-opacity:1;stroke-linecap:round;stroke-linejoin:round;stroke-miterlimit:4;stroke-dasharray:none;stroke-dashoffset:0;stroke-opacity:1;stop-color:#000000;font-style:normal;font-variant:normal;font-weight:normal;font-stretch:normal;line-height:normal;font-family:Arial;font-variant-ligatures:normal;font-variant-position:normal;font-variant-caps:normal;font-variant-numeric:normal;font-variant-alternates:normal;font-variant-east-asian:normal;font-feature-settings:normal;text-indent:0;text-align:start;text-decoration-line:none;text-decoration-style:solid;text-decoration-color:#000000;letter-spacing:normal;word-spacing:normal;text-transform:none;writing-mode:lr-tb;direction:ltr;text-orientation:mixed;dominant-baseline:auto;baseline-shift:baseline;text-anchor:start;white-space:normal;stop-opacity:1;} .dn {display:none}  .w00 {stroke-width:3} .w01 {stroke-width:2} .a00 {fill-opacity:1} .s00 {font-size:16px} .s01 {font-size:14px} .e00 {stroke:#45ffff} .e01 {stroke:#00ff45} .e02 {stroke:#ff4500} .e03 {stroke:none} .e04 {stroke:#808080} .f00 {fill:#b4b4b4} .f01 {fill:#45ffff} .f02 {fill:#00ff45} .f03 {fill:#ff4500} .f04 {fill:none} .f05 {fill:#777777} .d00 {stroke-dasharray:none}]]></style></defs><g><path d="m 354.12808,57.361213 73.06925,26.856946" class="ddf f04 e00 w00"/><path d="m 355.36065,65.946293 -4.1084,-10.1748 10.1748,-4.108394 2.0542,5.087384 -5.08739,2.0542 2.05421,5.08739 z" class="ddf f01 e03 w00"/><path d="M 403.5237,138.3908 425.49899,98.919645" class="ddf f04 e01 w00"/><text xml:space="preserve" x="396.45267" y="116.5249" class="ddf s00 f02 e03 w00"><tspan x="396.45267" y="116.5249" class="ddf s00 f02 e03 w00">v</tspan></text><text xml:space="preserve" x="395.62894" y="62.177792" class="ddf s00 f01 e03 w00"><tspan x="395.62894" y="62.177792" class="ddf s00 f01 e03 w00">w</tspan></text><path d="m 387.78241,135.67689 7.54999,7.64463 -7.64462,7.55 -3.77501,-3.82233 3.82231,-3.77498 -3.77499,-3.82233 z" class="ddf f03 e03 w00"/><text xml:space="preserve" x="360.97717" y="164.9453" class="ddf s00 f03 e03 w00"><tspan x="360.97717" y="164.9453" class="ddf f03 e03 w00">u</tspan></text><path d="m 337.65879,143.76884 51.72765,-0.36014" class="ddf f04 e02 w00"/><path d="m 418.99017,94.687625 10.70305,-2.41871 2.41871,10.703055 -5.35151,1.20936 -1.20936,-5.351535 -5.35152,1.209375 z" class="ddf f02 e03 w00"/><circle cx="337.59085" cy="144.07471" r="4.4979167" class="ddf f00 e04 w01"/><circle cx="400.91168" cy="143.12907" r="4.4979167" class="ddf f00 e04 w01"/><circle cx="432.95618" cy="87.507324" r="4.4979167" class="ddf f00 e04 w01"/><circle cx="345.87836" cy="53.94315" r="4.4979167" class="ddf f00 e04 w01"/><g transform="translate(184.15982,87.983013)" class="ddf"><text xml:space="preserve" x="148.07886" y="75.013969" class="ddf s01 f05 e03 w00"><tspan x="148.07886" y="75.013969" class="ddf s01 f05 w00">p</tspan></text></g><g transform="translate(243.11639,88.316413)" class="ddf"><text xml:space="preserve" x="148.07886" y="75.013969" class="ddf s01 f05 e03 w00"><tspan x="148.07886" y="75.013969" class="ddf s01 f05 w00">p+u</tspan></text></g><g transform="translate(294.52429,15.321794)" class="ddf"><text xml:space="preserve" x="148.07886" y="75.013969" class="ddf s01 f05 e03 w00"><tspan x="148.07886" y="75.013969" class="ddf s01 f05 w00">p+u+v</tspan></text></g><path d="m 85.357569,135.67689 7.54999,7.64463 -7.64462,7.55 -3.77501,-3.82233 3.82231,-3.77498 -3.77499,-3.82233 z" class="ddf f03 e03 w00"/><text xml:space="preserve" x="58.552345" y="164.9453" class="ddf s00 f03 e03 w00"><tspan x="58.552345" y="164.9453" class="ddf f03 e03 w00">u</tspan></text><path d="m 35.233949,143.76884 51.72765,-0.36014" class="ddf f04 e02 w00"/><circle cx="35.166023" cy="144.07471" r="4.4979167" class="ddf f00 e04 w01"/><circle cx="98.486855" cy="143.12907" r="4.4979167" class="ddf f00 e04 w01"/><g transform="translate(-118.26502,87.983013)" class="ddf"><text xml:space="preserve" x="148.07886" y="75.013969" class="ddf s01 f05 e03 w00"><tspan x="148.07886" y="75.013969" class="ddf s01 f05 w00">p</tspan></text></g><g transform="translate(-59.308451,88.316413)" class="ddf"><text xml:space="preserve" x="148.07886" y="75.013969" class="ddf s01 f05 e03 w00"><tspan x="148.07886" y="75.013969" class="ddf s01 f05 w00">p+u</tspan></text></g><path d="m 240.80667,138.3908 21.9753,-39.471155" class="ddf f04 e01 w00"/><text xml:space="preserve" x="233.73564" y="116.5249" class="ddf s00 f02 e03 w00"><tspan x="233.73564" y="116.5249" class="ddf s00 f02 e03 w00">v</tspan></text><path d="m 225.06538,135.67689 7.54999,7.64463 -7.64462,7.55 -3.77501,-3.82233 3.82231,-3.77498 -3.77499,-3.82233 z" class="ddf f03 e03 w00"/><text xml:space="preserve" x="198.26015" y="164.9453" class="ddf s00 f03 e03 w00"><tspan x="198.26015" y="164.9453" class="ddf f03 e03 w00">u</tspan></text><path d="m 174.94176,143.76884 51.72765,-0.36014" class="ddf f04 e02 w00"/><path d="m 256.27315,94.687625 10.70305,-2.41871 2.41871,10.703055 -5.35151,1.20936 -1.20936,-5.351535 -5.35152,1.209375 z" class="ddf f02 e03 w00"/><circle cx="174.87383" cy="144.07471" r="4.4979167" class="ddf f00 e04 w01"/><circle cx="238.19466" cy="143.12907" r="4.4979167" class="ddf f00 e04 w01"/><circle cx="270.23917" cy="87.507324" r="4.4979167" class="ddf f00 e04 w01"/><g transform="translate(21.442788,87.983013)" class="ddf"><text xml:space="preserve" x="148.07886" y="75.013969" class="ddf s01 f05 e03 w00"><tspan x="148.07886" y="75.013969" class="ddf s01 f05 w00">p</tspan></text></g><g transform="translate(80.399356,88.316413)" class="ddf"><text xml:space="preserve" x="148.07886" y="75.013969" class="ddf s01 f05 e03 w00"><tspan x="148.07886" y="75.013969" class="ddf s01 f05 w00">p+u</tspan></text></g><g transform="translate(131.80726,15.321794)" class="ddf"><text xml:space="preserve" x="148.07886" y="75.013969" class="ddf s01 f05 e03 w00"><tspan x="148.07886" y="75.013969" class="ddf s01 f05 w00">p+u+v</tspan></text></g><g transform="translate(167.48322,-35.550618)" class="ddf"><text xml:space="preserve" x="148.07886" y="75.013969" class="ddf s01 f05 e03 w00"><tspan x="148.07886" y="75.013969" class="ddf s01 f05 w00">p+u+v+w</tspan></text></g></g></svg>