<?xml version='1.0' encoding='UTF-8'?>
<svg xmlns="http://www.w3.org/2000/svg" width="1920" height="768" viewBox="0 0 507.99999 203.2" version="1.1" style="background-color:transparent;color-scheme:light dark" xml:space="preserve"><defs><style><![CDATA[.ddf {display:inline;fill-opacity:1;stroke-linecap:round;stroke-dasharray:none;stroke-opacity:1;font-variation-settings:normal;vector-effect:none;stroke-miterlimit:4;stroke-dashoffset:0;stop-color:#000000;line-height:normal;font-family:Arial;text-align:start;text-decoration-color:#000000;writing-mode:lr-tb;direction:ltr;text-anchor:start;stop-opacity:1;font-style:normal;font-variant:normal;font-weight:normal;font-stretch:normal;font-variant-ligatures:normal;font-variant-caps:normal;font-variant-numeric:normal;font-variant-east-asian:normal;} .dn {display:none}  .w00 {stroke-width:3} .w01 {stroke-width:1} .a00 {fill-opacity:1} .s00 {font-size:19px} .s01 {font-size:14px} .e00 {stroke:#ff4500} .e01 {stroke:none} .e02 {stroke:#777777} .e03 {stroke:#00ff45} .f00 {fill:#ff4500} .f01 {fill:none} .f02 {fill:#00ff45} .f03 {fill:#777777} .d00 {stroke-dasharray:none}]]></style></defs><g><path d="m 188.95094,168.30611 c 0,0 -0.70736,-11.88549 -11.19066,-11.9232 -12.7272,0.22701 -13.2968,12.2566 -13.2968,12.2566" class="ddf f01 e02 w00"/><path style="stroke-linejoin:miter;" d="m 177.59828,169.67179 118.42695,-0.77494" class="ddf f01 e00 w00"/><path style="stroke-linejoin:miter;" d="m 296.20368,160.2616 8.4568,8.81369 -8.81367,8.45681 -4.22842,-4.40685 4.40684,-4.2284 -4.2284,-4.40684 z" class="ddf f00 e01 w00"/><g transform="rotate(-90,116.94921,109.00364)"><path style="stroke-linejoin:miter;" d="M 56.465842,167.68352 56.182603,48.198224" class="ddf f01 e03 w00"/><path style="stroke-linejoin:miter;" d="m 47.364843,47.96731 9.04866,-8.586863 8.58687,9.048667 -4.52434,4.293437 -4.29343,-4.524327 -4.52432,4.293421 z" class="ddf f02 e01 w00"/></g><g transform="rotate(-90,110.58098,-16.516387)"><path style="stroke-linejoin:miter;" d="M 66.76193,49.623564 66.47869,69.577688" class="ddf f01 e02 w01"/><path style="stroke-linejoin:miter;" d="m 71.46353,66.230981 -5.06491,4.80643 -4.80644,-5.06492 2.53246,-2.403219 2.40322,2.532457 2.53244,-2.403209 z" class="ddf f03 e01 w00"/></g><text xml:space="preserve" style="stroke-linejoin:miter;" x="310.5296" y="172.98422" class="ddf s00 f00 e01 w00"><tspan style="stroke-linejoin:miter;" x="310.5296" y="172.98422" class="ddf f00 e01 w00">u</tspan></text><text xml:space="preserve" x="173.24458" y="150.69664" class="ddf s01 f03 e01 w00"><tspan x="173.24458" y="150.69664" class="ddf s01 f03 w00">a</tspan></text><text xml:space="preserve" x="147.15388" y="32.158676" class="ddf s01 f03 e01 w00"><tspan x="147.15388" y="32.158676" class="ddf s01 f03 w00">= 1</tspan></text><text xml:space="preserve" x="205.65132" y="31.862185" class="ddf s01 f03 e01 w00"><tspan x="205.65132" y="31.862185" class="ddf s01 f03 w00">a = 0</tspan></text><g transform="rotate(-90,155.04428,31.314506)"><path style="stroke-linejoin:miter;" d="M 66.76193,49.623564 66.47869,69.577688" class="ddf f01 e02 w01"/><path style="stroke-linejoin:miter;" d="m 71.46353,66.230981 -5.06491,4.80643 -4.80644,-5.06492 2.53246,-2.403219 2.40322,2.532457 2.53244,-2.403209 z" class="ddf f03 e01 w00"/></g><text xml:space="preserve" x="138.82114" y="124.82705" class="ddf s01 f03 e01 w00"><tspan x="138.82114" y="124.82705" class="ddf s01 f03 w00">= -1</tspan></text><text xml:space="preserve" x="205.65132" y="123.03384" class="ddf s01 f03 e01 w00"><tspan x="205.65132" y="123.03384" class="ddf s01 f03 w00">a = π</tspan></text><text xml:space="preserve" style="stroke-linejoin:miter;" x="30.600195" y="174.1705" class="ddf s00 f02 e01 w00"><tspan style="stroke-linejoin:miter;" x="30.600195" y="174.1705" class="ddf f02 e01 w00">v</tspan></text><path style="stroke-linejoin:miter;" d="m 177.59828,71.637327 118.42695,-0.77494" class="ddf f01 e00 w00"/><path style="stroke-linejoin:miter;" d="m 296.20368,62.227137 8.4568,8.81369 -8.81367,8.45681 -4.22842,-4.40685 4.40684,-4.2284 -4.2284,-4.40684 z" class="ddf f00 e01 w00"/><g transform="rotate(90,147.03701,162.06101)"><path style="stroke-linejoin:miter;" d="M 56.465842,131.4356 56.182603,48.198224" class="ddf f01 e03 w00"/><path style="stroke-linejoin:miter;" d="m 47.364843,47.96731 9.04866,-8.586863 8.58687,9.048667 -4.52434,4.293437 -4.29343,-4.524327 -4.52432,4.293421 z" class="ddf f02 e01 w00"/></g><text xml:space="preserve" style="stroke-linejoin:miter;" x="292.56909" y="95.342422" class="ddf s00 f00 e01 w00"><tspan style="stroke-linejoin:miter;" x="292.56909" y="95.342422" class="ddf f00 e01 w00">u</tspan></text><text xml:space="preserve" x="163.7357" y="74.429108" class="ddf s01 f03 e01 w00"><tspan x="163.7357" y="74.429108" class="ddf s01 f03 w00">a</tspan></text><text xml:space="preserve" style="stroke-linejoin:miter;" x="256.6033" y="96.341606" class="ddf s00 f02 e01 w00"><tspan style="stroke-linejoin:miter;" x="256.6033" y="96.341606" class="ddf f02 e01 w00">v</tspan></text><path style="stroke-linejoin:miter;" d="m 104.61355,114.40391 2.81909,-2.60709 2.94162,2.5629" class="ddf f01 e02 w01"/><path style="stroke-linejoin:miter;" d="m 125.78021,114.5362 2.81909,-2.60709 2.94162,2.5629" class="ddf f01 e02 w01"/><g class="ddf"><path style="stroke-linejoin:miter;" d="m 113.2125,21.602116 2.81909,-2.60709 2.94162,2.5629" class="ddf f01 e02 w01"/><path style="stroke-linejoin:miter;" d="m 134.33605,21.615405 2.81909,-2.60709 2.94162,2.5629" class="ddf f01 e02 w01"/><g transform="translate(-7.752015,-14.295924)"><text xml:space="preserve" x="119.70226" y="46.312435" class="ddf s01 f03 e01 w00"><tspan x="119.70226" y="46.312435" class="ddf s01 f03 w00">u</tspan></text><text xml:space="preserve" x="141.14613" y="46.312435" class="ddf s01 f03 e01 w00"><tspan x="141.14613" y="46.312435" class="ddf s01 f03 w00">v</tspan></text><text xml:space="preserve" x="132.41042" y="42.737698" class="ddf s01 f03 e01 w00"><tspan x="132.41042" y="42.737698" class="ddf s01 f03 w00">.</tspan></text></g></g><g transform="translate(-8.2511807,92.925033)" class="ddf"><path style="stroke-linejoin:miter;" d="m 113.2125,21.602116 2.81909,-2.60709 2.94162,2.5629" class="ddf f01 e02 w01"/><path style="stroke-linejoin:miter;" d="m 134.33605,21.615405 2.81909,-2.60709 2.94162,2.5629" class="ddf f01 e02 w01"/><g transform="translate(-7.752015,-14.295924)"><text xml:space="preserve" x="119.70226" y="46.312435" class="ddf s01 f03 e01 w00"><tspan x="119.70226" y="46.312435" class="ddf s01 f03 w00">u</tspan></text><text xml:space="preserve" x="141.14613" y="46.312435" class="ddf s01 f03 e01 w00"><tspan x="141.14613" y="46.312435" class="ddf s01 f03 w00">v</tspan></text><text xml:space="preserve" x="132.41042" y="42.737698" class="ddf s01 f03 e01 w00"><tspan x="132.41042" y="42.737698" class="ddf s01 f03 w00">.</tspan></text></g></g></g></svg>