<?xml version='1.0' encoding='UTF-8'?>
<svg xmlns="http://www.w3.org/2000/svg" width="1920" height="768" viewBox="0 0 507.99999 203.2" version="1.1" style="background-color:transparent;color-scheme:light dark" xml:space="preserve"><defs><style><![CDATA[.ddf {font-variation-settings:normal;display:inline;stroke-linecap:round;stroke-linejoin:round;stroke-miterlimit:4;stroke-dashoffset:0;stroke-opacity:1;stop-color:#000000;vector-effect:none;line-height:normal;font-family:Arial;text-align:start;text-decoration-color:#000000;writing-mode:lr-tb;direction:ltr;text-anchor:start;stop-opacity:1;font-style:normal;font-variant:normal;font-weight:normal;font-stretch:normal;font-variant-ligatures:normal;font-variant-caps:normal;font-variant-numeric:normal;font-variant-east-asian:normal;font-variant-position:normal;font-variant-alternates:normal;font-feature-settings:normal;text-indent:0;text-decoration-line:none;text-decoration-style:solid;letter-spacing:normal;word-spacing:normal;text-transform:none;text-orientation:mixed;dominant-baseline:auto;baseline-shift:baseline;white-space:normal;opacity:1;} .dn {display:none}  .w00 {stroke-width:3} .w01 {stroke-width:2} .w02 {stroke-width:1.3} .w03 {stroke-width:8.1} .w04 {stroke-width:2.7} .w05 {stroke-width:1} .a00 {fill-opacity:0.3} .a01 {fill-opacity:0.2} .a02 {fill-opacity:1} .s00 {font-size:16px} .s01 {font-size:11px} .s02 {font-size:19px} .s03 {font-size:18px} .s04 {font-size:14px} .e00 {stroke:#0045ff} .e01 {stroke:#45ffff} .e02 {stroke:#00ff45} .e03 {stroke:#ff4500} .e04 {stroke:none} .e05 {stroke:#777777} .e06 {stroke:#808080} .f00 {fill:#b4b4b4} .f01 {fill:#0045ff} .f02 {fill:#45ffff} .f03 {fill:#00ff00} .f04 {fill:#00ff45} .f05 {fill:#ff4500} .f06 {fill:none} .f07 {fill:#777777} .d00 {stroke-dasharray:none} .d01 {stroke-dasharray:1,3}]]></style></defs><g><path d="m 46.175948,156.13933 -2.380622,-3.69816 1.255446,1.92778 98.109098,-41.71604 1.0885,2.1614 -2.00672,-4.33662" class="ddf f06 a02 e05 w05 d00"/><path d="m 95.398689,152.15532 8.323451,2.32609 -2.92683,8.83663" class="ddf f06 a02 e05 w05 d00"/><path d="m 50.018607,58.506981 0.07327,7.013188 -8.274488,0.102283" class="ddf f06 a02 e05 w05 d00"/><path d="M 93.116269,159.15642 122.75543,57.878244" class="ddf f06 a02 e05 w05 d01"/><path d="M 122.47553,56.782687 40.944381,58.268382" class="ddf f06 a02 e05 w05 d01"/><path d="M 139.66854,102.91532 123.29409,57.416705" class="ddf f06 a02 e05 w05 d01"/><path d="M 86.431933,126.30875 C 85.941878,117.56323 80.724306,112.30492 73.196947,110.8211" class="ddf f06 a02 e05 w05 d00"/><path d="M 41.04335,145.90281 155.59342,96.405347" class="ddf f06 a02 e02 w00 d00"/><path d="m 172.39251,174.40711 6.02985,10.6226 -10.62259,6.02986 -3.01494,-5.31131 5.3113,-3.01492 -3.01492,-5.3113 z" class="ddf f05 a02 e04 w00 d00"/><path d="m 148.68704,90.299523 11.52719,4.768303 -4.76831,11.527184 -5.76359,-2.38415 2.38415,-5.763594 -5.76359,-2.38414 z" class="ddf f04 a02 e04 w00 d00"/><path d="m 31.92101,40.250822 9.04736,-8.588258 8.58825,9.047357 -4.52367,4.294129 -4.29413,-4.523675 -4.52366,4.294121 z" class="ddf f01 a02 e04 w00 d00"/><text xml:space="preserve" x="182.14241" y="193.39362" class="ddf s02 f05 a02 e04 w00 d00"><tspan x="182.14241" y="193.39362" class="ddf f05 a02 e04 w00 d00">X</tspan></text><text xml:space="preserve" x="35.713669" y="24.32675" class="ddf s02 f01 a02 e04 w00 d00"><tspan x="35.713669" y="24.32675" class="ddf f01 a02 e04 w00 d00">Z</tspan></text><text xml:space="preserve" x="-113.54307" y="23.763508" transform="rotate(-90)" class="ddf s04 f07 a02 e04 w00 d00"><tspan x="-113.54307" y="23.763508" class="ddf s04 f07 a02 e04 w00 d00">u · Z</tspan></text><text xml:space="preserve" x="95.99189" y="151.75076" transform="rotate(18.805994)" class="ddf s04 f07 a02 e04 w00 d00"><tspan x="95.99189" y="151.75076" class="ddf s04 f07 a02 e04 w00 d00">u · X</tspan></text><text xml:space="preserve" x="55.741642" y="175.57521" transform="rotate(-22.011215)" class="ddf s04 f07 a02 e04 w00 d00"><tspan x="55.741642" y="175.57521" class="ddf s04 f07 a02 e04 w00 d00">u · Y</tspan></text><text xml:space="preserve" x="161.60902" y="97.695145" class="ddf s02 f04 a02 e04 w00 d00"><tspan x="161.60902" y="97.695145" class="ddf s02 f04 a02 e04 w00 d00">Y</tspan></text><path d="m 41.04335,145.90281 130.22756,37.24761" class="ddf f06 a02 e03 w00 d00"/><text xml:space="preserve" x="125.53394" y="53.945881" class="ddf s03 f02 a02 e04 w00 d00"><tspan x="125.53394" y="53.945881" class="ddf s03 f02 a02 w00">u</tspan></text><path d="m 110.71142,56.364297 12.47372,-0.138679 0.13867,12.473713 -6.23685,0.06934 -0.0693,-6.236861 -6.23686,0.06934 z" class="ddf f02 a02 e04 w00 d00"/><path d="M 72.92001,110.37119 C 64.941754,99.858375 54.833344,93.218568 40.959378,93.425227" class="ddf f06 a02 e05 w05 d00"/><path d="m 79.680906,156.55696 c 2.29333,-14.74866 1.676915,-29.65047 -6.187701,-44.93376" class="ddf f06 a02 e05 w05 d00"/><path d="M 40.97131,145.28468 40.6959,38.49617" class="ddf f06 a02 e00 w00 d00"/><path d="m 136.44372,94.536518 -6.92368,3.237856 2.85016,6.797206" class="ddf f06 a02 e05 w05 d00"/><g transform="matrix(0.8476406,0,0,1,226.99617,13.09868)" class="ddf w05"><path d="m 310.86744,83.515912 -4.40645,4.228683 2.79157,2.909383 -308.0240967,0.772046 a 1.5,1.5 0 0 0 -1.49603276,1.503784 1.5,1.5 0 0 0 1.50378416,1.496033 l 307.8866353,-0.771529 -2.84066,2.725415 4.22869,4.406963 8.81341,-8.456845 z" class="ddf f05 a01 w05"/></g><g transform="translate(171.80417,-20.206695)" class="ddf"><path d="m 56.41368,39.380536 -9.04906,8.586556 4.293795,4.524789 3.026172,-2.872176 0.282153,153.170495 c 10e-4,0.82856 0.673676,1.49933 1.502234,1.4981 0.828961,-0.001 1.499673,-0.67482 1.497583,-1.50378 l -0.28112,-153.003068 2.790527,2.940906 4.524272,-4.293278 z" class="ddf f03 a00"/></g><g transform="matrix(0,-0.3675302,-0.3675302,0,263.71328,113.81442)" class="ddf w04"><path d="M 56.465842,81.320805 56.182603,48.198224" class="ddf f06 a02 e02 w02 d00"/><path d="m 47.364843,47.96731 9.04866,-8.586863 8.58687,9.048667 -4.52434,4.293437 -4.29343,-4.524327 -4.52432,4.293421 z" class="ddf f04 a02 e04 w03 d00"/></g><g transform="matrix(0,-0.3675302,-0.3675302,0,320.11928,113.06606)" class="ddf w04"><path d="M 56.465842,81.320805 56.182603,48.198224" class="ddf f06 a02 e02 w02 d00"/><path d="m 47.364843,47.96731 9.04866,-8.586863 8.58687,9.048667 -4.52434,4.293437 -4.29343,-4.524327 -4.52432,4.293421 z" class="ddf f04 a02 e04 w03 d00"/></g><g transform="matrix(0,-0.3675302,-0.3675302,0,378.36045,113.06606)" class="ddf w04"><path d="M 56.465842,81.320805 56.182603,48.198224" class="ddf f06 a02 e02 w02 d00"/><path d="m 47.364843,47.96731 9.04866,-8.586863 8.58687,9.048667 -4.52434,4.293437 -4.29343,-4.524327 -4.52432,4.293421 z" class="ddf f04 a02 e04 w03 d00"/></g><g transform="matrix(0,-0.3675302,-0.3675302,0,446.96296,113.06606)" class="ddf w04"><path d="M 56.465842,81.320805 56.182603,48.198224" class="ddf f06 a02 e02 w02 d00"/><path d="m 47.364843,47.96731 9.04866,-8.586863 8.58687,9.048667 -4.52434,4.293437 -4.29343,-4.524327 -4.52432,4.293421 z" class="ddf f04 a02 e04 w03 d00"/></g><g transform="matrix(0,-0.3675302,-0.3675302,0,487.56165,113.06606)" class="ddf w04"><path d="M 56.465842,81.320805 56.182603,48.198224" class="ddf f06 a02 e02 w02 d00"/><path d="m 47.364843,47.96731 9.04866,-8.586863 8.58687,9.048667 -4.52434,4.293437 -4.29343,-4.524327 -4.52432,4.293421 z" class="ddf f04 a02 e04 w03 d00"/></g><g transform="matrix(0,-0.3675302,-0.3675302,0,263.67426,104.81929)" class="ddf w04"><path d="M 56.465842,81.320805 56.182603,48.198224" class="ddf f06 a02 e03 w02 d00"/><path d="m 47.364843,47.96731 9.04866,-8.586863 8.58687,9.048667 -4.52434,4.293437 -4.29343,-4.524327 -4.52432,4.293421 z" class="ddf f05 a02 e04 w03 d00"/></g><g transform="matrix(0,-0.3675302,0.3675302,0,442.20335,105.25629)" class="ddf w04"><path d="M 56.465842,81.320805 56.182603,48.198224" class="ddf f06 a02 e03 w02 d00"/><path d="m 47.364843,47.96731 9.04866,-8.586863 8.58687,9.048667 -4.52434,4.293437 -4.29343,-4.524327 -4.52432,4.293421 z" class="ddf f05 a02 e04 w03 d00"/></g><g transform="matrix(-0.26343339,-0.25628363,-0.25628363,0.26343339,326.07094,85.365065)" class="ddf w04"><path d="M 56.465842,81.320805 56.182603,48.198224" class="ddf f06 a02 e03 w02 d00"/><path d="m 47.364843,47.96731 9.04866,-8.586863 8.58687,9.048667 -4.52434,4.293437 -4.29343,-4.524327 -4.52432,4.293421 z" class="ddf f05 a02 e04 w03 d00"/></g><g transform="matrix(0.26343339,-0.25628363,0.25628363,0.26343339,381.15752,85.293145)" class="ddf w04"><path d="M 56.465842,81.320805 56.182603,48.198224" class="ddf f06 a02 e03 w02 d00"/><path d="m 47.364843,47.96731 9.04866,-8.586863 8.58687,9.048667 -4.52434,4.293437 -4.29343,-4.524327 -4.52432,4.293421 z" class="ddf f05 a02 e04 w03 d00"/></g><text xml:space="preserve" x="486.90088" y="90.787956" class="ddf s02 f05 a01 e04 w00 d00"><tspan x="486.90088" y="90.787956" class="ddf f05 a01 e04 w00 d00">x</tspan></text><text xml:space="preserve" x="473.18887" y="189.93651" class="ddf s01 f07 a02 e04 w00 d00"><tspan x="473.18887" y="189.93651" class="ddf f07 a02 w00">π</tspan></text><text xml:space="preserve" x="309.59625" y="32.78484" class="ddf s01 f07 a02 e04 w00 d00"><tspan x="309.59625" y="32.78484" class="ddf f07 a02 w00">|u| · abs( cos( a ) )</tspan></text><text xml:space="preserve" x="347.41492" y="188.74828" class="ddf s01 f07 a02 e04 w00 d00"><tspan x="347.41492" y="188.74828" class="ddf f07 a02 w00">π/2</tspan></text><text xml:space="preserve" x="405.33533" y="189.86406" class="ddf s01 f07 a02 e04 w00 d00"><tspan x="405.33533" y="189.86406" class="ddf f07 a02 w00">3π/4</tspan></text><text xml:space="preserve" x="286.50015" y="189.86406" class="ddf s01 f07 a02 e04 w00 d00"><tspan x="286.50015" y="189.86406" class="ddf f07 a02 w00">π/4</tspan></text><text xml:space="preserve" x="204.0941" y="48.609589" class="ddf s00 f07 a02 e04 w00 d00"><tspan x="204.0941" y="48.609589" class="ddf f07 a02 w00">|u|</tspan></text><text xml:space="preserve" x="242.14206" y="31.035194" class="ddf s02 f04 a01 e04 w00 d00"><tspan x="242.14206" y="31.035194" class="ddf f04 a01 e04 w00 d00">y</tspan></text><path d="m 228.7532,43.274841 c 5.58626,0.03315 11.17255,0.519963 16.75889,1.480926 23.74515,4.087021 47.49027,16.695406 71.23542,33.267118 12.34624,8.61644 24.69249,18.214952 37.03874,27.775275" class="ddf f06 a02 e05 w00 d00"/><path d="m 476.22254,42.812616 c -6.01028,-0.09403 -12.02059,0.395136 -18.03097,1.49739 -22.66338,4.158677 -45.32673,16.988147 -67.99011,33.850433 -11.78379,8.767538 -23.56757,18.534348 -35.35136,28.262321" class="ddf f06 a02 e05 w00 d00"/><path d="M 354.4873,43.018363 V 176.5623" class="ddf f06 a02 e05 w05 d01"/><path d="M 290.32087,43.018363 V 176.5623" class="ddf f06 a02 e05 w05 d01"/><path d="M 477.23589,175.56414 H 229.97848" class="ddf f06 a02 e05 w05 d01"/><path d="M 476.48576,42.601822 H 228.26836" class="ddf f06 a02 e05 w05 d01"/><path d="M 417.29571,43.018363 V 176.5623" class="ddf f06 a02 e05 w05 d01"/><path d="M 477.0486,42.559544 V 175.69064" class="ddf f06 a02 e05 w05 d01"/><g transform="matrix(-0.3675302,0,0,0.3675302,369.24342,62.40544)" class="ddf w04"><path d="M 56.465842,81.320805 56.182603,48.198224" class="ddf f06 a02 e03 w02 d00"/><path d="m 47.364843,47.96731 9.04866,-8.586863 8.58687,9.048667 -4.52434,4.293437 -4.29343,-4.524327 -4.52432,4.293421 z" class="ddf f05 a02 e04 w03 d00"/></g><path d="m 27.824883,145.29541 5.480657,-0.105 -2.632013,0.0337 -0.214676,-86.707343 -2.350194,0.03886 4.69941,-0.110048" class="ddf f06 a02 e05 w05 d00"/><path d="m 35.939908,159.53416 1.793675,-4.40961 -0.897661,2.27146 52.169858,15.28277 -0.672329,1.95633 1.311341,-3.64913" class="ddf f06 a02 e05 w05 d00"/><path d="M 41.220442,145.71334 116.90239,62.22412" class="ddf f06 a02 e01 w00 d00"/><circle cx="40.82637" cy="146.26727" r="4.4979167" class="ddf f00 a02 e06 w01 d00"/><circle cx="354.34274" cy="106.96476" r="4.4979167" class="ddf f00 a02 e06 w01 d00"/></g></svg>