<?xml version='1.0' encoding='UTF-8'?>
<svg xmlns="http://www.w3.org/2000/svg" width="1920" height="768" viewBox="0 0 507.99999 203.2" version="1.1" style="background-color:transparent;color-scheme:light dark" xml:space="preserve"><defs><style><![CDATA[.ddf {font-variation-settings:normal;opacity:1;vector-effect:none;stroke-linecap:round;stroke-linejoin:round;stroke-miterlimit:4;stroke-dashoffset:0;stroke-opacity:1;display:inline;stop-color:#000000;line-height:normal;font-family:Arial;text-align:start;text-decoration-color:#000000;writing-mode:lr-tb;direction:ltr;text-anchor:start;stop-opacity:1;font-style:normal;font-variant:normal;font-weight:normal;font-stretch:normal;font-variant-ligatures:normal;font-variant-caps:normal;font-variant-numeric:normal;font-variant-east-asian:normal;font-variant-position:normal;font-variant-alternates:normal;font-feature-settings:normal;text-indent:0;text-decoration-line:none;text-decoration-style:solid;letter-spacing:normal;word-spacing:normal;text-transform:none;text-orientation:mixed;dominant-baseline:auto;baseline-shift:baseline;white-space:normal;} .dn {display:none}  .w00 {stroke-width:3} .w01 {stroke-width:1} .a00 {fill-opacity:0.3} .a01 {fill-opacity:1} .s00 {font-size:19px} .s01 {font-size:14px} .e00 {stroke:#0045ff} .e01 {stroke:#00ff45} .e02 {stroke:#ff4500} .e03 {stroke:none} .e04 {stroke:#777777} .f00 {fill:#0045ff} .f01 {fill:#00ff45} .f02 {fill:#ff4500} .f03 {fill:none} .f04 {fill:#777777} .d00 {stroke-dasharray:none} .d01 {stroke-dasharray:1,3}]]></style></defs><g><path d="M 137.72263,90.871847 310.29621,142.31639 204.10701,188.00686 29.58538,135.77313 Z" class="ddf f04 a00 e03 w00 d00"/><path d="M 205.42244,187.55696 310.46161,142.39798" class="ddf f03 a01 e01 w01 d01"/><path d="M 138.78075,90.88149 310.542,142.20752" class="ddf f03 a01 e02 w01 d01"/><path d="m 32.622857,118.26875 19.314584,-7.67292 0.132292,16.93333" class="ddf f03 a01 e04 w00 d00"/><path d="m 59.297832,142.49884 c 0,0 1.793859,-4.20468 1.214341,-8.90299 -0.579521,-4.69832 -2.638042,-6.62181 -2.638042,-6.62181" class="ddf f03 a01 e04 w00 d00"/><path d="M 31.511091,136.46374 131.96659,93.409506" class="ddf f03 a01 e01 w00 d00"/><path d="m 199.52963,177.31589 6.02985,10.6226 -10.62259,6.02986 -3.01494,-5.31131 5.3113,-3.01492 -3.01492,-5.3113 z" class="ddf f02 a01 e03 w00 d00"/><path d="m 127.47989,85.843628 11.52719,4.768307 -4.76831,11.527185 -5.76359,-2.384153 2.38415,-5.763593 -5.76359,-2.384147 z" class="ddf f01 a01 e03 w00 d00"/><path d="m 22.388752,30.811743 9.047362,-8.588258 8.58825,9.047357 -4.523676,4.294129 -4.294125,-4.523675 -4.523667,4.294121 z" class="ddf f00 a01 e03 w00 d00"/><text xml:space="preserve" x="209.6537" y="200.04416" class="ddf s00 f02 a01 e03 w00 d00"><tspan x="209.6537" y="200.04416" class="ddf f02 a01 e03 w00 d00">u</tspan></text><text xml:space="preserve" x="26.181395" y="14.887671" class="ddf s00 f00 a01 e03 w00 d00"><tspan x="26.181395" y="14.887671" class="ddf f00 a01 e03 w00 d00">n</tspan></text><text xml:space="preserve" x="66.928261" y="138.43907" class="ddf s01 f04 a01 e03 w00 d00"><tspan x="66.928261" y="138.43907" class="ddf s01 f04 a01 w00">a</tspan></text><text xml:space="preserve" x="161.89998" y="140.89691" class="ddf s01 f04 a01 e03 w00 d00"><tspan x="161.89998" y="140.89691" class="ddf s01 f04 a01 w00">A</tspan></text><text xml:space="preserve" x="4.3341436" y="82.308174" class="ddf s01 f04 a01 e03 w00 d00"><tspan x="4.3341436" y="82.308174" class="ddf s01 f04 a01 w00">A</tspan></text><text xml:space="preserve" x="143.81892" y="90.391716" class="ddf s00 f01 a01 e03 w00 d00"><tspan x="143.81892" y="90.391716" class="ddf s00 f01 a01 e03 w00 d00">v</tspan></text><text xml:space="preserve" x="70.329102" y="53.116531" class="ddf s01 f04 a01 e03 w00 d00"><tspan x="70.329102" y="53.116531" class="ddf s01 f04 a01 w00">A = |u × v| = |u| · |v| · sin( a )</tspan></text><path d="m 31.741608,118.84745 15.742709,3.70417 -0.264583,18.52083" class="ddf f03 a01 e04 w00 d00"/><path d="M 31.511091,136.46374 197.2855,185.68502" class="ddf f03 a01 e02 w00 d00"/><path d="M 31.43905,135.84561 31.16364,29.057091" class="ddf f03 a01 e00 w00 d00"/><path d="m 21.88922,137.2184 -5.96791,-0.003 3.220157,-0.005 -0.232251,-114.662944 2.921551,-0.0493 -5.446831,0.0058" class="ddf f03 a01 e04 w01 d00"/></g></svg>