<?xml version='1.0' encoding='UTF-8'?>
<svg xmlns="http://www.w3.org/2000/svg" width="1920" height="768" viewBox="0 0 507.99999 203.2" version="1.1" style="background-color:transparent;color-scheme:light dark" xml:space="preserve"><defs><style><![CDATA[.ddf {display:inline;font-variation-settings:normal;stroke-linecap:round;stroke-linejoin:round;stroke-miterlimit:4;stroke-dasharray:none;stroke-dashoffset:0;stroke-opacity:1;stop-color:#000000;vector-effect:none;font-style:normal;font-variant:normal;font-weight:normal;font-stretch:normal;line-height:normal;font-family:Arial;font-variant-ligatures:normal;font-variant-caps:normal;font-variant-numeric:normal;font-variant-east-asian:normal;text-align:start;text-decoration-color:#000000;writing-mode:lr-tb;direction:ltr;text-anchor:start;stop-opacity:1;} .dn {display:none}  .w00 {stroke-width:2.3} .w01 {stroke-width:1.5} .w02 {stroke-width:3} .w03 {stroke-width:0.8} .w04 {stroke-width:1} .w05 {stroke-width:0.7} .a00 {fill-opacity:0.3} .a01 {fill-opacity:1} .s00 {font-size:19px} .s01 {font-size:14px} .e00 {stroke:#0045ff} .e01 {stroke:#00ff45} .e02 {stroke:#ff4500} .e03 {stroke:none} .e04 {stroke:#777777} .e05 {stroke:#808080} .f00 {fill:#0045ff} .f01 {fill:#00ff45} .f02 {fill:#ff4500} .f03 {fill:none} .f04 {fill:#777777} .d00 {stroke-dasharray:none}]]></style></defs><g><g transform="translate(-8.5072867,2.422751)" class="ddf"><path d="m 130.37208,73.570914 -0.28324,19.954124" class="ddf f03 a01 e04 w04"/><path d="m 135.07368,90.178331 -5.06491,4.80643 -4.80644,-5.06492 2.53246,-2.403219 2.40322,2.532457 2.53244,-2.403209 z" class="ddf f04 a01 e03 w02"/></g><text xml:space="preserve" x="143.63718" y="67.074554" class="ddf s01 f04 a01 e03 w02"><tspan x="143.63718" y="67.074554" class="ddf s01 f04 a01 w02">= 1</tspan></text><text xml:space="preserve" x="104.51907" y="66.205635" class="ddf s01 f04 a01 e03 w02"><tspan x="104.51907" y="66.205635" class="ddf s01 f04 a01 w02">u</tspan></text><text xml:space="preserve" x="129.91785" y="66.181969" class="ddf s01 f04 a01 e03 w02"><tspan x="129.91785" y="66.181969" class="ddf s01 f04 a01 w02">v</tspan></text><text xml:space="preserve" x="99.342964" y="64.140541" class="ddf s01 f04 a01 e03 w02"><tspan x="99.342964" y="64.140541" class="ddf s01 f04 a01 w02">|</tspan></text><text xml:space="preserve" x="138.91815" y="63.93325" class="ddf s01 f04 a01 e03 w02"><tspan x="138.91815" y="63.93325" class="ddf s01 f04 a01 w02">|</tspan></text><text xml:space="preserve" x="116.68073" y="67.667412" class="ddf s01 f04 a01 e03 w02"><tspan x="116.68073" y="67.667412" class="ddf s01 f04 a01 w02">×</tspan></text><text xml:space="preserve" x="96.213844" y="115.66956" class="ddf s01 f04 a01 e03 w02"><tspan x="96.213844" y="115.66956" class="ddf s01 f04 a01 w02">a = ±π / 2</tspan></text><path d="m 105.54711,55.484831 2.81909,-2.60709 2.94162,2.5629" class="ddf f03 a01 e04 w04"/><path d="m 130.56951,55.590288 2.81909,-2.60709 2.94162,2.5629" class="ddf f03 a01 e04 w04"/><path d="m 74.882383,167.56301 c 0,0 -0.26866,-12.65041 -0.37275,-16.34793 -3.37814,-0.23638 -18.082238,0.24946 -18.082238,0.24946" class="ddf f03 a01 e04 w02"/><path d="M 56.465842,167.68352 56.182603,48.198224" class="ddf f03 a01 e01 w02"/><path d="M 56.465842,167.68352 174.89279,166.90858" class="ddf f03 a01 e02 w02"/><path d="m 175.07124,158.27333 8.4568,8.81369 -8.81367,8.45681 -4.22842,-4.40685 4.40684,-4.2284 -4.2284,-4.40684 z" class="ddf f02 a01 e03 w02"/><path d="m 47.364843,47.96731 9.04866,-8.586863 8.58687,9.048667 -4.52434,4.293437 -4.29343,-4.524327 -4.52432,4.293421 z" class="ddf f01 a01 e03 w02"/><text xml:space="preserve" x="189.39716" y="170.99596" class="ddf s00 f02 a01 e03 w02"><tspan x="189.39716" y="170.99596" class="ddf s00 f02 a01 e03 w02">u</tspan></text><text xml:space="preserve" x="80.397621" y="147.75322" class="ddf s01 f04 a01 e03 w02"><tspan x="80.397621" y="147.75322" class="ddf s01 f04 a01 w02">a</tspan></text><text xml:space="preserve" x="51.686417" y="33.918201" class="ddf s00 f01 a01 e03 w02"><tspan x="51.686417" y="33.918201" class="ddf s00 f01 a01 e03 w02">v</tspan></text><path d="M 302.16584,77.254222 H 460.246 L 387.33834,126.31358 H 229.25818 Z" class="ddf f04 a00 e05 w03"/><g transform="matrix(1.0752206,-0.70847464,0.70847464,1.0752206,-86.277176,301.93357)" class="ddf w01"><path d="m 366.37483,54.496978 29.94846,-0.08881" class="ddf f03 a01 e01 w01"/><path d="m 396.39785,50.8 3.5336,3.68273 -3.68272,3.5336 -1.76681,-1.84136 1.84137,-1.7668 -1.76681,-1.84136 z" class="ddf f01 a01 e03 w01"/></g><text xml:space="preserve" x="418.97949" y="104.81506" class="ddf s00 f02 a01 e03 w02"><tspan x="418.97949" y="104.81506" class="ddf s00 f02 a01 e03 w02">u</tspan></text><text xml:space="preserve" x="384.68442" y="76.943634" class="ddf s00 f01 a01 e03 w02"><tspan x="384.68442" y="76.943634" class="ddf s00 f01 a01 e03 w02">v</tspan></text><text xml:space="preserve" x="312.80304" y="40.779991" class="ddf s00 f00 a01 e03 w02"><tspan x="312.80304" y="40.779991" class="ddf s00 f00 a01 e03 w02">n = u × v</tspan></text><g transform="matrix(1.2876473,0,0,1.2876473,-86.90216,-23.590019)" class="ddf w01"><path d="m 336.38301,96.80072 49.48371,-0.3238" class="ddf f03 a01 e02 w01"/><path d="m 385.94128,92.86875 3.5336,3.68273 -3.68272,3.5336 -1.76681,-1.84136 1.84137,-1.7668 -1.76681,-1.84136 z" class="ddf f02 a01 e03 w01"/></g><g transform="matrix(0,-1.2876473,1.2876473,0,221.64826,551.34404)" class="ddf w05"><path d="m 349.74447,96.80072 36.12225,-0.3238" class="ddf f03 a01 e00 w01"/><path d="m 385.94128,92.86875 3.5336,3.68273 -3.68272,3.5336 -1.76681,-1.84136 1.84137,-1.7668 -1.76681,-1.84136 z" class="ddf f00 a01 e03 w00"/></g><g transform="matrix(0,1.2876473,1.2876473,0,221.59264,-349.28254)" class="ddf w05"><path d="m 349.74447,96.80072 36.12225,-0.3238" class="ddf f03 a01 e00 w01"/><path d="m 385.94128,92.86875 3.5336,3.68273 -3.68272,3.5336 -1.76681,-1.84136 1.84137,-1.7668 -1.76681,-1.84136 z" class="ddf f00 a01 e03 w00"/></g><text xml:space="preserve" x="305.53644" y="171.24959" class="ddf s00 f00 a01 e03 w02"><tspan x="305.53644" y="171.24959" class="ddf s00 f00 a01 e03 w02">-n = v × u</tspan></text></g></svg>