<?xml version='1.0' encoding='UTF-8'?>
<svg xmlns="http://www.w3.org/2000/svg" width="1920" height="768" viewBox="0 0 507.99999 203.2" version="1.1" style="background-color:transparent;color-scheme:light dark" xml:space="preserve"><defs><style><![CDATA[.ddf {font-variation-settings:normal;display:inline;vector-effect:none;fill-opacity:1;stroke-linecap:round;stroke-miterlimit:4;stroke-dashoffset:0;stroke-opacity:1;stop-color:#000000;line-height:normal;font-family:Arial;text-align:start;text-decoration-color:#000000;writing-mode:lr-tb;direction:ltr;text-anchor:start;stop-opacity:1;font-style:normal;font-variant:normal;font-weight:normal;font-stretch:normal;font-variant-ligatures:normal;font-variant-position:normal;font-variant-caps:normal;font-variant-numeric:normal;font-variant-alternates:normal;font-variant-east-asian:normal;font-feature-settings:normal;text-indent:0;text-decoration-line:none;text-decoration-style:solid;letter-spacing:normal;word-spacing:normal;text-transform:none;text-orientation:mixed;dominant-baseline:auto;baseline-shift:baseline;white-space:normal;opacity:1;} .dn {display:none}  .w00 {stroke-width:0.5} .w01 {stroke-width:1} .w02 {stroke-width:3} .a00 {fill-opacity:1} .s00 {font-size:19px} .s01 {font-size:14px} .s02 {font-size:8px} .e00 {stroke:#0045ff} .e01 {stroke:#00ff45} .e02 {stroke:#ff4500} .e03 {stroke:none} .e04 {stroke:#808080} .f00 {fill:#0045ff} .f01 {fill:#00ff45} .f02 {fill:#ff4500} .f03 {fill:none} .f04 {fill:#777777} .d00 {stroke-dasharray:none} .d01 {stroke-dasharray:1,3}]]></style></defs><g><path style="stroke-linejoin:miter;" d="M 47.08299,106.79297 185.92292,22.866903" class="ddf f03 e00 w02 d00"/><path style="stroke-linejoin:miter;" d="M 45.533715,107.12241 75.781259,24.705329" class="ddf f03 e01 w02 d00"/><path style="stroke-linejoin:miter;" d="m 126.95289,187.96069 30.24755,-82.41708" class="ddf f03 e01 w01 d01"/><path style="stroke-linejoin:miter;" d="M 156.89723,106.20348 187.14478,23.786398" class="ddf f03 e01 w01 d01"/><path style="stroke-linejoin:miter;" d="m 150.48289,99.843056 6.38516,6.465204 -6.4652,6.38516 -3.19259,-3.23261 3.2326,-3.19257 -3.19257,-3.23261 z" class="ddf f02 e03 w02 d00"/><text xml:space="preserve" style="stroke-linejoin:miter;" x="164.62959" y="110.3248" class="ddf s00 f02 e03 w02 d00"><tspan style="stroke-linejoin:miter;" x="164.62959" y="110.3248" class="ddf f02 e03 w02 d00">u</tspan></text><text xml:space="preserve" style="stroke-linejoin:miter;" x="140.29193" y="192.81219" class="ddf s00 f00 e03 w02 d00"><tspan style="stroke-linejoin:miter;" x="140.29193" y="192.81219" class="ddf f00 e03 w02 d00">u-v</tspan></text><text xml:space="preserve" style="stroke-linejoin:miter;" x="256.78241" y="194.0202" class="ddf s00 f00 e03 w02 d00"><tspan style="stroke-linejoin:miter;" x="256.78241" y="194.0202" class="ddf f00 e03 w02 d00">u-v</tspan></text><text xml:space="preserve" style="stroke-linejoin:miter;" x="190.79404" y="22.450483" class="ddf s00 f00 e03 w02 d00"><tspan style="stroke-linejoin:miter;" x="190.79404" y="22.450483" class="ddf f00 e03 w02 d00">u+v</tspan></text><text xml:space="preserve" style="stroke-linejoin:miter;" x="41.355789" y="66.874619" class="ddf s00 f01 e03 w02 d00"><tspan style="stroke-linejoin:miter;" x="41.355789" y="66.874619" class="ddf s00 f01 e03 w02 d00">v</tspan></text><text xml:space="preserve" style="stroke-linejoin:miter;" x="9.3257141" y="145.5549" class="ddf s00 f01 e03 w02 d00"><tspan style="stroke-linejoin:miter;" x="9.3257141" y="145.5549" class="ddf s00 f01 e03 w02 d00">-v</tspan></text><text xml:space="preserve" style="stroke-linejoin:miter;" x="325.40195" y="156.37553" class="ddf s00 f01 e03 w02 d00"><tspan style="stroke-linejoin:miter;" x="325.40195" y="156.37553" class="ddf s00 f01 e03 w02 d00">-v</tspan></text><path style="stroke-linejoin:miter;" d="M 15.316288,191.89406 124.86117,191.11328" class="ddf f03 e02 w01 d01"/><path style="stroke-linejoin:miter;" d="M 77.45662,22.992394 187.0015,22.211614" class="ddf f03 e02 w01 d01"/><g transform="translate(155.5295,13.90007)" class="ddf"><text xml:space="preserve" x="184.99069" y="24.039494" class="ddf s01 f04 e03 w02 d00"><tspan x="184.99069" y="24.039494" class="ddf s01 f04 w02">u</tspan></text><text xml:space="preserve" x="193.48828" y="26.68512" class="ddf s02 f04 e03 w02 d00"><tspan x="193.48828" y="26.68512" class="ddf s02 f04 w02">x</tspan></text><text xml:space="preserve" x="193.48828" y="55.309685" class="ddf s02 f04 e03 w02 d00"><tspan x="193.48828" y="55.309685" class="ddf s02 f04 w02">z</tspan></text><text xml:space="preserve" x="193.67537" y="40.997402" class="ddf s02 f04 e03 w02 d00"><tspan x="193.67537" y="40.997402" class="ddf s02 f04 w02">y</tspan></text><text xml:space="preserve" x="184.99069" y="38.632408" class="ddf s01 f04 e03 w02 d00"><tspan x="184.99069" y="38.632408" class="ddf s01 f04 w02">u</tspan></text><text xml:space="preserve" x="184.99069" y="52.851147" class="ddf s01 f04 e03 w02 d00"><tspan x="184.99069" y="52.851147" class="ddf s01 f04 w02">u</tspan></text><path style="stroke-linejoin:miter;" d="m 184.06549,14.405828 h -2.58948 v 39.662797 h 2.61924" class="ddf f03 e04 w00 d00"/><path style="stroke-linejoin:miter;" d="m 198.15666,14.405828 h 2.58948 v 39.662797 h -2.61924" class="ddf f03 e04 w00 d00"/></g><g transform="translate(193.01733,13.90007)" class="ddf"><text xml:space="preserve" x="184.99069" y="24.039494" class="ddf s01 f04 e03 w02 d00"><tspan x="184.99069" y="24.039494" class="ddf s01 f04 w02">v</tspan></text><text xml:space="preserve" x="193.48828" y="26.68512" class="ddf s02 f04 e03 w02 d00"><tspan x="193.48828" y="26.68512" class="ddf s02 f04 w02">x</tspan></text><text xml:space="preserve" x="193.48828" y="55.309685" class="ddf s02 f04 e03 w02 d00"><tspan x="193.48828" y="55.309685" class="ddf s02 f04 w02">z</tspan></text><text xml:space="preserve" x="193.67537" y="40.997402" class="ddf s02 f04 e03 w02 d00"><tspan x="193.67537" y="40.997402" class="ddf s02 f04 w02">y</tspan></text><text xml:space="preserve" x="184.99069" y="38.632408" class="ddf s01 f04 e03 w02 d00"><tspan x="184.99069" y="38.632408" class="ddf s01 f04 w02">v</tspan></text><text xml:space="preserve" x="184.99069" y="52.851147" class="ddf s01 f04 e03 w02 d00"><tspan x="184.99069" y="52.851147" class="ddf s01 f04 w02">v</tspan></text><path style="stroke-linejoin:miter;" d="m 184.06549,14.405828 h -2.58948 v 39.662797 h 2.61924" class="ddf f03 e04 w00 d00"/><path style="stroke-linejoin:miter;" d="m 198.15666,14.405828 h 2.58948 v 39.662797 h -2.61924" class="ddf f03 e04 w00 d00"/></g><text xml:space="preserve" x="417.39017" y="37.939568" class="ddf s01 f04 e03 w02 d00"><tspan x="417.39017" y="37.939568" class="ddf s01 f04 w02">u</tspan></text><text xml:space="preserve" x="425.88776" y="40.58519" class="ddf s02 f04 e03 w02 d00"><tspan x="425.88776" y="40.58519" class="ddf s02 f04 w02">x</tspan></text><text xml:space="preserve" x="425.88776" y="69.209755" class="ddf s02 f04 e03 w02 d00"><tspan x="425.88776" y="69.209755" class="ddf s02 f04 w02">z</tspan></text><text xml:space="preserve" x="426.07483" y="54.897476" class="ddf s02 f04 e03 w02 d00"><tspan x="426.07483" y="54.897476" class="ddf s02 f04 w02">y</tspan></text><text xml:space="preserve" x="417.39017" y="52.532478" class="ddf s01 f04 e03 w02 d00"><tspan x="417.39017" y="52.532478" class="ddf s01 f04 w02">u</tspan></text><text xml:space="preserve" x="417.39017" y="66.751221" class="ddf s01 f04 e03 w02 d00"><tspan x="417.39017" y="66.751221" class="ddf s01 f04 w02">u</tspan></text><text xml:space="preserve" x="433.82672" y="37.939568" class="ddf s01 f04 e03 w02 d00"><tspan x="433.82672" y="37.939568" class="ddf s01 f04 w02">- v</tspan></text><text xml:space="preserve" x="451.01276" y="40.58519" class="ddf s02 f04 e03 w02 d00"><tspan x="451.01276" y="40.58519" class="ddf s02 f04 w02">x</tspan></text><text xml:space="preserve" x="451.01276" y="69.209755" class="ddf s02 f04 e03 w02 d00"><tspan x="451.01276" y="69.209755" class="ddf s02 f04 w02">z</tspan></text><text xml:space="preserve" x="451.19983" y="54.897476" class="ddf s02 f04 e03 w02 d00"><tspan x="451.19983" y="54.897476" class="ddf s02 f04 w02">y</tspan></text><text xml:space="preserve" x="433.82672" y="52.532478" class="ddf s01 f04 e03 w02 d00"><tspan x="433.82672" y="52.532478" class="ddf s01 f04 w02">- v</tspan></text><text xml:space="preserve" x="433.82672" y="66.751221" class="ddf s01 f04 e03 w02 d00"><tspan x="433.82672" y="66.751221" class="ddf s01 f04 w02">- v</tspan></text><path style="stroke-linejoin:miter;" d="m 415.6231,28.305899 h -2.58948 v 39.662798 h 2.61924" class="ddf f03 e04 w00 d00"/><path style="stroke-linejoin:miter;" d="m 458.53773,28.305899 h 2.58948 v 39.662798 h -2.61924" class="ddf f03 e04 w00 d00"/><path style="stroke-linejoin:miter;" d="m 68.364082,26.018162 8.549557,-3.608859 3.608854,8.549553 -4.274774,1.804429 -1.804429,-4.274774 -4.274774,1.804429 z" class="ddf f01 e03 w02 d00"/><g><path style="stroke-linejoin:miter;" d="M 45.739533,107.05883 15.491993,189.4759" class="ddf f03 e01 w02 d00"/><path style="stroke-linejoin:miter;" d="m 22.909173,188.16307 -8.54956,3.60886 -3.60885,-8.54956 4.27477,-1.80442 1.80443,4.27477 4.27477,-1.80443 z" class="ddf f01 e03 w02 d00"/></g><g transform="translate(286.03818,0.42162624)"><path style="stroke-linejoin:miter;" d="M 45.739533,107.05883 15.491993,189.4759" class="ddf f03 e01 w02 d00"/><path style="stroke-linejoin:miter;" d="m 22.909173,188.16307 -8.54956,3.60886 -3.60885,-8.54956 4.27477,-1.80442 1.80443,4.27477 4.27477,-1.80443 z" class="ddf f01 e03 w02 d00"/></g><g><path style="stroke-linejoin:miter;" d="M 46.148044,106.53592 123.37455,188.5231" class="ddf f03 e00 w02 d00"/><path style="stroke-linejoin:miter;" d="m 127.26604,182.88432 0.15671,9.27871 -9.27869,0.1567 -0.0784,-4.63934 4.63935,-0.0784 -0.0784,-4.63934 z" class="ddf f00 e03 w02 d00"/></g><g transform="translate(175.37968,0.69422628)"><path style="stroke-linejoin:miter;" d="M 46.148044,106.53592 123.37455,188.5231" class="ddf f03 e00 w02 d00"/><path style="stroke-linejoin:miter;" d="m 127.26604,182.88432 0.15671,9.27871 -9.27869,0.1567 -0.0784,-4.63934 4.63935,-0.0784 -0.0784,-4.63934 z" class="ddf f00 e03 w02 d00"/></g><path style="stroke-linejoin:miter;" d="m 179.03037,19.606023 9.01225,2.213213 -2.21322,9.012231 -4.50612,-1.106559 1.10656,-4.506133 -4.50612,-1.10656 z" class="ddf f00 e03 w02 d00"/><path style="stroke-linejoin:miter;" d="M 45.533715,107.12241 155.0786,106.34163" class="ddf f03 e02 w02 d00"/><path style="stroke-linejoin:miter;" d="m 326.46047,99.843056 6.38516,6.465204 -6.4652,6.38516 -3.19259,-3.23261 3.2326,-3.19257 -3.19257,-3.23261 z" class="ddf f02 e03 w02 d00"/><text xml:space="preserve" style="stroke-linejoin:miter;" x="340.60718" y="110.3248" class="ddf s00 f02 e03 w02 d00"><tspan style="stroke-linejoin:miter;" x="340.60718" y="110.3248" class="ddf f02 e03 w02 d00">u</tspan></text><text xml:space="preserve" style="stroke-linejoin:miter;" x="217.33337" y="66.874619" class="ddf s00 f01 e03 w02 d00"><tspan style="stroke-linejoin:miter;" x="217.33337" y="66.874619" class="ddf s00 f01 e03 w02 d00">v</tspan></text><g><path style="stroke-linejoin:miter;" d="M 221.51129,107.12241 251.75884,24.705329" class="ddf f03 e01 w02 d00"/><path style="stroke-linejoin:miter;" d="m 244.34166,26.018162 8.54956,-3.608859 3.60885,8.549553 -4.27477,1.804429 -1.80443,-4.274774 -4.27478,1.804429 z" class="ddf f01 e03 w02 d00"/></g><path style="stroke-linejoin:miter;" d="m 221.51129,107.12241 109.54489,-0.78078" class="ddf f03 e02 w02 d00"/><text xml:space="preserve" x="287.15265" y="52.194958" class="ddf s01 f04 e03 w02 d00"><tspan x="287.15265" y="52.194958" class="ddf s01 f04 w02">u</tspan></text><text xml:space="preserve" x="312.63809" y="52.194958" class="ddf s01 f04 e03 w02 d00"><tspan x="312.63809" y="52.194958" class="ddf s01 f04 w02">v</tspan></text><text xml:space="preserve" x="324.45535" y="53.47636" class="ddf s01 f04 e03 w02 d00"><tspan x="324.45535" y="53.47636" class="ddf s01 f04 w02">=</tspan></text><text xml:space="preserve" x="399.35794" y="53.47636" class="ddf s01 f04 e03 w02 d00"><tspan x="399.35794" y="53.47636" class="ddf s01 f04 w02">=</tspan></text><text xml:space="preserve" x="301.53268" y="52.33733" class="ddf s01 f04 e03 w02 d00"><tspan x="301.53268" y="52.33733" class="ddf s01 f04 w02">-</tspan></text><text xml:space="preserve" x="362.96823" y="52.550896" class="ddf s01 f04 e03 w02 d00"><tspan x="362.96823" y="52.550896" class="ddf s01 f04 w02">-</tspan></text></g></svg>