<?xml version='1.0' encoding='UTF-8'?>
<svg xmlns="http://www.w3.org/2000/svg" width="1920" height="768" viewBox="0 0 507.99999 203.2" version="1.1" style="background-color:transparent;color-scheme:light dark" xml:space="preserve"><defs><style><![CDATA[.ddf {font-style:normal;font-variant:normal;font-weight:normal;font-stretch:normal;line-height:normal;font-family:Arial;font-variant-ligatures:normal;font-variant-caps:normal;font-variant-numeric:normal;font-variant-east-asian:normal;text-align:start;text-decoration-color:#000000;writing-mode:lr-tb;direction:ltr;text-anchor:start;display:inline;fill-opacity:1;stroke-linecap:round;stroke-opacity:1;font-variation-settings:normal;stroke-linejoin:round;stroke-miterlimit:4;stroke-dashoffset:0;vector-effect:none;stop-color:#000000;stop-opacity:1;font-variant-position:normal;font-variant-alternates:normal;font-feature-settings:normal;text-indent:0;text-decoration-line:none;text-decoration-style:solid;letter-spacing:normal;word-spacing:normal;text-transform:none;text-orientation:mixed;dominant-baseline:auto;baseline-shift:baseline;white-space:normal;opacity:1;} .dn {display:none}  .w00 {stroke-width:3} .w01 {stroke-width:1} .w02 {stroke-width:2} .a00 {fill-opacity:1} .s00 {font-size:19px} .s01 {font-size:6px} .s02 {font-size:14px} .s03 {font-size:9px} .e00 {stroke:#0045ff} .e01 {stroke:#45ffff} .e02 {stroke:#00ff45} .e03 {stroke:#ff4500} .e04 {stroke:none} .e05 {stroke:#777777} .e06 {stroke:#808080} .f00 {fill:#b4b4b4} .f01 {fill:#0045ff} .f02 {fill:#45ffff} .f03 {fill:#00ff45} .f04 {fill:#ff4500} .f05 {fill:none} .f06 {fill:#777777} .d00 {stroke-dasharray:none} .d01 {stroke-dasharray:2,6} .d02 {stroke-dasharray:1,3}]]></style></defs><g><text xml:space="preserve" x="233.98737" y="160.99452" class="ddf s02 f06 e04 w00 d00"><tspan x="233.98737" y="160.99452" class="ddf s02 f06 w00">O</tspan></text><text xml:space="preserve" x="294.21017" y="185.46071" class="ddf s02 f06 e04 w00 d00"><tspan x="294.21017" y="185.46071" class="ddf s02 f06 w00">dx</tspan></text><text xml:space="preserve" x="218.87463" y="85.653099" class="ddf s02 f06 e04 w00 d00"><tspan x="218.87463" y="85.653099" class="ddf s02 f06 w00">dz</tspan></text><path d="m 245.10336,93.044444 -5.96791,-0.003 3.22016,-0.005 -0.23225,-23.98212 2.92155,-0.0493 -5.44683,0.0058" class="ddf f05 e05 w01 d00"/><path d="M 253.84344,145.90281 354.29895,102.84858" class="ddf f05 e02 w00 d00"/><path d="m 385.19261,174.40711 6.02985,10.6226 -10.62259,6.02986 -3.01494,-5.31131 5.3113,-3.01492 -3.01492,-5.3113 z" class="ddf f04 e04 w00 d00"/><path d="m 349.81225,95.282707 11.52719,4.768303 -4.76831,11.52718 -5.76359,-2.38415 2.38415,-5.76359 -5.76359,-2.38414 z" class="ddf f03 e04 w00 d00"/><path d="m 244.7211,40.250822 9.04736,-8.588258 8.58825,9.047357 -4.52367,4.294129 -4.29413,-4.523675 -4.52366,4.294121 z" class="ddf f01 e04 w00 d00"/><text xml:space="preserve" x="394.9425" y="193.39362" class="ddf s00 f04 e04 w00 d00"><tspan x="394.9425" y="193.39362" class="ddf f04 e04 w00 d00">X</tspan></text><text xml:space="preserve" x="248.51376" y="24.32675" class="ddf s00 f01 e04 w00 d00"><tspan x="248.51376" y="24.32675" class="ddf f01 e04 w00 d00">Z</tspan></text><text xml:space="preserve" x="366.15128" y="99.830795" class="ddf s00 f03 e04 w00 d00"><tspan x="366.15128" y="99.830795" class="ddf s00 f03 e04 w00 d00">Y</tspan></text><path d="m 292.83953,104.19677 v 51.91224 m 24.91526,-58.995339 v 48.162039 m -61.85175,-51.770409 37.11213,10.531839 m -10.69451,-21.259369 31.41116,8.960768 m -58.11454,1.704615 26.38891,-10.717409 m 11.27551,21.186655 21.26838,-9.140198 m -23.05676,61.705148 26.42953,-11.06228 M 282.16979,82.744653 v 49.148787 m 1.06673,3.48418 34.79356,9.91562" class="ddf f00 e06 w01 d02"/><path d="M 331.65642,85.183589 V 166.1387 M 383.69421,67.181975 V 145.01621 M 254.51119,68.51066 332.02326,84.934652 M 309.35754,47.271686 379.1746,61.516544 m -125.26025,6.897201 55.45379,-21.134206 m 23.21179,37.460586 47.17112,-20.481198 m -48.49011,102.454183 52.78428,-21.68092 m -74.67354,-97.732063 0.15101,72.655603 m 2.63324,2.62186 72.11324,22.49806" class="ddf f00 e06 w01 d02"/><path d="m 277.82045,130.38175 -2.32315,-5.49718 1.25962,2.96359 28.84244,-11.84959 1.18403,2.67132 -2.12817,-5.01387" class="ddf f05 e05 w01 d00"/><path d="m 288.35651,168.20381 1.71496,-5.7162 -0.91902,3.08625 37.6766,11.23471 -0.79092,2.81289 1.55704,-5.21955" class="ddf f05 e05 w01 d00"/><text xml:space="preserve" x="260.39005" y="121.17931" class="ddf s02 f06 e04 w00 d00"><tspan x="260.39005" y="121.17931" class="ddf s02 f06 w00">dy</tspan></text><path d="M 253.7714,145.28468 253.49599,38.49617" class="ddf f05 e00 w00 d00"/><path d="m 253.84344,145.90281 130.22757,37.24761" class="ddf f05 e03 w00 d00"/><circle cx="253.62646" cy="146.26727" r="4.4979167" class="ddf f00 e06 w02 d00"/><path d="m 76.106769,131.73302 48.080411,13.40409" class="ddf f00 e06 w02 d01"/><path d="M 76.161309,61.432917 V 130.30385" class="ddf f00 e06 w02 d01"/><text xml:space="preserve" x="19.749865" y="160.99452" class="ddf s02 f06 e04 w00 d00"><tspan x="19.749865" y="160.99452" class="ddf s02 f06 w00">O</tspan></text><text xml:space="preserve" x="53.348225" y="177.34523" class="ddf s02 f06 e04 w00 d00"><tspan x="53.348225" y="177.34523" class="ddf s02 f06 w00">x</tspan></text><text xml:space="preserve" x="12.725726" y="117.12283" class="ddf s02 f06 e04 w00 d00"><tspan x="12.725726" y="117.12283" class="ddf s02 f06 w00">z</tspan></text><path d="m 27.845589,145.79842 -5.96791,-0.003 3.22016,-0.005 -0.23225,-69.68881 2.92155,-0.0493 -5.44683,0.0058" class="ddf f05 e05 w01 d00"/><path d="M 39.605939,145.90281 140.06144,102.84858" class="ddf f05 e02 w00 d00"/><path d="M 88.647859,160.10398 124.04361,145.30014" class="ddf f00 e06 w02 d01"/><path d="m 170.9551,174.40711 6.02985,10.6226 -10.62259,6.02986 -3.01494,-5.31131 5.3113,-3.01492 -3.01492,-5.3113 z" class="ddf f04 e04 w00 d00"/><path d="m 135.57474,95.282707 11.52719,4.768303 -4.76831,11.52718 -5.76359,-2.38415 2.38415,-5.76359 -5.76359,-2.38414 z" class="ddf f03 e04 w00 d00"/><path d="m 30.483599,40.250822 9.04736,-8.588258 8.58825,9.047357 -4.52367,4.294129 -4.29413,-4.523675 -4.52366,4.294121 z" class="ddf f01 e04 w00 d00"/><text xml:space="preserve" x="180.705" y="193.39362" class="ddf s00 f04 e04 w00 d00"><tspan x="180.705" y="193.39362" class="ddf f04 e04 w00 d00">X</tspan></text><text xml:space="preserve" x="34.276264" y="24.32675" class="ddf s00 f01 e04 w00 d00"><tspan x="34.276264" y="24.32675" class="ddf f01 e04 w00 d00">Z</tspan></text><text xml:space="preserve" x="151.91377" y="99.830795" class="ddf s00 f03 e04 w00 d00"><tspan x="151.91377" y="99.830795" class="ddf s00 f03 e04 w00 d00">Y</tspan></text><text xml:space="preserve" x="129.45137" y="74.069138" class="ddf s00 f02 e04 w00 d00"><tspan x="129.45137" y="74.069138" class="ddf s00 f02 e04 w00 d00">u</tspan></text><path d="M 40.600849,75.749937 75.942209,61.407613" class="ddf f00 e06 w02 d01"/><path d="M 76.363369,61.477236 121.38628,74.230905" class="ddf f00 e06 w02 d01"/><path d="m 40.983549,75.833104 49.70244,14.093978" class="ddf f00 e06 w02 d01"/><path d="M 123.81853,74.231456 V 145.11365" class="ddf f00 e06 w02 d01"/><path d="m 90.450769,90.14071 v 69.47035" class="ddf f00 e06 w02 d01"/><path d="m 33.615259,138.27983 -2.32315,-5.49718 1.25962,2.96359 35.68838,-14.2658 1.18403,2.67132 -2.12817,-5.01387" class="ddf f05 e05 w01 d00"/><path d="m 34.943149,160.88608 1.71496,-5.7162 -0.91902,3.08625 50.34812,13.08561 -0.79092,2.81289 1.55704,-5.21955" class="ddf f05 e05 w01 d00"/><text xml:space="preserve" x="47.150898" y="124.09003" class="ddf s02 f06 e04 w00 d00"><tspan x="47.150898" y="124.09003" class="ddf s02 f06 w00">y</tspan></text><path d="M 39.533899,145.28468 39.258489,38.49617" class="ddf f05 e00 w00 d00"/><path d="M 39.605939,145.90281 169.8335,183.15042" class="ddf f05 e03 w00 d00"/><text xml:space="preserve" x="125.05249" y="28.780018" class="ddf s02 f02 e04 w00 d00"><tspan x="125.05249" y="28.780018" class="ddf s02 f02 w00">|u|</tspan></text><text xml:space="preserve" x="164.34845" y="28.780018" class="ddf s02 f02 e04 w00 d00"><tspan x="164.34845" y="28.780018" class="ddf s02 f02 w00">x</tspan></text><text xml:space="preserve" x="178.24168" y="30.390827" class="ddf s02 f02 e04 w00 d00"><tspan x="178.24168" y="30.390827" class="ddf s02 f02 w00">+</tspan></text><text xml:space="preserve" x="173.42998" y="21.947464" class="ddf s01 f02 e04 w00 d00"><tspan x="173.42998" y="21.947464" class="ddf s01 f02 w00">2</tspan></text><text xml:space="preserve" x="190.32274" y="28.780018" class="ddf s02 f02 e04 w00 d00"><tspan x="190.32274" y="28.780018" class="ddf s02 f02 w00">y</tspan></text><text xml:space="preserve" x="204.21597" y="30.390827" class="ddf s02 f02 e04 w00 d00"><tspan x="204.21597" y="30.390827" class="ddf s02 f02 w00">+</tspan></text><text xml:space="preserve" x="199.40427" y="21.947464" class="ddf s01 f02 e04 w00 d00"><tspan x="199.40427" y="21.947464" class="ddf s01 f02 w00">2</tspan></text><text xml:space="preserve" x="215.08891" y="28.780018" class="ddf s02 f02 e04 w00 d00"><tspan x="215.08891" y="28.780018" class="ddf s02 f02 w00">z</tspan></text><text xml:space="preserve" x="224.17044" y="21.947464" class="ddf s01 f02 e04 w00 d00"><tspan x="224.17044" y="21.947464" class="ddf s01 f02 w00">2</tspan></text><text xml:space="preserve" x="143.91133" y="29.887447" class="ddf s02 f02 e04 w00 d00"><tspan x="143.91133" y="29.887447" class="ddf s02 f02 w00">=</tspan></text><path d="M 38.788899,146.67647 120.12962,78.520342" class="ddf f05 e01 w00 d00"/><path d="m 111.83264,74.187802 12.47403,-0.10447 0.10447,12.474039 -6.23702,0.0522 -0.0522,-6.237016 -6.23701,0.05223 z" class="ddf f02 e04 w00 d00"/><path d="M 91.042949,89.760159 126.4387,74.956319" class="ddf f00 e06 w02 d01"/><circle cx="39.388966" cy="146.26727" r="4.4979167" class="ddf f00 e06 w02 d00"/><path d="m 154.32336,22.739407 1.52721,0.04939 3.53309,10.232769 v -19.53105 h 70.81092 l 0.0143,1.560471" class="ddf f05 e01 w01 d00"/><text xml:space="preserve" x="274.58365" y="28.027763" class="ddf s02 f02 e04 w00 d00"><tspan x="274.58365" y="28.027763" class="ddf s02 f02 w00">|p-q|</tspan></text><text xml:space="preserve" x="314.63544" y="76.245827" class="ddf s02 f02 e04 w00 d00"><tspan x="314.63544" y="76.245827" class="ddf s02 f02 w00">p</tspan></text><text xml:space="preserve" x="388.9144" y="76.893814" class="ddf s02 f02 e04 w00 d00"><tspan x="388.9144" y="76.893814" class="ddf s02 f02 w00">q</tspan></text><text xml:space="preserve" x="338.08237" y="33.464237" class="ddf s03 f02 e04 w00 d00"><tspan x="338.08237" y="33.464237" class="ddf s03 f02 w00">x</tspan></text><text xml:space="preserve" x="331.71719" y="27.69912" class="ddf s02 f02 e04 w00 d00"><tspan x="331.71719" y="27.69912" class="ddf s02 f02 w00">p</tspan></text><text xml:space="preserve" x="359.82828" y="33.464237" class="ddf s03 f02 e04 w00 d00"><tspan x="359.82828" y="33.464237" class="ddf s03 f02 w00">x</tspan></text><text xml:space="preserve" x="351.34894" y="27.69912" class="ddf s02 f02 e04 w00 d00"><tspan x="351.34894" y="27.69912" class="ddf s02 f02 w00">q</tspan></text><text xml:space="preserve" x="325.0726" y="27.69912" class="ddf s02 f02 e04 w00 d00"><tspan x="325.0726" y="27.69912" class="ddf s02 f02 w00">(</tspan></text><text xml:space="preserve" x="365.08487" y="28.0439" class="ddf s02 f02 e04 w00 d00"><tspan x="365.08487" y="28.0439" class="ddf s02 f02 w00">)</tspan></text><text xml:space="preserve" x="374.38931" y="30.141953" class="ddf s02 f02 e04 w00 d00"><tspan x="374.38931" y="30.141953" class="ddf s02 f02 w00">+</tspan></text><text xml:space="preserve" x="343.28409" y="27.799873" class="ddf s02 f02 e04 w00 d00"><tspan x="343.28409" y="27.799873" class="ddf s02 f02 w00">-</tspan></text><text xml:space="preserve" x="370.78571" y="20.188456" class="ddf s01 f02 e04 w00 d00"><tspan x="370.78571" y="20.188456" class="ddf s01 f02 w00">2</tspan></text><text xml:space="preserve" x="398.59247" y="33.464237" class="ddf s03 f02 e04 w00 d00"><tspan x="398.59247" y="33.464237" class="ddf s03 f02 w00">y</tspan></text><text xml:space="preserve" x="392.22729" y="27.69912" class="ddf s02 f02 e04 w00 d00"><tspan x="392.22729" y="27.69912" class="ddf s02 f02 w00">p</tspan></text><text xml:space="preserve" x="420.33838" y="33.464237" class="ddf s03 f02 e04 w00 d00"><tspan x="420.33838" y="33.464237" class="ddf s03 f02 w00">y</tspan></text><text xml:space="preserve" x="411.85904" y="27.69912" class="ddf s02 f02 e04 w00 d00"><tspan x="411.85904" y="27.69912" class="ddf s02 f02 w00">q</tspan></text><text xml:space="preserve" x="385.5827" y="27.69912" class="ddf s02 f02 e04 w00 d00"><tspan x="385.5827" y="27.69912" class="ddf s02 f02 w00">(</tspan></text><text xml:space="preserve" x="425.59497" y="28.0439" class="ddf s02 f02 e04 w00 d00"><tspan x="425.59497" y="28.0439" class="ddf s02 f02 w00">)</tspan></text><text xml:space="preserve" x="434.89941" y="30.141953" class="ddf s02 f02 e04 w00 d00"><tspan x="434.89941" y="30.141953" class="ddf s02 f02 w00">+</tspan></text><text xml:space="preserve" x="403.79419" y="27.799873" class="ddf s02 f02 e04 w00 d00"><tspan x="403.79419" y="27.799873" class="ddf s02 f02 w00">-</tspan></text><text xml:space="preserve" x="431.29581" y="20.188456" class="ddf s01 f02 e04 w00 d00"><tspan x="431.29581" y="20.188456" class="ddf s01 f02 w00">2</tspan></text><text xml:space="preserve" x="459.52969" y="33.464237" class="ddf s03 f02 e04 w00 d00"><tspan x="459.52969" y="33.464237" class="ddf s03 f02 w00">z</tspan></text><text xml:space="preserve" x="453.16452" y="27.69912" class="ddf s02 f02 e04 w00 d00"><tspan x="453.16452" y="27.69912" class="ddf s02 f02 w00">p</tspan></text><text xml:space="preserve" x="481.2756" y="33.464237" class="ddf s03 f02 e04 w00 d00"><tspan x="481.2756" y="33.464237" class="ddf s03 f02 w00">z</tspan></text><text xml:space="preserve" x="472.79626" y="27.69912" class="ddf s02 f02 e04 w00 d00"><tspan x="472.79626" y="27.69912" class="ddf s02 f02 w00">q</tspan></text><text xml:space="preserve" x="446.51993" y="27.69912" class="ddf s02 f02 e04 w00 d00"><tspan x="446.51993" y="27.69912" class="ddf s02 f02 w00">(</tspan></text><text xml:space="preserve" x="486.5322" y="28.0439" class="ddf s02 f02 e04 w00 d00"><tspan x="486.5322" y="28.0439" class="ddf s02 f02 w00">)</tspan></text><text xml:space="preserve" x="464.73141" y="27.799873" class="ddf s02 f02 e04 w00 d00"><tspan x="464.73141" y="27.799873" class="ddf s02 f02 w00">-</tspan></text><text xml:space="preserve" x="492.23303" y="20.188456" class="ddf s01 f02 e04 w00 d00"><tspan x="492.23303" y="20.188456" class="ddf s01 f02 w00">2</tspan></text><text xml:space="preserve" x="305.82928" y="29.135193" class="ddf s02 f02 e04 w00 d00"><tspan x="305.82928" y="29.135193" class="ddf s02 f02 w00">=</tspan></text><path d="m 316.24132,21.987153 1.52721,0.04939 3.53309,10.232769 v -19.53105 h 176.45442 l 0.0143,1.560471" class="ddf f05 e01 w01 d00"/><circle cx="318.14194" cy="92.576736" r="4.4979167" class="ddf f05 e01 w02 d00"/><circle cx="383.71805" cy="62.538967" r="4.4979167" class="ddf f05 e01 w02 d00"/><path d="m 322.65354,90.646965 56.39592,-25.95858" class="ddf f05 e01 w00 d00"/></g></svg>