<?xml version='1.0' encoding='UTF-8'?>
<svg xmlns="http://www.w3.org/2000/svg" width="1920" height="768" viewBox="0 0 507.99999 203.2" version="1.1" style="background-color:transparent;color-scheme:light dark" xml:space="preserve"><defs><style><![CDATA[.ddf {font-variation-settings:normal;display:inline;vector-effect:none;fill-opacity:1;stroke-linecap:round;stroke-linejoin:round;stroke-miterlimit:4;stroke-dasharray:none;stroke-dashoffset:0;stroke-opacity:1;stop-color:#000000;font-style:normal;font-variant:normal;font-weight:normal;font-stretch:normal;font-size:15.875px;line-height:normal;font-family:Arial;font-variant-ligatures:normal;font-variant-caps:normal;font-variant-numeric:normal;font-variant-east-asian:normal;text-align:start;text-decoration-color:#000000;writing-mode:lr-tb;direction:ltr;text-anchor:start;stop-opacity:1;opacity:1;} .dn {display:none}  .w00 {stroke-width:3} .w01 {stroke-width:1} .a00 {fill-opacity:1} .s00 {font-size:15px} .e00 {stroke:#ff4500} .e01 {stroke:none} .e02 {stroke:#00ff45} .f00 {fill:#ff4500} .f01 {fill:none} .f02 {fill:#00ff45} .d00 {stroke-dasharray:none}]]></style></defs><g><path d="M 31.080937,54.952792 163.60246,54.177852" class="ddf f01 e00 w00"/><path d="m 164.58632,45.542602 8.4568,8.81369 -8.81367,8.45681 -4.22842,-4.40685 4.40684,-4.2284 -4.2284,-4.40684 z" class="ddf f00 e01 w00"/><g transform="rotate(90,39.87737,69.747995)" class="ddf"><path d="M 56.465842,79.278319 56.182603,48.198224" class="ddf f01 e02 w00"/><path d="m 47.364843,47.96731 9.04866,-8.586863 8.58687,9.048667 -4.52434,4.293437 -4.29343,-4.524327 -4.52432,4.293421 z" class="ddf f02 e01 w00"/></g><text xml:space="preserve" x="178.81717" y="59.564083" class="ddf f00 e01 w00"><tspan x="178.81717" y="59.564083" class="ddf f00 e01 w00">u</tspan></text><text xml:space="preserve" x="85.33519" y="27.719721" class="ddf f00 e01 w00"><tspan x="85.33519" y="27.719721" class="ddf f00 e01 w00">|u|</tspan></text><text xml:space="preserve" x="41.39336" y="133.2278" class="ddf f02 e01 w00"><tspan x="41.39336" y="133.2278" class="ddf f02 e01 w00">|u| = 1</tspan></text><text xml:space="preserve" x="78.846504" y="90.639137" class="ddf f02 e01 w00"><tspan x="78.846504" y="90.639137" class="ddf f02 e01 w00">u = u / |u|</tspan></text><path d="m 30.154874,35.363108 0.0066,6.751692 0.01193,-3.686082 140.502436,-0.725407 0.0746,3.84547 -0.0126,-7.180018" class="ddf f01 e00 w01"/><path d="m 29.103502,106.21154 0.0066,6.75169 0.01193,-3.68608 39.021515,-0.72541 0.0746,3.84547 -0.0126,-7.18002" class="ddf f01 e02 w01"/><path d="m 80.339064,79.811256 2.969926,-2.86925 2.516889,2.6679" class="ddf f01 e02 w01"/><path d="m 46.82787,121.74783 2.969926,-2.86925 2.516889,2.6679" class="ddf f01 e02 w01"/></g></svg>