<?xml version='1.0' encoding='UTF-8'?>
<svg xmlns="http://www.w3.org/2000/svg" width="1920" height="768" viewBox="0 0 507.99999 203.2" version="1.1" style="background-color:transparent;color-scheme:light dark" xml:space="preserve"><defs><style><![CDATA[.ddf {font-variation-settings:normal;display:inline;vector-effect:none;fill-opacity:1;stroke-linecap:round;stroke-miterlimit:4;stroke-dashoffset:0;stroke-opacity:1;stop-color:#000000;font-style:normal;font-variant:normal;font-weight:normal;font-stretch:normal;font-size:16.918px;line-height:normal;font-family:Arial;font-variant-ligatures:normal;font-variant-position:normal;font-variant-caps:normal;font-variant-numeric:normal;font-variant-alternates:normal;font-variant-east-asian:normal;font-feature-settings:normal;text-indent:0;text-align:start;text-decoration-line:none;text-decoration-style:solid;text-decoration-color:#000000;letter-spacing:normal;word-spacing:normal;text-transform:none;writing-mode:lr-tb;direction:ltr;text-orientation:mixed;dominant-baseline:auto;baseline-shift:baseline;text-anchor:start;white-space:normal;stop-opacity:1;} .dn {display:none}  .w00 {stroke-width:3} .w01 {stroke-width:1} .a00 {fill-opacity:1} .s00 {font-size:16px} .e00 {stroke:#ff45ff} .e01 {stroke:#0045ff} .e02 {stroke:#45ffff} .e03 {stroke:#00ff45} .e04 {stroke:#ff4500} .e05 {stroke:none} .f00 {fill:#ff45ff} .f01 {fill:#0045ff} .f02 {fill:#45ffff} .f03 {fill:#00ff45} .f04 {fill:#ff4500} .f05 {fill:none} .d00 {stroke-dasharray:none} .d01 {stroke-dasharray:1,3}]]></style></defs><g><path style="stroke-linejoin:miter;" d="m 336.19676,103.27903 73.06925,26.85695" class="ddf f05 e02 w00 d00"/><path style="stroke-linejoin:miter;" d="m 415.43012,56.294536 74.57338,28.16623" class="ddf f05 e02 w01 d01"/><path style="stroke-linejoin:miter;" d="M 336.36362,103.09981 410.937,131.26604" class="ddf f05 e02 w01 d01"/><path style="stroke-linejoin:miter;" d="m 337.42933,111.86411 -4.1084,-10.1748 10.1748,-4.108394 2.0542,5.087384 -5.08739,2.0542 2.05421,5.08739 z" class="ddf f02 e05 w00 d00"/><path style="stroke-linejoin:miter;" d="M 410.35855,130.5479 432.33384,91.076736" class="ddf f05 e03 w00 d00"/><path style="stroke-linejoin:miter;" d="m 409.55173,130.09731 5.96066,-73.093334" class="ddf f05 e00 w00 d00"/><text xml:space="preserve" style="stroke-linejoin:miter;" x="436.39673" y="81.528221" class="ddf f03 e05 w00 d00"><tspan style="stroke-linejoin:miter;" x="436.39673" y="81.528221" class="ddf f03 e05 w00 d00">v</tspan></text><text xml:space="preserve" style="stroke-linejoin:miter;" x="355.42532" y="104.3419" class="ddf f02 e05 w00 d00"><tspan style="stroke-linejoin:miter;" x="355.42532" y="104.3419" class="ddf f02 e05 w00 d00">w</tspan></text><path style="stroke-linejoin:miter;" d="m 460.05635,122.59886 7.54999,7.64463 -7.64462,7.55 -3.77501,-3.82233 3.82231,-3.77498 -3.77499,-3.82233 z" class="ddf f04 e05 w00 d00"/><text xml:space="preserve" style="stroke-linejoin:miter;" x="472.66925" y="135.6953" class="ddf f04 e05 w00 d00"><tspan style="stroke-linejoin:miter;" x="472.66925" y="135.6953" class="ddf f04 e05 w00 d00">u</tspan></text><text xml:space="preserve" style="stroke-linejoin:miter;" x="475.6835" y="73.430031" class="ddf f01 e05 w00 d00"><tspan style="stroke-linejoin:miter;" x="475.6835" y="73.430031" class="ddf f01 e05 w00 d00">u+v</tspan></text><text xml:space="preserve" style="stroke-linejoin:miter;" x="392.37872" y="47.332298" class="ddf f00 e05 w00 d00"><tspan style="stroke-linejoin:miter;" x="392.37872" y="47.332298" class="ddf f00 e05 w00 d00">u+v+w</tspan></text><path style="stroke-linejoin:miter;" d="M 410.12781,130.6776 489.98214,86.674016" class="ddf f05 e01 w00 d00"/><path style="stroke-linejoin:miter;" d="m 335.97992,99.561666 79.85433,-44.0036" class="ddf f05 e01 w01 d01"/><path style="stroke-linejoin:miter;" d="m 409.93273,130.69081 51.72765,-0.36014" class="ddf f05 e04 w00 d00"/><path style="stroke-linejoin:miter;" d="m 481.85174,82.297426 10.5783,2.91643 -2.91645,10.57828 -5.28913,-1.45821 1.45821,-5.28913 -5.28914,-1.45821 z" class="ddf f01 e05 w00 d00"/><path style="stroke-linejoin:miter;" d="m 425.82502,86.844716 10.70305,-2.41871 2.41871,10.70305 -5.35151,1.20936 -1.20936,-5.35153 -5.35152,1.20937 z" class="ddf f03 e05 w00 d00"/><path style="stroke-linejoin:miter;" d="m 407.23278,61.694626 8.4088,-7.04965 7.04965,8.40879 -4.20439,3.52483 -3.52482,-4.20439 -4.20439,3.52483 z" class="ddf f00 e05 w00 d00"/><path style="stroke-linejoin:miter;" d="m 159.64967,103.27903 73.06925,26.85695" class="ddf f05 e02 w00 d00"/><path style="stroke-linejoin:miter;" d="m 159.81653,103.09981 74.57338,28.16623" class="ddf f05 e02 w01 d01"/><path style="stroke-linejoin:miter;" d="m 160.88224,111.86411 -4.1084,-10.1748 10.1748,-4.108394 2.0542,5.087384 -5.08739,2.0542 2.05421,5.08739 z" class="ddf f02 e05 w00 d00"/><path style="stroke-linejoin:miter;" d="M 233.81146,130.5479 255.78675,91.076736" class="ddf f05 e03 w00 d00"/><path style="stroke-linejoin:miter;" d="M 289.91046,129.60729 311.88575,90.136126" class="ddf f05 e03 w01 d01"/><text xml:space="preserve" style="stroke-linejoin:miter;" x="259.84967" y="81.528221" class="ddf f03 e05 w00 d00"><tspan style="stroke-linejoin:miter;" x="259.84967" y="81.528221" class="ddf f03 e05 w00 d00">v</tspan></text><text xml:space="preserve" style="stroke-linejoin:miter;" x="178.87822" y="104.3419" class="ddf f02 e05 w00 d00"><tspan style="stroke-linejoin:miter;" x="178.87822" y="104.3419" class="ddf f02 e05 w00 d00">w</tspan></text><path style="stroke-linejoin:miter;" d="m 283.50926,122.59886 7.54999,7.64463 -7.64462,7.55 -3.77501,-3.82233 3.82231,-3.77498 -3.77499,-3.82233 z" class="ddf f04 e05 w00 d00"/><text xml:space="preserve" style="stroke-linejoin:miter;" x="296.12216" y="135.6953" class="ddf f04 e05 w00 d00"><tspan style="stroke-linejoin:miter;" x="296.12216" y="135.6953" class="ddf f04 e05 w00 d00">u</tspan></text><text xml:space="preserve" style="stroke-linejoin:miter;" x="299.13641" y="73.430031" class="ddf f01 e05 w00 d00"><tspan style="stroke-linejoin:miter;" x="299.13641" y="73.430031" class="ddf f01 e05 w00 d00">u+v</tspan></text><path style="stroke-linejoin:miter;" d="M 233.58072,130.6776 313.43505,86.674016" class="ddf f05 e01 w00 d00"/><path style="stroke-linejoin:miter;" d="m 233.38564,130.69081 51.72765,-0.36014" class="ddf f05 e04 w00 d00"/><path style="stroke-linejoin:miter;" d="m 259.42208,86.307026 51.72765,-0.36014" class="ddf f05 e04 w01 d01"/><path style="stroke-linejoin:miter;" d="m 305.30465,82.297426 10.5783,2.91643 -2.91645,10.57828 -5.28913,-1.45821 1.45821,-5.28913 -5.28914,-1.45821 z" class="ddf f01 e05 w00 d00"/><path style="stroke-linejoin:miter;" d="m 249.27793,86.844716 10.70305,-2.41871 2.41871,10.70305 -5.35151,1.20936 -1.20936,-5.35153 -5.35152,1.20937 z" class="ddf f03 e05 w00 d00"/><path style="stroke-linejoin:miter;" d="m 11.427884,103.27903 73.06925,26.85695" class="ddf f05 e02 w00 d00"/><path style="stroke-linejoin:miter;" d="m 11.594744,103.09981 74.57338,28.16623" class="ddf f05 e02 w01 d01"/><path style="stroke-linejoin:miter;" d="m 12.660454,111.86411 -4.1084001,-10.1748 10.1748001,-4.108394 2.0542,5.087384 -5.08739,2.0542 2.05421,5.08739 z" class="ddf f02 e05 w00 d00"/><path style="stroke-linejoin:miter;" d="M 85.589674,130.5479 107.56496,91.076736" class="ddf f05 e03 w00 d00"/><text xml:space="preserve" style="stroke-linejoin:miter;" x="111.62784" y="81.528221" class="ddf f03 e05 w00 d00"><tspan style="stroke-linejoin:miter;" x="111.62784" y="81.528221" class="ddf f03 e05 w00 d00">v</tspan></text><text xml:space="preserve" style="stroke-linejoin:miter;" x="30.656437" y="104.3419" class="ddf f02 e05 w00 d00"><tspan style="stroke-linejoin:miter;" x="30.656437" y="104.3419" class="ddf f02 e05 w00 d00">w</tspan></text><path style="stroke-linejoin:miter;" d="m 135.28747,122.59886 7.54999,7.64463 -7.64462,7.55 -3.77501,-3.82233 3.82231,-3.77498 -3.77499,-3.82233 z" class="ddf f04 e05 w00 d00"/><text xml:space="preserve" style="stroke-linejoin:miter;" x="147.90036" y="135.6953" class="ddf f04 e05 w00 d00"><tspan style="stroke-linejoin:miter;" x="147.90036" y="135.6953" class="ddf f04 e05 w00 d00">u</tspan></text><path style="stroke-linejoin:miter;" d="M 85.163854,130.69081 136.8915,130.33067" class="ddf f05 e04 w00 d00"/><path style="stroke-linejoin:miter;" d="m 101.05614,86.844716 10.70305,-2.41871 2.41871,10.70305 -5.35151,1.20936 -1.20936,-5.35153 -5.35152,1.20937 z" class="ddf f03 e05 w00 d00"/></g></svg>