<?xml version='1.0' encoding='UTF-8'?>
<svg xmlns="http://www.w3.org/2000/svg" width="1920" height="768" viewBox="0 0 507.99999 203.2" version="1.1" style="background-color:transparent;color-scheme:light dark" xml:space="preserve"><defs><style><![CDATA[.ddf {font-variation-settings:normal;display:inline;vector-effect:none;fill-opacity:1;stroke-linecap:round;stroke-linejoin:round;stroke-miterlimit:4;stroke-dasharray:none;stroke-dashoffset:0;stroke-opacity:1;stop-color:#000000;font-style:normal;font-variant:normal;font-weight:normal;font-stretch:normal;line-height:normal;font-family:Arial;font-variant-ligatures:normal;font-variant-caps:normal;font-variant-numeric:normal;font-variant-east-asian:normal;text-align:start;text-decoration-color:#000000;writing-mode:lr-tb;direction:ltr;text-anchor:start;stop-opacity:1;font-variant-position:normal;font-variant-alternates:normal;text-indent:0;text-decoration-line:none;text-decoration-style:solid;letter-spacing:normal;word-spacing:normal;text-transform:none;text-orientation:mixed;dominant-baseline:auto;baseline-shift:baseline;white-space:normal;font-feature-settings:normal;} .dn {display:none}  .w00 {stroke-width:3} .w01 {stroke-width:1} .w02 {stroke-width:2} .a00 {fill-opacity:1} .s00 {font-size:19px} .s01 {font-size:15px} .e00 {stroke:#0045ff} .e01 {stroke:#45ffff} .e02 {stroke:#00ff45} .e03 {stroke:#ff4500} .e04 {stroke:none} .e05 {stroke:#808080} .f00 {fill:#b4b4b4} .f01 {fill:#0045ff} .f02 {fill:#45ffff} .f03 {fill:#00ff45} .f04 {fill:#ff4500} .f05 {fill:none} .d00 {stroke-dasharray:none}]]></style></defs><g><path d="M 31.080937,54.952792 93.5323,54.177852" class="ddf f05 e03 w00"/><path d="m 91.29454,45.542602 8.4568,8.81369 -8.81367,8.45681 -4.22842,-4.40685 4.40684,-4.2284 -4.2284,-4.40684 z" class="ddf f04 e04 w00"/><g transform="rotate(90,43.863917,65.761448)" class="ddf"><path d="M 56.465842,79.278319 56.182603,48.198224" class="ddf f05 e02 w00"/><path d="m 47.364843,47.96731 9.04866,-8.586863 8.58687,9.048667 -4.52434,4.293437 -4.29343,-4.524327 -4.52432,4.293421 z" class="ddf f03 e04 w00"/></g><text xml:space="preserve" x="106.3308" y="59.564083" class="ddf s01 f04 e04 w00"><tspan x="106.3308" y="59.564083" class="ddf s01 f04 e04 w00">u</tspan></text><text xml:space="preserve" x="78.846504" y="82.666046" class="ddf s01 f03 e04 w00"><tspan x="78.846504" y="82.666046" class="ddf s01 f03 e04 w00">v = u / 2</tspan></text><g transform="rotate(-90,85.103438,95.636846)" class="ddf"><path d="M 56.465842,107.46746 56.182603,48.198224" class="ddf f05 e02 w00"/><path d="m 47.364843,47.96731 9.04866,-8.586863 8.58687,9.048667 -4.52434,4.293437 -4.29343,-4.524327 -4.52432,4.293421 z" class="ddf f03 e04 w00"/></g><text xml:space="preserve" x="107.34063" y="129.1436" class="ddf s01 f03 e04 w00"><tspan x="107.34063" y="129.1436" class="ddf s01 f03 e04 w00">v = u 路 -1 = -u</tspan></text><text xml:space="preserve" x="51.727554" y="156.52612" class="ddf s01 f03 e04 w00"><tspan x="51.727554" y="156.52612" class="ddf s01 f03 e04 w00">v = u 路 0 = 0</tspan></text><g transform="rotate(90,81.113855,125.56271)" class="ddf"><path d="M 56.465842,175.12141 56.182603,48.198224" class="ddf f05 e02 w00"/><path d="m 47.364843,47.96731 9.04866,-8.586863 8.58687,9.048667 -4.52434,4.293437 -4.29343,-4.524327 -4.52432,4.293421 z" class="ddf f03 e04 w00"/></g><text xml:space="preserve" x="173.10883" y="106.03406" class="ddf s01 f03 e04 w00"><tspan x="173.10883" y="106.03406" class="ddf s01 f03 e04 w00">v = u 路 2</tspan></text><g transform="rotate(-90,98.486846,110.72877)" class="ddf"><circle cx="46.977943" cy="-56.966637" r="2.2148614" transform="rotate(90)" class="ddf f05 e02 w01"/></g><path d="M 278.11047,140.69168 378.56598,97.637453" class="ddf f05 e02 w00"/><path d="m 415.92636,171.07358 6.02985,10.6226 -10.62259,6.02986 -3.01494,-5.31131 5.3113,-3.01492 -3.01492,-5.3113 z" class="ddf f04 e04 w00"/><path d="m 374.07928,90.071575 11.52719,4.768307 -4.76831,11.527178 -5.76359,-2.38415 2.38415,-5.763589 -5.76359,-2.384147 z" class="ddf f03 e04 w00"/><path d="m 268.98813,35.03969 9.04737,-8.588258 8.58825,9.047357 -4.52368,4.294129 -4.29413,-4.523675 -4.52366,4.294121 z" class="ddf f01 e04 w00"/><text xml:space="preserve" x="426.04105" y="190.88828" class="ddf s01 f04 e04 w00"><tspan x="426.04105" y="190.88828" class="ddf s01 f04 e04 w00">X</tspan></text><text xml:space="preserve" x="273.35028" y="20.539387" class="ddf s01 f01 e04 w00"><tspan x="273.35028" y="20.539387" class="ddf s01 f01 e04 w00">Z</tspan></text><text xml:space="preserve" x="390.11191" y="94.459175" class="ddf s01 f03 e04 w00"><tspan x="390.11191" y="94.459175" class="ddf s01 f03 e04 w00">Y</tspan></text><path d="m 278.11047,140.69168 135.57176,38.75103" class="ddf f05 e03 w00"/><path d="M 278.03843,140.07355 277.76302,33.285038" class="ddf f05 e00 w00"/><path d="m 278.72519,140.14481 32.10256,-34.71325 m 6.87794,-7.12553 27.76993,-30.274531" class="ddf f05 e01 w00"/><path d="m 333.58547,67.172294 12.47448,0.0035 -0.004,12.474486 -6.23724,-0.0018 0.002,-6.237239 -6.23723,-0.0018 z" class="ddf f02 e04 w00"/><text xml:space="preserve" x="292.60269" y="97.332436" class="ddf s00 f02 e04 w00"><tspan x="292.60269" y="97.332436" class="ddf s00 f02 e04 w00">p</tspan></text><text xml:space="preserve" x="357.46884" y="57.668587" class="ddf s00 f02 e04 w00"><tspan x="357.46884" y="57.668587" class="ddf s00 f02 e04 w00">q = p 路 2 </tspan></text><circle cx="278.17062" cy="140.53627" r="4.4979167" class="ddf f00 e05 w02"/><circle cx="313.95453" cy="101.67986" r="4.4979167" class="ddf f05 e01 w02"/><circle cx="348.77988" cy="64.114502" r="4.4979167" class="ddf f05 e01 w02"/></g></svg>