<?xml version='1.0' encoding='UTF-8'?>
<svg xmlns="http://www.w3.org/2000/svg" width="1920" height="768" viewBox="0 0 507.99999 203.2" version="1.1" style="background-color:transparent;color-scheme:light dark" xml:space="preserve"><defs><style><![CDATA[.ddf {font-variation-settings:normal;opacity:1;vector-effect:none;fill-opacity:1;stroke-linecap:round;stroke-linejoin:round;stroke-miterlimit:4;stroke-dasharray:none;stroke-dashoffset:0;stroke-opacity:1;stop-color:#000000;stop-opacity:1;display:inline;font-style:normal;font-variant:normal;font-weight:normal;font-stretch:normal;line-height:normal;font-family:Arial;font-variant-ligatures:normal;font-variant-caps:normal;font-variant-numeric:normal;font-variant-east-asian:normal;text-align:start;text-decoration-color:#000000;writing-mode:lr-tb;direction:ltr;text-anchor:start;font-variant-position:normal;font-variant-alternates:normal;text-indent:0;text-decoration-line:none;text-decoration-style:solid;letter-spacing:normal;word-spacing:normal;text-transform:none;text-orientation:mixed;dominant-baseline:auto;baseline-shift:baseline;white-space:normal;} .dn {display:none}  .w00 {stroke-width:3} .w01 {stroke-width:1} .a00 {fill-opacity:1} .s00 {font-size:12px} .s01 {font-size:18px} .s02 {font-size:8px} .e00 {stroke:#45ffff} .e01 {stroke:#00ff45} .e02 {stroke:#ff4500} .e03 {stroke:none} .e04 {stroke:#777777} .f00 {fill:#45ffff} .f01 {fill:#00ff45} .f02 {fill:#ff4500} .f03 {fill:none} .f04 {fill:#777777} .d00 {stroke-dasharray:none}]]></style></defs><g><ellipse cx="105.02598" cy="71.811722" rx="35.840485" ry="60.80801" transform="rotate(17.062709)" class="ddf f03 e04 w00"/><path transform="matrix(0.95205018,0.30594191,-0.28131373,0.95961585,0,0)" d="m 155.40402,62.448627 c 1.34122,-4.145912 3.87252,-6.941108 6.77426,-6.941109 4.30364,-10e-7 7.79244,6.148464 7.79244,13.732991 0,7.584527 -3.4888,13.732992 -7.79244,13.732991 -3.27785,-10e-7 -6.083,-3.566759 -7.23402,-8.618164" class="ddf f03 e04 w01"/><path d="M 81.354792,99.583628 57.37535,63.778032" class="ddf f03 e01 w00"/><path d="m 185.52476,122.81735 6.02985,10.6226 -10.62259,6.02986 -3.01494,-5.31131 5.3113,-3.01492 -3.01492,-5.3113 z" class="ddf f02 e03 w00"/><path d="m 133.44705,108.61333 -4.60529,0.56863 -0.56864,-4.60529 2.30266,-0.28432 0.28431,2.30264 2.30264,-0.28431 z" class="ddf f04 e03 w00"/><path d="m 51.838807,72.010295 1.366261,-12.399444 12.399437,1.366266 -0.683129,6.199716 -6.199716,-0.683128 -0.683128,6.199716 z" class="ddf f01 e03 w00"/><text xml:space="preserve" x="195.27466" y="141.42967" class="ddf s01 f02 e03 w00"><tspan x="195.27466" y="141.42967" class="ddf s01 f02 e03 w00">u</tspan></text><text xml:space="preserve" x="38.585255" y="55.291676" class="ddf s01 f01 e03 w00"><tspan x="38.585255" y="55.291676" class="ddf s01 f01 e03 w00">v</tspan></text><text xml:space="preserve" x="47.398495" y="49.040596" class="ddf s00 f01 e03 w00"><tspan x="47.398495" y="49.040596" class="ddf s00 f01 e03 w00">?</tspan></text><path d="M 91.207078,100.38687 86.503727,93.473703 78.072761,91.897638" class="ddf f03 e04 w01"/><path d="m 326.59725,100.91948 -4.70335,-6.913167 -8.43097,-1.576065" class="ddf f03 e04 w01"/><path d="M 81.11637,99.551533 182.1581,130.8123" class="ddf f03 e02 w00"/><path d="m 327.88159,102.1703 c -0.49607,4.67318 -3.67308,8.00589 -8.72187,10.40271" class="ddf f03 e04 w01"/><ellipse cx="329.87946" cy="2.7979217" rx="35.840485" ry="60.80801" transform="rotate(17.062709)" class="ddf f03 e04 w00"/><path d="m 365.59105,107.47129 c 2.44321,-3.56814 5.63946,-5.47603 8.40206,-4.58826 4.09729,1.31666 5.68915,8.28419 3.55552,15.56243 -2.13363,7.27823 -7.18479,12.11102 -11.28207,10.79436 -3.12068,-1.00283 -4.78795,-5.28376 -4.46275,-10.48332" class="ddf f03 e04 w01"/><path d="M 316.56107,99.583628 292.58163,63.778032" class="ddf f03 e01 w00"/><path d="m 420.73104,122.81735 6.02985,10.6226 -10.62259,6.02986 -3.01494,-5.31131 5.3113,-3.01492 -3.01492,-5.3113 z" class="ddf f02 e03 w00"/><path d="m 368.65333,108.61333 -4.60529,0.56863 -0.56864,-4.60529 2.30266,-0.28432 0.28431,2.30264 2.30264,-0.28431 z" class="ddf f04 e03 w00"/><path d="m 287.04509,72.010295 1.36626,-12.399444 12.39944,1.366266 -0.68313,6.199716 -6.19972,-0.683128 -0.68313,6.199716 z" class="ddf f01 e03 w00"/><text xml:space="preserve" x="430.48093" y="141.42967" class="ddf s01 f02 e03 w00"><tspan x="430.48093" y="141.42967" class="ddf s01 f02 e03 w00">u</tspan></text><text xml:space="preserve" x="327.10739" y="195.69073" class="ddf s01 f00 e03 w00"><tspan x="327.10739" y="195.69073" class="ddf s01 f00 w00">w</tspan></text><text xml:space="preserve" x="341.95004" y="186.95328" class="ddf s02 f00 e03 w00"><tspan x="341.95004" y="186.95328" class="ddf s02 f00 w00">random</tspan></text><text xml:space="preserve" x="210.11575" y="54.701931" class="ddf s01 f01 e03 w00"><tspan x="210.11575" y="54.701931" class="ddf s01 f01 e03 w00">v = u × w</tspan></text><path d="M 316.32265,99.551533 417.36438,130.8123" class="ddf f03 e02 w00"/><g transform="rotate(22.68403,343.7377,91.342334)"><path d="m 321.1373,109.11057 39.92001,61.01975" class="ddf f03 e00 w00"/><path d="m 368.7121,165.67257 -2.49223,12.223 -12.22299,-2.49224 1.24611,-6.11149 6.1115,1.24612 1.24611,-6.1115 z" class="ddf f00 e03 w00"/></g></g></svg>