<?xml version='1.0' encoding='UTF-8'?>
<svg xmlns="http://www.w3.org/2000/svg" width="1920" height="768" viewBox="0 0 507.99999 203.2" version="1.1" style="background-color:transparent;color-scheme:light dark" xml:space="preserve"><defs><style><![CDATA[.ddf {font-variation-settings:normal;display:inline;fill-opacity:1;stroke-linecap:round;stroke-linejoin:round;stroke-miterlimit:4;stroke-dashoffset:0;stroke-opacity:1;stop-color:#000000;vector-effect:none;font-style:normal;font-variant:normal;font-weight:normal;font-stretch:normal;line-height:normal;font-family:Arial;font-variant-ligatures:normal;font-variant-caps:normal;font-variant-numeric:normal;font-variant-east-asian:normal;text-align:start;text-decoration-color:#000000;writing-mode:lr-tb;direction:ltr;text-anchor:start;stop-opacity:1;font-variant-position:normal;font-variant-alternates:normal;text-indent:0;text-decoration-line:none;text-decoration-style:solid;letter-spacing:normal;word-spacing:normal;text-transform:none;text-orientation:mixed;dominant-baseline:auto;baseline-shift:baseline;white-space:normal;} .dn {display:none}  .w00 {stroke-width:3} .w01 {stroke-width:1} .a00 {fill-opacity:1} .s00 {font-size:14px} .s01 {font-size:18px} .e00 {stroke:#ff45ff} .e01 {stroke:#0045ff} .e02 {stroke:#45ffff} .e03 {stroke:#00ff45} .e04 {stroke:#ff4500} .e05 {stroke:none} .e06 {stroke:#777777} .f00 {fill:#ff45ff} .f01 {fill:#0045ff} .f02 {fill:#45ffff} .f03 {fill:#00ff45} .f04 {fill:#ff4500} .f05 {fill:none} .f06 {fill:#777777} .d00 {stroke-dasharray:none} .d01 {stroke-dasharray:1,3}]]></style></defs><g><path d="m 135.08885,91.649438 -8.41679,10.231332 -12.0323,-2.465913" class="ddf f05 e06 w01 d00"/><path d="m 178.76363,100.34516 -49.80558,61.61751" class="ddf f05 e06 w01 d01"/><path d="M 176.32269,100.20164 123.10007,88.922296" class="ddf f05 e06 w01 d01"/><path d="m 100.04367,151.49467 c 0,0 1.79385,-4.20468 1.21434,-8.90299 -0.57952,-4.69832 -2.638046,-6.62181 -2.638046,-6.62181" class="ddf f05 e06 w00 d00"/><path d="M 72.256924,145.45957 172.71242,102.40534" class="ddf f05 e03 w00 d00"/><path d="M 72.436654,144.8578 121.63654,89.559171" class="ddf f05 e02 w00 d00"/><path d="m 176.66531,168.72539 6.02985,10.6226 -10.62259,6.02986 -3.01494,-5.31131 5.3113,-3.01492 -3.01492,-5.3113 z" class="ddf f04 e05 w00 d00"/><path d="m 118.03961,161.9932 6.02985,10.6226 -10.62259,6.02986 -3.01494,-5.31131 5.3113,-3.01492 -3.01492,-5.3113 z" class="ddf f00 e05 w00 d00"/><path d="m 168.22572,94.839461 11.52719,4.768307 -4.76831,11.527182 -5.76359,-2.38415 2.38415,-5.76359 -5.76359,-2.38415 z" class="ddf f03 e05 w00 d00"/><path d="m 115.29292,83.914338 12.44783,-0.815191 0.81518,12.447818 -6.2239,0.407597 -0.4076,-6.223906 -6.22391,0.407596 z" class="ddf f02 e05 w00 d00"/><path d="m 63.134585,39.807576 9.047362,-8.588258 8.58825,9.047357 -4.523676,4.294129 -4.294125,-4.523675 -4.523667,4.294121 z" class="ddf f01 e05 w00 d00"/><text xml:space="preserve" x="186.41521" y="187.33771" class="ddf s01 f04 e05 w00 d00"><tspan x="186.41521" y="187.33771" class="ddf s01 f04 e05 w00 d00">u</tspan></text><text xml:space="preserve" x="29.432924" y="182.99927" class="ddf s01 f00 e05 w00 d00"><tspan x="29.432924" y="182.99927" class="ddf s01 f00 e05 w00 d00">u · v ·</tspan></text><text xml:space="preserve" x="81.275917" y="182.23639" class="ddf s01 f00 e05 w00 d00"><tspan x="81.275917" y="182.23639" class="ddf s01 f00 e05 w00 d00">u</tspan></text><text xml:space="preserve" x="92.092865" y="73.829636" class="ddf s01 f02 e05 w00 d00"><tspan x="92.092865" y="73.829636" class="ddf s01 f02 e05 w00 d00">u × v ×</tspan></text><text xml:space="preserve" x="152.92418" y="72.961975" class="ddf s01 f02 e05 w00 d00"><tspan x="152.92418" y="72.961975" class="ddf s01 f02 e05 w00 d00">u</tspan></text><text xml:space="preserve" x="107.6741" y="147.43491" class="ddf s00 f06 e05 w00 d00"><tspan x="107.6741" y="147.43491" class="ddf s00 f06 w00">a</tspan></text><text xml:space="preserve" x="52.853806" y="25.720619" class="ddf s01 f01 e05 w00 d00"><tspan x="52.853806" y="25.720619" class="ddf s01 f01 w00">u × v</tspan></text><text xml:space="preserve" x="184.56476" y="99.38755" class="ddf s01 f03 e05 w00 d00"><tspan x="184.56476" y="99.38755" class="ddf s01 f03 e05 w00 d00">v</tspan></text><path d="m 134.32083,154.29687 -7.27604,-2.24896 -5.55625,6.74687" class="ddf f05 e06 w01 d00"/><path d="M 72.256924,145.45957 173.29865,176.72034" class="ddf f05 e04 w00 d00"/><path d="m 64.077303,155.09645 57.147197,16.7635" class="ddf f05 e00 w00 d00"/><path d="M 72.184883,144.84144 71.909473,38.052924" class="ddf f05 e01 w00 d00"/><path d="m 31.230726,169.9542 2.80655,-2.51594 2.92855,2.47329" class="ddf f05 e00 w01 d00"/><path d="m 83.340592,169.9542 2.80655,-2.51594 2.92855,2.47329" class="ddf f05 e00 w01 d00"/><path d="m 94.04029,60.511373 2.80655,-2.51594 2.92855,2.47329" class="ddf f05 e02 w01 d00"/><path d="m 54.739579,13.38508 2.80655,-2.51594 2.92855,2.47329" class="ddf f05 e01 w01 d00"/><path d="m 155.07718,60.308487 2.80655,-2.51594 2.92855,2.47329" class="ddf f05 e02 w01 d00"/><path d="M 358.33549,91.649438 349.9187,101.88077 337.8864,99.414857" class="ddf f05 e06 w01 d00"/><path d="m 402.01027,100.34516 -49.80558,61.61751" class="ddf f05 e06 w01 d01"/><path d="M 399.56933,100.20164 346.34671,88.922296" class="ddf f05 e06 w01 d01"/><path d="m 323.29031,151.49467 c 0,0 1.79385,-4.20468 1.21434,-8.90299 -0.57952,-4.69832 -2.63804,-6.62181 -2.63804,-6.62181" class="ddf f05 e06 w00 d00"/><path d="M 295.50357,145.45957 395.95906,102.40534" class="ddf f05 e03 w00 d00"/><path d="M 295.6833,144.8578 344.88318,89.559171" class="ddf f05 e02 w00 d00"/><path d="m 399.91195,168.72539 6.02985,10.6226 -10.62259,6.02986 -3.01494,-5.31131 5.3113,-3.01492 -3.01492,-5.3113 z" class="ddf f04 e05 w00 d00"/><path d="m 341.28625,161.9932 6.02985,10.6226 -10.62259,6.02986 -3.01494,-5.31131 5.3113,-3.01492 -3.01492,-5.3113 z" class="ddf f00 e05 w00 d00"/><path d="m 391.47236,94.839461 11.52719,4.768307 -4.76831,11.527182 -5.76359,-2.38415 2.38415,-5.76359 -5.76359,-2.38415 z" class="ddf f03 e05 w00 d00"/><path d="m 338.53956,83.914338 12.44783,-0.815191 0.81518,12.447818 -6.2239,0.407597 -0.4076,-6.223906 -6.22391,0.407596 z" class="ddf f02 e05 w00 d00"/><text xml:space="preserve" x="409.66183" y="187.33771" class="ddf s01 f04 e05 w00 d00"><tspan x="409.66183" y="187.33771" class="ddf s01 f04 e05 w00 d00">u</tspan></text><text xml:space="preserve" x="252.67957" y="182.99927" class="ddf s01 f00 e05 w00 d00"><tspan x="252.67957" y="182.99927" class="ddf s01 f00 e05 w00 d00">u · v ·</tspan></text><text xml:space="preserve" x="304.2532" y="182.20145" class="ddf s01 f00 e05 w00 d00"><tspan x="304.2532" y="182.20145" class="ddf s01 f00 e05 w00 d00">u</tspan></text><text xml:space="preserve" x="303.09512" y="73.829636" class="ddf s01 f02 e05 w00 d00"><tspan x="303.09512" y="73.829636" class="ddf s01 f02 e05 w00 d00">v - u · v ·</tspan></text><text xml:space="preserve" x="380.44229" y="73.302948" class="ddf s01 f02 e05 w00 d00"><tspan x="380.44229" y="73.302948" class="ddf s01 f02 e05 w00 d00">u</tspan></text><text xml:space="preserve" x="330.92075" y="147.43491" class="ddf s00 f06 e05 w00 d00"><tspan x="330.92075" y="147.43491" class="ddf s00 f06 w00">a</tspan></text><text xml:space="preserve" x="407.8114" y="99.38755" class="ddf s01 f03 e05 w00 d00"><tspan x="407.8114" y="99.38755" class="ddf s01 f03 e05 w00 d00">v</tspan></text><path d="m 357.56747,154.29687 -7.27604,-2.24896 -5.55625,6.74687" class="ddf f05 e06 w01 d00"/><path d="m 295.50357,145.45957 101.04172,31.26077" class="ddf f05 e04 w00 d00"/><path d="m 287.32395,155.09645 57.14719,16.7635" class="ddf f05 e00 w00 d00"/><path d="m 254.47737,169.9542 2.80655,-2.51594 2.92855,2.47329" class="ddf f05 e00 w01 d00"/><path d="m 306.58724,169.9542 2.80655,-2.51594 2.92855,2.47329" class="ddf f05 e00 w01 d00"/><path d="m 330.52797,60.511373 2.80655,-2.51594 2.92855,2.47329" class="ddf f05 e02 w01 d00"/><path d="m 382.45275,60.308487 2.80655,-2.51594 2.92855,2.47329" class="ddf f05 e02 w01 d00"/></g></svg>