<?xml version='1.0' encoding='UTF-8'?>
<svg xmlns="http://www.w3.org/2000/svg" width="1920" height="768" viewBox="0 0 507.99999 203.2" version="1.1" style="background-color:transparent;color-scheme:light dark" xml:space="preserve"><defs><style><![CDATA[.ddf {font-variation-settings:normal;display:inline;vector-effect:none;fill-opacity:1;stroke-linecap:round;stroke-linejoin:round;stroke-miterlimit:4;stroke-dashoffset:0;stroke-opacity:1;stop-color:#000000;font-style:normal;font-variant:normal;font-weight:normal;font-stretch:normal;line-height:normal;font-family:Arial;font-variant-ligatures:normal;font-variant-caps:normal;font-variant-numeric:normal;font-variant-east-asian:normal;text-align:start;text-decoration-color:#000000;writing-mode:lr-tb;direction:ltr;text-anchor:start;stop-opacity:1;font-variant-position:normal;font-variant-alternates:normal;text-indent:0;text-decoration-line:none;text-decoration-style:solid;letter-spacing:normal;word-spacing:normal;text-transform:none;text-orientation:mixed;dominant-baseline:auto;baseline-shift:baseline;white-space:normal;font-feature-settings:normal;opacity:1;} .dn {display:none}  .w00 {stroke-width:3} .w01 {stroke-width:1} .w02 {stroke-width:2} .a00 {fill-opacity:1} .s00 {font-size:16px} .s01 {font-size:13px} .s02 {font-size:8px} .e00 {stroke:#b4b4b4} .e01 {stroke:#0045ff} .e02 {stroke:#00ff45} .e03 {stroke:#ff4500} .e04 {stroke:none} .e05 {stroke:#808080} .f00 {fill:#b4b4b4} .f01 {fill:#0045ff} .f02 {fill:#00ff45} .f03 {fill:#ff4500} .f04 {fill:none} .f05 {fill:#808080} .d00 {stroke-dasharray:none} .d01 {stroke-dasharray:1,3}]]></style></defs><g><path d="M 43.367999,131.85855 84.814538,93.120082" class="ddf f04 e02 w00 d00"/><path d="m 99.713688,165.64482 1.600382,10.06461 -10.064602,1.6004 -0.8002,-5.03232 5.0323,-0.80019 -0.80019,-5.0323 z" class="ddf f03 e04 w00 d00"/><path d="m 78.925538,88.564012 10.40589,-0.19936 0.19935,10.40589 -5.20294,0.0997 -0.0997,-5.20295 -5.20295,0.0997 z" class="ddf f02 e04 w00 d00"/><path d="m 35.756983,43.710234 7.548466,-7.165416 7.16541,7.548455 -3.774229,3.582708 -3.582709,-3.774224 -3.774212,3.582701 z" class="ddf f01 e04 w00 d00"/><text xml:space="preserve" x="105.09837" y="184.94633" class="ddf s01 f03 e04 w00 d00"><tspan x="105.09837" y="184.94633" class="ddf s01 f03 e04 w00 d00">X</tspan></text><text xml:space="preserve" x="39.396439" y="31.612236" class="ddf s01 f01 e04 w00 d00"><tspan x="39.396439" y="31.612236" class="ddf s01 f01 e04 w00 d00">Z</tspan></text><text xml:space="preserve" x="90.252769" y="88.216316" class="ddf s01 f02 e04 w00 d00"><tspan x="90.252769" y="88.216316" class="ddf s01 f02 e04 w00 d00">Y</tspan></text><path d="m 43.367999,131.85855 52.297859,39.72272" class="ddf f04 e03 w00 d00"/><path d="M 43.307894,131.34283 43.078112,42.246281" class="ddf f04 e01 w00 d00"/><text xml:space="preserve" x="154.32642" y="33.3694" class="ddf s00 f05 e04 w00 d00"><tspan x="154.32642" y="33.3694" class="ddf s00 f05 e04 w00 d00">o</tspan></text><g transform="translate(0.40270208,22.954018)"><text xml:space="preserve" x="117.3513" y="140.07814" class="ddf s00 f05 e04 w00 d00"><tspan x="117.3513" y="140.07814" class="ddf s00 f05 e04 w00 d00">p</tspan></text><text xml:space="preserve" x="136.27829" y="140.07814" class="ddf s00 f05 e04 w00 d00"><tspan x="136.27829" y="140.07814" class="ddf s00 f05 e04 w00 d00">= [ ?, ?, ? ]</tspan></text><text xml:space="preserve" x="126.02953" y="131.89482" class="ddf s02 f05 e04 w00 d00"><tspan x="126.02953" y="131.89482" class="ddf s02 f05 e04 w00 d00">W</tspan></text></g><text xml:space="preserve" x="135.8756" y="140.35596" class="ddf s00 f05 e04 w00 d00"><tspan x="135.8756" y="140.35596" class="ddf s00 f05 e04 w00 d00">= [ p</tspan></text><text xml:space="preserve" x="173.12553" y="140.35596" class="ddf s00 f05 e04 w00 d00"><tspan x="173.12553" y="140.35596" class="ddf s00 f05 e04 w00 d00">, p</tspan></text><text xml:space="preserve" x="118.11695" y="140.15996" class="ddf s00 f05 e04 w00 d00"><tspan x="118.11695" y="140.15996" class="ddf s00 f05 e04 w00 d00">p</tspan></text><text xml:space="preserve" x="126.96907" y="131.87596" class="ddf s02 f05 e04 w00 d00"><tspan x="126.96907" y="131.87596" class="ddf s02 f05 e04 w00 d00">L</tspan></text><text xml:space="preserve" x="167.87288" y="135.19826" class="ddf s02 f05 e04 w00 d00"><tspan x="167.87288" y="135.19826" class="ddf s02 f05 e04 w00 d00">L</tspan></text><text xml:space="preserve" x="190.9379" y="135.19826" class="ddf s02 f05 e04 w00 d00"><tspan x="190.9379" y="135.19826" class="ddf s02 f05 e04 w00 d00">L</tspan></text><text xml:space="preserve" x="214.14529" y="135.19826" class="ddf s02 f05 e04 w00 d00"><tspan x="214.14529" y="135.19826" class="ddf s02 f05 e04 w00 d00">L</tspan></text><text xml:space="preserve" x="168.01765" y="143.96408" class="ddf s02 f05 e04 w00 d00"><tspan x="168.01765" y="143.96408" class="ddf s02 f05 e04 w00 d00">x</tspan></text><text xml:space="preserve" x="191.2737" y="143.96408" class="ddf s02 f05 e04 w00 d00"><tspan x="191.2737" y="143.96408" class="ddf s02 f05 e04 w00 d00">y</tspan></text><text xml:space="preserve" x="196.2809" y="140.35596" class="ddf s00 f05 e04 w00 d00"><tspan x="196.2809" y="140.35596" class="ddf s00 f05 e04 w00 d00">, p</tspan></text><text xml:space="preserve" x="222.90533" y="140.35596" class="ddf s00 f05 e04 w00 d00"><tspan x="222.90533" y="140.35596" class="ddf s00 f05 e04 w00 d00">]</tspan></text><text xml:space="preserve" x="214.42906" y="143.96408" class="ddf s02 f05 e04 w00 d00"><tspan x="214.42906" y="143.96408" class="ddf s02 f05 e04 w00 d00">z</tspan></text><text xml:space="preserve" x="19.010918" y="180.70767" class="ddf s00 f05 e04 w00 d00"><tspan x="19.010918" y="180.70767" class="ddf s00 f05 e04 w00 d00">World</tspan></text><text xml:space="preserve" x="99.772438" y="21.515753" class="ddf s00 f05 e04 w00 d00"><tspan x="99.772438" y="21.515753" class="ddf s00 f05 e04 w00 d00">Local</tspan></text><text xml:space="preserve" x="94.482483" y="48.757469" class="ddf s00 f02 e04 w00 d00"><tspan x="94.482483" y="48.757469" class="ddf s00 f02 e04 w00 d00">u</tspan></text><text xml:space="preserve" x="375.21228" y="35.065365" class="ddf s00 f02 e04 w00 d00"><tspan x="375.21228" y="35.065365" class="ddf s00 f02 e04 w00 d00">u</tspan></text><text xml:space="preserve" x="206.46552" y="85.216354" class="ddf s00 f03 e04 w00 d00"><tspan x="206.46552" y="85.216354" class="ddf s00 f03 e04 w00 d00">v</tspan></text><text xml:space="preserve" x="139.04811" y="119.25656" class="ddf s00 f01 e04 w00 d00"><tspan x="139.04811" y="119.25656" class="ddf s00 f01 e04 w00 d00">n</tspan></text><text xml:space="preserve" x="23.047478" y="142.00186" class="ddf s00 f05 e04 w00 d00"><tspan x="23.047478" y="142.00186" class="ddf s00 f05 e04 w00 d00">O</tspan></text><circle cx="43.418182" cy="131.7289" r="3.7527339" class="ddf f00 e05 w02 d00"/><path d="m 152.76301,43.174374 -8.11777,56.147895" class="ddf f04 e01 w00 d00"/><path d="m 116.45887,51.642191 -7.54271,-6.853103 6.85308,-7.542725 3.77138,3.426556 -3.42655,3.771355 3.77135,3.426548 z" class="ddf f02 e04 w00 d00"/><path d="m 152.08983,99.194924 -7.99554,6.662856 -6.66284,-7.995552 3.99775,-3.331439 3.33145,3.997763 3.99776,-3.331445 z" class="ddf f01 e04 w00 d00"/><path d="m 200.03529,63.584349 1.75697,10.258443 -10.25844,1.756971 -0.87848,-5.12922 5.12922,-0.878487 -0.87851,-5.129194 z" class="ddf f03 e04 w00 d00"/><path d="M 152.76301,43.174374 115.7039,44.277051" class="ddf f04 e02 w00 d00"/><path d="m 153.13242,43.539225 42.80766,26.092109" class="ddf f04 e03 w00 d00"/><circle cx="-92.159149" cy="-129.35042" r="3.7527339" transform="rotate(141.29241)" class="ddf f00 e05 w02 d00"/><circle cx="-10.107269" cy="-161.35681" r="3.7527339" transform="rotate(141.29241)" class="ddf f00 e05 w02 d00"/><path d="M 44.991032,130.98655 C 62.128544,119.67784 82.387328,115.55323 107.06726,119.31166" class="ddf f04 e00 w01 d01"/><path d="m 152.6278,42.143498 c -10.57455,25.125063 -20.42973,51.55051 -43.56726,76.029152" class="ddf f04 e00 w01 d01"/><path d="M 289.39491,131.85855 330.84145,93.120082" class="ddf f04 e02 w00 d00"/><path d="m 345.7406,165.64482 1.60038,10.06461 -10.0646,1.6004 -0.8002,-5.03232 5.0323,-0.80019 -0.80019,-5.0323 z" class="ddf f03 e04 w00 d00"/><path d="m 324.95245,88.564012 10.40589,-0.19936 0.19935,10.40589 -5.20294,0.0997 -0.0997,-5.20295 -5.20295,0.0997 z" class="ddf f02 e04 w00 d00"/><path d="m 281.78389,43.710234 7.54847,-7.165416 7.16541,7.548455 -3.77423,3.582708 -3.58271,-3.774224 -3.77421,3.582701 z" class="ddf f01 e04 w00 d00"/><text xml:space="preserve" x="351.12527" y="184.94633" class="ddf s01 f03 e04 w00 d00"><tspan x="351.12527" y="184.94633" class="ddf s01 f03 e04 w00 d00">X</tspan></text><text xml:space="preserve" x="285.42334" y="31.612236" class="ddf s01 f01 e04 w00 d00"><tspan x="285.42334" y="31.612236" class="ddf s01 f01 e04 w00 d00">Z</tspan></text><text xml:space="preserve" x="336.27969" y="88.216316" class="ddf s01 f02 e04 w00 d00"><tspan x="336.27969" y="88.216316" class="ddf s01 f02 e04 w00 d00">Y</tspan></text><path d="m 289.39491,131.85855 52.29786,39.72272" class="ddf f04 e03 w00 d00"/><path d="M 289.3348,131.34283 289.10502,42.246281" class="ddf f04 e01 w00 d00"/><text xml:space="preserve" x="400.35333" y="33.3694" class="ddf s00 f05 e04 w00 d00"><tspan x="400.35333" y="33.3694" class="ddf s00 f05 e04 w00 d00">o</tspan></text><text xml:space="preserve" x="307.26068" y="34.826279" class="ddf s00 f05 e04 w00 d00"><tspan x="307.26068" y="34.826279" class="ddf s00 f05 e04 w00 d00">o</tspan></text><text xml:space="preserve" x="347.52136" y="143.774" class="ddf s00 f05 e04 w00 d00"><tspan x="347.52136" y="143.774" class="ddf s00 f05 e04 w00 d00">p</tspan></text><text xml:space="preserve" x="363.22675" y="147.19698" class="ddf s00 f05 e04 w00 d00"><tspan x="363.22675" y="147.19698" class="ddf s00 f05 e04 w00 d00"/></text><text xml:space="preserve" x="356.19958" y="135.59068" class="ddf s02 f05 e04 w00 d00"><tspan x="356.19958" y="135.59068" class="ddf s02 f05 e04 w00 d00">W</tspan></text><text xml:space="preserve" x="318.67209" y="36.368111" class="ddf s00 f05 e04 w00 d00"><tspan x="318.67209" y="36.368111" class="ddf s00 f05 e04 w00 d00">+</tspan></text><text xml:space="preserve" x="329.38983" y="35.19701" class="ddf s00 f02 e04 w00 d00"><tspan x="329.38983" y="35.19701" class="ddf s00 f02 e04 w00 d00">u</tspan></text><text xml:space="preserve" x="423.19116" y="51.342979" class="ddf s00 f03 e04 w00 d00"><tspan x="423.19116" y="51.342979" class="ddf s00 f03 e04 w00 d00">v</tspan></text><text xml:space="preserve" x="385.07501" y="119.25656" class="ddf s00 f01 e04 w00 d00"><tspan x="385.07501" y="119.25656" class="ddf s00 f01 e04 w00 d00">n</tspan></text><text xml:space="preserve" x="400.42358" y="177.7796" class="ddf s00 f01 e04 w00 d00"><tspan x="400.42358" y="177.7796" class="ddf s00 f01 e04 w00 d00">n</tspan></text><text xml:space="preserve" x="269.0744" y="142.00186" class="ddf s00 f05 e04 w00 d00"><tspan x="269.0744" y="142.00186" class="ddf s00 f05 e04 w00 d00">O</tspan></text><circle cx="289.4451" cy="131.7289" r="3.7527339" class="ddf f00 e05 w02 d00"/><path d="m 398.78992,43.174374 -8.11777,56.147895" class="ddf f04 e01 w00 d00"/><path d="m 362.48578,51.642191 -7.54271,-6.853103 6.85308,-7.542725 3.77138,3.426556 -3.42655,3.771355 3.77135,3.426548 z" class="ddf f02 e04 w00 d00"/><path d="m 398.11674,99.194924 -7.99554,6.662856 -6.66284,-7.995552 3.99775,-3.331439 3.33145,3.997763 3.99776,-3.331445 z" class="ddf f01 e04 w00 d00"/><path d="m 446.0622,63.584349 1.75697,10.258443 -10.25844,1.756971 -0.87848,-5.12922 5.12922,-0.878487 -0.87851,-5.129194 z" class="ddf f03 e04 w00 d00"/><path d="m 398.78992,43.174374 -37.05911,1.102677" class="ddf f04 e02 w00 d00"/><path d="m 399.15933,43.539225 42.80766,26.092109" class="ddf f04 e03 w00 d00"/><circle cx="-284.14566" cy="-283.20236" r="3.7527339" transform="rotate(141.29241)" class="ddf f00 e05 w02 d00"/><circle cx="-202.09377" cy="-315.20877" r="3.7527339" transform="rotate(141.29241)" class="ddf f00 e05 w02 d00"/><path d="m 398.65471,43.150253 -82.38418,2.123957 45.46042,25.636416 -6.6435,48.671484" class="ddf f04 e00 w01 d01"/><circle cx="-218.47362" cy="-233.37592" r="3.7527339" transform="rotate(141.29241)" class="ddf f00 e05 w02 d00"/><circle cx="-237.39931" cy="-282.10913" r="3.7527339" transform="rotate(141.29241)" class="ddf f00 e05 w02 d00"/><text xml:space="preserve" x="352.97681" y="37.223778" class="ddf s02 f05 e04 w00 d00"><tspan x="352.97681" y="37.223778" class="ddf s02 f05 e04 w00 d00">x</tspan></text><text xml:space="preserve" x="381.47955" y="87.699013" class="ddf s00 f05 e04 w00 d00"><tspan x="381.47955" y="87.699013" class="ddf s00 f05 e04 w00 d00">+</tspan></text><text xml:space="preserve" x="392.1973" y="86.527908" class="ddf s00 f02 e04 w00 d00"><tspan x="392.1973" y="86.527908" class="ddf s00 f02 e04 w00 d00">u</tspan></text><text xml:space="preserve" x="400.4527" y="86.527908" class="ddf s00 f05 e04 w00 d00"><tspan x="400.4527" y="86.527908" class="ddf s00 f05 e04 w00 d00">·p</tspan></text><text xml:space="preserve" x="415.78427" y="88.55468" class="ddf s02 f05 e04 w00 d00"><tspan x="415.78427" y="88.55468" class="ddf s02 f05 e04 w00 d00">x</tspan></text><text xml:space="preserve" x="420.23962" y="87.699013" class="ddf s00 f05 e04 w00 d00"><tspan x="420.23962" y="87.699013" class="ddf s00 f05 e04 w00 d00">+</tspan></text><text xml:space="preserve" x="430.85669" y="86.527908" class="ddf s00 f03 e04 w00 d00"><tspan x="430.85669" y="86.527908" class="ddf s00 f03 e04 w00 d00">v</tspan></text><text xml:space="preserve" x="439.01141" y="86.527908" class="ddf s00 f05 e04 w00 d00"><tspan x="439.01141" y="86.527908" class="ddf s00 f05 e04 w00 d00">·p</tspan></text><text xml:space="preserve" x="454.7457" y="88.55468" class="ddf s02 f05 e04 w00 d00"><tspan x="454.7457" y="88.55468" class="ddf s02 f05 e04 w00 d00">y</tspan></text><text xml:space="preserve" x="318.67209" y="36.368111" class="ddf s00 f05 e04 w00 d00"><tspan x="318.67209" y="36.368111" class="ddf s00 f05 e04 w00 d00">+</tspan></text><text xml:space="preserve" x="329.38983" y="35.19701" class="ddf s00 f02 e04 w00 d00"><tspan x="329.38983" y="35.19701" class="ddf s00 f02 e04 w00 d00">u</tspan></text><text xml:space="preserve" x="337.92999" y="35.339386" class="ddf s00 f05 e04 w00 d00"><tspan x="337.92999" y="35.339386" class="ddf s00 f05 e04 w00 d00">·p</tspan></text><text xml:space="preserve" x="352.97681" y="37.223778" class="ddf s02 f05 e04 w00 d00"><tspan x="352.97681" y="37.223778" class="ddf s02 f05 e04 w00 d00">x</tspan></text><text xml:space="preserve" x="370.8259" y="86.19342" class="ddf s00 f05 e04 w00 d00"><tspan x="370.8259" y="86.19342" class="ddf s00 f05 e04 w00 d00">o</tspan></text><text xml:space="preserve" x="389.62671" y="145.49998" class="ddf s00 f05 e04 w00 d00"><tspan x="389.62671" y="145.49998" class="ddf s00 f05 e04 w00 d00">+</tspan></text><text xml:space="preserve" x="400.46277" y="144.32887" class="ddf s00 f02 e04 w00 d00"><tspan x="400.46277" y="144.32887" class="ddf s00 f02 e04 w00 d00">u</tspan></text><text xml:space="preserve" x="409.5965" y="144.32887" class="ddf s00 f05 e04 w00 d00"><tspan x="409.5965" y="144.32887" class="ddf s00 f05 e04 w00 d00">·p</tspan></text><text xml:space="preserve" x="424.93307" y="146.35565" class="ddf s02 f05 e04 w00 d00"><tspan x="424.93307" y="146.35565" class="ddf s02 f05 e04 w00 d00">x</tspan></text><text xml:space="preserve" x="389.62671" y="162.15805" class="ddf s00 f05 e04 w00 d00"><tspan x="389.62671" y="162.15805" class="ddf s00 f05 e04 w00 d00">+</tspan></text><text xml:space="preserve" x="400.84277" y="160.98694" class="ddf s00 f03 e04 w00 d00"><tspan x="400.84277" y="160.98694" class="ddf s00 f03 e04 w00 d00">v</tspan></text><text xml:space="preserve" x="409.5965" y="160.98694" class="ddf s00 f05 e04 w00 d00"><tspan x="409.5965" y="160.98694" class="ddf s00 f05 e04 w00 d00">·p</tspan></text><text xml:space="preserve" x="424.90207" y="163.01372" class="ddf s02 f05 e04 w00 d00"><tspan x="424.90207" y="163.01372" class="ddf s02 f05 e04 w00 d00">y</tspan></text><text xml:space="preserve" x="389.62671" y="179.10089" class="ddf s00 f05 e04 w00 d00"><tspan x="389.62671" y="179.10089" class="ddf s00 f05 e04 w00 d00">+</tspan></text><text xml:space="preserve" x="409.5965" y="177.92978" class="ddf s00 f05 e04 w00 d00"><tspan x="409.5965" y="177.92978" class="ddf s00 f05 e04 w00 d00">·p</tspan></text><text xml:space="preserve" x="424.90207" y="179.95656" class="ddf s02 f05 e04 w00 d00"><tspan x="424.90207" y="179.95656" class="ddf s02 f05 e04 w00 d00">z</tspan></text><text xml:space="preserve" x="365.39847" y="143.99438" class="ddf s00 f05 e04 w00 d00"><tspan x="365.39847" y="143.99438" class="ddf s00 f05 e04 w00 d00">= o</tspan></text><text xml:space="preserve" x="352.52182" y="29.725613" class="ddf s02 f05 e04 w00 d00"><tspan x="352.52182" y="29.725613" class="ddf s02 f05 e04 w00 d00">L</tspan></text><text xml:space="preserve" x="415.20419" y="81.377838" class="ddf s02 f05 e04 w00 d00"><tspan x="415.20419" y="81.377838" class="ddf s02 f05 e04 w00 d00">L</tspan></text><text xml:space="preserve" x="454.35556" y="81.224159" class="ddf s02 f05 e04 w00 d00"><tspan x="454.35556" y="81.224159" class="ddf s02 f05 e04 w00 d00">L</tspan></text><text xml:space="preserve" x="424.53619" y="139.45284" class="ddf s02 f05 e04 w00 d00"><tspan x="424.53619" y="139.45284" class="ddf s02 f05 e04 w00 d00">L</tspan></text><text xml:space="preserve" x="424.53619" y="155.5414" class="ddf s02 f05 e04 w00 d00"><tspan x="424.53619" y="155.5414" class="ddf s02 f05 e04 w00 d00">L</tspan></text><text xml:space="preserve" x="424.53619" y="172.91135" class="ddf s02 f05 e04 w00 d00"><tspan x="424.53619" y="172.91135" class="ddf s02 f05 e04 w00 d00">L</tspan></text></g></svg>