<?xml version='1.0' encoding='UTF-8'?>
<svg xmlns="http://www.w3.org/2000/svg" width="1920" height="768" viewBox="0 0 507.99999 203.2" version="1.1" style="background-color:transparent;color-scheme:light dark" xml:space="preserve"><defs><style><![CDATA[.ddf {font-variation-settings:normal;display:inline;vector-effect:none;fill-opacity:1;stroke-linecap:round;stroke-linejoin:round;stroke-miterlimit:4;stroke-dasharray:none;stroke-dashoffset:0;stroke-opacity:1;stop-color:#000000;font-style:normal;font-variant:normal;font-weight:normal;font-stretch:normal;font-size:14.8167px;line-height:normal;font-family:Arial;font-variant-ligatures:normal;font-variant-caps:normal;font-variant-numeric:normal;font-variant-east-asian:normal;text-align:start;text-decoration-color:#000000;writing-mode:lr-tb;direction:ltr;text-anchor:start;} .dn {display:none}  .w00 {stroke-width:3} .w01 {stroke-width:2} .a00 {fill-opacity:1} .s00 {font-size:14px} .e00 {stroke:#ff4500} .e01 {stroke:none} .e02 {stroke:#00ff45} .f00 {fill:#b4b4b4} .f01 {fill:none} .f02 {fill:#00ff45} .f03 {fill:#777777} .d00 {stroke-dasharray:none}]]></style></defs><g><path d="m 228.62731,79.386402 19.6928,-19.472784" class="ddf f01 e02 w00"/><path d="m 241.84999,53.944035 12.47378,-0.130463 0.13047,12.473794 -6.2369,0.0652 -0.0652,-6.236893 -6.23689,0.06523 z" class="ddf f02 e01 w00"/><path d="m 269.40811,68.29721 19.6928,-19.472784" class="ddf f01 e02 w00"/><path d="m 282.63079,42.854843 12.47378,-0.130463 0.13047,12.473794 -6.2369,0.0652 -0.0652,-6.236893 -6.23689,0.06523 z" class="ddf f02 e01 w00"/><path d="m 254.97083,113.14991 19.6928,-19.472782" class="ddf f01 e02 w00"/><path d="m 268.19351,87.707545 12.47378,-0.130463 0.13047,12.473798 -6.2369,0.0652 -0.0652,-6.236897 -6.23689,0.06523 z" class="ddf f02 e01 w00"/><path d="m 337.23467,71.069508 19.6928,-19.472784" class="ddf f01 e02 w00"/><path d="m 350.45735,45.627141 12.47378,-0.130463 0.13047,12.473794 -6.2369,0.0652 -0.0652,-6.236893 -6.23689,0.06523 z" class="ddf f02 e01 w00"/><path d="m 221.50687,116.15183 19.6928,-19.472783" class="ddf f01 e02 w00"/><path d="m 234.72955,90.709464 12.47378,-0.130463 0.13047,12.473789 -6.2369,0.0652 -0.0652,-6.236888 -6.23689,0.06523 z" class="ddf f02 e01 w00"/><path d="m 295.61351,86.312185 19.6928,-19.472784" class="ddf f01 e02 w00"/><path d="m 308.83619,60.869818 12.47378,-0.130463 0.13047,12.473794 -6.2369,0.0652 -0.0652,-6.236893 -6.23689,0.06523 z" class="ddf f02 e01 w00"/><path d="m 239.625,150.19158 19.6928,-19.47279" class="ddf f01 e02 w00"/><path d="m 252.84768,124.74921 12.47378,-0.13046 0.13047,12.47379 -6.2369,0.0652 -0.0652,-6.23689 -6.23689,0.0652 z" class="ddf f02 e01 w00"/><path d="m 284.60417,128.49575 19.6928,-19.47279" class="ddf f01 e02 w00"/><path d="m 297.82685,103.05338 12.47378,-0.13046 0.13047,12.47379 -6.2369,0.0652 -0.0652,-6.23689 -6.23689,0.0652 z" class="ddf f02 e01 w00"/><path d="m 250.7375,170.82907 19.6928,-19.47278" class="ddf f01 e02 w00"/><path d="m 263.96018,145.38671 12.47378,-0.13047 0.13047,12.4738 -6.2369,0.0652 -0.0652,-6.23689 -6.23689,0.0652 z" class="ddf f02 e01 w00"/><path d="m 213.16667,188.82074 19.6928,-19.47278" class="ddf f01 e02 w00"/><path d="m 226.38935,163.37837 12.47378,-0.13046 0.13047,12.4738 -6.2369,0.0652 -0.0652,-6.2369 -6.23689,0.0652 z" class="ddf f02 e01 w00"/><path d="m 364.50833,196.22908 19.6928,-19.47279" class="ddf f01 e02 w00"/><path d="m 377.73101,170.78671 12.47378,-0.13046 0.13047,12.47379 -6.2369,0.0652 -0.0652,-6.23689 -6.23689,0.0652 z" class="ddf f02 e01 w00"/><path d="m 407.06136,160.89145 19.6928,-19.47278" class="ddf f01 e02 w00"/><path d="m 420.28404,135.44908 12.47378,-0.13046 0.13047,12.47379 -6.2369,0.0652 -0.0652,-6.23689 -6.23689,0.0652 z" class="ddf f02 e01 w00"/><path d="m 294.12917,181.41241 19.6928,-19.47278" class="ddf f01 e02 w00"/><path d="m 307.35185,155.97005 12.47378,-0.13047 0.13047,12.4738 -6.2369,0.0652 -0.0652,-6.23689 -6.23689,0.0652 z" class="ddf f02 e01 w00"/><path d="m 299.42083,148.07491 19.6928,-19.47278" class="ddf f01 e02 w00"/><path d="m 312.64351,122.63255 12.47378,-0.13047 0.13047,12.4738 -6.2369,0.0652 -0.0652,-6.2369 -6.23689,0.0652 z" class="ddf f02 e01 w00"/><path d="m 327.99583,107.85825 19.6928,-19.472788" class="ddf f01 e02 w00"/><path d="m 341.21851,82.415879 12.47378,-0.130463 0.13047,12.473794 -6.2369,0.0652 -0.0652,-6.236893 -6.23689,0.06523 z" class="ddf f02 e01 w00"/><path d="m 340.69583,151.24991 19.6928,-19.47278" class="ddf f01 e02 w00"/><path d="m 353.91851,125.80755 12.47378,-0.13047 0.13047,12.4738 -6.2369,0.0652 -0.0652,-6.2369 -6.23689,0.0652 z" class="ddf f02 e01 w00"/><path d="m 394.82061,121.19057 19.6928,-19.47278" class="ddf f01 e02 w00"/><path d="m 408.04329,95.748202 12.47378,-0.130463 0.13047,12.473791 -6.2369,0.0652 -0.0652,-6.23689 -6.23689,0.0652 z" class="ddf f02 e01 w00"/><path d="M 380.79942,70.690114 400.49222,51.21733" class="ddf f01 e02 w00"/><path d="m 394.0221,45.247747 12.47378,-0.130463 0.13047,12.473794 -6.2369,0.0652 -0.0652,-6.236893 -6.23689,0.06523 z" class="ddf f02 e01 w00"/><path d="M 364.2554,110.88347 383.9482,91.410689" class="ddf f01 e02 w00"/><path d="m 377.47808,85.441106 12.47378,-0.130463 0.13047,12.473794 -6.2369,0.0652 -0.0652,-6.236893 -6.23689,0.06523 z" class="ddf f02 e01 w00"/><path d="m 321.64583,196.22908 19.6928,-19.47278" class="ddf f01 e02 w00"/><path d="m 334.86851,170.78672 12.47378,-0.13047 0.13047,12.4738 -6.2369,0.0652 -0.0652,-6.23689 -6.23689,0.0652 z" class="ddf f02 e01 w00"/><path d="m 367.17748,163.35082 19.6928,-19.47278" class="ddf f01 e02 w00"/><path d="m 380.40016,137.90845 12.47378,-0.13046 0.13047,12.47379 -6.2369,0.0652 -0.0652,-6.23689 -6.23689,0.0652 z" class="ddf f02 e01 w00"/><ellipse cx="22.818804" cy="159.96214" rx="3.7771795" ry="3.7743602" class="ddf f00 e00 w01"/><ellipse cx="56.975803" cy="160.71049" rx="3.7771795" ry="3.7743602" class="ddf f00 e00 w01"/><ellipse cx="91.506966" cy="162.95557" rx="3.7771795" ry="3.7743602" class="ddf f00 e00 w01"/><ellipse cx="123.79308" cy="165.94897" rx="3.7771795" ry="3.7743602" class="ddf f00 e00 w01"/><ellipse cx="170.67212" cy="168.19405" rx="3.7771795" ry="3.7743602" class="ddf f00 e00 w01"/><ellipse cx="25.812223" cy="122.70197" rx="3.7771795" ry="3.7743602" class="ddf f00 e00 w01"/><ellipse cx="56.601624" cy="134.67566" rx="3.7771795" ry="3.7743602" class="ddf f00 e00 w01"/><ellipse cx="45.357006" cy="109.64015" rx="3.7771795" ry="3.7743602" class="ddf f00 e00 w01"/><ellipse cx="37.056347" cy="191.3056" rx="3.7771795" ry="3.7743602" class="ddf f00 e00 w01"/><ellipse cx="72.245926" cy="181.78061" rx="3.7771795" ry="3.7743602" class="ddf f00 e00 w01"/><ellipse cx="151.62093" cy="147.38478" rx="3.7771795" ry="3.7743602" class="ddf f00 e00 w01"/><ellipse cx="147.12302" cy="183.63269" rx="3.7771795" ry="3.7743602" class="ddf f00 e00 w01"/><ellipse cx="104.97735" cy="135.424" rx="3.7771795" ry="3.7743602" class="ddf f00 e00 w01"/><ellipse cx="83.887596" cy="112.19519" rx="3.7771795" ry="3.7743602" class="ddf f00 e00 w01"/><ellipse cx="132.02498" cy="130.18552" rx="3.7771795" ry="3.7743602" class="ddf f00 e00 w01"/><ellipse cx="167.30452" cy="118.21185" rx="3.7771795" ry="3.7743602" class="ddf f00 e00 w01"/><ellipse cx="25.438046" cy="86.190132" rx="3.7771795" ry="3.7743602" class="ddf f00 e00 w01"/><ellipse cx="61.465931" cy="93.2995" rx="3.7771795" ry="3.7743602" class="ddf f00 e00 w01"/><ellipse cx="96.371277" cy="91.428619" rx="3.7771795" ry="3.7743602" class="ddf f00 e00 w01"/><ellipse cx="135.76675" cy="94.796211" rx="3.7771795" ry="3.7743602" class="ddf f00 e00 w01"/><ellipse cx="172.91718" cy="85.44178" rx="3.7771795" ry="3.7743602" class="ddf f00 e00 w01"/><ellipse cx="25.812223" cy="55.66515" rx="3.7771795" ry="3.7743602" class="ddf f00 e00 w01"/><ellipse cx="58.472515" cy="70.258064" rx="3.7771795" ry="3.7743602" class="ddf f00 e00 w01"/><ellipse cx="92.629501" cy="57.161858" rx="3.7771795" ry="3.7743602" class="ddf f00 e00 w01"/><ellipse cx="127.16068" cy="63.148697" rx="3.7771795" ry="3.7743602" class="ddf f00 e00 w01"/><ellipse cx="159.82097" cy="56.787682" rx="3.7771795" ry="3.7743602" class="ddf f00 e00 w01"/><text xml:space="preserve" x="10.824658" y="29.317904" class="ddf f03 e01 w00"><tspan x="10.824658" y="29.317904" class="ddf f03 w00">all these points are different</tspan></text><text xml:space="preserve" x="233.65701" y="29.756281" class="ddf f03 e01 w00"><tspan x="233.65701" y="29.756281" class="ddf f03 w00">all these vectors are equal</tspan></text><ellipse cx="103.20218" cy="106.90353" rx="3.7771795" ry="3.7743602" class="ddf f00 e00 w01"/><ellipse cx="174.11052" cy="148.17853" rx="3.7771795" ry="3.7743602" class="ddf f00 e00 w01"/><ellipse cx="107.96468" cy="188.92436" rx="3.7771795" ry="3.7743602" class="ddf f00 e00 w01"/><path d="m 210.52083,156.54158 19.6928,-19.47279" class="ddf f01 e02 w00"/><path d="m 223.74351,131.09921 12.47378,-0.13046 0.13047,12.47379 -6.2369,0.0652 -0.0652,-6.23689 -6.23689,0.0652 z" class="ddf f02 e01 w00"/><path d="m 257.0875,196.75824 19.6928,-19.47278" class="ddf f01 e02 w00"/><path d="m 270.31018,171.31588 12.47378,-0.13047 0.13047,12.4738 -6.2369,0.0652 -0.0652,-6.23689 -6.23689,0.0652 z" class="ddf f02 e01 w00"/></g></svg>