<?xml version='1.0' encoding='UTF-8'?>
<svg xmlns="http://www.w3.org/2000/svg" width="1920" height="768" viewBox="0 0 507.99999 203.2" version="1.1" style="background-color:transparent;color-scheme:light dark" xml:space="preserve"><defs><style><![CDATA[.ddf {stroke-dasharray:none;display:inline;fill-opacity:1;stroke-linecap:round;stroke-linejoin:round;stroke-opacity:1;font-variation-settings:normal;opacity:1;vector-effect:none;stroke-miterlimit:4;stroke-dashoffset:0;stop-color:#000000;stop-opacity:1;font-style:normal;font-variant:normal;font-weight:normal;font-stretch:normal;line-height:normal;font-family:Arial;font-variant-ligatures:normal;font-variant-caps:normal;font-variant-numeric:normal;font-variant-east-asian:normal;text-align:start;text-decoration-color:#000000;writing-mode:lr-tb;direction:ltr;text-anchor:start;} .dn {display:none}  .w00 {stroke-width:1.8} .w01 {stroke-width:3.8} .w02 {stroke-width:3} .w03 {stroke-width:0.6} .w04 {stroke-width:2} .w05 {stroke-width:0.9} .w06 {stroke-width:1.3} .w07 {stroke-width:2.7} .w08 {stroke-width:5.5} .w09 {stroke-width:1.6} .w0A {stroke-width:1.2} .a00 {fill-opacity:1} .s00 {font-size:14px} .s01 {font-size:10px} .s02 {font-size:8px} .e00 {stroke:#767676} .e01 {stroke:none} .e02 {stroke:#777777} .e03 {stroke:#808080} .f00 {fill:none} .f01 {fill:#777777} .f02 {fill:#ffffff} .d00 {stroke-dasharray:none}]]></style></defs><g><g transform="translate(154.22711)"><g transform="matrix(0.77219323,0,0,0.77101786,137.47891,115.9572)" class="ddf w06"><path d="M 41.798133,77.143429 71.053719,76.905834 70.603888,55.729842 42.019298,55.880795 Z" class="ddf f02 e02 w06"/><ellipse cx="41.984451" cy="56.436127" rx="1.7527558" ry="1.7518376" class="ddf f01 e02 w06"/><ellipse cx="70.517082" cy="56.503986" rx="1.7527558" ry="1.7518376" class="ddf f01 e02 w06"/><ellipse cx="71.044518" cy="76.732872" rx="1.7527558" ry="1.7518376" class="ddf f01 e02 w06"/><ellipse cx="41.895119" cy="76.732872" rx="1.7527558" ry="1.7518376" class="ddf f01 e02 w06"/><path d="m 77.926722,55.991244 -31.414633,-1e-6 -31.414634,0 L 30.804772,28.785373 46.512089,1.5795021 62.219405,28.785372 Z" transform="translate(9.8488364,32.00954)" class="ddf f00 e00 w06"/><path d="m 56.360924,33.589042 v 35.321271 l -31.414633,19.09047 31.414633,-19.09047 31.414633,19.09047" class="ddf f00 e00 w06"/><circle cx="56.46228" cy="69.203804" r="3.5636084" class="ddf f01 e02 w06"/><circle cx="56.3713" cy="33.614212" r="3.5636084" class="ddf f01 e02 w06"/><circle cx="88.171944" cy="87.907356" r="3.5636084" class="ddf f02 e02 w06"/><circle cx="24.407358" cy="88.171944" r="3.5636084" class="ddf f02 e02 w06"/></g><text xml:space="preserve" x="158.06383" y="199.40302" transform="scale(0.99972708,1.000273)" class="ddf s01 f01 e01 w02"><tspan x="158.06383" y="199.40302" class="ddf s01 f01 w02">12 = 1100</tspan></text></g><g transform="translate(154.0715)"><g transform="matrix(0.77219323,0,0,0.77101786,207.37571,115.9572)" class="ddf w06"><path d="M 53.258468,88.555947 75.901667,81.305092 75.09638,65.674376 Z" class="ddf f02 e02 w06"/><ellipse cx="76.098793" cy="80.982803" rx="1.7527558" ry="1.7518376" class="ddf f01 e02 w06"/><ellipse cx="75.109436" cy="65.53759" rx="1.7527558" ry="1.7518376" class="ddf f01 e02 w06"/><ellipse cx="53.238953" cy="88.492531" rx="1.7527558" ry="1.7518376" class="ddf f01 e02 w06"/><path d="m 77.926722,55.991244 -31.414633,-1e-6 -31.414634,0 L 30.804772,28.785373 46.512089,1.5795021 62.219405,28.785372 Z" transform="translate(9.8488364,32.00954)" class="ddf f00 e00 w06"/><path d="m 56.360924,33.589042 v 35.321271 l -31.414633,19.09047 31.414633,-19.09047 31.414633,19.09047" class="ddf f00 e00 w06"/><circle cx="56.46228" cy="69.203804" r="3.5636084" class="ddf f01 e02 w06"/><circle cx="56.3713" cy="33.614212" r="3.5636084" class="ddf f01 e02 w06"/><circle cx="88.171944" cy="87.907356" r="3.5636084" class="ddf f02 e02 w06"/><circle cx="24.407358" cy="88.171944" r="3.5636084" class="ddf f01 e02 w06"/></g><text xml:space="preserve" x="229.73973" y="199.40302" transform="scale(0.99972708,1.000273)" class="ddf s01 f01 e01 w02"><tspan x="229.73973" y="199.40302" class="ddf s01 f01 w02">13 = 1101</tspan></text></g><g transform="translate(153.99889)"><g transform="matrix(0.77219323,0,0,0.77101786,277.27251,115.9572)" class="ddf w06"><path d="m 39.976462,61.289899 -3.44908,19.725746 19.85323,7.333933 z" class="ddf f02 e02 w06"/><ellipse cx="39.833477" cy="61.719364" rx="1.7527558" ry="1.7518376" class="ddf f01 e02 w06"/><ellipse cx="36.990368" cy="80.475395" rx="1.7527558" ry="1.7518376" class="ddf f01 e02 w06"/><ellipse cx="56.003582" cy="88.450912" rx="1.7527558" ry="1.7518376" class="ddf f01 e02 w06"/><path d="m 77.926722,55.991244 -31.414633,-1e-6 -31.414634,0 L 30.804772,28.785373 46.512089,1.5795021 62.219405,28.785372 Z" transform="translate(9.8488364,32.00954)" class="ddf f00 e00 w06"/><path d="m 56.360924,33.589042 v 35.321271 l -31.414633,19.09047 31.414633,-19.09047 31.414633,19.09047" class="ddf f00 e00 w06"/><circle cx="56.46228" cy="69.203804" r="3.5636084" class="ddf f01 e02 w06"/><circle cx="56.3713" cy="33.614212" r="3.5636084" class="ddf f01 e02 w06"/><circle cx="88.171944" cy="87.907356" r="3.5636084" class="ddf f01 e02 w06"/><circle cx="24.407358" cy="88.171944" r="3.5636084" class="ddf f02 e02 w06"/></g><text xml:space="preserve" x="297.37238" y="199.40302" transform="scale(0.99972708,1.000273)" class="ddf s01 f01 e01 w02"><tspan x="297.37238" y="199.40302" class="ddf s01 f01 w02">14 = 1110</tspan></text></g><g transform="translate(155.17065)"><g transform="matrix(0.77219323,0,0,0.77101786,206.27656,46.56547)" class="ddf w06"><path d="M 56.456641,51.684076 39.547748,78.659457 72.524304,78.912353 Z" class="ddf f02 e02 w06"/><ellipse cx="40.178986" cy="78.119217" rx="1.7527556" ry="1.7518377" class="ddf f01 e02 w06"/><ellipse cx="56.210629" cy="51.740936" rx="1.7527556" ry="1.7518377" class="ddf f01 e02 w06"/><ellipse cx="72.536041" cy="78.60463" rx="1.7527556" ry="1.7518377" class="ddf f01 e02 w06"/><path d="m 77.926722,55.991244 -31.414633,-1e-6 -31.414634,0 L 30.804772,28.785373 46.512089,1.5795021 62.219405,28.785372 Z" transform="translate(9.8488364,32.00954)" class="ddf f00 e00 w06"/><path d="m 56.360924,33.589042 v 35.321271 l -31.414633,19.09047 31.414633,-19.09047 31.414633,19.09047" class="ddf f00 e00 w06"/><circle cx="56.46228" cy="69.203804" r="3.5636084" class="ddf f01 e02 w06"/><circle cx="56.3713" cy="33.614212" r="3.5636084" class="ddf f02 e02 w06"/><circle cx="88.171944" cy="87.907356" r="3.5636084" class="ddf f02 e02 w06"/><circle cx="24.407358" cy="88.171944" r="3.5636084" class="ddf f02 e02 w06"/></g><text xml:space="preserve" x="226.88028" y="128.79828" transform="scale(0.99972708,1.000273)" class="ddf s01 f01 e01 w02"><tspan x="226.88028" y="128.79828" class="ddf s01 f01 w02">8 = 1000</tspan></text></g><g transform="translate(155.09804)"><g transform="matrix(0.77219323,0,0,0.77101786,276.17336,46.56547)" class="ddf w06"><path d="M 40.117984,61.6059 56.298798,51.408562 72.735464,78.389248 56.165237,87.950288 Z" class="ddf f02 e02 w06"/><path d="m 77.926722,55.991244 -31.414633,-1e-6 -31.414634,0 L 30.804772,28.785373 46.512089,1.5795021 62.219405,28.785372 Z" transform="translate(9.8488364,32.00954)" class="ddf f00 e00 w06"/><path d="m 56.360924,33.589042 v 35.321271 l -31.414633,19.09047 31.414633,-19.09047 31.414633,19.09047" class="ddf f00 e00 w06"/><circle cx="56.46228" cy="69.203804" r="3.5636084" class="ddf f01 e02 w06"/><circle cx="56.3713" cy="33.614212" r="3.5636084" class="ddf f02 e02 w06"/><circle cx="88.171944" cy="87.907356" r="3.5636084" class="ddf f02 e02 w06"/><circle cx="24.407358" cy="88.171944" r="3.5636084" class="ddf f01 e02 w06"/><ellipse cx="56.285912" cy="52.298901" rx="1.7527556" ry="1.7518377" class="ddf f01 e02 w06"/><ellipse cx="39.656879" cy="61.860867" rx="1.7527556" ry="1.7518377" class="ddf f01 e02 w06"/><ellipse cx="56.255047" cy="87.678963" rx="1.7527556" ry="1.7518377" class="ddf f01 e02 w06"/><ellipse cx="72.224655" cy="78.254982" rx="1.7527556" ry="1.7518377" class="ddf f01 e02 w06"/></g><text xml:space="preserve" x="298.55618" y="128.79828" transform="scale(0.99972708,1.000273)" class="ddf s01 f01 e01 w02"><tspan x="298.55618" y="128.79828" class="ddf s01 f01 w02">9 = 1001</tspan></text></g><g transform="translate(155.25741)"><g transform="matrix(0.77219323,0,0,0.77101786,-2.6698335,115.83023)" class="ddf w06"><path d="M 72.573933,61.838383 56.393119,51.641045 39.956452,78.621731 l 16.570227,9.56104 z" class="ddf f02 e02 w06"/><ellipse cx="-56.195694" cy="52.152039" rx="1.7527556" ry="1.7518377" transform="scale(-1,1)" class="ddf f01 e02 w06"/><ellipse cx="-73.287399" cy="62.051197" rx="1.7527556" ry="1.7518377" transform="scale(-1,1)" class="ddf f01 e02 w06"/><ellipse cx="-56.094395" cy="88.226944" rx="1.7527556" ry="1.7518377" transform="scale(-1,1)" class="ddf f01 e02 w06"/><ellipse cx="-40.124786" cy="78.44532" rx="1.7527556" ry="1.7518377" transform="scale(-1,1)" class="ddf f01 e02 w06"/><path d="m 77.926722,55.991244 -31.414633,-1e-6 -31.414634,0 L 30.804772,28.785373 46.512089,1.5795021 62.219405,28.785372 Z" transform="translate(9.8488364,32.00954)" class="ddf f00 e00 w06"/><path d="m 56.360924,33.589042 v 35.321271 l -31.414633,19.09047 31.414633,-19.09047 31.414633,19.09047" class="ddf f00 e00 w06"/><circle cx="56.46228" cy="69.203804" r="3.5636084" class="ddf f01 e02 w06"/><circle cx="56.3713" cy="33.614212" r="3.5636084" class="ddf f02 e02 w06"/><circle cx="88.171944" cy="87.907356" r="3.5636084" class="ddf f01 e02 w06"/><circle cx="24.407358" cy="88.171944" r="3.5636084" class="ddf f02 e02 w06"/></g><text xml:space="preserve" x="17.353643" y="198.04413" transform="scale(0.99972708,1.000273)" class="ddf s01 f01 e01 w02"><tspan x="17.353643" y="198.04413" class="ddf s01 f01 w02">10 = 1010</tspan></text></g><g transform="translate(154.81161)"><g transform="matrix(0.77219323,0,0,0.77101786,67.226967,115.83023)" class="ddf w06"><path d="M 71.958275,60.722215 56.72033,47.764873 40.366294,61.218816 Z" class="ddf f02 e02 w06"/><ellipse cx="40.756798" cy="61.088924" rx="1.7527556" ry="1.7518377" class="ddf f01 e02 w06"/><ellipse cx="56.602783" cy="47.913467" rx="1.7527556" ry="1.7518377" class="ddf f01 e02 w06"/><ellipse cx="71.910423" cy="60.213932" rx="1.7527556" ry="1.7518377" class="ddf f01 e02 w06"/><path d="m 77.926722,55.991244 -31.414633,-1e-6 -31.414634,0 L 30.804772,28.785373 46.512089,1.5795021 62.219405,28.785372 Z" transform="translate(9.8488364,32.00954)" class="ddf f00 e00 w06"/><path d="m 56.360924,33.589042 v 35.321271 l -31.414633,19.09047 31.414633,-19.09047 31.414633,19.09047" class="ddf f00 e00 w06"/><circle cx="56.46228" cy="69.203804" r="3.5636084" class="ddf f01 e02 w06"/><circle cx="56.3713" cy="33.614212" r="3.5636084" class="ddf f02 e02 w06"/><circle cx="88.171944" cy="87.907356" r="3.5636084" class="ddf f01 e02 w06"/><circle cx="24.407358" cy="88.171944" r="3.5636084" class="ddf f01 e02 w06"/></g><text xml:space="preserve" x="89.029518" y="198.04413" transform="scale(0.99972708,1.000273)" class="ddf s01 f01 e01 w02"><tspan x="89.029518" y="198.04413" class="ddf s01 f01 w02">11 = 1011</tspan></text></g><g transform="translate(155.24326)"><g transform="matrix(0.77219323,0,0,0.77101786,276.02814,-18.598065)" class="ddf w06"><path d="M 71.644406,60.260013 56.406461,47.302671 40.052425,60.756614 Z" class="ddf f02 e02 w06"/><path d="m 77.926722,55.991244 -31.414633,-1e-6 -31.414634,0 L 30.804772,28.785373 46.512089,1.5795021 62.219405,28.785372 Z" transform="translate(9.8488364,32.00954)" class="ddf f00 e00 w06"/><path d="m 56.360924,33.589042 v 35.321271 l -31.414633,19.09047 31.414633,-19.09047 31.414633,19.09047" class="ddf f00 e00 w06"/><circle cx="56.46228" cy="69.203804" r="3.5636084" class="ddf f02 e02 w06"/><circle cx="56.3713" cy="33.614212" r="3.5636084" class="ddf f01 e02 w06"/><circle cx="88.171944" cy="87.907356" r="3.5636084" class="ddf f02 e02 w06"/><circle cx="24.407358" cy="88.171944" r="3.5636084" class="ddf f02 e02 w06"/><ellipse cx="40.442928" cy="60.626724" rx="1.7527556" ry="1.7518377" class="ddf f01 e02 w06"/><ellipse cx="56.288914" cy="47.451267" rx="1.7527556" ry="1.7518377" class="ddf f01 e02 w06"/><ellipse cx="71.596558" cy="59.751732" rx="1.7527556" ry="1.7518377" class="ddf f01 e02 w06"/></g><text xml:space="preserve" x="296.65088" y="64.106171" transform="scale(0.99972711,1.000273)" class="ddf s01 f01 e01 w02"><tspan x="296.65088" y="64.106171" class="ddf s01 f01 w02">4 = 0100</tspan></text></g><g transform="translate(153.59047)"><g transform="matrix(0.77219323,0,0,0.77101786,-1.0028942,47.042373)" class="ddf w06"><path d="M 72.673584,61.663947 56.49277,51.466609 40.056104,78.447295 l 16.570227,9.56104 z" class="ddf f02 e02 w06"/><ellipse cx="-56.295345" cy="51.977604" rx="1.7527556" ry="1.7518377" transform="scale(-1,1)" class="ddf f01 e02 w06"/><ellipse cx="-73.387054" cy="61.876762" rx="1.7527556" ry="1.7518377" transform="scale(-1,1)" class="ddf f01 e02 w06"/><ellipse cx="-56.194046" cy="88.052505" rx="1.7527556" ry="1.7518377" transform="scale(-1,1)" class="ddf f01 e02 w06"/><ellipse cx="-40.224438" cy="78.270882" rx="1.7527556" ry="1.7518377" transform="scale(-1,1)" class="ddf f01 e02 w06"/><path d="m 77.926722,55.991244 -31.414633,-1e-6 -31.414634,0 L 30.804772,28.785373 46.512089,1.5795021 62.219405,28.785372 Z" transform="translate(9.8488364,32.00954)" class="ddf f00 e00 w06"/><path d="m 56.360924,33.589042 v 35.321271 l -31.414633,19.09047 31.414633,-19.09047 31.414633,19.09047" class="ddf f00 e00 w06"/><circle cx="56.46228" cy="69.203804" r="3.5636084" class="ddf f02 e02 w06"/><circle cx="56.3713" cy="33.614212" r="3.5636084" class="ddf f01 e02 w06"/><circle cx="88.171944" cy="87.907356" r="3.5636084" class="ddf f02 e02 w06"/><circle cx="24.407358" cy="88.171944" r="3.5636084" class="ddf f01 e02 w06"/></g><text xml:space="preserve" x="21.304281" y="129.7287" transform="scale(0.99972708,1.000273)" class="ddf s01 f01 e01 w02"><tspan x="21.304281" y="129.7287" class="ddf s01 f01 w02">5 = 0101</tspan></text></g><g transform="translate(154.03628)"><g transform="matrix(0.77219323,0,0,0.77101786,68.002295,46.66319)" class="ddf w06"><path d="M 40.106763,62.316758 56.287577,52.11942 72.724243,79.100106 56.154016,88.661146 Z" class="ddf f02 e02 w06"/><ellipse cx="55.917782" cy="52.115643" rx="1.7527556" ry="1.7518377" class="ddf f01 e02 w06"/><ellipse cx="39.229267" cy="62.512115" rx="1.7527556" ry="1.7518377" class="ddf f01 e02 w06"/><ellipse cx="56.065372" cy="88.449425" rx="1.7527556" ry="1.7518377" class="ddf f01 e02 w06"/><ellipse cx="72.986732" cy="78.906227" rx="1.7527556" ry="1.7518377" class="ddf f01 e02 w06"/><path d="m 77.926722,55.991244 -31.414633,-1e-6 -31.414634,0 L 30.804772,28.785373 46.512089,1.5795021 62.219405,28.785372 Z" transform="translate(9.8488364,32.00954)" class="ddf f00 e00 w06"/><path d="m 56.360924,33.589042 v 18.930465 16.390806 l -31.414633,19.09047 31.414633,-19.09047 31.414633,19.09047" class="ddf f00 e00 w06"/><circle cx="56.46228" cy="69.203804" r="3.5636084" class="ddf f02 e02 w06"/><circle cx="56.3713" cy="33.614212" r="3.5636084" class="ddf f01 e02 w06"/><circle cx="88.171944" cy="87.907356" r="3.5636084" class="ddf f01 e02 w06"/><circle cx="24.407358" cy="88.171944" r="3.5636084" class="ddf f02 e02 w06"/></g><text xml:space="preserve" x="88.045036" y="129.34962" transform="scale(0.99972708,1.000273)" class="ddf s01 f01 e01 w02"><tspan x="88.045036" y="129.34962" class="ddf s01 f01 w02">6 = 0110</tspan></text></g><g transform="translate(155.01504)"><g transform="matrix(0.77219323,0,0,0.77101786,136.69098,46.66319)" class="ddf w06"><path d="M 56.580232,51.846845 39.671339,78.822226 72.647895,79.075122 Z" class="ddf f02 e02 w06"/><path d="m 77.926722,55.991244 -31.414633,-1e-6 -31.414634,0 L 30.804772,28.785373 46.512089,1.5795021 62.219405,28.785372 Z" transform="translate(9.8488364,32.00954)" class="ddf f00 e00 w06"/><path d="m 56.360924,33.589042 v 35.321271 l -31.414633,19.09047 31.414633,-19.09047 31.414633,19.09047" class="ddf f00 e00 w06"/><circle cx="56.46228" cy="69.203804" r="3.5636084" class="ddf f02 e02 w06"/><circle cx="56.3713" cy="33.614212" r="3.5636084" class="ddf f01 e02 w06"/><circle cx="88.171944" cy="87.907356" r="3.5636084" class="ddf f01 e02 w06"/><circle cx="24.407358" cy="88.171944" r="3.5636084" class="ddf f01 e02 w06"/><ellipse cx="40.302574" cy="78.281982" rx="1.7527556" ry="1.7518377" class="ddf f01 e02 w06"/><ellipse cx="56.334217" cy="51.903702" rx="1.7527556" ry="1.7518377" class="ddf f01 e02 w06"/><ellipse cx="72.659637" cy="78.767395" rx="1.7527556" ry="1.7518377" class="ddf f01 e02 w06"/></g><text xml:space="preserve" x="158.51248" y="129.34962" transform="scale(0.99972708,1.000273)" class="ddf s01 f01 e01 w02"><tspan x="158.51248" y="129.34962" class="ddf s01 f01 w02">7 = 0111</tspan></text></g><g transform="translate(155.65169)"><g transform="matrix(0.77219323,0,0,0.77101786,-3.0641133,-18.132679)" class="ddf w06"><path d="m 77.926722,55.991244 -31.414633,-1e-6 -31.414634,0 L 30.804772,28.785373 46.512089,1.5795021 62.219405,28.785372 Z" transform="translate(9.8488364,32.00954)" class="ddf f00 e00 w06"/><path d="m 56.360924,33.589042 v 35.321271 l -31.414633,19.09047 31.414633,-19.09047 31.414633,19.09047" class="ddf f00 e00 w06"/><circle cx="56.46228" cy="69.203804" r="3.5636084" class="ddf f02 e02 w06"/><circle cx="56.3713" cy="33.614212" r="3.5636084" class="ddf f02 e02 w06"/><circle cx="88.171944" cy="87.907356" r="3.5636084" class="ddf f02 e02 w06"/><circle cx="24.407358" cy="88.171944" r="3.5636084" class="ddf f02 e02 w06"/></g><text xml:space="preserve" x="17.482445" y="63.554817" transform="scale(0.99972711,1.000273)" class="ddf s01 f01 e01 w02"><tspan x="17.482445" y="63.554817" class="ddf s01 f01 w02">0 = 0000</tspan></text></g><g transform="translate(155.20587)"><g transform="matrix(0.77219323,0,0,0.77101786,-156.58809,-18.132679)" class="ddf w06"><path d="m 329.87791,61.027822 -3.44908,19.725746 19.85323,7.333933 z" class="ddf f02 e02 w06"/><path d="m 77.926722,55.991244 -31.414633,-1e-6 -31.414634,0 L 30.804772,28.785373 46.512089,1.5795021 62.219405,28.785372 Z" transform="translate(299.18159,32.00954)" class="ddf f00 e00 w06"/><path d="m 345.69367,33.589042 v 35.321271 l -31.41463,19.09047 31.41463,-19.09047 31.41464,19.09047" class="ddf f00 e00 w06"/><circle cx="345.79504" cy="69.203804" r="3.5636084" class="ddf f02 e02 w06"/><circle cx="345.70404" cy="33.614212" r="3.5636084" class="ddf f02 e02 w06"/><circle cx="377.5047" cy="87.907356" r="3.5636084" class="ddf f02 e02 w06"/><circle cx="313.74011" cy="88.171944" r="3.5636084" class="ddf f01 e02 w06"/><ellipse cx="329.73492" cy="61.457287" rx="1.7527558" ry="1.7518376" class="ddf f01 e02 w06"/><ellipse cx="326.89182" cy="80.213318" rx="1.7527558" ry="1.7518376" class="ddf f01 e02 w06"/><ellipse cx="345.90503" cy="88.188835" rx="1.7527558" ry="1.7518376" class="ddf f01 e02 w06"/></g><text xml:space="preserve" x="89.15834" y="63.554817" transform="scale(0.99972711,1.000273)" class="ddf s01 f01 e01 w02"><tspan x="89.15834" y="63.554817" class="ddf s01 f01 w02">1 = 0001</tspan></text></g><g transform="translate(154.97653)"><g transform="matrix(0.77219323,0,0,0.77101786,136.72949,-18.132679)" class="ddf w06"><path d="M 53.30665,88.130676 75.949849,80.879821 75.144562,65.249105 Z" class="ddf f02 e02 w06"/><path d="m 77.926722,55.991244 -31.414633,-1e-6 -31.414634,0 L 30.804772,28.785373 46.512089,1.5795021 62.219405,28.785372 Z" transform="translate(9.8488364,32.00954)" class="ddf f00 e00 w06"/><path d="m 56.360924,33.589042 v 35.321271 l -31.414633,19.09047 31.414633,-19.09047 31.414633,19.09047" class="ddf f00 e00 w06"/><circle cx="56.46228" cy="69.203804" r="3.5636084" class="ddf f02 e02 w06"/><circle cx="56.3713" cy="33.614212" r="3.5636084" class="ddf f02 e02 w06"/><circle cx="88.171944" cy="87.907356" r="3.5636084" class="ddf f01 e02 w06"/><circle cx="24.407358" cy="88.171944" r="3.5636084" class="ddf f02 e02 w06"/><ellipse cx="76.146973" cy="80.557533" rx="1.7527558" ry="1.7518376" class="ddf f01 e02 w06"/><ellipse cx="75.157616" cy="65.11232" rx="1.7527558" ry="1.7518376" class="ddf f01 e02 w06"/><ellipse cx="53.287136" cy="88.067261" rx="1.7527558" ry="1.7518376" class="ddf f01 e02 w06"/></g><text xml:space="preserve" x="156.79099" y="63.554817" transform="scale(0.99972711,1.000273)" class="ddf s01 f01 e01 w02"><tspan x="156.79099" y="63.554817" class="ddf s01 f01 w02">2 = 0010</tspan></text></g><g transform="translate(154.82092)"><g transform="matrix(0.77219323,0,0,0.77101786,206.62629,-18.132679)" class="ddf w06"><path d="M 41.5831,77.929235 70.838687,77.69164 70.388856,56.515648 41.804265,56.666601 Z" class="ddf f02 e02 w06"/><path d="m 77.926722,55.991244 -31.414633,-1e-6 -31.414634,0 L 30.804772,28.785373 46.512089,1.5795021 62.219405,28.785372 Z" transform="translate(9.8488364,32.00954)" class="ddf f00 e00 w06"/><path d="m 56.360924,33.589042 v 35.321271 l -31.414633,19.09047 31.414633,-19.09047 31.414633,19.09047" class="ddf f00 e00 w06"/><circle cx="56.46228" cy="69.203804" r="3.5636084" class="ddf f02 e02 w06"/><circle cx="56.3713" cy="33.614212" r="3.5636084" class="ddf f02 e02 w06"/><circle cx="88.171944" cy="87.907356" r="3.5636084" class="ddf f01 e02 w06"/><circle cx="24.407358" cy="88.171944" r="3.5636084" class="ddf f01 e02 w06"/><ellipse cx="41.769421" cy="57.221935" rx="1.7527558" ry="1.7518376" class="ddf f01 e02 w06"/><ellipse cx="70.302055" cy="57.289795" rx="1.7527558" ry="1.7518376" class="ddf f01 e02 w06"/><ellipse cx="70.829491" cy="77.518677" rx="1.7527558" ry="1.7518376" class="ddf f01 e02 w06"/><ellipse cx="41.680088" cy="77.518677" rx="1.7527558" ry="1.7518376" class="ddf f01 e02 w06"/></g><text xml:space="preserve" x="228.46686" y="63.554817" transform="scale(0.99972711,1.000273)" class="ddf s01 f01 e01 w02"><tspan x="228.46686" y="63.554817" class="ddf s01 f01 w02">3 = 0011</tspan></text></g><text xml:space="preserve" x="22.391289" y="145.81491" class="ddf s00 f01 e01 w02"><tspan x="22.391289" y="145.81491" class="ddf s00 f01 w02">1</tspan></text><text xml:space="preserve" x="59.339203" y="145.81491" class="ddf s00 f01 e01 w02"><tspan x="59.339203" y="145.81491" class="ddf s00 f01 w02">1</tspan></text><text xml:space="preserve" x="95.58239" y="145.81491" class="ddf s00 f01 e01 w02"><tspan x="95.58239" y="145.81491" class="ddf s00 f01 w02">1</tspan></text><text xml:space="preserve" x="133.03368" y="145.81491" class="ddf s00 f01 e01 w02"><tspan x="133.03368" y="145.81491" class="ddf s00 f01 w02">1</tspan></text><text xml:space="preserve" x="18.006552" y="194.98424" class="ddf s00 f01 e01 w02"><tspan x="18.006552" y="194.98424" class="ddf s00 f01 w02"> 8 + 4 + 2 + 1 = 15</tspan></text><text xml:space="preserve" x="13.777505" y="169.68112" class="ddf s00 f01 e01 w02"><tspan x="13.777505" y="169.68112" class="ddf s00 f01 w02">1路2 + 1路2 + 1路2 + 1路2</tspan></text><text xml:space="preserve" x="35.325077" y="161.78506" class="ddf s02 f01 e01 w02"><tspan x="35.325077" y="161.78506" class="ddf s02 f01 w02">3</tspan></text><text xml:space="preserve" x="73.554382" y="161.78506" class="ddf s02 f01 e01 w02"><tspan x="73.554382" y="161.78506" class="ddf s02 f01 w02">2</tspan></text><text xml:space="preserve" x="111.45412" y="161.78506" class="ddf s02 f01 e01 w02"><tspan x="111.45412" y="161.78506" class="ddf s02 f01 w02">1</tspan></text><text xml:space="preserve" x="150.55881" y="161.78506" class="ddf s02 f01 e01 w02"><tspan x="150.55881" y="161.78506" class="ddf s02 f01 w02">0</tspan></text><text xml:space="preserve" x="22.482601" y="126.99872" class="ddf s00 f01 e01 w02"><tspan x="22.482601" y="126.99872" class="ddf s00 f01 w02">d       c       b       a</tspan></text><g transform="matrix(1.1054002,0,0,1.1054002,-1.006425,-10.979145)" class="ddf w05"><g transform="matrix(1.0778003,0,0,1.077244,20.912491,-0.6024444)" class="ddf w09"><path d="m 77.926722,55.991244 -31.414633,-1e-6 -31.414634,0 L 30.804772,28.785373 46.512089,1.5795021 62.219405,28.785372 Z" transform="translate(9.8488364,32.00954)" class="ddf f00 e00 w09"/><path d="m 56.360924,33.589042 v 35.321271 l -31.414633,19.09047 31.414633,-19.09047 31.414633,19.09047" class="ddf f00 e00 w09"/><circle cx="56.46228" cy="69.203804" r="3.5636084" class="ddf f01 e02 w09"/><circle cx="56.3713" cy="33.614212" r="3.5636084" class="ddf f01 e02 w09"/><circle cx="88.171944" cy="87.907356" r="3.5636084" class="ddf f01 e02 w09"/><circle cx="24.407358" cy="88.171944" r="3.5636084" class="ddf f01 e02 w09"/></g><text xml:space="preserve" x="31.937405" y="107.81331" class="ddf s00 f01 e01 w07"><tspan x="31.937405" y="107.81331" class="ddf s00 f01 w07">a</tspan></text><text xml:space="preserve" x="123.61077" y="107.74365" class="ddf s00 f01 e01 w07"><tspan x="123.61077" y="107.74365" class="ddf s00 f01 w07">b</tspan></text><text xml:space="preserve" x="78.167297" y="24.147167" class="ddf s00 f01 e01 w07"><tspan x="78.167297" y="24.147167" class="ddf s00 f01 w07">c</tspan></text><text xml:space="preserve" x="67.937622" y="72.251984" class="ddf s00 f01 e01 w07"><tspan x="67.937622" y="72.251984" class="ddf s00 f01 w07">d</tspan></text></g><g><text xml:space="preserve" x="14.76901" y="41.637417" class="ddf s00 f01 e01 w02"><tspan x="14.76901" y="41.637417" class="ddf s00 f01 w02">0</tspan></text><text xml:space="preserve" x="33.230164" y="41.637417" class="ddf s00 f01 e01 w02"><tspan x="33.230164" y="41.637417" class="ddf s00 f01 w02">1</tspan></text><ellipse cx="18.805981" cy="19.178101" rx="3.8408582" ry="3.8388758" class="ddf f02 e02 w04"/><ellipse cx="37.065735" cy="19.178101" rx="3.8408582" ry="3.8388758" class="ddf f01 e02 w04"/></g><g transform="matrix(0.54456563,0,0,0.54719419,-115.39656,111.64069)" class="ddf w00"><path d="m 244.92014,50.859849 3.64596,3.860978 -3.86098,3.645965 -1.82298,-1.930491 1.93049,-1.82298 -1.82298,-1.930488 z" class="ddf f01 e01 w08"/><path d="m 245.32003,54.62989 c -8.91189,-7e-6 -16.1364,-7.098872 -16.1364,-15.855764 0,-8.756892 7.22451,-15.855759 16.1364,-15.855766" class="ddf f00 e03 w05"/></g><g transform="matrix(0.54456563,0,0,0.54719419,-77.524362,111.64069)" class="ddf w00"><path d="m 244.92014,50.859849 3.64596,3.860978 -3.86098,3.645965 -1.82298,-1.930491 1.93049,-1.82298 -1.82298,-1.930488 z" class="ddf f01 e01 w08"/><path d="m 245.32003,54.62989 c -8.91189,-7e-6 -16.1364,-7.098872 -16.1364,-15.855764 0,-8.756892 7.22451,-15.855759 16.1364,-15.855766" class="ddf f00 e03 w05"/></g><g transform="matrix(0.54456563,0,0,0.54719419,-40.707775,111.64069)" class="ddf w00"><path d="m 244.92014,50.859849 3.64596,3.860978 -3.86098,3.645965 -1.82298,-1.930491 1.93049,-1.82298 -1.82298,-1.930488 z" class="ddf f01 e01 w08"/><path d="m 245.32003,54.62989 c -8.91189,-7e-6 -16.1364,-7.098872 -16.1364,-15.855764 0,-8.756892 7.22451,-15.855759 16.1364,-15.855766" class="ddf f00 e03 w05"/></g><g transform="matrix(0.54456563,0,0,0.54719419,-4.5584072,111.64069)" class="ddf w00"><path d="m 244.92014,50.859849 3.64596,3.860978 -3.86098,3.645965 -1.82298,-1.930491 1.93049,-1.82298 -1.82298,-1.930488 z" class="ddf f01 e01 w08"/><path d="m 245.32003,54.62989 c -8.91189,-7e-6 -16.1364,-7.098872 -16.1364,-15.855764 0,-8.756892 7.22451,-15.855759 16.1364,-15.855766" class="ddf f00 e03 w05"/></g><g transform="matrix(-0.78694406,0,0,0.78817341,349.23725,123.06733)" class="ddf w0A"><path d="m 244.92014,50.859849 3.64596,3.860978 -3.86098,3.645965 -1.82298,-1.930491 1.93049,-1.82298 -1.82298,-1.930488 z" class="ddf f01 e01 w01"/><path d="m 245.32003,54.62989 c -8.91189,-7e-6 -16.1364,-7.098872 -16.1364,-15.855764 0,-8.756892 7.22451,-15.855759 16.1364,-15.855766" class="ddf f00 e03 w03"/></g><g transform="matrix(0.78694406,0,0,0.78817341,-179.18193,147.09676)" class="ddf w0A"><path d="m 244.92014,50.859849 3.64596,3.860978 -3.86098,3.645965 -1.82298,-1.930491 1.93049,-1.82298 -1.82298,-1.930488 z" class="ddf f01 e01 w01"/><path d="m 245.32003,54.62989 c -8.91189,-7e-6 -16.1364,-7.098872 -16.1364,-15.855764 0,-8.756892 7.22451,-15.855759 16.1364,-15.855766" class="ddf f00 e03 w03"/></g></g></svg>