<?xml version='1.0' encoding='UTF-8'?>
<svg xmlns="http://www.w3.org/2000/svg" width="1920" height="768" viewBox="0 0 507.99999 203.2" version="1.1" style="background-color:transparent;color-scheme:light dark" xml:space="preserve"><defs><style><![CDATA[.ddf {font-variation-settings:normal;display:inline;stroke-linecap:round;stroke-linejoin:round;stroke-miterlimit:4;stroke-dasharray:none;stroke-dashoffset:0;stroke-opacity:1;opacity:1;vector-effect:none;stop-color:#000000;stop-opacity:1;font-style:normal;font-variant:normal;font-weight:normal;font-stretch:normal;line-height:normal;font-family:Arial;font-variant-ligatures:normal;font-variant-caps:normal;font-variant-numeric:normal;font-variant-east-asian:normal;text-align:start;text-decoration-color:#000000;writing-mode:lr-tb;direction:ltr;text-anchor:start;} .dn {display:none}  .w00 {stroke-width:0.6} .w01 {stroke-width:3} .w02 {stroke-width:1} .w03 {stroke-width:0.5} .a00 {fill-opacity:0.6} .a01 {fill-opacity:0.2} .a02 {fill-opacity:1} .s00 {font-size:16px} .s01 {font-size:11px} .e00 {stroke:#0045ff} .e01 {stroke:#45ffff} .e02 {stroke:#00ff45} .e03 {stroke:#ff4500} .e04 {stroke:none} .e05 {stroke:#777777} .f00 {fill:#0045ff} .f01 {fill:#00ff45} .f02 {fill:#ff4500} .f03 {fill:none} .f04 {fill:#777777} .d00 {stroke-dasharray:none}]]></style></defs><g><path d="M 23.521445,134.94524 49.69708,113.3 l 39.565479,7.75202 -21.443887,24.06144 z" class="ddf f04 a01 e04 w02"/><path d="m 121.06231,145.27477 18.47396,-32.11549" class="ddf f03 a01 e01 w02"/><path d="m 99.770457,120.82912 39.865473,-7.68834 25.59221,21.24972 -44.67068,10.92741 z" class="ddf f04 a01 e04 w02"/><path d="m 140.52578,19.790359 -19.07847,32.17713" class="ddf f03 a01 e01 w02"/><path d="m 100.66031,27.478699 39.86547,-7.68834 25.59221,21.249719 -44.67068,10.927411 z" class="ddf f04 a01 e04 w02"/><path d="M 90.104589,27.786443 24.363475,41.679664" class="ddf f03 a01 e01 w02"/><path d="M 24.363475,41.679664 50.53911,20.034428 90.104589,27.786443 68.660702,51.847892 Z" class="ddf f04 a01 e04 w02"/><path d="M 24.363475,41.679664 50.53911,20.034428" class="ddf f03 a02 e05 w02"/><path d="M 68.660702,51.847892 90.104589,27.786443" class="ddf f03 a02 e05 w02"/><path d="M 32.216166,79.533659 72.486371,90.909991" class="ddf f03 a02 e05 w02"/><path d="M 91.121075,63.784754 90.104589,27.786443" class="ddf f03 a02 e05 w02"/><path d="M 68.660702,51.847892 24.363475,41.679664" class="ddf f03 a02 e05 w02"/><path d="m 50.53911,20.034428 39.565479,7.752015" class="ddf f03 a02 e05 w02"/><path d="m 68.660702,51.847892 3.825669,39.062099" class="ddf f03 a02 e05 w02"/><path d="M 32.216166,79.533659 68.660702,51.847892" class="ddf f03 a02 e05 w02"/><path d="m 24.363475,41.679664 7.852691,37.853995" class="ddf f03 a02 e05 w02"/><path d="M 91.121073,63.784754 72.486371,90.909991" class="ddf f03 a02 e05 w02"/><path d="M 72.486371,90.909991 90.104589,27.786443" class="ddf f03 a02 e05 w02"/><path d="m 100.66031,27.478699 39.86547,-7.68834" class="ddf f03 a02 e05 w02"/><path d="M 166.11799,41.040078 121.44731,51.967489" class="ddf f03 a02 e05 w02"/><path d="m 100.51794,64.211882 0.14237,-36.733183" class="ddf f03 a02 e05 w02"/><path d="m 121.44731,51.967489 -20.787,-24.48879" class="ddf f03 a02 e05 w02"/><path d="m 140.52578,19.790359 25.59221,21.249719" class="ddf f03 a02 e05 w02"/><path d="M 119.43825,90.636454 166.11799,41.040078" class="ddf f03 a02 e05 w02"/><path d="m 159.07034,78.342769 7.04765,-37.302691" class="ddf f03 a02 e05 w02"/><path d="m 100.66031,27.478699 18.77794,63.157755" class="ddf f03 a02 e05 w02"/><path d="M 159.07034,78.342769 119.43825,90.636454" class="ddf f03 a02 e05 w02"/><path d="m 121.44731,51.967489 -2.00906,38.668965" class="ddf f03 a02 e05 w02"/><path d="m 100.51794,64.211882 18.92031,26.424572" class="ddf f03 a02 e05 w02"/><path d="m 23.634529,134.83072 26.19731,-21.3565" class="ddf f03 a02 e05 w02"/><path d="M 89.127802,120.8778 68.19843,145.50897" class="ddf f03 a02 e05 w02"/><path d="M 23.634529,134.83072 68.19843,145.50897" class="ddf f03 a02 e05 w02"/><path d="M 89.1278,120.8778 49.831839,113.47422" class="ddf f03 a02 e05 w02"/><path d="m 23.634529,134.83072 8.178934,38.33117" class="ddf f03 a02 e05 w02"/><path d="M 72.12031,184.3674 68.19843,145.50897" class="ddf f03 a02 e05 w02"/><path d="m 89.1278,120.8778 1.278813,36.37736" class="ddf f03 a02 e05 w02"/><path d="M 49.831839,113.47422 68.19843,145.50897" class="ddf f03 a01 e01 w02"/><path d="M 31.813463,173.16189 72.120308,184.3674" class="ddf f03 a02 e05 w02"/><path d="M 90.406613,157.25516 68.19843,145.50897" class="ddf f03 a02 e05 w02"/><path d="M 31.813463,173.16189 68.19843,145.50897" class="ddf f03 a02 e05 w02"/><path d="M 90.406613,157.25516 72.120308,184.3674" class="ddf f03 a02 e05 w02"/><path d="m 99.870113,120.81062 39.666157,-7.65134" class="ddf f03 a02 e05 w02"/><path d="m 164.90649,133.89844 -43.84418,11.37633" class="ddf f03 a02 e05 w02"/><path d="m 99.870111,120.81062 21.192199,24.46415" class="ddf f03 a02 e05 w02"/><path d="m 139.53627,113.15928 25.37022,20.73916" class="ddf f03 a02 e05 w02"/><path d="M 158.41755,171.87143 121.06231,145.27477" class="ddf f03 a02 e05 w02"/><path d="m 164.90649,133.89844 -6.48894,37.97299" class="ddf f03 a02 e05 w02"/><path d="m 121.06231,145.27477 -2.57333,39.03366" class="ddf f03 a02 e05 w02"/><path d="m 158.41755,171.87143 -39.92857,12.437" class="ddf f03 a02 e05 w02"/><path d="m 99.870113,157.45651 -2e-6,-36.64589" class="ddf f03 a02 e05 w02"/><path d="M 121.06231,145.27477 99.870111,157.45651" class="ddf f03 a02 e05 w02"/><path d="M 118.48898,184.30843 99.870111,157.45651" class="ddf f03 a02 e05 w02"/><path d="M 68.660702,51.847892 90.104589,27.786443 91.121075,63.784754 72.486371,90.909991 Z m 31.999608,-24.369193 20.787,24.48879 -2.00906,38.668965 -18.92031,-26.424572 z" class="ddf f04 a00 e04 w02"/><path d="m 67.815076,145.12877 21.443887,-24.06144 1.016486,35.9983 -18.634704,27.12524 z m 31.999608,-24.36919 20.786996,24.48879 -2.00906,38.66896 -18.920306,-26.42457 z" class="ddf f04 a00 e04 w02"/><path d="M 203.43184,39.787995 218.23902,24.980821" class="ddf f03 a01 e01 w03"/><path d="m 203.43184,24.980822 h 14.80717 v 14.807174 h -14.80717 z" class="ddf f03 e05"/><path d="M 225.08495,39.787995 239.89213,24.980821" class="ddf f03 a01 e01 w03"/><path d="m 225.08496,24.980822 h 14.80718 v 14.807174 h -14.80718 z" class="ddf f03 e05"/><path d="M 254.6993,39.787995 269.50648,24.980821" class="ddf f03 a01 e01 w03"/><path d="m 254.69931,24.980822 h 14.80717 v 14.807174 h -14.80717 z" class="ddf f03 e05"/><path d="M 239.89213,39.787995 254.69931,24.980821" class="ddf f03 a01 e01 w03"/><path d="m 239.89214,24.980822 h 14.80717 v 14.807174 h -14.80717 z" class="ddf f03 e05"/><path d="M 269.50648,39.787995 284.31366,24.980821" class="ddf f03 a01 e01 w03"/><path d="m 269.50647,24.980822 h 14.80717 v 14.807174 h -14.80717 z" class="ddf f03 e05"/><path d="M 284.31366,39.787995 299.12084,24.980821" class="ddf f03 a01 e01 w03"/><path d="m 284.31366,24.980822 h 14.80717 v 14.807174 h -14.80717 z" class="ddf f03 e05"/><path d="M 203.43184,61.714004 218.23902,46.90683" class="ddf f03 a01 e01 w03"/><path d="m 203.43184,46.90683 h 14.80717 v 14.807175 h -14.80717 z" class="ddf f03 e05"/><path d="M 225.08495,61.714004 239.89213,46.90683" class="ddf f03 a01 e01 w03"/><path d="m 225.08496,46.90683 h 14.80718 v 14.807175 h -14.80718 z" class="ddf f03 e05"/><path d="M 254.6993,61.714004 269.50648,46.90683" class="ddf f03 a01 e01 w03"/><path d="m 254.69931,46.90683 h 14.80717 v 14.807175 h -14.80717 z" class="ddf f03 e05"/><path d="M 239.89213,61.714004 254.69931,46.90683" class="ddf f03 a01 e01 w03"/><path d="m 239.89214,46.90683 h 14.80717 v 14.807175 h -14.80717 z" class="ddf f03 e05"/><path d="M 269.50648,61.714004 284.31366,46.90683" class="ddf f03 a01 e01 w03"/><path d="m 269.50647,46.90683 h 14.80717 v 14.807175 h -14.80717 z" class="ddf f03 e05"/><path d="M 284.31366,61.714004 299.12084,46.90683" class="ddf f03 a01 e01 w03"/><path d="m 284.31366,46.90683 h 14.80717 v 14.807175 h -14.80717 z" class="ddf f03 e05"/><path d="M 203.43184,76.521179 218.23902,61.714005" class="ddf f03 a01 e01 w03"/><path d="m 203.43184,61.714005 h 14.80717 v 14.807174 h -14.80717 z" class="ddf f03 e05"/><path d="M 225.08495,76.521179 239.89213,61.714005" class="ddf f03 a01 e01 w03"/><path d="m 225.08496,61.714005 h 14.80718 v 14.807174 h -14.80718 z" class="ddf f03 e05"/><path d="M 254.6993,76.521179 269.50648,61.714005" class="ddf f03 a01 e01 w03"/><path d="m 254.69931,61.714005 h 14.80717 v 14.807174 h -14.80717 z" class="ddf f03 e05"/><path d="M 239.89213,76.521179 254.69931,61.714005" class="ddf f03 a01 e01 w03"/><path d="m 239.89214,61.714005 h 14.80717 v 14.807174 h -14.80717 z" class="ddf f03 e05"/><path d="M 269.50648,76.521179 284.31366,61.714005" class="ddf f03 a01 e01 w03"/><path d="m 269.50647,61.714005 h 14.80717 v 14.807174 h -14.80717 z" class="ddf f03 e05"/><path d="M 284.31366,76.521179 299.12084,61.714005" class="ddf f03 a01 e01 w03"/><path d="m 284.31366,61.714005 h 14.80717 v 14.807174 h -14.80717 z" class="ddf f03 e05"/><path d="M 203.43184,91.328354 218.23902,76.52118" class="ddf f03 a01 e01 w03"/><path d="m 203.43184,76.521179 h 14.80717 v 14.807175 h -14.80717 z" class="ddf f03 e05"/><path d="M 225.08495,91.328354 239.89213,76.52118" class="ddf f03 a01 e01 w03"/><path d="m 225.08496,76.521179 h 14.80718 v 14.807175 h -14.80718 z" class="ddf f03 e05"/><path d="M 254.6993,91.328354 269.50648,76.52118" class="ddf f03 a01 e01 w03"/><path d="m 254.69931,76.521179 h 14.80717 v 14.807175 h -14.80717 z" class="ddf f03 e05"/><path d="M 239.89213,91.328354 254.69931,76.52118" class="ddf f03 a01 e01 w03"/><path d="m 239.89214,76.521179 h 14.80717 v 14.807175 h -14.80717 z" class="ddf f03 e05"/><path d="M 269.50648,91.328354 284.31366,76.52118" class="ddf f03 a01 e01 w03"/><path d="m 269.50647,76.521179 h 14.80717 v 14.807175 h -14.80717 z" class="ddf f03 e05"/><path d="M 284.31366,91.328354 299.12084,76.52118" class="ddf f03 a01 e01 w03"/><path d="m 284.31366,76.521179 h 14.80717 v 14.807175 h -14.80717 z" class="ddf f03 e05"/><path d="M 218.23902,129.99326 203.43184,115.18608" class="ddf f03 a01 e01 w03"/><path transform="scale(-1,1)" d="m -218.23901,115.18609 h 14.80717 v 14.80717 h -14.80717 z" class="ddf f03 e05"/><path d="m 225.08495,129.99326 14.80718,-14.80718" class="ddf f03 a01 e01 w03"/><path d="m 225.08496,115.18609 h 14.80718 v 14.80717 h -14.80718 z" class="ddf f03 e05"/><path d="M 254.69931,129.99326 239.89213,115.18608" class="ddf f03 a01 e01 w03"/><path transform="scale(-1,1)" d="m -254.69931,115.18609 h 14.80717 v 14.80717 h -14.80717 z" class="ddf f03 e05"/><path d="m 254.69931,129.99326 14.80718,-14.80718" class="ddf f03 a01 e01 w03"/><path d="m 254.69931,115.18609 h 14.80717 v 14.80717 h -14.80717 z" class="ddf f03 e05"/><path d="M 284.45793,129.99326 269.65075,115.18608" class="ddf f03 a01 e01 w03"/><path transform="scale(-1,1)" d="m -284.45792,115.18609 h 14.80718 v 14.80717 h -14.80718 z" class="ddf f03 e05"/><path d="m 284.45793,129.99326 14.80718,-14.80718" class="ddf f03 a01 e01 w03"/><path d="m 284.45795,115.18609 h 14.80717 v 14.80717 h -14.80717 z" class="ddf f03 e05"/><path d="m 218.23902,137.11208 -14.80718,14.80717" class="ddf f03 a01 e01 w03"/><path transform="scale(-1)" d="m -218.23901,-151.91925 h 14.80717 v 14.80717 h -14.80717 z" class="ddf f03 e05"/><path d="m 225.08495,137.11208 14.80718,14.80718" class="ddf f03 a01 e01 w03"/><path transform="scale(1,-1)" d="m 225.08496,-151.91925 h 14.80718 v 14.80717 h -14.80718 z" class="ddf f03 e05"/><path d="m 254.69932,137.11208 -14.80718,14.80717" class="ddf f03 a01 e01 w03"/><path transform="scale(-1)" d="m -254.69931,-151.91925 h 14.80717 v 14.80717 h -14.80717 z" class="ddf f03 e05"/><path d="m 254.69931,137.11208 14.80718,14.80718" class="ddf f03 a01 e01 w03"/><path transform="scale(1,-1)" d="m 254.69931,-151.91925 h 14.80717 v 14.80717 h -14.80717 z" class="ddf f03 e05"/><path d="m 284.45794,137.11208 -14.80718,14.80717" class="ddf f03 a01 e01 w03"/><path transform="scale(-1)" d="m -284.45795,-151.91925 h 14.80718 v 14.80717 h -14.80718 z" class="ddf f03 e05"/><path d="m 284.45793,137.11208 14.80718,14.80718" class="ddf f03 a01 e01 w03"/><path transform="scale(1,-1)" d="m 284.45795,-151.91925 h 14.80717 v 14.80717 h -14.80717 z" class="ddf f03 e05"/><path d="M 218.23902,166.72645 203.43184,151.91927" class="ddf f03 a01 e01 w03"/><path transform="scale(-1,1)" d="m -218.23901,151.91927 h 14.80717 v 14.80717 h -14.80717 z" class="ddf f03 e05"/><path d="m 225.08495,166.72645 14.80718,-14.80718" class="ddf f03 a01 e01 w03"/><path d="m 225.08496,151.91927 h 14.80718 v 14.80717 h -14.80718 z" class="ddf f03 e05"/><path d="M 254.69931,166.72645 239.89213,151.91927" class="ddf f03 a01 e01 w03"/><path transform="scale(-1,1)" d="m -254.69931,151.91927 h 14.80717 v 14.80717 h -14.80717 z" class="ddf f03 e05"/><path d="m 254.69931,166.72645 14.80718,-14.80718" class="ddf f03 a01 e01 w03"/><path d="m 254.69931,151.91927 h 14.80717 v 14.80717 h -14.80717 z" class="ddf f03 e05"/><path d="M 284.45793,166.72645 269.65075,151.91927" class="ddf f03 a01 e01 w03"/><path transform="scale(-1,1)" d="m -284.45792,151.91927 h 14.80718 v 14.80717 h -14.80718 z" class="ddf f03 e05"/><path d="m 284.45793,166.72645 14.80718,-14.80718" class="ddf f03 a01 e01 w03"/><path d="m 284.45795,151.91927 h 14.80717 v 14.80717 h -14.80717 z" class="ddf f03 e05"/><path d="M 218.23902,166.72642 203.43184,181.5336" class="ddf f03 a01 e01 w03"/><path transform="scale(-1)" d="m -218.23901,-181.5336 h 14.80717 v 14.80717 h -14.80717 z" class="ddf f03 e05"/><path d="m 225.08495,166.72643 14.80718,14.80718" class="ddf f03 a01 e01 w03"/><path transform="scale(1,-1)" d="m 225.08496,-181.5336 h 14.80718 v 14.80717 h -14.80718 z" class="ddf f03 e05"/><path d="M 254.69932,166.72642 239.89214,181.5336" class="ddf f03 a01 e01 w03"/><path transform="scale(-1)" d="m -254.69931,-181.5336 h 14.80717 v 14.80717 h -14.80717 z" class="ddf f03 e05"/><path d="m 254.69931,166.72643 14.80718,14.80718" class="ddf f03 a01 e01 w03"/><path transform="scale(1,-1)" d="m 254.69931,-181.5336 h 14.80717 v 14.80717 h -14.80717 z" class="ddf f03 e05"/><path d="M 284.45794,166.72642 269.65076,181.5336" class="ddf f03 a01 e01 w03"/><path transform="scale(-1)" d="m -284.45795,-181.5336 h 14.80718 v 14.80717 h -14.80718 z" class="ddf f03 e05"/><path d="m 284.45793,166.72643 14.80718,14.80718" class="ddf f03 a01 e01 w03"/><path transform="scale(1,-1)" d="m 284.45795,-181.5336 h 14.80717 v 14.80717 h -14.80717 z" class="ddf f03 e05"/><text xml:space="preserve" x="14.280385" y="22.433434" class="ddf s00 f04 a02 e04 w01"><tspan x="14.280385" y="22.433434" class="ddf s00 f04 a02 w01">a</tspan></text><text xml:space="preserve" x="14.280385" y="113.0414" class="ddf s00 f04 a02 e04 w01"><tspan x="14.280385" y="113.0414" class="ddf s00 f04 a02 w01">b</tspan></text><text xml:space="preserve" x="193.98929" y="110.90939" class="ddf s01 f04 a02 e04 w01"><tspan x="193.98929" y="110.90939" class="ddf s01 f04 a02 w01">b</tspan></text><text xml:space="preserve" x="346.59143" y="127.13274" class="ddf s01 f04 a02 e04 w01"><tspan x="346.59143" y="127.13274" class="ddf s01 f04 a02 w01">b</tspan></text><text xml:space="preserve" x="193.98929" y="22.014523" class="ddf s01 f04 a02 e04 w01"><tspan x="193.98929" y="22.014523" class="ddf s01 f04 a02 w01">a</tspan></text><text xml:space="preserve" x="193.98929" y="145.93405" class="ddf s01 f04 a02 e04 w01"><tspan x="193.98929" y="145.93405" class="ddf s01 f04 a02 w01">d</tspan></text><text xml:space="preserve" x="193.98929" y="161.59549" class="ddf s01 f04 a02 e04 w01"><tspan x="193.98929" y="161.59549" class="ddf s01 f04 a02 w01">b</tspan></text><text xml:space="preserve" x="193.98929" y="177.34482" class="ddf s01 f04 a02 e04 w01"><tspan x="193.98929" y="177.34482" class="ddf s01 f04 a02 w01">d</tspan></text><text xml:space="preserve" x="228.82301" y="22.014523" class="ddf s01 f04 a02 e04 w01"><tspan x="228.82301" y="22.014523" class="ddf s01 f04 a02 w01">a</tspan></text><text xml:space="preserve" x="243.78406" y="22.085711" class="ddf s01 f04 a02 e04 w01"><tspan x="243.78406" y="22.085711" class="ddf s01 f04 a02 w01">a</tspan></text><text xml:space="preserve" x="258.98099" y="22.014523" class="ddf s01 f04 a02 e04 w01"><tspan x="258.98099" y="22.014523" class="ddf s01 f04 a02 w01">a</tspan></text><text xml:space="preserve" x="228.82301" y="110.89897" class="ddf s01 f04 a02 e04 w01"><tspan x="228.82301" y="110.89897" class="ddf s01 f04 a02 w01">d</tspan></text><text xml:space="preserve" x="244.05661" y="110.90939" class="ddf s01 f04 a02 e04 w01"><tspan x="244.05661" y="110.90939" class="ddf s01 f04 a02 w01">b</tspan></text><text xml:space="preserve" x="257.61621" y="110.89897" class="ddf s01 f04 a02 e04 w01"><tspan x="257.61621" y="110.89897" class="ddf s01 f04 a02 w01">d</tspan></text><text xml:space="preserve" x="273.36102" y="22.014523" class="ddf s01 f04 a02 e04 w01"><tspan x="273.36102" y="22.014523" class="ddf s01 f04 a02 w01">a</tspan></text><text xml:space="preserve" x="288.45294" y="22.014523" class="ddf s01 f04 a02 e04 w01"><tspan x="288.45294" y="22.014523" class="ddf s01 f04 a02 w01">a</tspan></text><text xml:space="preserve" x="193.98929" y="56.469681" class="ddf s01 f04 a02 e04 w01"><tspan x="193.98929" y="56.469681" class="ddf s01 f04 a02 w01">a</tspan></text><text xml:space="preserve" x="193.98929" y="72.273491" class="ddf s01 f04 a02 e04 w01"><tspan x="193.98929" y="72.273491" class="ddf s01 f04 a02 w01">a</tspan></text><text xml:space="preserve" x="193.98929" y="86.795914" class="ddf s01 f04 a02 e04 w01"><tspan x="193.98929" y="86.795914" class="ddf s01 f04 a02 w01">a</tspan></text><text xml:space="preserve" x="273.10144" y="110.90939" class="ddf s01 f04 a02 e04 w01"><tspan x="273.10144" y="110.90939" class="ddf s01 f04 a02 w01">b</tspan></text><text xml:space="preserve" x="288.65433" y="110.89897" class="ddf s01 f04 a02 e04 w01"><tspan x="288.65433" y="110.89897" class="ddf s01 f04 a02 w01">d</tspan></text><g transform="matrix(-0.54963026,-0.81842207,0.81853929,-0.54955155,335.12495,319.41774)" class="ddf w02"><path d="m 130.37208,73.570914 -0.28324,19.954124" class="ddf f03 a02 e02 w02"/><path d="m 135.07368,90.178331 -5.06491,4.80643 -4.80644,-5.06492 2.53246,-2.403219 2.40322,2.532457 2.53244,-2.403209 z" class="ddf f01 a02 e04 w01"/></g><g transform="matrix(-0.98579891,0.01733206,-0.01733454,-0.98565775,453.34362,242.26205)" class="ddf w02"><path d="m 130.37208,73.570914 -0.28324,19.954124" class="ddf f03 a02 e00 w02"/><path d="m 135.07368,90.178331 -5.06491,4.80643 -4.80644,-5.06492 2.53246,-2.403219 2.40322,2.532457 2.53244,-2.403209 z" class="ddf f00 a02 e04 w01"/></g><g transform="matrix(0.42536823,-0.88934542,0.8894728,0.42530732,202.69105,256.90376)" class="ddf w02"><path d="m 130.37208,73.570914 -0.28324,19.954124" class="ddf f03 a02 e03 w02"/><path d="m 135.07368,90.178331 -5.06491,4.80643 -4.80644,-5.06492 2.53246,-2.403219 2.40322,2.532457 2.53244,-2.403209 z" class="ddf f02 a02 e04 w01"/></g><path d="m 379.44727,135.99031 -31.02332,0.25891" class="ddf f03 a01 e01 w03"/><path d="m 348.42398,136.24922 15.58609,8.86129" class="ddf f03 a02 e05 w03"/><path d="m 379.44728,135.99031 -15.4187,9.08504" class="ddf f03 a02 e05 w03"/><path d="m 357.09021,45.570028 -23.35179,6.257091 -17.09469,-17.094691 6.25709,-23.351783 23.35179,-6.257092 17.09469,17.094692 z" transform="matrix(0.71404673,-0.19847913,0.19770455,0.71684426,115.60769,192.18015)" class="ddf f03 a02 e05 w00"/><path d="m 364.02859,145.07535 0.13041,18.01666" class="ddf f03 a02 e05 w03"/><path d="m 348.42395,136.24922 15.73501,26.84279" class="ddf f03 a02 e05 w03"/><path d="m 364.15896,163.09201 15.28831,-27.1017" class="ddf f03 a02 e05 w03"/><path d="m 397.95781,168.70114 -0.16739,-17.94633" class="ddf f03 a01 e01 w03"/><path d="m 382.35321,159.87501 15.58609,8.86129" class="ddf f03 a02 e05 w03"/><path d="m 413.37651,159.6161 -15.4187,9.08504" class="ddf f03 a02 e05 w03"/><path d="m 357.09021,45.570028 -23.35179,6.257091 -17.09469,-17.094691 6.25709,-23.351783 23.35179,-6.257092 17.09469,17.094692 z" transform="matrix(0.71404673,-0.19847913,0.19770455,0.71684426,149.53692,215.80594)" class="ddf f03 a02 e05 w00"/><path d="m 397.95782,168.70114 0.13041,18.01666" class="ddf f03 a02 e05 w03"/><path d="m 382.35318,159.87501 15.73501,26.84279" class="ddf f03 a02 e05 w03"/><path d="M 398.08819,186.7178 413.3765,159.6161" class="ddf f03 a02 e05 w03"/><path d="m 448.08641,133.69731 -31.02333,0.25891" class="ddf f03 a01 e01 w03"/><path d="m 417.06311,133.95622 15.5861,8.8613" class="ddf f03 a02 e05 w03"/><path d="m 448.08642,133.69731 -15.4187,9.08504" class="ddf f03 a02 e05 w03"/><path d="m 357.09021,45.570028 -23.35179,6.257091 -17.09469,-17.094691 6.25709,-23.351783 23.35179,-6.257092 17.09469,17.094692 z" transform="matrix(0.71404673,-0.19847913,0.19770455,0.71684426,184.24683,189.88715)" class="ddf f03 a02 e05 w00"/><path d="m 432.66773,142.78235 0.13041,18.01666" class="ddf f03 a02 e05 w03"/><path d="m 417.06308,133.95622 15.73502,26.84279" class="ddf f03 a02 e05 w03"/><path d="m 432.7981,160.79901 15.28831,-27.1017" class="ddf f03 a02 e05 w03"/><path d="m 412.38694,24.428054 -31.02332,0.25891" class="ddf f03 a01 e01 w03"/><path d="m 381.36365,24.686964 15.58609,8.861292" class="ddf f03 a02 e05 w03"/><path d="m 412.38695,24.428054 -15.4187,9.08504" class="ddf f03 a02 e05 w03"/><path d="m 357.09021,45.570028 -23.35179,6.257091 -17.09469,-17.094691 6.25709,-23.351783 23.35179,-6.257092 17.09469,17.094692 z" transform="matrix(0.71404673,-0.19847913,0.19770455,0.71684426,148.54736,80.617889)" class="ddf f03 a02 e05 w00"/><path d="m 396.96826,33.513091 0.13041,18.016658" class="ddf f03 a02 e05 w03"/><path d="m 381.36362,24.686964 15.73501,26.842785" class="ddf f03 a02 e05 w03"/><path d="M 397.09863,51.529749 412.38694,24.428054" class="ddf f03 a02 e05 w03"/><path d="m 364.02858,56.478652 -0.16739,-17.94633" class="ddf f03 a01 e01 w03"/><path d="m 348.42398,47.652522 15.58609,8.861292" class="ddf f03 a02 e05 w03"/><path d="m 379.44728,47.393612 -15.4187,9.08504" class="ddf f03 a02 e05 w03"/><path d="m 357.09021,45.570028 -23.35179,6.257091 -17.09469,-17.094691 6.25709,-23.351783 23.35179,-6.257092 17.09469,17.094692 z" transform="matrix(0.71404673,-0.19847913,0.19770455,0.71684426,115.60769,103.58345)" class="ddf f03 a02 e05 w00"/><path d="M 364.02859,56.478649 364.159,74.495307" class="ddf f03 a02 e05 w03"/><path d="m 348.42395,47.652522 15.73501,26.842785" class="ddf f03 a02 e05 w03"/><path d="M 364.15896,74.495307 379.44727,47.393612" class="ddf f03 a02 e05 w03"/><path d="m 432.65844,54.203232 -0.1674,-17.94633" class="ddf f03 a01 e01 w03"/><path d="m 417.05383,45.377102 15.5861,8.861292" class="ddf f03 a02 e05 w03"/><path d="m 448.07714,45.118192 -15.4187,9.08504" class="ddf f03 a02 e05 w03"/><path d="m 357.09021,45.570028 -23.35179,6.257091 -17.09469,-17.094691 6.25709,-23.351783 23.35179,-6.257092 17.09469,17.094692 z" transform="matrix(0.71404673,-0.19847913,0.19770455,0.71684426,184.23755,101.30803)" class="ddf f03 a02 e05 w00"/><path d="m 432.65845,54.203229 0.13041,18.016658" class="ddf f03 a02 e05 w03"/><path d="m 417.0538,45.377102 15.73502,26.842785" class="ddf f03 a02 e05 w03"/><path d="m 432.78882,72.219887 15.2883,-27.101695" class="ddf f03 a02 e05 w03"/><path d="m 373.46613,150.27601 11.42179,5.71808" class="ddf f03 a01 e03 w03"/><path d="m 387.82767,127.37675 -9.8624,5.68556" class="ddf f03 a01 e02 w03"/><path d="m 406.88865,126.23964 10.81072,5.49605" class="ddf f03 a01 e03 w03"/><path d="m 423.10472,147.65527 -13.08666,7.77027" class="ddf f03 a01 e02 w03"/><path d="M 362.96578,123.14041 V 79.983153" class="ddf f03 a01 e00 w03"/><path d="m 373.46612,61.829383 11.42179,5.718084" class="ddf f03 a01 e03 w03"/><path d="m 387.82766,38.930127 -9.8624,5.685559" class="ddf f03 a01 e02 w03"/><path d="m 406.88864,37.793012 10.81072,5.496048" class="ddf f03 a01 e03 w03"/><path d="m 423.10471,59.20864 -13.08666,7.770269" class="ddf f03 a01 e02 w03"/><path d="M 432.97169,121.26427 V 78.107011" class="ddf f03 a01 e00 w03"/><path d="m 396.98678,122.07462 -0.16739,-17.94633" class="ddf f03 a01 e01 w03"/><path d="m 381.38218,113.24849 15.58609,8.8613" class="ddf f03 a02 e05 w03"/><path d="m 412.40548,112.98958 -15.4187,9.08504" class="ddf f03 a02 e05 w03"/><path d="m 357.09021,45.570028 -23.35179,6.257091 -17.09469,-17.094691 6.25709,-23.351783 23.35179,-6.257092 17.09469,17.094692 z" transform="matrix(0.71404673,-0.19847913,0.19770455,0.71684426,148.56589,169.17942)" class="ddf f03 a02 e05 w00"/><path d="m 396.98679,122.07462 0.13041,18.01666" class="ddf f03 a02 e05 w03"/><path d="m 381.38215,113.24849 15.73501,26.84279" class="ddf f03 a02 e05 w03"/><path d="m 397.11716,140.09128 15.28831,-27.1017" class="ddf f03 a02 e05 w03"/><path d="m 413.38577,71.001825 -31.02332,0.25891" class="ddf f03 a01 e01 w03"/><path d="m 382.36248,71.260735 15.58609,8.861292" class="ddf f03 a02 e05 w03"/><path d="m 413.38578,71.001825 -15.4187,9.08504" class="ddf f03 a02 e05 w03"/><path d="m 357.09021,45.570028 -23.35179,6.257091 -17.09469,-17.094691 6.25709,-23.351783 23.35179,-6.257092 17.09469,17.094692 z" transform="matrix(0.71404673,-0.19847913,0.19770455,0.71684426,149.54619,127.19166)" class="ddf f03 a02 e05 w00"/><path d="M 397.96709,80.086862 398.0975,98.10352" class="ddf f03 a02 e05 w03"/><path d="M 382.36245,71.260735 398.09746,98.10352" class="ddf f03 a02 e05 w03"/><path d="M 398.09746,98.10352 413.38577,71.001825" class="ddf f03 a02 e05 w03"/><text xml:space="preserve" x="444.04617" y="127.13274" class="ddf s01 f04 a02 e04 w01"><tspan x="444.04617" y="127.13274" class="ddf s01 f04 a02 w01">b</tspan></text><text xml:space="preserve" x="417.49503" y="88.406281" class="ddf s01 f04 a02 e04 w01"><tspan x="417.49503" y="88.406281" class="ddf s01 f04 a02 w01">b</tspan></text><text xml:space="preserve" x="417.49503" y="32.309868" class="ddf s01 f04 a02 e04 w01"><tspan x="417.49503" y="32.309868" class="ddf s01 f04 a02 w01">b</tspan></text><text xml:space="preserve" x="418.11221" y="176.94211" class="ddf s01 f04 a02 e04 w01"><tspan x="418.11221" y="176.94211" class="ddf s01 f04 a02 w01">d</tspan></text><text xml:space="preserve" x="418.11221" y="118.14761" class="ddf s01 f04 a02 e04 w01"><tspan x="418.11221" y="118.14761" class="ddf s01 f04 a02 w01">d</tspan></text><text xml:space="preserve" x="444.28784" y="77.877403" class="ddf s01 f04 a02 e04 w01"><tspan x="444.28784" y="77.877403" class="ddf s01 f04 a02 w01">d</tspan></text><text xml:space="preserve" x="347.63934" y="79.890915" class="ddf s01 f04 a02 e04 w01"><tspan x="347.63934" y="79.890915" class="ddf s01 f04 a02 w01">d</tspan></text></g></svg>