<?xml version='1.0' encoding='UTF-8'?>
<svg xmlns="http://www.w3.org/2000/svg" width="1920" height="768" viewBox="0 0 507.99999 203.2" version="1.1" style="background-color:transparent;color-scheme:light dark" xml:space="preserve"><defs><style><![CDATA[.ddf {stroke-dasharray:none;font-variation-settings:normal;stroke-linecap:round;stroke-linejoin:round;stroke-miterlimit:4;stroke-dashoffset:0;stroke-opacity:1;opacity:1;display:inline;vector-effect:none;stop-color:#000000;stop-opacity:1;font-style:normal;font-variant:normal;font-weight:normal;font-stretch:normal;font-size:11.2022px;line-height:normal;font-family:Arial;font-variant-ligatures:normal;font-variant-caps:normal;font-variant-numeric:normal;font-variant-east-asian:normal;text-align:start;text-decoration-color:#000000;writing-mode:lr-tb;direction:ltr;text-anchor:start;font-variant-position:normal;font-variant-alternates:normal;font-feature-settings:normal;text-indent:0;text-decoration-line:none;text-decoration-style:solid;letter-spacing:normal;word-spacing:normal;text-transform:none;text-orientation:mixed;dominant-baseline:auto;baseline-shift:baseline;white-space:normal;} .dn {display:none}  .w00 {stroke-width:2.1} .w01 {stroke-width:3} .w02 {stroke-width:2.9} .w03 {stroke-width:1} .a00 {fill-opacity:0.3} .a01 {fill-opacity:0.2} .a02 {fill-opacity:1} .s00 {font-size:11px} .e00 {stroke:#ff4500} .e01 {stroke:none} .e02 {stroke:#777777} .e03 {stroke:#00ff45} .f00 {fill:#9e9e9e} .f01 {fill:#00ff45} .f02 {fill:#ff4500} .f03 {fill:none} .f04 {fill:#777777} .d00 {stroke-dasharray:none}]]></style></defs><g><g transform="matrix(0.45749573,0,0,0.4561352,-97.199763,7.281167)" class="ddf w00"><path d="m 244.16387,44.155078 96.79638,-33.841706 65.15643,50.990669 0.0813,98.814499 -96.74918,35.13576 -65.12537,-51.83315 z" class="ddf f04 a01 e02 w00"/><path d="m 244.68303,44.517173 65.22091,51.666343 95.84309,-35.035081 -95.89345,133.898445 0.10069,-98.863365 31.00805,-85.624526 v 97.856601 l -95.94376,35.08542" class="ddf f03 a02 e02 w00"/><path d="M 404.18654,158.75335 340.96232,108.81829 244.6942,44.517173" class="ddf f03 a02 e02 w00"/><path d="M 340.55962,10.156285 309.60189,194.94619 340.76097,108.61694" class="ddf f03 a02 e02 w00"/><path d="M 308.67265,193.63229 244.38401,44.966814" class="ddf f03 a02 e02 w00"/><path d="M 340.80326,10.315025 405.93143,160.07564" class="ddf f03 a02 e02 w00"/></g><g transform="matrix(0.3352211,0,0,0.33306164,29.482237,16.76895)" class="ddf f03 w02"><path d="m 244.16387,44.155078 96.79638,-33.841706 65.15643,50.990669 0.0813,98.814499 -96.74918,35.13576 -65.12537,-51.83315 z" class="ddf f03 a01 e02 w02"/><path d="m 244.68303,44.517173 65.22091,51.666343 95.84309,-35.035081 -95.89345,133.898445 0.10069,-98.863365 31.00805,-85.624526 v 97.856601 l -95.94376,35.08542" class="ddf f03 a02 e02 w02"/><path d="M 404.18654,158.75335 340.96232,108.81829 244.6942,44.517173" class="ddf f03 a02 e02 w02"/><path d="M 340.55962,10.156285 309.60189,194.94619 340.76097,108.61694" class="ddf f03 a02 e02 w02"/><path d="M 308.67265,193.63229 244.38401,44.966814" class="ddf f03 a02 e02 w02"/><path d="m 341.27572,11.025768 64.0731,148.943042" class="ddf f03 a02 e02 w02"/></g><g transform="matrix(0.3352211,0,0,0.33306164,96.020998,16.76895)" class="ddf f03 w02"><path d="m 244.16387,44.155078 96.79638,-33.841706 65.15643,50.990669 0.0813,98.814499 -96.74918,35.13576 -65.12537,-51.83315 z" class="ddf f03 a01 e02 w02"/><path d="m 244.68303,44.517173 65.22091,51.666343 95.84309,-35.035081 -95.89345,133.898445 0.10069,-98.863365 31.00805,-85.624526 v 97.856601 l -95.94376,35.08542" class="ddf f03 a02 e02 w02"/><path d="M 404.18654,158.75335 340.96232,108.81829 244.6942,44.517173" class="ddf f03 a02 e02 w02"/><path d="M 340.55962,10.156285 309.60189,194.94619 340.76097,108.61694" class="ddf f03 a02 e02 w02"/><path d="M 308.67265,193.63229 244.38401,44.966814" class="ddf f03 a02 e02 w02"/><path d="M 341.16954,10.705159 405.34882,159.54133" class="ddf f03 a02 e02 w02"/></g><g transform="matrix(0.3352211,0,0,0.33306164,162.55977,16.76895)" class="ddf f03 w02"><path d="m 244.16387,44.155078 96.79638,-33.841706 65.15643,50.990669 0.0813,98.814499 -96.74918,35.13576 -65.12537,-51.83315 z" class="ddf f03 a01 e02 w02"/><path d="m 244.68303,44.517173 65.22091,51.666343 95.84309,-35.035081 -95.89345,133.898445 0.10069,-98.863365 31.00805,-85.624526 v 97.856601 l -95.94376,35.08542" class="ddf f03 a02 e02 w02"/><path d="M 404.18654,158.75335 340.96232,108.81829 244.6942,44.517173" class="ddf f03 a02 e02 w02"/><path d="M 340.55962,10.156285 309.60189,194.94619 340.76097,108.61694" class="ddf f03 a02 e02 w02"/><path d="M 308.67265,193.63229 244.38401,44.966814" class="ddf f03 a02 e02 w02"/><path d="M 340.76303,11.372716 405.49768,159.81465" class="ddf f03 a02 e02 w02"/></g><g transform="matrix(0.3352211,0,0,0.33306164,229.09852,16.76895)" class="ddf f03 w02"><path d="m 244.16387,44.155078 96.79638,-33.841706 65.15643,50.990669 0.0813,98.814499 -96.74918,35.13576 -65.12537,-51.83315 z" class="ddf f03 a01 e02 w02"/><path d="m 244.68303,44.517173 65.22091,51.666343 95.84309,-35.035081 -95.89345,133.898445 0.10069,-98.863365 31.00805,-85.624526 v 97.856601 l -95.94376,35.08542" class="ddf f03 a02 e02 w02"/><path d="M 404.18654,158.75335 340.96232,108.81829 244.6942,44.517173" class="ddf f03 a02 e02 w02"/><path d="M 340.55962,10.156285 309.60189,194.94619 340.76097,108.61694" class="ddf f03 a02 e02 w02"/><path d="M 308.67265,193.63229 244.38401,44.966814" class="ddf f03 a02 e02 w02"/><path d="M 341.3819,10.812029 405.34882,160.39628" class="ddf f03 a02 e02 w02"/></g><g transform="matrix(0.3352211,0,0,0.33306164,295.63729,16.76895)" class="ddf f03 w02"><path d="m 244.16387,44.155078 96.79638,-33.841706 65.15643,50.990669 0.0813,98.814499 -96.74918,35.13576 -65.12537,-51.83315 z" class="ddf f03 a01 e02 w02"/><path d="m 244.68303,44.517173 65.22091,51.666343 95.84309,-35.035081 -95.89345,133.898445 0.10069,-98.863365 31.00805,-85.624526 v 97.856601 l -95.94376,35.08542" class="ddf f03 a02 e02 w02"/><path d="M 404.18654,158.75335 340.96232,108.81829 244.6942,44.517173" class="ddf f03 a02 e02 w02"/><path d="M 340.55962,10.156285 309.60189,194.94619 340.76097,108.61694" class="ddf f03 a02 e02 w02"/><path d="M 308.67265,193.63229 244.38401,44.966814" class="ddf f03 a02 e02 w02"/><path d="M 341.06336,108.7046 405.77354,62.076234" class="ddf f03 a02 e02 w02"/></g><g transform="matrix(0.3352211,0,0,0.33306164,361.68042,16.76895)" class="ddf f03 w02"><path d="m 244.16387,44.155078 96.79638,-33.841706 65.15643,50.990669 0.0813,98.814499 -96.74918,35.13576 -65.12537,-51.83315 z" class="ddf f03 a01 e02 w02"/><path d="m 244.68303,44.517173 65.22091,51.666343 95.84309,-35.035081 -95.89345,133.898445 0.10069,-98.863365 31.00805,-85.624526 v 97.856601 l -95.94376,35.08542" class="ddf f03 a02 e02 w02"/><path d="M 404.18654,158.75335 340.96232,108.81829 244.6942,44.517173" class="ddf f03 a02 e02 w02"/><path d="M 340.55962,10.156285 309.60189,194.94619 340.76097,108.61694" class="ddf f03 a02 e02 w02"/><path d="M 308.67265,193.63229 244.38401,44.966814" class="ddf f03 a02 e02 w02"/><path d="M 341.06336,108.7046 405.77354,62.076234" class="ddf f03 a02 e02 w02"/></g><path d="m 243.8893,31.0654 33.29474,-10.32751 -0.70428,32.30678 z" class="ddf f02 a00 e01 w03"/><path d="m 111.18957,31.44841 32.31172,21.68927 -10.08905,28.35517 -21.49142,-16.8056 z" class="ddf f02 a00 e01 w03"/><path d="m 111.49931,32.46174 12.19164,27.59783 9.02502,21.00549 -21.3477,-16.80559 z" class="ddf f02 a00 e01 w03"/><path d="m 143.56804,52.94006 -32.36557,-21.45213 0.0567,32.88035 -0.0236,-32.9209 21.86999,50.18003 L 111.345,64.35582 143.63159,52.94655 133.14434,81.61947" class="ddf f03 a01 e00 w03"/><path d="m 177.81235,31.51705 32.30867,-11.13035 -10.33821,61.51114 0.082,-33.14637 z" class="ddf f02 a00 e01 w03"/><path d="m 177.82007,31.52362 12.544,28.78077 9.43435,21.5572 0.24375,-33.23588 z" class="ddf f02 a00 e01 w03"/><path d="m 210.18777,20.18908 -32.36252,11.36749 22.10782,17.17795 -22.07472,-17.2185 21.92033,50.35621 0.24022,-33.15017 10.23242,-28.52649 -10.43386,61.66872" class="ddf f03 a01 e00 w03"/><path d="M 431.85134,37.18567 410.02133,20.35532 399.42588,81.85055 399.81524,48.84594 Z" class="ddf f02 a00 e01 w03"/><path d="m 431.84362,37.19224 -17.74555,24.06236 -14.6878,20.5597 0.22761,-33.09412 z" class="ddf f02 a00 e01 w03"/><path d="m 409.95458,20.1577 21.88386,17.06749 -32.09146,11.6038 32.05836,-11.64435 -32.37533,44.6403 0.23114,-33.00841 10.22988,-28.65234 -10.4998,61.65281" class="ddf f03 a01 e00 w03"/><path d="m 245.16572,31.82956 31.85868,-11.35747 -0.27319,32.38219 -10.2661,29.02693 z" class="ddf f02 a00 e01 w03"/><path d="m 276.78071,20.18353 -32.44107,11.31104 32.40212,21.40607 -32.36902,-21.44662 21.98794,50.4274 10.46691,-28.99324 0.0167,-32.69816 -10.4448,61.68346" class="ddf f03 a01 e00 w03"/><path d="M 365.36538,70.58218 343.72675,20.8748 333.32834,82.05018 Z" class="ddf f02 a00 e01 w03"/><path d="m 364.8995,70.19511 -21.43728,-16.48446 -10.2474,28.0028 z" class="ddf f02 a00 e01 w03"/><path d="m 343.37861,20.10013 21.69828,50.12263 -21.62374,-17.12077 21.59064,17.08022 -32.02095,11.67688 10.34448,-28.76956 -0.0523,-32.98291 -10.331,61.74453" class="ddf f03 a01 e00 w03"/><path d="M 497.76809,37.19925 476.17775,20.54391 465.22442,81.75085 497.79381,70.16487 Z" class="ddf f02 a00 e01 w03"/><path d="m 497.8586,37.34749 -16.55151,22.21449 -15.2494,22.03436 31.28372,-11.37693 z" class="ddf f02 a00 e01 w03"/><path d="m 476.01013,20.44612 21.74502,16.7928 0.027,32.92541 -0.0602,-32.96611 L 465.53198,81.88597 497.6961,70.15183 475.94639,20.45264 465.49309,81.878" class="ddf f03 a01 e00 w03"/><circle cx="44.136768" cy="96.294235" r="2.0644622" class="ddf f02 a02 e00 w03"/><g transform="rotate(-110.80018,95.880295,113.71887)" class="ddf"><path d="m 130.37208,73.570914 -0.28324,19.954124" class="ddf f03 a02 e00 w03"/><path d="m 135.07368,90.178331 -5.06491,4.80643 -4.80644,-5.06492 2.53246,-2.403219 2.40322,2.532457 2.53244,-2.403209 z" class="ddf f02 a02 e01 w01"/></g><g transform="rotate(-179.66853,87.311449,84.580016)" class="ddf"><path d="m 130.37208,73.570914 -0.28324,19.954124" class="ddf f03 a02 e00 w03"/><path d="m 135.07368,90.178331 -5.06491,4.80643 -4.80644,-5.06492 2.53246,-2.403219 2.40322,2.532457 2.53244,-2.403209 z" class="ddf f02 a02 e01 w01"/></g><g transform="rotate(127.36036,81.592411,63.347598)" class="ddf"><path d="m 130.37208,73.570914 -0.28324,19.954124" class="ddf f03 a02 e00 w03"/><path d="m 135.07368,90.178331 -5.06491,4.80643 -4.80644,-5.06492 2.53246,-2.403219 2.40322,2.532457 2.53244,-2.403209 z" class="ddf f02 a02 e01 w01"/></g><path d="m 310.18662,126.57705 21.78875,49.56529 31.79454,-43.7389 -26.89388,-2.97114 z" class="ddf f01 a00 e01 w03"/><path d="m 177.09083,126.71324 32.23564,21.07216 21.39851,-15.11203 -21.56749,-17.09085 z" class="ddf f01 a00 e01 w03"/><path d="m 430.39129,132.36595 -21.32671,15.80448 -10.81959,28.02683 32.17171,-11.39866 z" class="ddf f01 a00 e01 w03"/><g transform="matrix(0.45749573,0,0,0.4561352,-9.0101945,99.641169)" class="ddf w00"><path d="M 51.397981,49.547086 148.19436,15.70538 213.35079,66.696049 213.4321,165.51055 116.68292,200.6463 51.557555,148.81316 Z" class="ddf f04 a01 e02 w00"/><path d="M 51.495525,49.658198 213.18041,66.873711" class="ddf f03 a02 e02 w00"/><path d="M 116.6189,101.31622 213.23074,66.873713" class="ddf f03 a02 e02 w00"/><path d="m 148.20099,15.729809 0.37374,98.555221 -96.779706,34.46558" class="ddf f03 a02 e02 w00"/><path d="M 212.62669,164.70514 148.57682,114.35832" class="ddf f03 a02 e02 w00"/><path d="M 213.20558,66.823373 148.48122,114.30737 51.495527,49.557522 116.63006,200.45421 148.5524,114.38065" class="ddf f03 a02 e02 w00"/><path d="M 116.77453,200.56308 116.52328,101.31831 51.520694,49.582693" class="ddf f03 a02 e02 w00"/><path d="M 117.06818,200.76988 213.28027,67.201793" class="ddf f03 a02 e02 w00"/></g><g transform="matrix(0.33008156,0,0,0.32788419,93.410966,110.4899)" class="ddf f03 w01"><path d="M 51.397981,49.547086 148.19436,15.70538 213.35079,66.696049 213.4321,165.51055 116.68292,200.6463 51.557555,148.81316 Z" class="ddf f03 a01 e02 w01"/><path d="M 51.495525,49.658198 213.18041,66.873711" class="ddf f03 a02 e02 w01"/><path d="M 116.6189,101.31622 213.23074,66.873713" class="ddf f03 a02 e02 w01"/><path d="m 148.20099,15.729809 0.37374,98.555221 -96.779706,34.46558" class="ddf f03 a02 e02 w01"/><path d="M 212.62669,164.70514 148.57682,114.35832" class="ddf f03 a02 e02 w01"/><path d="M 213.20558,66.823373 148.48122,114.30737 51.495527,49.557522 116.63006,200.45421 148.5524,114.38065" class="ddf f03 a02 e02 w01"/><path d="M 116.77453,200.56308 116.52328,101.31831 51.520694,49.582693" class="ddf f03 a02 e02 w01"/><path d="M 117.06818,200.76988 213.28027,67.201793" class="ddf f03 a02 e02 w01"/></g><g transform="matrix(0.33008156,0,0,0.32788419,160.03786,110.4899)" class="ddf f03 w01"><path d="M 51.397981,49.547086 148.19436,15.70538 213.35079,66.696049 213.4321,165.51055 116.68292,200.6463 51.557555,148.81316 Z" class="ddf f03 a01 e02 w01"/><path d="M 51.495525,49.658198 213.18041,66.873711" class="ddf f03 a02 e02 w01"/><path d="M 116.6189,101.31622 213.23074,66.873713" class="ddf f03 a02 e02 w01"/><path d="m 148.20099,15.729809 0.37374,98.555221 -96.779706,34.46558" class="ddf f03 a02 e02 w01"/><path d="M 212.62669,164.70514 148.57682,114.35832" class="ddf f03 a02 e02 w01"/><path d="M 213.20558,66.823373 148.48122,114.30737 51.495527,49.557522 116.63006,200.45421 148.5524,114.38065" class="ddf f03 a02 e02 w01"/><path d="M 116.77453,200.56308 116.52328,101.31831 51.520694,49.582693" class="ddf f03 a02 e02 w01"/><path d="M 117.06818,200.76988 213.28027,67.201793" class="ddf f03 a02 e02 w01"/></g><g transform="matrix(0.33008156,0,0,0.32788419,226.66474,110.4899)" class="ddf f03 w01"><path d="M 51.397981,49.547086 148.19436,15.70538 213.35079,66.696049 213.4321,165.51055 116.68292,200.6463 51.557555,148.81316 Z" class="ddf f03 a01 e02 w01"/><path d="M 51.495525,49.658198 213.18041,66.873711" class="ddf f03 a02 e02 w01"/><path d="M 116.6189,101.31622 213.23074,66.873713" class="ddf f03 a02 e02 w01"/><path d="m 148.20099,15.729809 0.37374,98.555221 -96.779706,34.46558" class="ddf f03 a02 e02 w01"/><path d="M 212.62669,164.70514 148.57682,114.35832" class="ddf f03 a02 e02 w01"/><path d="M 213.20558,66.823373 148.48122,114.30737 51.495527,49.557522 116.63006,200.45421 148.5524,114.38065" class="ddf f03 a02 e02 w01"/><path d="M 116.77453,200.56308 116.52328,101.31831 51.520694,49.582693" class="ddf f03 a02 e02 w01"/><path d="M 117.06818,200.76988 213.28027,67.201793" class="ddf f03 a02 e02 w01"/></g><g transform="matrix(0.33008156,0,0,0.32788419,293.29163,110.4899)" class="ddf f03 w01"><path d="M 51.397981,49.547086 148.19436,15.70538 213.35079,66.696049 213.4321,165.51055 116.68292,200.6463 51.557555,148.81316 Z" class="ddf f03 a01 e02 w01"/><path d="M 51.495525,49.658198 213.18041,66.873711" class="ddf f03 a02 e02 w01"/><path d="M 116.6189,101.31622 213.23074,66.873713" class="ddf f03 a02 e02 w01"/><path d="m 148.20099,15.729809 0.37374,98.555221 -96.779706,34.46558" class="ddf f03 a02 e02 w01"/><path d="M 212.62669,164.70514 148.57682,114.35832" class="ddf f03 a02 e02 w01"/><path d="M 213.20558,66.823373 148.48122,114.30737 51.495527,49.557522 116.63006,200.45421 148.5524,114.38065" class="ddf f03 a02 e02 w01"/><path d="M 116.77453,200.56308 116.52328,101.31831 51.520694,49.582693" class="ddf f03 a02 e02 w01"/><path d="M 117.06818,200.76988 213.28027,67.201793" class="ddf f03 a02 e02 w01"/></g><g transform="matrix(0.33008156,0,0,0.32788419,359.91851,110.4899)" class="ddf f03 w01"><path d="M 51.397981,49.547086 148.19436,15.70538 213.35079,66.696049 213.4321,165.51055 116.68292,200.6463 51.557555,148.81316 Z" class="ddf f03 a01 e02 w01"/><path d="M 51.495525,49.658198 213.18041,66.873711" class="ddf f03 a02 e02 w01"/><path d="M 116.6189,101.31622 213.23074,66.873713" class="ddf f03 a02 e02 w01"/><path d="m 148.20099,15.729809 0.37374,98.555221 -96.779706,34.46558" class="ddf f03 a02 e02 w01"/><path d="M 212.62669,164.70514 148.57682,114.35832" class="ddf f03 a02 e02 w01"/><path d="M 213.20558,66.823373 148.48122,114.30737 51.495527,49.557522 116.63006,200.45421 148.5524,114.38065" class="ddf f03 a02 e02 w01"/><path d="M 116.77453,200.56308 116.52328,101.31831 51.520694,49.582693" class="ddf f03 a02 e02 w01"/><path d="M 117.06818,200.76988 213.28027,67.201793" class="ddf f03 a02 e02 w01"/></g><path d="m 243.78307,127.09094 53.0648,5.39304 -31.34729,43.56726 z" class="ddf f01 a00 e01 w03"/><path d="m 14.456753,122.4213 74.169,7.59272 -44.397449,60.89863 z" class="ddf f01 a00 e01 w03"/><path d="M 58.962605,151.62056 89.23708,130.21873 44.436929,191.31872 Z" class="ddf f01 a00 e01 w03"/><path d="M 275.25865,148.15104 296.77769,132.634 264.93382,176.93354 Z" class="ddf f01 a00 e01 w03"/><path d="m 296.914,132.28874 -53.27832,-5.47911 31.87023,21.04234 -31.83745,-21.0824 21.52829,49.41462 10.39417,-28.34452 21.38604,-15.54452 -31.74177,43.8812" class="ddf f03 a02 e03 w03"/><path d="m 110.44132,126.76477 32.01085,21.42821 -9.99511,28.01388 -21.2913,-16.60332 z" class="ddf f01 a00 e01 w03"/><path d="m 110.74818,127.7659 12.07811,27.26566 8.94099,20.75266 -21.14892,-16.60331 z" class="ddf f01 a00 e01 w03"/><path d="m 430.48069,132.51179 -16.34941,21.85535 -15.06319,21.67811 30.90173,-11.193 z" class="ddf f01 a00 e01 w03"/><path d="m 209.0313,115.92847 21.44623,16.26832 -52.61417,-5.64031 z" class="ddf f01 a00 e01 w03"/><path d="m 310.37763,126.62336 21.85035,16.51986 31.57215,-10.69945 z" class="ddf f01 a00 e01 w03"/><path d="m 142.5183,147.99774 -32.0642,-21.19394 0.0562,32.4846 -0.0234,-32.52466 21.66635,49.57606 -21.55794,-17.0637 31.98595,-11.27195 -10.38959,28.32781" class="ddf f03 a02 e03 w03"/><path d="m 408.99845,147.97519 21.38006,-15.5702 0.0267,32.39308 -0.0595,-32.43314 -31.79691,43.96527 31.77138,-11.54443 -21.38469,-16.80417 -10.42511,28.34077" class="ddf f03 a02 e03 w03"/><path d="m 209.17824,147.92865 -32.04666,-21.22054 32.03034,-11.11498 -32.05253,11.16175 53.60588,5.58701 -21.52811,-16.66664 0.0238,32.30758 21.51365,-15.60286" class="ddf f03 a02 e03 w03"/><path d="m 331.82714,176.2856 -21.59977,-49.71369 21.52753,17.10867 -21.54972,-17.06189 53.57282,5.73802 -31.99786,11.406 0.0797,32.57706 31.92748,-43.94498" class="ddf f03 a02 e03 w03"/><circle cx="44.401321" cy="191.10321" r="2.0644622" class="ddf f01 a02 e03 w03"/><circle cx="58.427139" cy="151.85338" r="2.0644622" class="ddf f01 a02 e03 w03"/><circle cx="87.969109" cy="130.06619" r="2.0644622" class="ddf f01 a02 e03 w03"/><circle cx="14.579535" cy="122.35818" r="2.0644622" class="ddf f01 a02 e03 w03"/><path d="m 14.511943,122.46671 73.939011,7.70926" class="ddf f01 a02 e03 w03"/><path d="m 58.858026,151.72516 -14.346875,39.3814" class="ddf f01 a02 e03 w03"/><text xml:space="preserve" x="32.510582" y="198.27321" class="ddf f04 a02 e01 w01"><tspan x="32.510582" y="198.27321" class="ddf f04 a02 w01">0</tspan></text><text xml:space="preserve" x="120.57611" y="190.18138" class="ddf f04 a02 e01 w01"><tspan x="120.57611" y="190.18138" class="ddf f04 a02 w01">0-2-3-7</tspan></text><text xml:space="preserve" x="120.57611" y="97.351776" class="ddf f04 a02 e01 w01"><tspan x="120.57611" y="97.351776" class="ddf f04 a02 w01">0-2-3-7</tspan></text><text xml:space="preserve" x="184.93037" y="97.351776" class="ddf f04 a02 e01 w01"><tspan x="184.93037" y="97.351776" class="ddf f04 a02 w01">0-4-6-7</tspan></text><text xml:space="preserve" x="252.13217" y="97.351776" class="ddf f04 a02 e01 w01"><tspan x="252.13217" y="97.351776" class="ddf f04 a02 w01">0-2-6-7</tspan></text><text xml:space="preserve" x="320.47299" y="97.351776" class="ddf f04 a02 e01 w01"><tspan x="320.47299" y="97.351776" class="ddf f04 a02 w01">0-1-2-6</tspan></text><text xml:space="preserve" x="385.96628" y="97.351776" class="ddf f04 a02 e01 w01"><tspan x="385.96628" y="97.351776" class="ddf f04 a02 w01">0-4-5-6</tspan></text><text xml:space="preserve" x="451.45956" y="97.351776" class="ddf f04 a02 e01 w01"><tspan x="451.45956" y="97.351776" class="ddf f04 a02 w01">0-1-5-6</tspan></text><text xml:space="preserve" x="185.41115" y="190.18138" class="ddf f04 a02 e01 w01"><tspan x="185.41115" y="190.18138" class="ddf f04 a02 w01">2-5-6-7</tspan></text><text xml:space="preserve" x="252.25969" y="190.18138" class="ddf f04 a02 e01 w01"><tspan x="252.25969" y="190.18138" class="ddf f04 a02 w01">0-2-5-7</tspan></text><text xml:space="preserve" x="316.61395" y="190.18138" class="ddf f04 a02 e01 w01"><tspan x="316.61395" y="190.18138" class="ddf f04 a02 w01">0-4-5-7</tspan></text><text xml:space="preserve" x="386.66327" y="190.18138" class="ddf f04 a02 e01 w01"><tspan x="386.66327" y="190.18138" class="ddf f04 a02 w01">0-1-2-5</tspan></text><text xml:space="preserve" x="32.510582" y="106.29787" class="ddf f04 a02 e01 w01"><tspan x="32.510582" y="106.29787" class="ddf f04 a02 w01">0</tspan></text><text xml:space="preserve" x="91.986443" y="180.01985" class="ddf f04 a02 e01 w01"><tspan x="91.986443" y="180.01985" class="ddf f04 a02 w01">1</tspan></text><text xml:space="preserve" x="91.986443" y="87.190254" class="ddf f04 a02 e01 w01"><tspan x="91.986443" y="87.190254" class="ddf f04 a02 w01">1</tspan></text><text xml:space="preserve" x="4.9414783" y="173.95184" class="ddf f04 a02 e01 w01"><tspan x="4.9414783" y="173.95184" class="ddf f04 a02 w01">3</tspan></text><text xml:space="preserve" x="5.8392549" y="81.605751" class="ddf f04 a02 e01 w01"><tspan x="5.8392549" y="81.605751" class="ddf f04 a02 w01">3</tspan></text><text xml:space="preserve" x="31.991999" y="152.86693" class="ddf f00 a02 e01 w01"><tspan x="31.991999" y="152.86693" class="ddf f00 a02 e01 w01">4</tspan></text><text xml:space="preserve" x="34.782784" y="60.141674" class="ddf f00 a02 e01 w01"><tspan x="34.782784" y="60.141674" class="ddf f00 a02 w01">4</tspan></text><text xml:space="preserve" x="66.056511" y="171.97827" class="ddf f00 a02 e01 w01"><tspan x="66.056511" y="171.97827" class="ddf f00 a02 e01 w01">2</tspan></text><text xml:space="preserve" x="63.423954" y="56.948475" class="ddf f00 a02 e01 w01"><tspan x="63.423954" y="56.948475" class="ddf f00 a02 w01">2</tspan></text><text xml:space="preserve" x="90.987373" y="128.16597" class="ddf f04 a02 e01 w01"><tspan x="90.987373" y="128.16597" class="ddf f04 a02 w01">5</tspan></text><text xml:space="preserve" x="90.987373" y="36.475388" class="ddf f04 a02 e01 w01"><tspan x="90.987373" y="36.475388" class="ddf f04 a02 w01">5</tspan></text><text xml:space="preserve" x="61.557339" y="104.96467" class="ddf f04 a02 e01 w01"><tspan x="61.557339" y="104.96467" class="ddf f04 a02 w01">6</tspan></text><text xml:space="preserve" x="62.960178" y="9.8229837" class="ddf f04 a02 e01 w01"><tspan x="62.960178" y="9.8229837" class="ddf f04 a02 w01">6</tspan></text><text xml:space="preserve" x="3.9735844" y="121.29861" class="ddf f04 a02 e01 w01"><tspan x="3.9735844" y="121.29861" class="ddf f04 a02 w01">7</tspan></text><text xml:space="preserve" x="5.9668579" y="27.329994" class="ddf f04 a02 e01 w01"><tspan x="5.9668579" y="27.329994" class="ddf f04 a02 w01">7</tspan></text></g></svg>