<?xml version='1.0' encoding='UTF-8'?>
<svg xmlns="http://www.w3.org/2000/svg" width="1920" height="768" viewBox="0 0 507.99999 203.2" version="1.1" style="background-color:transparent;color-scheme:light dark" xml:space="preserve"><defs><style><![CDATA[.ddf {stroke-linecap:round;font-variation-settings:normal;display:inline;vector-effect:none;stroke-linejoin:round;stroke-miterlimit:4;stroke-dashoffset:0;stroke-opacity:1;stop-color:#000000;font-style:normal;font-variant:normal;font-weight:normal;font-stretch:normal;line-height:normal;font-family:Arial;font-variant-ligatures:normal;font-variant-caps:normal;font-variant-numeric:normal;font-variant-east-asian:normal;text-align:start;text-decoration-color:#000000;writing-mode:lr-tb;direction:ltr;text-anchor:start;stop-opacity:1;font-variant-position:normal;font-variant-alternates:normal;text-indent:0;text-decoration-line:none;text-decoration-style:solid;letter-spacing:normal;word-spacing:normal;text-transform:none;text-orientation:mixed;dominant-baseline:auto;baseline-shift:baseline;white-space:normal;font-feature-settings:normal;opacity:1;} .dn {display:none}  .w00 {stroke-width:3} .w01 {stroke-width:1} .w02 {stroke-width:2} .a00 {fill-opacity:0.2} .a01 {fill-opacity:1} .s00 {font-size:16px} .e00 {stroke:#ff45ff} .e01 {stroke:#b4b4b4} .e02 {stroke:#0045ff} .e03 {stroke:#45ffff} .e04 {stroke:#00ff45} .e05 {stroke:#ff4500} .e06 {stroke:none} .e07 {stroke:#777777} .f00 {fill:#ff45ff} .f01 {fill:#bebebe} .f02 {fill:#0045ff} .f03 {fill:#45ffff} .f04 {fill:#00ff45} .f05 {fill:#ff4500} .f06 {fill:none} .f07 {fill:#777777} .f08 {fill:#808080} .d00 {stroke-dasharray:none} .d01 {stroke-dasharray:1,3}]]></style></defs><g><path d="M 31.341193,121.43457 74.441412,67.463951 154.7734,98.656315 113.89704,155.80752 Z" class="ddf f07 a00 e06 w00"/><path d="m 96.82012,110.25634 53.86016,26.51608" class="ddf f06 a01 e05 w00 d00"/><path d="m 82.893635,33.392135 9.11136,-10.601927 10.601935,9.11135 -4.555685,5.300995 -5.30096,-4.555684 -4.55569,5.300959 z" class="ddf f02 a01 e06 w00 d00"/><text xml:space="preserve" x="87.140671" y="18.18487" class="ddf s00 f02 a01 e06 w00 d00"><tspan x="87.140671" y="18.18487" class="ddf s00 f02 a01 e06 w00 d00">n</tspan></text><text xml:space="preserve" x="163.88147" y="147.6188" class="ddf s00 f05 a01 e06 w00 d00"><tspan x="163.88147" y="147.6188" class="ddf s00 f05 a01 e06 w00 d00">u</tspan></text><text xml:space="preserve" x="44.334206" y="56.220387" class="ddf s00 f00 a01 e06 w00 d00"><tspan x="44.334206" y="56.220387" class="ddf s00 f00 a01 e06 w00 d00">p</tspan></text><text xml:space="preserve" x="106.8682" y="110.73423" class="ddf s00 f07 a01 e06 w00 d00"><tspan x="106.8682" y="110.73423" class="ddf s00 f07 a01 e06 w00 d00">o</tspan></text><text xml:space="preserve" x="162.02463" y="101.23367" class="ddf s00 f07 a01 e06 w00 d00"><tspan x="162.02463" y="101.23367" class="ddf s00 f07 a01 w00">plane</tspan></text><text xml:space="preserve" x="45.433422" y="167.77805" class="ddf s00 f03 a01 e06 w00 d00"><tspan x="45.433422" y="167.77805" class="ddf s00 f03 a01 w00">q</tspan></text><text xml:space="preserve" x="133.39561" y="57.832218" class="ddf s00 f04 a01 e06 w00 d00"><tspan x="133.39561" y="57.832218" class="ddf s00 f04 a01 e06 w00 d00">v</tspan></text><path d="M 124.81582,68.105461 94.218405,108.67774" class="ddf f06 a01 e04 w00 d00"/><path d="M 59.768968,104.10739 58.303434,69.244475" class="ddf f06 a01 e07 w01 d01"/><path d="M 61.18225,150.9331 59.927241,112.77196" class="ddf f06 a01 e07 w01 d01"/><path d="m 64.043882,108.81446 29.369804,-0.63985" class="ddf f06 a01 e07 w01 d01"/><path d="m 62.803129,64.528448 30.211904,-0.56967" class="ddf f06 a01 e07 w01 d01"/><path d="m 118.50375,62.165463 11.79013,-1.694694 1.69465,11.790129 -5.89504,0.847356 -0.84737,-5.895061 -5.89505,0.847364 z" class="ddf f04 a01 e06 w00 d00"/><path d="m 154.63918,127.49487 5.15308,13.31409 -13.31408,5.15306 -2.57654,-6.65703 6.65704,-2.57654 -2.57654,-6.65704 z" class="ddf f05 a01 e06 w00 d00"/><path d="M 93.466095,107.76581 92.959075,32.564817" class="ddf f06 a01 e02 w00 d00"/><path d="M 64.696187,149.82373 93.311175,109.27086" class="ddf f06 a01 e03 w00 d00"/><path d="m 77.739081,148.89194 -14.045279,2.55919 -2.559158,-14.04525 7.022617,-1.27961 1.279582,7.02264 7.022629,-1.27958 z" class="ddf f03 a01 e06 w00 d00"/><circle cx="-165.99188" cy="-3.1717298" r="4.2948442" transform="rotate(-112.75965)" class="ddf f06 a01 e03 w02 d00"/><path d="M 67.593529,74.566599 92.933167,107.87766" class="ddf f06 a01 e00 w00 d00"/><path d="m 60.583228,82.10261 1.392461,-14.208447 14.208441,1.392475 -0.696221,7.104208 -7.104224,-0.696234 -0.696233,7.104234 z" class="ddf f00 a01 e06 w00 d00"/><circle cx="-82.449409" cy="29.118448" r="4.2948442" transform="rotate(-112.75965)" class="ddf f06 a01 e00 w02 d00"/><circle cx="-115.58457" cy="-83.897636" r="4.2948442" transform="rotate(-166.8624)" class="ddf f01 a01 e07 w02 d00"/><circle cx="-82.945297" cy="-91.688721" r="4.2948442" transform="rotate(-166.8624)" class="ddf f06 a01 e07 w02 d00"/><text xml:space="preserve" x="28.400209" y="90.863754" class="ddf s00 f08 a01 e06 w00 d00"><tspan x="28.400209" y="90.863754" class="ddf s00 f08 a01 e06 w00 d00">d</tspan></text><text xml:space="preserve" x="30.046494" y="136.50552" class="ddf s00 f08 a01 e06 w00 d00"><tspan x="30.046494" y="136.50552" class="ddf s00 f08 a01 e06 w00 d00">d</tspan></text><path d="m 43.586484,107.67512 5.161394,0.0865 -2.451881,-0.0543 -0.756249,-42.441736 2.469368,0.03766 -5.705227,-0.118292" class="ddf f06 a01 e01 w01 d00"/><path d="m 44.541678,153.92314 5.161394,0.0865 -2.451881,-0.0543 -0.756249,-46.11371 2.469368,0.0377 -5.705227,-0.11829" class="ddf f06 a01 e01 w01 d00"/></g></svg>