<?xml version='1.0' encoding='UTF-8'?>
<svg xmlns="http://www.w3.org/2000/svg" width="1920" height="768" viewBox="0 0 507.99999 203.2" version="1.1" style="background-color:transparent;color-scheme:light dark" xml:space="preserve"><defs><style><![CDATA[.ddf {font-variation-settings:normal;display:inline;fill-opacity:1;stroke-linecap:round;stroke-linejoin:round;stroke-miterlimit:4;stroke-dashoffset:0;stroke-opacity:1;stop-color:#000000;vector-effect:none;font-style:normal;font-variant:normal;font-weight:normal;font-stretch:normal;line-height:normal;font-family:Arial;font-variant-ligatures:normal;font-variant-caps:normal;font-variant-numeric:normal;font-variant-east-asian:normal;text-align:start;text-decoration-color:#000000;writing-mode:lr-tb;direction:ltr;text-anchor:start;stop-opacity:1;font-variant-position:normal;font-variant-alternates:normal;text-indent:0;text-decoration-line:none;text-decoration-style:solid;letter-spacing:normal;word-spacing:normal;text-transform:none;text-orientation:mixed;dominant-baseline:auto;baseline-shift:baseline;white-space:normal;font-feature-settings:normal;} .dn {display:none}  .w00 {stroke-width:3} .w01 {stroke-width:1} .w02 {stroke-width:2} .a00 {fill-opacity:1} .s00 {font-size:16px} .s01 {font-size:13px} .e00 {stroke:#b4b4b4} .e01 {stroke:#0045ff} .e02 {stroke:#00ff45} .e03 {stroke:#ff4500} .e04 {stroke:none} .e05 {stroke:#777777} .e06 {stroke:#808080} .f00 {fill:#b4b4b4} .f01 {fill:#0045ff} .f02 {fill:#00ff45} .f03 {fill:#ff4500} .f04 {fill:none} .f05 {fill:#777777} .f06 {fill:#808080} .d00 {stroke-dasharray:none} .d01 {stroke-dasharray:1,3}]]></style></defs><g><g transform="translate(0,-14.29091)"><path d="M 63.479591,117.60247 87.843698,98.385155" class="ddf f04 e00 w01 d01"/><g transform="translate(-11.227999,10.385899)"><path d="m 66.910604,88.593486 c -4.66766,-1.64531 -7.72265,-4.61439 -7.55861,-7.93126 0.2433,-4.91932 7.47522,-8.74081 16.15296,-8.53552 8.67775,0.20529 15.51519,4.35962 15.2719,9.27894 -0.18531,3.74678 -4.42475,6.8567 -10.26932,8.03565" class="ddf f04 e05 w01"/><path d="m 67.267094,84.870076 1.99129,4.92312 -4.92311,1.9913 -0.99566,-2.46157 2.46156,-0.99564 -0.99564,-2.46156 z" class="ddf f05 e04 w00 d00"/></g><path d="M 20.778034,144.09041 63.066669,118.12379" class="ddf f04 e02 w00 d00"/><path d="m 107.74716,136.3035 2.6888,9.82995 -9.82996,2.68881 -1.344409,-4.91499 4.914979,-1.34439 -1.3444,-4.91497 z" class="ddf f03 e04 w00 d00"/><path d="m 27.940762,148.40187 -10.187571,-2.12973 2.129733,-10.18755 5.093784,1.06484 -1.064842,5.09378 5.093794,1.06484 z" class="ddf f02 e04 w00 d00"/><path d="m 55.83342,73.766543 7.54846,-7.165416 7.16541,7.548455 -3.77422,3.582708 -3.58271,-3.774224 -3.77421,3.582701 z" class="ddf f01 e04 w00 d00"/><text xml:space="preserve" x="113.6661" y="155.35388" class="ddf s01 f03 e04 w00 d00"><tspan x="113.6661" y="155.35388" class="ddf s01 f03 e04 w00 d00">X</tspan></text><text xml:space="preserve" x="59.472874" y="61.949242" class="ddf s01 f01 e04 w00 d00"><tspan x="59.472874" y="61.949242" class="ddf s01 f01 e04 w00 d00">Z</tspan></text><text xml:space="preserve" x="4.6456647" y="154.90396" class="ddf s01 f02 e04 w00 d00"><tspan x="4.6456647" y="154.90396" class="ddf s01 f02 e04 w00 d00">Y</tspan></text><path d="m 63.44443,117.28356 42.19265,26.52982" class="ddf f04 e03 w00 d00"/><path d="M 63.38433,116.76784 63.15455,72.58329" class="ddf f04 e01 w00 d00"/><text xml:space="preserve" x="58.001011" y="139.77766" class="ddf s00 f06 e04 w00 d00"><tspan x="58.001011" y="139.77766" class="ddf s00 f06 e04 w00 d00">O</tspan></text><text xml:space="preserve" x="96.482193" y="98.406448" class="ddf s00 f06 e04 w00 d00"><tspan x="96.482193" y="98.406448" class="ddf s00 f06 e04 w00 d00">p</tspan></text><circle cx="63.494617" cy="117.15391" r="3.7527339" class="ddf f00 e06 w02 d00"/><circle cx="-6.8070774" cy="-131.74625" r="3.7527339" transform="rotate(141.29241)" class="ddf f00 e06 w02 d00"/></g><g transform="translate(-1.7134181,-14.29091)"><text xml:space="preserve" x="235.97664" y="128.26297" class="ddf s01 f03 e04 w00 d00"><tspan x="235.97664" y="128.26297" class="ddf s01 f03 e04 w00 d00">X</tspan></text><text xml:space="preserve" x="142.299" y="177.82043" class="ddf s01 f02 e04 w00 d00"><tspan x="142.299" y="177.82043" class="ddf s01 f02 e04 w00 d00">Y</tspan></text><text xml:space="preserve" x="198.71072" y="85.238304" class="ddf s00 f06 e04 w00 d00"><tspan x="198.71072" y="85.238304" class="ddf s00 f06 e04 w00 d00">p</tspan></text><g transform="rotate(-151.70316,127.5784,98.168289)" class="ddf"><path d="m 66.910604,88.593486 c -4.66766,-1.64531 -7.72265,-4.61439 -7.55861,-7.93126 0.2433,-4.91932 7.47522,-8.74081 16.15296,-8.53552 8.67775,0.20529 15.51519,4.35962 15.2719,9.27894 -0.18531,3.74678 -4.42475,6.8567 -10.26932,8.03565" class="ddf f04 e05 w01"/><path d="m 67.267094,84.870076 1.99129,4.92312 -4.92311,1.9913 -0.99566,-2.46157 2.46156,-0.99564 -0.99564,-2.46156 z" class="ddf f05 e04 w00 d00"/></g><path d="m 151.74617,161.23751 26.0579,-42.23245" class="ddf f04 e02 w00 d00"/><path d="m 226.16456,115.38939 6.82861,7.56489 -7.5649,6.82862 -3.41432,-3.78245 3.78246,-3.4143 -3.41431,-3.78244 z" class="ddf f03 e04 w00 d00"/><path d="m 160.08318,161.86018 -10.05477,2.68776 -2.68774,-10.05475 5.02737,-1.3439 1.34389,5.02737 5.02739,-1.34391 z" class="ddf f02 e04 w00 d00"/><path d="m 170.92041,73.766543 7.54846,-7.165416 7.16541,7.548455 -3.77422,3.582708 -3.58271,-3.774224 -3.77421,3.582701 z" class="ddf f01 e04 w00 d00"/><text xml:space="preserve" x="174.55988" y="61.949242" class="ddf s01 f01 e04 w00 d00"><tspan x="174.55988" y="61.949242" class="ddf s01 f01 e04 w00 d00">Z</tspan></text><path d="m 177.76284,118.08474 49.62011,4.67924" class="ddf f04 e03 w00 d00"/><path d="M 178.47132,116.76784 178.24154,72.58329" class="ddf f04 e01 w00 d00"/><text xml:space="preserve" x="156.67705" y="115.74789" class="ddf s00 f06 e04 w00 d00"><tspan x="156.67705" y="115.74789" class="ddf s00 f06 e04 w00 d00">O</tspan></text><circle cx="178.58162" cy="117.15391" r="3.7527339" class="ddf f00 e06 w02 d00"/><circle cx="3.0253267" cy="-211.28683" r="3.7527339" transform="rotate(114.51876)" class="ddf f00 e06 w02 d00"/><path d="M 177.93788,118.35362 191.03322,90.221303" class="ddf f04 e00 w01 d01"/></g><g transform="translate(-1.2558692,-14.29091)"><text xml:space="preserve" x="352.68491" y="95.602562" class="ddf s01 f03 e04 w00 d00"><tspan x="352.68491" y="95.602562" class="ddf s01 f03 e04 w00 d00">X</tspan></text><text xml:space="preserve" x="305.69238" y="88.096336" class="ddf s00 f06 e04 w00 d00"><tspan x="305.69238" y="88.096336" class="ddf s00 f06 e04 w00 d00">p</tspan></text><text xml:space="preserve" x="263.90863" y="70.43399" class="ddf s01 f01 e04 w00 d00"><tspan x="263.90863" y="70.43399" class="ddf s01 f01 e04 w00 d00">Z</tspan></text><text xml:space="preserve" x="262.43857" y="177.82043" class="ddf s01 f02 e04 w00 d00"><tspan x="262.43857" y="177.82043" class="ddf s01 f02 e04 w00 d00">Y</tspan></text><g transform="rotate(-121.56169,206.01584,24.644811)" class="ddf"><path d="m 66.910604,88.593486 c -4.66766,-1.64531 -7.72265,-4.61439 -7.55861,-7.93126 0.2433,-4.91932 7.47522,-8.74081 16.15296,-8.53552 8.67775,0.20529 15.51519,4.35962 15.2719,9.27894 -0.18531,3.74678 -4.42475,6.8567 -10.26932,8.03565" class="ddf f04 e05 w01"/><path d="m 67.267094,84.870076 1.99129,4.92312 -4.92311,1.9913 -0.99566,-2.46157 2.46156,-0.99564 -0.99564,-2.46156 z" class="ddf f05 e04 w00 d00"/></g><path d="m 271.88576,161.23751 26.0579,-42.23245" class="ddf f04 e02 w00 d00"/><path d="m 338.82819,90.0733 9.79628,2.80899 -2.80899,9.79629 -4.89815,-1.40449 1.40451,-4.89814 -4.89814,-1.40449 z" class="ddf f03 e04 w00 d00"/><path d="m 280.22277,161.86018 -10.05477,2.68776 -2.68774,-10.05475 5.02737,-1.3439 1.34389,5.02737 5.02739,-1.34391 z" class="ddf f02 e04 w00 d00"/><path d="m 269.13537,82.872552 2.61692,-10.073439 10.07343,2.616917 -1.30845,5.036714 -5.03672,-1.308453 -1.30845,5.036703 z" class="ddf f01 e04 w00 d00"/><path d="M 299.17475,117.95871 343.76239,95.68782" class="ddf f04 e03 w00 d00"/><path d="M 299.07959,116.46636 275.51703,79.088114" class="ddf f04 e01 w00 d00"/><text xml:space="preserve" x="274.42068" y="122.37427" class="ddf s00 f06 e04 w00 d00"><tspan x="274.42068" y="122.37427" class="ddf s00 f06 e04 w00 d00">O</tspan></text><circle cx="192.34677" cy="257.40387" r="3.7527339" transform="rotate(-31.928613)" class="ddf f00 e06 w02 d00"/><circle cx="124.91589" cy="-282.01324" r="3.7527339" transform="rotate(82.590147)" class="ddf f00 e06 w02 d00"/><path d="m 299.46551,118.09434 -3.764,-30.80175" class="ddf f04 e00 w01 d01"/></g><g transform="translate(0,-14.29091)"><text xml:space="preserve" x="417.37994" y="83.914444" class="ddf s00 f06 e04 w00 d00"><tspan x="417.37994" y="83.914444" class="ddf s00 f06 e04 w00 d00">p</tspan></text><text xml:space="preserve" x="378.12216" y="104.40123" class="ddf s01 f01 e04 w00 d00"><tspan x="378.12216" y="104.40123" class="ddf s01 f01 e04 w00 d00">Z</tspan></text><text xml:space="preserve" x="444.19659" y="187.81013" class="ddf s01 f02 e04 w00 d00"><tspan x="444.19659" y="187.81013" class="ddf s01 f02 e04 w00 d00">Y</tspan></text><text xml:space="preserve" x="420.55377" y="135.89938" class="ddf s00 f06 e04 w00 d00"><tspan x="420.55377" y="135.89938" class="ddf s00 f06 e04 w00 d00">O</tspan></text><text xml:space="preserve" x="494.71909" y="95.602562" class="ddf s01 f03 e04 w00 d00"><tspan x="494.71909" y="95.602562" class="ddf s01 f03 e04 w00 d00">X</tspan></text><path d="m 446.8002,170.02464 -7.40581,-49.0688" class="ddf f04 e02 w00 d00"/><path d="m 480.86238,90.0733 9.79628,2.80899 -2.80899,9.79629 -4.89815,-1.40449 1.40451,-4.89814 -4.89814,-1.40449 z" class="ddf f03 e04 w00 d00"/><path d="m 453.56493,165.11223 -5.93634,8.54882 -8.54879,-5.93634 2.96815,-4.27442 4.2744,2.96815 2.96816,-4.27443 z" class="ddf f02 e04 w00 d00"/><path d="m 394.05967,111.9982 -4.51264,-9.37862 9.37861,-4.512638 2.25633,4.689298 -4.68931,2.25633 2.25632,4.68929 z" class="ddf f01 e04 w00 d00"/><path d="M 441.20894,117.95871 485.79658,95.68782" class="ddf f04 e03 w00 d00"/><path d="M 438.62069,118.28437 396.4842,104.98612" class="ddf f04 e01 w00 d00"/><circle cx="21.68045" cy="454.16357" r="3.7527339" transform="rotate(-72.186375)" class="ddf f00 e06 w02 d00"/><circle cx="374.7579" cy="-208.39023" r="3.7527339" transform="rotate(42.332385)" class="ddf f00 e06 w02 d00"/><path d="M 439.96725,119.27736 417.18984,98.203563" class="ddf f04 e00 w01 d01"/></g></g></svg>