<?xml version='1.0' encoding='UTF-8'?>
<svg xmlns="http://www.w3.org/2000/svg" width="1920" height="768" viewBox="0 0 507.99999 203.2" version="1.1" style="background-color:transparent;color-scheme:light dark" xml:space="preserve"><defs><style><![CDATA[.ddf {font-variation-settings:normal;display:inline;stroke-linecap:round;stroke-linejoin:round;stroke-miterlimit:4;stroke-dashoffset:0;stroke-opacity:1;stop-color:#000000;vector-effect:none;font-style:normal;font-variant:normal;font-weight:normal;font-stretch:normal;font-size:16.2278px;line-height:normal;font-family:Arial;font-variant-ligatures:normal;font-variant-caps:normal;font-variant-numeric:normal;font-variant-east-asian:normal;text-align:start;text-decoration-color:#000000;writing-mode:lr-tb;direction:ltr;text-anchor:start;stop-opacity:1;font-variant-position:normal;font-variant-alternates:normal;text-indent:0;text-decoration-line:none;text-decoration-style:solid;letter-spacing:normal;word-spacing:normal;text-transform:none;text-orientation:mixed;dominant-baseline:auto;baseline-shift:baseline;white-space:normal;} .dn {display:none}  .w00 {stroke-width:3} .w01 {stroke-width:1} .w02 {stroke-width:2} .a00 {fill-opacity:0.2} .a01 {fill-opacity:1} .s00 {font-size:16px} .e00 {stroke:#ff45ff} .e01 {stroke:#0045ff} .e02 {stroke:#45ffff} .e03 {stroke:#00ff45} .e04 {stroke:#ff4500} .e05 {stroke:none} .e06 {stroke:#777777} .f00 {fill:#ff45ff} .f01 {fill:#bebebe} .f02 {fill:#0045ff} .f03 {fill:#45ffff} .f04 {fill:#00ff45} .f05 {fill:#ff4500} .f06 {fill:none} .f07 {fill:#777777} .d00 {stroke-dasharray:none} .d01 {stroke-dasharray:1,3}]]></style></defs><g><ellipse cx="123.31567" cy="60.495056" rx="41.01791" ry="69.592178" transform="rotate(17.062709)" class="ddf f07 a00 e06 w02 d00"/><path d="M 98.343586,76.342047 C 88.344498,80.188362 82.998937,93.798435 90.436679,104.21333" class="ddf f06 a01 e06 w00 d00"/><ellipse cx="188.07051" cy="55.350391" rx="39.25322" ry="70.118042" transform="matrix(0.95057518,0.3104945,-0.2771119,0.96083765,0,0)" class="ddf f06 a01 e06 w01 d01"/><path d="m 158.56484,103.17548 c 2.79615,-4.08358 6.45412,-6.267079 9.6158,-5.251064 4.68917,1.506861 6.51099,9.480904 4.06914,17.810534 -2.44185,8.32963 -8.22268,13.86055 -12.91185,12.35369 -3.57148,-1.1477 -5.4796,-6.04704 -5.10742,-11.99771" class="ddf f06 e06 w01"/><path d="M 102.45212,94.148391 92.351986,34.970636" class="ddf f06 a01 e04 w00 d00"/><path d="m 221.67021,120.7384 6.90091,12.15711 -12.1571,6.90092 -3.45048,-6.07857 6.07856,-3.45045 -3.45045,-6.07856 z" class="ddf f02 a01 e05 w00 d00"/><path d="m 162.06949,104.4825 -5.27056,0.65077 -0.65078,-5.270555 2.63529,-0.325392 0.32538,2.635277 2.63528,-0.32538 z" class="ddf f07 a01 e05 w00 d00"/><text xml:space="preserve" x="232.82855" y="142.03941" class="ddf f02 a01 e05 w00 d00"><tspan x="232.82855" y="142.03941" class="ddf f02 a01 e05 w00 d00">axis</tspan></text><text xml:space="preserve" x="83.296631" y="26.543051" class="ddf f05 a01 e05 w00 d00"><tspan x="83.296631" y="26.543051" class="ddf f05 a01 e05 w00 d00">u</tspan></text><text xml:space="preserve" x="152.8499" y="37.742352" class="ddf f03 a01 e05 w00 d00"><tspan x="152.8499" y="37.742352" class="ddf f03 a01 w00">p</tspan></text><text xml:space="preserve" x="11.454238" y="82.474937" class="ddf f07 a01 e05 w00 d00"><tspan x="11.454238" y="82.474937" class="ddf f07 a01 w00">angle</tspan></text><text xml:space="preserve" x="137.78288" y="167.05391" class="ddf f00 a01 e05 w00 d00"><tspan x="137.78288" y="167.05391" class="ddf f00 a01 w00">q</tspan></text><text xml:space="preserve" x="43.283485" y="155.08978" class="ddf f04 a01 e05 w00 d00"><tspan x="43.283485" y="155.08978" class="ddf f04 a01 e05 w00 d00">v</tspan></text><path d="M 101.61909,92.806937 62.242567,138.5593" class="ddf f06 a01 e03 w00 d00"/><path d="M 153.08421,49.818781 92.816122,34.11617" class="ddf f06 a01 e02 w01 d01"/><path d="M 125.4857,163.70927 58.403886,144.10732" class="ddf f06 a01 e00 w01 d01"/><path d="m 69.453983,143.09885 -11.831517,1.37627 -1.376227,-11.83153 5.915742,-0.68814 0.688152,5.91576 5.915754,-0.68815 z" class="ddf f04 a01 e05 w00 d00"/><path d="m 84.059135,44.641934 7.763923,-11.980842 11.980832,7.763924 -3.881957,5.990416 -5.990416,-3.881956 -3.881956,5.990416 z" class="ddf f05 a01 e05 w00 d00"/><path d="M 102.09894,93.790411 217.73691,129.56703" class="ddf f06 a01 e01 w00 d00"/><path d="M 126.87223,161.23803 C 118.70527,145.9998 118.44369,124.76788 125.76292,99.389714 132.08198,77.47945 141.78544,62.17568 154.30495,52.801662" class="ddf f06 e06 w00 d00"/><path d="m 102.19479,91.767001 49.66749,-37.74587" class="ddf f06 a01 e02 w00 d00"/><path d="m 140.63173,49.348206 13.9005,3.255043 -3.25505,13.900474 -6.95024,-1.627508 1.62753,-6.950244 -6.95024,-1.627521 z" class="ddf f03 a01 e05 w00 d00"/><circle cx="-107.20662" cy="125.40363" r="4.2948442" transform="rotate(-112.75965)" class="ddf f06 a01 e02 w02 d00"/><path d="m 100.91911,92.344599 22.75934,60.106521" class="ddf f06 a01 e00 w00 d00"/><path d="m 132.78467,147.74189 -6.21589,12.8523 -12.85229,-6.2159 3.10793,-6.42614 6.42615,3.10795 3.10795,-6.42616 z" class="ddf f00 a01 e05 w00 d00"/><circle cx="-201.83357" cy="55.333385" r="4.2948442" transform="rotate(-112.75965)" class="ddf f06 a01 e00 w02 d00"/><circle cx="-124.80421" cy="57.585117" r="4.2948442" transform="rotate(-112.75965)" class="ddf f01 a01 e06 w02 d00"/><path d="m 95.227992,103.30729 9.797448,3.42257 6.47454,-8.214618" class="ddf f06 a01 e06 w01 d00"/><path d="m 102.06136,79.668715 9.08483,1.981435 1.38795,13.120634" class="ddf f06 a01 e06 w01 d00"/></g></svg>